<?xml version="1.0" encoding="UTF-8" standalone="no"?>
<!DOCTYPE svg PUBLIC "-//W3C//DTD SVG 1.1//EN"
 "http://www.w3.org/Graphics/SVG/1.1/DTD/svg11.dtd">
<!-- Generated by graphviz version 2.38.0 (20140413.2041)
 -->
<!-- Title: src/FitnessFunctions/NumJoinFitnessFunction.cpp Pages: 1 -->
<svg width="476pt" height="173pt"
 viewBox="0.00 0.00 475.50 173.00" xmlns="http://www.w3.org/2000/svg" xmlns:xlink="http://www.w3.org/1999/xlink">
<g id="graph0" class="graph" transform="scale(1 1) rotate(0) translate(4 169)">
<title>src/FitnessFunctions/NumJoinFitnessFunction.cpp</title>
<polygon fill="white" stroke="none" points="-4,4 -4,-169 471.5,-169 471.5,4 -4,4"/>
<!-- Node1 -->
<g id="node1" class="node"><title>Node1</title>
<g id="a_node1"><a xlink:title=" ">
<polygon fill="#bfbfbf" stroke="black" points="218.5,-134.5 218.5,-164.5 364.5,-164.5 364.5,-134.5 218.5,-134.5"/>
<text text-anchor="start" x="226.5" y="-152.5" font-family="Helvetica,sans-Serif" font-size="10.00">src/FitnessFunctions</text>
<text text-anchor="middle" x="291.5" y="-141.5" font-family="Helvetica,sans-Serif" font-size="10.00">/NumJoinFitnessFunction.cpp</text>
</a>
</g>
</g>
<!-- Node2 -->
<g id="node2" class="node"><title>Node2</title>
<g id="a_node2"><a xlink:href="$_num_join_fitness_function_8h.html" xlink:title=" ">
<polygon fill="white" stroke="black" points="9.5,-67.5 9.5,-97.5 141.5,-97.5 141.5,-67.5 9.5,-67.5"/>
<text text-anchor="start" x="17.5" y="-85.5" font-family="Helvetica,sans-Serif" font-size="10.00">FitnessFunctions/NumJoin</text>
<text text-anchor="middle" x="75.5" y="-74.5" font-family="Helvetica,sans-Serif" font-size="10.00">FitnessFunction.h</text>
</a>
</g>
</g>
<!-- Node1&#45;&gt;Node2 -->
<g id="edge1" class="edge"><title>Node1&#45;&gt;Node2</title>
<path fill="none" stroke="midnightblue" d="M244.897,-134.476C211.796,-124.515 167.171,-111.086 132.033,-100.512"/>
<polygon fill="midnightblue" stroke="midnightblue" points="132.976,-97.1411 122.392,-97.6109 130.959,-103.844 132.976,-97.1411"/>
</g>
<!-- Node4 -->
<g id="node4" class="node"><title>Node4</title>
<g id="a_node4"><a xlink:title=" ">
<polygon fill="white" stroke="#bfbfbf" points="160,-73 160,-92 297,-92 297,-73 160,-73"/>
<text text-anchor="middle" x="228.5" y="-80" font-family="Helvetica,sans-Serif" font-size="10.00">htd/ITreeDecomposition.hpp</text>
</a>
</g>
</g>
<!-- Node1&#45;&gt;Node4 -->
<g id="edge3" class="edge"><title>Node1&#45;&gt;Node4</title>
<path fill="none" stroke="midnightblue" d="M277.83,-134.396C267.91,-124.161 254.471,-110.296 244.126,-99.622"/>
<polygon fill="midnightblue" stroke="midnightblue" points="246.4,-96.9393 236.927,-92.1945 241.374,-101.811 246.4,-96.9393"/>
</g>
<!-- Node5 -->
<g id="node5" class="node"><title>Node5</title>
<g id="a_node5"><a xlink:title=" ">
<polygon fill="white" stroke="#bfbfbf" points="315.5,-73 315.5,-92 393.5,-92 393.5,-73 315.5,-73"/>
<text text-anchor="middle" x="354.5" y="-80" font-family="Helvetica,sans-Serif" font-size="10.00">unordered_set</text>
</a>
</g>
</g>
<!-- Node1&#45;&gt;Node5 -->
<g id="edge4" class="edge"><title>Node1&#45;&gt;Node5</title>
<path fill="none" stroke="midnightblue" d="M305.17,-134.396C315.09,-124.161 328.529,-110.296 338.874,-99.622"/>
<polygon fill="midnightblue" stroke="midnightblue" points="341.626,-101.811 346.073,-92.1945 336.6,-96.9393 341.626,-101.811"/>
</g>
<!-- Node6 -->
<g id="node6" class="node"><title>Node6</title>
<g id="a_node6"><a xlink:title=" ">
<polygon fill="white" stroke="#bfbfbf" points="411.5,-73 411.5,-92 467.5,-92 467.5,-73 411.5,-73"/>
<text text-anchor="middle" x="439.5" y="-80" font-family="Helvetica,sans-Serif" font-size="10.00">algorithm</text>
</a>
</g>
</g>
<!-- Node1&#45;&gt;Node6 -->
<g id="edge5" class="edge"><title>Node1&#45;&gt;Node6</title>
<path fill="none" stroke="midnightblue" d="M323.614,-134.396C349.582,-122.991 385.812,-107.079 410.816,-96.0976"/>
<polygon fill="midnightblue" stroke="midnightblue" points="412.382,-99.2328 420.13,-92.007 409.567,-92.8237 412.382,-99.2328"/>
</g>
<!-- Node3 -->
<g id="node3" class="node"><title>Node3</title>
<g id="a_node3"><a xlink:title=" ">
<polygon fill="white" stroke="#bfbfbf" points="0,-0.5 0,-30.5 151,-30.5 151,-0.5 0,-0.5"/>
<text text-anchor="start" x="8" y="-18.5" font-family="Helvetica,sans-Serif" font-size="10.00">htd/ITreeDecompositionFitness</text>
<text text-anchor="middle" x="75.5" y="-7.5" font-family="Helvetica,sans-Serif" font-size="10.00">Function.hpp</text>
</a>
</g>
</g>
<!-- Node2&#45;&gt;Node3 -->
<g id="edge2" class="edge"><title>Node2&#45;&gt;Node3</title>
<path fill="none" stroke="midnightblue" d="M75.5,-67.396C75.5,-59.6448 75.5,-49.8122 75.5,-40.8601"/>
<polygon fill="midnightblue" stroke="midnightblue" points="79.0001,-40.5765 75.5,-30.5765 72.0001,-40.5765 79.0001,-40.5765"/>
</g>
</g>
</svg>
