<?xml version="1.0" encoding="UTF-8" standalone="no"?>
<!DOCTYPE svg PUBLIC "-//W3C//DTD SVG 1.1//EN"
 "http://www.w3.org/Graphics/SVG/1.1/DTD/svg11.dtd">
<!-- Generated by graphviz version 2.38.0 (20140413.2041)
 -->
<!-- Title: include/FitnessFunctions/WidthCutSetFitnessFunction.h Pages: 1 -->
<svg width="264pt" height="106pt"
 viewBox="0.00 0.00 263.50 106.00" xmlns="http://www.w3.org/2000/svg" xmlns:xlink="http://www.w3.org/1999/xlink">
<g id="graph0" class="graph" transform="scale(1 1) rotate(0) translate(4 102)">
<title>include/FitnessFunctions/WidthCutSetFitnessFunction.h</title>
<polygon fill="white" stroke="none" points="-4,4 -4,-102 259.5,-102 259.5,4 -4,4"/>
<!-- Node1 -->
<g id="node1" class="node"><title>Node1</title>
<g id="a_node1"><a xlink:title=" ">
<polygon fill="#bfbfbf" stroke="black" points="73.5,-67.5 73.5,-97.5 226.5,-97.5 226.5,-67.5 73.5,-67.5"/>
<text text-anchor="start" x="81.5" y="-85.5" font-family="Helvetica,sans-Serif" font-size="10.00">include/FitnessFunctions</text>
<text text-anchor="middle" x="150" y="-74.5" font-family="Helvetica,sans-Serif" font-size="10.00">/WidthCutSetFitnessFunction.h</text>
</a>
</g>
</g>
<!-- Node2 -->
<g id="node2" class="node"><title>Node2</title>
<g id="a_node2"><a xlink:href="$_width_cut_set_fitness_function_8cpp.html" xlink:title=" ">
<polygon fill="white" stroke="black" points="0,-0.5 0,-30.5 164,-30.5 164,-0.5 0,-0.5"/>
<text text-anchor="start" x="8" y="-18.5" font-family="Helvetica,sans-Serif" font-size="10.00">src/FitnessFunctions</text>
<text text-anchor="middle" x="82" y="-7.5" font-family="Helvetica,sans-Serif" font-size="10.00">/WidthCutSetFitnessFunction.cpp</text>
</a>
</g>
</g>
<!-- Node1&#45;&gt;Node2 -->
<g id="edge1" class="edge"><title>Node1&#45;&gt;Node2</title>
<path fill="none" stroke="midnightblue" d="M127.834,-60.3115C117.633,-50.5612 105.809,-39.259 96.7262,-30.5765"/>
<polygon fill="midnightblue" stroke="midnightblue" points="125.598,-63.0162 135.245,-67.396 130.435,-57.9561 125.598,-63.0162"/>
</g>
<!-- Node3 -->
<g id="node3" class="node"><title>Node3</title>
<g id="a_node3"><a xlink:href="$main_8cpp.html" xlink:title=" ">
<polygon fill="white" stroke="black" points="182.5,-6 182.5,-25 255.5,-25 255.5,-6 182.5,-6"/>
<text text-anchor="middle" x="219" y="-13" font-family="Helvetica,sans-Serif" font-size="10.00">src/main.cpp</text>
</a>
</g>
</g>
<!-- Node1&#45;&gt;Node3 -->
<g id="edge2" class="edge"><title>Node1&#45;&gt;Node3</title>
<path fill="none" stroke="midnightblue" d="M172.467,-60.335C185.136,-48.401 200.279,-34.1359 209.77,-25.1945"/>
<polygon fill="midnightblue" stroke="midnightblue" points="169.851,-57.9914 164.972,-67.396 174.651,-63.0866 169.851,-57.9914"/>
</g>
</g>
</svg>
