<?xml version="1.0" encoding="UTF-8" standalone="no"?>
<!DOCTYPE svg PUBLIC "-//W3C//DTD SVG 1.1//EN"
 "http://www.w3.org/Graphics/SVG/1.1/DTD/svg11.dtd">
<!-- Generated by graphviz version 2.38.0 (20140413.2041)
 -->
<!-- Title: gpusat::Graphoutput Pages: 1 -->
<svg width="185pt" height="139pt"
 viewBox="0.00 0.00 184.50 139.00" xmlns="http://www.w3.org/2000/svg" xmlns:xlink="http://www.w3.org/1999/xlink">
<g id="graph0" class="graph" transform="scale(1 1) rotate(0) translate(4 135)">
<title>gpusat::Graphoutput</title>
<polygon fill="white" stroke="none" points="-4,4 -4,-135 180.5,-135 180.5,4 -4,4"/>
<!-- Node1 -->
<g id="node1" class="node"><title>Node1</title>
<g id="a_node1"><a xlink:title=" ">
<polygon fill="#bfbfbf" stroke="black" points="27,-0.5 27,-19.5 132,-19.5 132,-0.5 27,-0.5"/>
<text text-anchor="middle" x="79.5" y="-7.5" font-family="Helvetica,sans-Serif" font-size="10.00">gpusat::Graphoutput</text>
</a>
</g>
</g>
<!-- Node2 -->
<g id="node2" class="node"><title>Node2</title>
<g id="a_node2"><a xlink:title=" ">
<polygon fill="white" stroke="#bfbfbf" points="0,-111.5 0,-130.5 81,-130.5 81,-111.5 0,-111.5"/>
<text text-anchor="middle" x="40.5" y="-118.5" font-family="Helvetica,sans-Serif" font-size="10.00">static const int</text>
</a>
</g>
</g>
<!-- Node2&#45;&gt;Node1 -->
<g id="edge1" class="edge"><title>Node2&#45;&gt;Node1</title>
<path fill="none" stroke="#9a32cd" stroke-dasharray="5,2" d="M39.5909,-100.847C39.5511,-83.5268 41.4881,-57.7849 51.5,-38 55.1589,-30.7695 61.5399,-24.3849 67.2871,-19.642"/>
<polygon fill="#9a32cd" stroke="#9a32cd" points="36.104,-101.408 39.8593,-111.315 43.1017,-101.228 36.104,-101.408"/>
<text text-anchor="middle" x="74.5" y="-68.5" font-family="Helvetica,sans-Serif" font-size="10.00"> baseIdSol</text>
<text text-anchor="middle" x="74.5" y="-57.5" font-family="Helvetica,sans-Serif" font-size="10.00">baseIdJoin</text>
</g>
<!-- Node3 -->
<g id="node3" class="node"><title>Node3</title>
<g id="a_node3"><a xlink:title=" ">
<polygon fill="white" stroke="#bfbfbf" points="99,-111.5 99,-130.5 140,-130.5 140,-111.5 99,-111.5"/>
<text text-anchor="middle" x="119.5" y="-118.5" font-family="Helvetica,sans-Serif" font-size="10.00">string</text>
</a>
</g>
</g>
<!-- Node3&#45;&gt;Node1 -->
<g id="edge2" class="edge"><title>Node3&#45;&gt;Node1</title>
<path fill="none" stroke="#9a32cd" stroke-dasharray="5,2" d="M116.182,-100.753C112.822,-83.7393 106.785,-58.5112 97.5,-38 94.5263,-31.4306 90.0263,-24.6806 86.2697,-19.5729"/>
<polygon fill="#9a32cd" stroke="#9a32cd" points="112.827,-101.863 118.087,-111.06 119.711,-100.591 112.827,-101.863"/>
<text text-anchor="middle" x="145" y="-85" font-family="Helvetica,sans-Serif" font-size="10.00"> primaledge</text>
<text text-anchor="middle" x="145" y="-74" font-family="Helvetica,sans-Serif" font-size="10.00">dualedge</text>
<text text-anchor="middle" x="145" y="-63" font-family="Helvetica,sans-Serif" font-size="10.00">connectbag</text>
<text text-anchor="middle" x="145" y="-52" font-family="Helvetica,sans-Serif" font-size="10.00">incidenceedge</text>
<text text-anchor="middle" x="145" y="-41" font-family="Helvetica,sans-Serif" font-size="10.00">inbag</text>
</g>
</g>
</svg>
