<?xml version="1.0" encoding="UTF-8" standalone="no"?>
<!DOCTYPE svg PUBLIC "-//W3C//DTD SVG 1.1//EN"
 "http://www.w3.org/Graphics/SVG/1.1/DTD/svg11.dtd">
<!-- Generated by graphviz version 2.38.0 (20140413.2041)
 -->
<!-- Title: gpusat::Solver Pages: 1 -->
<svg width="496pt" height="352pt"
 viewBox="0.00 0.00 496.00 352.00" xmlns="http://www.w3.org/2000/svg" xmlns:xlink="http://www.w3.org/1999/xlink">
<g id="graph0" class="graph" transform="scale(1 1) rotate(0) translate(4 348)">
<title>gpusat::Solver</title>
<polygon fill="white" stroke="none" points="-4,4 -4,-348 492,-348 492,4 -4,4"/>
<!-- Node1 -->
<g id="node1" class="node"><title>Node1</title>
<g id="a_node1"><a xlink:title=" ">
<polygon fill="#bfbfbf" stroke="black" points="410,-132.5 410,-151.5 488,-151.5 488,-132.5 410,-132.5"/>
<text text-anchor="middle" x="449" y="-139.5" font-family="Helvetica,sans-Serif" font-size="10.00">gpusat::Solver</text>
</a>
</g>
</g>
<!-- Node2 -->
<g id="node2" class="node"><title>Node2</title>
<g id="a_node2"><a xlink:title=" ">
<polygon fill="white" stroke="#bfbfbf" points="203.5,-320.5 203.5,-339.5 263.5,-339.5 263.5,-320.5 203.5,-320.5"/>
<text text-anchor="middle" x="233.5" y="-327.5" font-family="Helvetica,sans-Serif" font-size="10.00">Context &amp;</text>
</a>
</g>
</g>
<!-- Node2&#45;&gt;Node1 -->
<g id="edge1" class="edge"><title>Node2&#45;&gt;Node1</title>
<path fill="none" stroke="#9a32cd" stroke-dasharray="5,2" d="M274.007,-334.012C308.968,-335.342 359.366,-331.532 392,-304 439.992,-263.512 446.915,-179.713 447.866,-151.504"/>
<polygon fill="#9a32cd" stroke="#9a32cd" points="273.864,-330.499 263.69,-333.454 273.486,-337.489 273.864,-330.499"/>
<text text-anchor="middle" x="348.5" y="-336" font-family="Helvetica,sans-Serif" font-size="10.00"> context</text>
</g>
<!-- Node3 -->
<g id="node3" class="node"><title>Node3</title>
<g id="a_node3"><a xlink:href="$classgpusat_1_1_graphoutput.html" xlink:title=" ">
<polygon fill="white" stroke="black" points="181,-282.5 181,-301.5 286,-301.5 286,-282.5 181,-282.5"/>
<text text-anchor="middle" x="233.5" y="-289.5" font-family="Helvetica,sans-Serif" font-size="10.00">gpusat::Graphoutput</text>
</a>
</g>
</g>
<!-- Node3&#45;&gt;Node1 -->
<g id="edge2" class="edge"><title>Node3&#45;&gt;Node1</title>
<path fill="none" stroke="#9a32cd" stroke-dasharray="5,2" d="M296.605,-289.897C333.976,-287.471 377.111,-282.246 392,-271 431.939,-240.834 443.823,-176.259 446.973,-151.728"/>
<polygon fill="#9a32cd" stroke="#9a32cd" points="296.022,-286.426 286.246,-290.51 296.435,-293.413 296.022,-286.426"/>
<text text-anchor="middle" x="348.5" y="-292" font-family="Helvetica,sans-Serif" font-size="10.00"> graphoutput</text>
</g>
<!-- Node4 -->
<g id="node4" class="node"><title>Node4</title>
<g id="a_node4"><a xlink:title=" ">
<polygon fill="white" stroke="#bfbfbf" points="0,-321.5 0,-340.5 81,-340.5 81,-321.5 0,-321.5"/>
<text text-anchor="middle" x="40.5" y="-328.5" font-family="Helvetica,sans-Serif" font-size="10.00">static const int</text>
</a>
</g>
</g>
<!-- Node4&#45;&gt;Node3 -->
<g id="edge3" class="edge"><title>Node4&#45;&gt;Node3</title>
<path fill="none" stroke="#9a32cd" stroke-dasharray="5,2" d="M91.2429,-322.564C113.017,-318.705 138.831,-313.904 162,-309 172.593,-306.758 184.025,-304.103 194.537,-301.567"/>
<polygon fill="#9a32cd" stroke="#9a32cd" points="90.472,-319.146 81.2285,-324.323 91.6833,-326.04 90.472,-319.146"/>
<text text-anchor="middle" x="130.5" y="-335" font-family="Helvetica,sans-Serif" font-size="10.00"> baseIdSol</text>
<text text-anchor="middle" x="130.5" y="-324" font-family="Helvetica,sans-Serif" font-size="10.00">baseIdJoin</text>
</g>
<!-- Node5 -->
<g id="node5" class="node"><title>Node5</title>
<g id="a_node5"><a xlink:title=" ">
<polygon fill="white" stroke="#bfbfbf" points="20,-243.5 20,-262.5 61,-262.5 61,-243.5 20,-243.5"/>
<text text-anchor="middle" x="40.5" y="-250.5" font-family="Helvetica,sans-Serif" font-size="10.00">string</text>
</a>
</g>
</g>
<!-- Node5&#45;&gt;Node3 -->
<g id="edge4" class="edge"><title>Node5&#45;&gt;Node3</title>
<path fill="none" stroke="#9a32cd" stroke-dasharray="5,2" d="M71.3218,-247.525C96.0699,-244.097 131.946,-241.726 162,-250 184.802,-256.277 207.676,-272.073 220.941,-282.404"/>
<polygon fill="#9a32cd" stroke="#9a32cd" points="70.4767,-244.114 61.1211,-249.086 71.5354,-251.033 70.4767,-244.114"/>
<text text-anchor="middle" x="130.5" y="-297" font-family="Helvetica,sans-Serif" font-size="10.00"> primaledge</text>
<text text-anchor="middle" x="130.5" y="-286" font-family="Helvetica,sans-Serif" font-size="10.00">dualedge</text>
<text text-anchor="middle" x="130.5" y="-275" font-family="Helvetica,sans-Serif" font-size="10.00">connectbag</text>
<text text-anchor="middle" x="130.5" y="-264" font-family="Helvetica,sans-Serif" font-size="10.00">incidenceedge</text>
<text text-anchor="middle" x="130.5" y="-253" font-family="Helvetica,sans-Serif" font-size="10.00">inbag</text>
</g>
<!-- Node6 -->
<g id="node6" class="node"><title>Node6</title>
<g id="a_node6"><a xlink:title=" ">
<polygon fill="white" stroke="#bfbfbf" points="210,-190.5 210,-209.5 257,-209.5 257,-190.5 210,-190.5"/>
<text text-anchor="middle" x="233.5" y="-197.5" font-family="Helvetica,sans-Serif" font-size="10.00">cl_long</text>
</a>
</g>
</g>
<!-- Node6&#45;&gt;Node1 -->
<g id="edge5" class="edge"><title>Node6&#45;&gt;Node1</title>
<path fill="none" stroke="#9a32cd" stroke-dasharray="5,2" d="M267.402,-196.413C299.741,-192.268 350.184,-184.133 392,-170 406.005,-165.267 420.934,-157.66 431.853,-151.569"/>
<polygon fill="#9a32cd" stroke="#9a32cd" points="266.667,-192.977 257.168,-197.669 267.52,-199.925 266.667,-192.977"/>
<text text-anchor="middle" x="348.5" y="-259" font-family="Helvetica,sans-Serif" font-size="10.00"> maxMemoryBuffer</text>
<text text-anchor="middle" x="348.5" y="-248" font-family="Helvetica,sans-Serif" font-size="10.00">maxTableSize</text>
<text text-anchor="middle" x="348.5" y="-237" font-family="Helvetica,sans-Serif" font-size="10.00">numJoin</text>
<text text-anchor="middle" x="348.5" y="-226" font-family="Helvetica,sans-Serif" font-size="10.00">isSat</text>
<text text-anchor="middle" x="348.5" y="-215" font-family="Helvetica,sans-Serif" font-size="10.00">maxBag</text>
<text text-anchor="middle" x="348.5" y="-204" font-family="Helvetica,sans-Serif" font-size="10.00">numIntroduceForget</text>
<text text-anchor="middle" x="348.5" y="-193" font-family="Helvetica,sans-Serif" font-size="10.00">memorySize</text>
</g>
<!-- Node7 -->
<g id="node7" class="node"><title>Node7</title>
<g id="a_node7"><a xlink:title=" ">
<polygon fill="white" stroke="#bfbfbf" points="202,-152.5 202,-171.5 265,-171.5 265,-152.5 202,-152.5"/>
<text text-anchor="middle" x="233.5" y="-159.5" font-family="Helvetica,sans-Serif" font-size="10.00">Program &amp;</text>
</a>
</g>
</g>
<!-- Node7&#45;&gt;Node1 -->
<g id="edge6" class="edge"><title>Node7&#45;&gt;Node1</title>
<path fill="none" stroke="#9a32cd" stroke-dasharray="5,2" d="M275.497,-158.16C314.295,-154.525 372.075,-149.112 409.894,-145.57"/>
<polygon fill="#9a32cd" stroke="#9a32cd" points="274.719,-154.717 265.089,-159.134 275.372,-161.686 274.719,-154.717"/>
<text text-anchor="middle" x="348.5" y="-158" font-family="Helvetica,sans-Serif" font-size="10.00"> program</text>
</g>
<!-- Node8 -->
<g id="node8" class="node"><title>Node8</title>
<g id="a_node8"><a xlink:title=" ">
<polygon fill="white" stroke="#bfbfbf" points="196,-114.5 196,-133.5 271,-133.5 271,-114.5 196,-114.5"/>
<text text-anchor="middle" x="233.5" y="-121.5" font-family="Helvetica,sans-Serif" font-size="10.00">dataStructure</text>
</a>
</g>
</g>
<!-- Node8&#45;&gt;Node1 -->
<g id="edge7" class="edge"><title>Node8&#45;&gt;Node1</title>
<path fill="none" stroke="#9a32cd" stroke-dasharray="5,2" d="M281.522,-121.931C312.953,-121.274 355.141,-121.791 392,-127 400.471,-128.197 409.491,-130.253 417.76,-132.465"/>
<polygon fill="#9a32cd" stroke="#9a32cd" points="281.205,-118.438 271.298,-122.194 281.385,-125.435 281.205,-118.438"/>
<text text-anchor="middle" x="348.5" y="-130" font-family="Helvetica,sans-Serif" font-size="10.00"> solutionType</text>
</g>
<!-- Node9 -->
<g id="node9" class="node"><title>Node9</title>
<g id="a_node9"><a xlink:title=" ">
<polygon fill="white" stroke="#bfbfbf" points="216,-76.5 216,-95.5 251,-95.5 251,-76.5 216,-76.5"/>
<text text-anchor="middle" x="233.5" y="-83.5" font-family="Helvetica,sans-Serif" font-size="10.00">bool</text>
</a>
</g>
</g>
<!-- Node9&#45;&gt;Node1 -->
<g id="edge8" class="edge"><title>Node9&#45;&gt;Node1</title>
<path fill="none" stroke="#9a32cd" stroke-dasharray="5,2" d="M261.471,-86.1549C293.504,-87.1113 348.119,-91.2019 392,-107 408.396,-112.903 425.064,-124.135 435.901,-132.287"/>
<polygon fill="#9a32cd" stroke="#9a32cd" points="261.21,-82.6486 251.137,-85.9332 261.06,-89.647 261.21,-82.6486"/>
<text text-anchor="middle" x="348.5" y="-110" font-family="Helvetica,sans-Serif" font-size="10.00"> verbose</text>
</g>
<!-- Node10 -->
<g id="node10" class="node"><title>Node10</title>
<g id="a_node10"><a xlink:title=" ">
<polygon fill="white" stroke="#bfbfbf" points="184,-38.5 184,-57.5 283,-57.5 283,-38.5 184,-38.5"/>
<text text-anchor="middle" x="233.5" y="-45.5" font-family="Helvetica,sans-Serif" font-size="10.00">CommandQueue &amp;</text>
</a>
</g>
</g>
<!-- Node10&#45;&gt;Node1 -->
<g id="edge9" class="edge"><title>Node10&#45;&gt;Node1</title>
<path fill="none" stroke="#9a32cd" stroke-dasharray="5,2" d="M293.509,-48.4756C324.583,-51.0225 362.295,-57.906 392,-75 416.177,-88.913 434.529,-117.438 442.94,-132.383"/>
<polygon fill="#9a32cd" stroke="#9a32cd" points="293.463,-44.9642 283.246,-47.7696 292.983,-51.9477 293.463,-44.9642"/>
<text text-anchor="middle" x="348.5" y="-78" font-family="Helvetica,sans-Serif" font-size="10.00"> queue</text>
</g>
<!-- Node11 -->
<g id="node11" class="node"><title>Node11</title>
<g id="a_node11"><a xlink:href="$classgpusat_1_1_visualization.html" xlink:title=" ">
<polygon fill="white" stroke="black" points="180,-0.5 180,-19.5 287,-19.5 287,-0.5 180,-0.5"/>
<text text-anchor="middle" x="233.5" y="-7.5" font-family="Helvetica,sans-Serif" font-size="10.00">gpusat::Visualization</text>
</a>
</g>
</g>
<!-- Node11&#45;&gt;Node1 -->
<g id="edge10" class="edge"><title>Node11&#45;&gt;Node1</title>
<path fill="none" stroke="#9a32cd" stroke-dasharray="5,2" d="M297.477,-7.24098C328.489,-8.86613 364.931,-15.5513 392,-35 426.055,-59.4679 441.079,-111.012 446.022,-132.392"/>
<polygon fill="#9a32cd" stroke="#9a32cd" points="297.308,-3.73279 287.189,-6.8727 297.057,-10.7283 297.308,-3.73279"/>
<text text-anchor="middle" x="348.5" y="-38" font-family="Helvetica,sans-Serif" font-size="10.00"> visualization</text>
</g>
</g>
</svg>
