<?xml version="1.0" encoding="UTF-8" standalone="no"?>
<!DOCTYPE svg PUBLIC "-//W3C//DTD SVG 1.1//EN"
 "http://www.w3.org/Graphics/SVG/1.1/DTD/svg11.dtd">
<!-- Generated by graphviz version 2.38.0 (20140413.2041)
 -->
<!-- Title: gpusat::Solver::solveJoin Pages: 1 -->
<svg width="307pt" height="66pt"
 viewBox="0.00 0.00 307.00 66.00" xmlns="http://www.w3.org/2000/svg" xmlns:xlink="http://www.w3.org/1999/xlink">
<g id="graph0" class="graph" transform="scale(1 1) rotate(0) translate(4 62)">
<title>gpusat::Solver::solveJoin</title>
<polygon fill="white" stroke="none" points="-4,4 -4,-62 303,-62 303,4 -4,4"/>
<!-- Node1 -->
<g id="node1" class="node"><title>Node1</title>
<g id="a_node1"><a xlink:title=" ">
<polygon fill="#bfbfbf" stroke="black" points="0,-19.5 0,-38.5 123,-38.5 123,-19.5 0,-19.5"/>
<text text-anchor="middle" x="61.5" y="-26.5" font-family="Helvetica,sans-Serif" font-size="10.00">gpusat::Solver::solveJoin</text>
</a>
</g>
</g>
<!-- Node2 -->
<g id="node2" class="node"><title>Node2</title>
<g id="a_node2"><a xlink:href="$classgpusat_1_1_solver.html#acec22223ccb8d99855775e71031c9719" xlink:title=" ">
<polygon fill="white" stroke="black" points="166,-38.5 166,-57.5 292,-57.5 292,-38.5 166,-38.5"/>
<text text-anchor="middle" x="229" y="-45.5" font-family="Helvetica,sans-Serif" font-size="10.00">gpusat::Solver::cleanTree</text>
</a>
</g>
</g>
<!-- Node1&#45;&gt;Node2 -->
<g id="edge1" class="edge"><title>Node1&#45;&gt;Node2</title>
<path fill="none" stroke="midnightblue" d="M123.186,-35.967C133.852,-37.1914 145.045,-38.4764 155.983,-39.7322"/>
<polygon fill="midnightblue" stroke="midnightblue" points="155.6,-43.2112 165.934,-40.8746 156.399,-36.2568 155.6,-43.2112"/>
</g>
<!-- Node3 -->
<g id="node3" class="node"><title>Node3</title>
<g id="a_node3"><a xlink:href="$classgpusat_1_1_solver.html#aeb736ac16e820137d6d0898960336783" xlink:title=" ">
<polygon fill="white" stroke="black" points="159,-0.5 159,-19.5 299,-19.5 299,-0.5 159,-0.5"/>
<text text-anchor="middle" x="229" y="-7.5" font-family="Helvetica,sans-Serif" font-size="10.00">gpusat::Solver::combineTree</text>
</a>
</g>
</g>
<!-- Node1&#45;&gt;Node3 -->
<g id="edge2" class="edge"><title>Node1&#45;&gt;Node3</title>
<path fill="none" stroke="midnightblue" d="M123.186,-22.033C131.541,-21.0738 140.219,-20.0775 148.846,-19.0872"/>
<polygon fill="midnightblue" stroke="midnightblue" points="149.39,-22.5478 158.925,-17.93 148.591,-15.5935 149.39,-22.5478"/>
</g>
</g>
</svg>
