<?xml version="1.0" encoding="UTF-8" standalone="no"?>
<!DOCTYPE svg PUBLIC "-//W3C//DTD SVG 1.1//EN"
 "http://www.w3.org/Graphics/SVG/1.1/DTD/svg11.dtd">
<!-- Generated by graphviz version 2.38.0 (20140413.2041)
 -->
<!-- Title: gpusat::Solver::solveIntroduceForget Pages: 1 -->
<svg width="330pt" height="104pt"
 viewBox="0.00 0.00 330.00 104.00" xmlns="http://www.w3.org/2000/svg" xmlns:xlink="http://www.w3.org/1999/xlink">
<g id="graph0" class="graph" transform="scale(1 1) rotate(0) translate(4 100)">
<title>gpusat::Solver::solveIntroduceForget</title>
<polygon fill="white" stroke="none" points="-4,4 -4,-100 326,-100 326,4 -4,4"/>
<!-- Node1 -->
<g id="node1" class="node"><title>Node1</title>
<g id="a_node1"><a xlink:title=" ">
<polygon fill="#bfbfbf" stroke="black" points="0,-33 0,-63 146,-63 146,-33 0,-33"/>
<text text-anchor="start" x="8" y="-51" font-family="Helvetica,sans-Serif" font-size="10.00">gpusat::Solver::solveIntroduce</text>
<text text-anchor="middle" x="73" y="-40" font-family="Helvetica,sans-Serif" font-size="10.00">Forget</text>
</a>
</g>
</g>
<!-- Node2 -->
<g id="node2" class="node"><title>Node2</title>
<g id="a_node2"><a xlink:href="$classgpusat_1_1_solver.html#aeb736ac16e820137d6d0898960336783" xlink:title=" ">
<polygon fill="white" stroke="black" points="182,-76.5 182,-95.5 322,-95.5 322,-76.5 182,-76.5"/>
<text text-anchor="middle" x="252" y="-83.5" font-family="Helvetica,sans-Serif" font-size="10.00">gpusat::Solver::combineTree</text>
</a>
</g>
</g>
<!-- Node1&#45;&gt;Node2 -->
<g id="edge1" class="edge"><title>Node1&#45;&gt;Node2</title>
<path fill="none" stroke="midnightblue" d="M143.955,-63.0186C161.48,-66.781 180.02,-70.7614 196.658,-74.3334"/>
<polygon fill="midnightblue" stroke="midnightblue" points="196.234,-77.822 206.746,-76.4991 197.703,-70.9779 196.234,-77.822"/>
</g>
<!-- Node3 -->
<g id="node3" class="node"><title>Node3</title>
<g id="a_node3"><a xlink:href="$namespacegpusat.html#a1f445c345dcaf73f1835ce81473ef646" xlink:title=" ">
<polygon fill="white" stroke="black" points="204,-38.5 204,-57.5 300,-57.5 300,-38.5 204,-38.5"/>
<text text-anchor="middle" x="252" y="-45.5" font-family="Helvetica,sans-Serif" font-size="10.00">gpusat::compVars</text>
</a>
</g>
</g>
<!-- Node1&#45;&gt;Node3 -->
<g id="edge2" class="edge"><title>Node1&#45;&gt;Node3</title>
<path fill="none" stroke="midnightblue" d="M146.248,-48C162.014,-48 178.494,-48 193.59,-48"/>
<polygon fill="midnightblue" stroke="midnightblue" points="193.795,-51.5001 203.795,-48 193.795,-44.5001 193.795,-51.5001"/>
</g>
<!-- Node4 -->
<g id="node4" class="node"><title>Node4</title>
<g id="a_node4"><a xlink:href="$namespacegpusat.html#aa117816b931264c9a291041b047d0c56" xlink:title="print information for a bag in the tree decomposition">
<polygon fill="white" stroke="black" points="198.5,-0.5 198.5,-19.5 305.5,-19.5 305.5,-0.5 198.5,-0.5"/>
<text text-anchor="middle" x="252" y="-7.5" font-family="Helvetica,sans-Serif" font-size="10.00">gpusat::printbagType</text>
</a>
</g>
</g>
<!-- Node1&#45;&gt;Node4 -->
<g id="edge3" class="edge"><title>Node1&#45;&gt;Node4</title>
<path fill="none" stroke="midnightblue" d="M143.955,-32.9814C161.48,-29.219 180.02,-25.2386 196.658,-21.6666"/>
<polygon fill="midnightblue" stroke="midnightblue" points="197.703,-25.0221 206.746,-19.5009 196.234,-18.178 197.703,-25.0221"/>
</g>
</g>
</svg>
