<?xml version="1.0" encoding="UTF-8" standalone="no"?>
<!DOCTYPE svg PUBLIC "-//W3C//DTD SVG 1.1//EN"
 "http://www.w3.org/Graphics/SVG/1.1/DTD/svg11.dtd">
<!-- Generated by graphviz version 2.38.0 (20140413.2041)
 -->
<!-- Title: gpusat::BagMatrix::columns Pages: 1 -->
<svg width="431pt" height="78pt"
 viewBox="0.00 0.00 431.00 77.50" xmlns="http://www.w3.org/2000/svg" xmlns:xlink="http://www.w3.org/1999/xlink">
<g id="graph0" class="graph" transform="scale(1 1) rotate(0) translate(4 73.5)">
<title>gpusat::BagMatrix::columns</title>
<polygon fill="white" stroke="none" points="-4,4 -4,-73.5 427,-73.5 427,4 -4,4"/>
<!-- Node1 -->
<g id="node1" class="node"><title>Node1</title>
<g id="a_node1"><a xlink:title=" ">
<polygon fill="#bfbfbf" stroke="black" points="321,-22.5 321,-52.5 423,-52.5 423,-22.5 321,-22.5"/>
<text text-anchor="start" x="329" y="-40.5" font-family="Helvetica,sans-Serif" font-size="10.00">gpusat::BagMatrix::</text>
<text text-anchor="middle" x="372" y="-29.5" font-family="Helvetica,sans-Serif" font-size="10.00">columns</text>
</a>
</g>
</g>
<!-- Node2 -->
<g id="node2" class="node"><title>Node2</title>
<g id="a_node2"><a xlink:href="$namespacegpusat.html#ae780028fdecbf7e4891b55159b33f3c1" xlink:title=" ">
<polygon fill="white" stroke="black" points="189,-50 189,-69 274,-69 274,-50 189,-50"/>
<text text-anchor="middle" x="231.5" y="-57" font-family="Helvetica,sans-Serif" font-size="10.00">gpusat::solJson</text>
</a>
</g>
</g>
<!-- Node1&#45;&gt;Node2 -->
<g id="edge1" class="edge"><title>Node1&#45;&gt;Node2</title>
<path fill="none" stroke="midnightblue" d="M310.769,-47.0674C298.44,-49.0257 285.724,-51.0456 274.219,-52.8732"/>
<polygon fill="midnightblue" stroke="midnightblue" points="311.671,-50.468 320.998,-45.4425 310.573,-43.5547 311.671,-50.468"/>
</g>
<!-- Node4 -->
<g id="node4" class="node"><title>Node4</title>
<g id="a_node4"><a xlink:href="$classgpusat_1_1_visualization.html#aee01b172cd6c03b26143b1ae82193b9b" xlink:title=" ">
<polygon fill="white" stroke="black" points="178,-0.5 178,-30.5 285,-30.5 285,-0.5 178,-0.5"/>
<text text-anchor="start" x="186" y="-18.5" font-family="Helvetica,sans-Serif" font-size="10.00">gpusat::Visualization</text>
<text text-anchor="middle" x="231.5" y="-7.5" font-family="Helvetica,sans-Serif" font-size="10.00">::tdTimelineAppend</text>
</a>
</g>
</g>
<!-- Node1&#45;&gt;Node4 -->
<g id="edge3" class="edge"><title>Node1&#45;&gt;Node4</title>
<path fill="none" stroke="midnightblue" d="M311.038,-27.9753C302.449,-26.6111 293.667,-25.216 285.231,-23.8761"/>
<polygon fill="midnightblue" stroke="midnightblue" points="310.573,-31.4453 320.998,-29.5575 311.671,-24.532 310.573,-31.4453"/>
</g>
<!-- Node3 -->
<g id="node3" class="node"><title>Node3</title>
<g id="a_node3"><a xlink:href="$classgpusat_1_1_solver.html#ae0fed660431502c4ff23b011de6207ca" xlink:title="Solves the sat formula with a given decomposition.">
<polygon fill="white" stroke="black" points="0,-28 0,-47 142,-47 142,-28 0,-28"/>
<text text-anchor="middle" x="71" y="-35" font-family="Helvetica,sans-Serif" font-size="10.00">gpusat::Solver::solveProblem</text>
</a>
</g>
</g>
<!-- Node2&#45;&gt;Node3 -->
<g id="edge2" class="edge"><title>Node2&#45;&gt;Node3</title>
<path fill="none" stroke="midnightblue" d="M178.87,-52.3337C166.666,-50.6397 153.463,-48.8072 140.638,-47.0271"/>
<polygon fill="midnightblue" stroke="midnightblue" points="178.47,-55.8116 188.856,-53.7198 179.432,-48.8781 178.47,-55.8116"/>
</g>
<!-- Node4&#45;&gt;Node3 -->
<g id="edge4" class="edge"><title>Node4&#45;&gt;Node3</title>
<path fill="none" stroke="midnightblue" d="M167.795,-24.2036C158.869,-25.4424 149.651,-26.7219 140.62,-27.9754"/>
<polygon fill="midnightblue" stroke="midnightblue" points="168.298,-27.6674 177.722,-22.8257 167.336,-20.7338 168.298,-27.6674"/>
</g>
</g>
</svg>
