<?xml version="1.0" encoding="UTF-8" standalone="no"?>
<!DOCTYPE svg PUBLIC "-//W3C//DTD SVG 1.1//EN"
 "http://www.w3.org/Graphics/SVG/1.1/DTD/svg11.dtd">
<!-- Generated by graphviz version 2.38.0 (20140413.2041)
 -->
<!-- Title: gpusat::Solver::combineTree Pages: 1 -->
<svg width="508pt" height="78pt"
 viewBox="0.00 0.00 508.00 77.50" xmlns="http://www.w3.org/2000/svg" xmlns:xlink="http://www.w3.org/1999/xlink">
<g id="graph0" class="graph" transform="scale(1 1) rotate(0) translate(4 73.5)">
<title>gpusat::Solver::combineTree</title>
<polygon fill="white" stroke="none" points="-4,4 -4,-73.5 504,-73.5 504,4 -4,4"/>
<!-- Node1 -->
<g id="node1" class="node"><title>Node1</title>
<g id="a_node1"><a xlink:title=" ">
<polygon fill="#bfbfbf" stroke="black" points="360,-22.5 360,-41.5 500,-41.5 500,-22.5 360,-22.5"/>
<text text-anchor="middle" x="430" y="-29.5" font-family="Helvetica,sans-Serif" font-size="10.00">gpusat::Solver::combineTree</text>
</a>
</g>
</g>
<!-- Node2 -->
<g id="node2" class="node"><title>Node2</title>
<g id="a_node2"><a xlink:href="$classgpusat_1_1_solver.html#a40781bade0390fd7802658d5b3c545b9" xlink:title=" ">
<polygon fill="white" stroke="black" points="178,-39 178,-69 324,-69 324,-39 178,-39"/>
<text text-anchor="start" x="186" y="-57" font-family="Helvetica,sans-Serif" font-size="10.00">gpusat::Solver::solveIntroduce</text>
<text text-anchor="middle" x="251" y="-46" font-family="Helvetica,sans-Serif" font-size="10.00">Forget</text>
</a>
</g>
</g>
<!-- Node1&#45;&gt;Node2 -->
<g id="edge1" class="edge"><title>Node1&#45;&gt;Node2</title>
<path fill="none" stroke="midnightblue" d="M349.814,-41.8423C341.24,-42.9081 332.547,-43.9885 324.063,-45.043"/>
<polygon fill="midnightblue" stroke="midnightblue" points="350.315,-45.3071 359.807,-40.6003 349.451,-38.3606 350.315,-45.3071"/>
</g>
<!-- Node4 -->
<g id="node4" class="node"><title>Node4</title>
<g id="a_node4"><a xlink:href="$classgpusat_1_1_solver.html#a023194e12a492df6c89aa6d85e133875" xlink:title=" ">
<polygon fill="white" stroke="black" points="189.5,-0.5 189.5,-19.5 312.5,-19.5 312.5,-0.5 189.5,-0.5"/>
<text text-anchor="middle" x="251" y="-7.5" font-family="Helvetica,sans-Serif" font-size="10.00">gpusat::Solver::solveJoin</text>
</a>
</g>
</g>
<!-- Node1&#45;&gt;Node4 -->
<g id="edge3" class="edge"><title>Node1&#45;&gt;Node4</title>
<path fill="none" stroke="midnightblue" d="M349.835,-22.1603C337.31,-20.6035 324.532,-19.0153 312.521,-17.5224"/>
<polygon fill="midnightblue" stroke="midnightblue" points="349.451,-25.6394 359.807,-23.3997 350.315,-18.6929 349.451,-25.6394"/>
</g>
<!-- Node3 -->
<g id="node3" class="node"><title>Node3</title>
<g id="a_node3"><a xlink:href="$classgpusat_1_1_solver.html#ae0fed660431502c4ff23b011de6207ca" xlink:title="Solves the sat formula with a given decomposition.">
<polygon fill="white" stroke="black" points="0,-22.5 0,-41.5 142,-41.5 142,-22.5 0,-22.5"/>
<text text-anchor="middle" x="71" y="-29.5" font-family="Helvetica,sans-Serif" font-size="10.00">gpusat::Solver::solveProblem</text>
</a>
</g>
</g>
<!-- Node2&#45;&gt;Node3 -->
<g id="edge2" class="edge"><title>Node2&#45;&gt;Node3</title>
<path fill="none" stroke="midnightblue" d="M167.86,-43.8478C159.294,-42.7891 150.642,-41.7198 142.226,-40.6796"/>
<polygon fill="midnightblue" stroke="midnightblue" points="167.503,-47.3303 177.857,-45.0835 168.362,-40.3832 167.503,-47.3303"/>
</g>
<!-- Node4&#45;&gt;Node3 -->
<g id="edge4" class="edge"><title>Node4&#45;&gt;Node3</title>
<path fill="none" stroke="midnightblue" d="M179.174,-18.7538C167.032,-20.2544 154.42,-21.8133 142.292,-23.3122"/>
<polygon fill="midnightblue" stroke="midnightblue" points="179.745,-22.2099 189.24,-17.5096 178.887,-15.2628 179.745,-22.2099"/>
</g>
</g>
</svg>
