<?xml version="1.0" encoding="UTF-8" standalone="no"?>
<!DOCTYPE svg PUBLIC "-//W3C//DTD SVG 1.1//EN"
 "http://www.w3.org/Graphics/SVG/1.1/DTD/svg11.dtd">
<!-- Generated by graphviz version 2.38.0 (20140413.2041)
 -->
<!-- Title: gpusat::BagMatrix::rows Pages: 1 -->
<svg width="451pt" height="39pt"
 viewBox="0.00 0.00 451.00 39.00" xmlns="http://www.w3.org/2000/svg" xmlns:xlink="http://www.w3.org/1999/xlink">
<g id="graph0" class="graph" transform="scale(1 1) rotate(0) translate(4 35)">
<title>gpusat::BagMatrix::rows</title>
<polygon fill="white" stroke="none" points="-4,4 -4,-35 447,-35 447,4 -4,4"/>
<!-- Node1 -->
<g id="node1" class="node"><title>Node1</title>
<g id="a_node1"><a xlink:title=" ">
<polygon fill="#bfbfbf" stroke="black" points="321,-6 321,-25 443,-25 443,-6 321,-6"/>
<text text-anchor="middle" x="382" y="-13" font-family="Helvetica,sans-Serif" font-size="10.00">gpusat::BagMatrix::rows</text>
</a>
</g>
</g>
<!-- Node2 -->
<g id="node2" class="node"><title>Node2</title>
<g id="a_node2"><a xlink:href="$classgpusat_1_1_visualization.html#aee01b172cd6c03b26143b1ae82193b9b" xlink:title=" ">
<polygon fill="white" stroke="black" points="178,-0.5 178,-30.5 285,-30.5 285,-0.5 178,-0.5"/>
<text text-anchor="start" x="186" y="-18.5" font-family="Helvetica,sans-Serif" font-size="10.00">gpusat::Visualization</text>
<text text-anchor="middle" x="231.5" y="-7.5" font-family="Helvetica,sans-Serif" font-size="10.00">::tdTimelineAppend</text>
</a>
</g>
</g>
<!-- Node1&#45;&gt;Node2 -->
<g id="edge1" class="edge"><title>Node1&#45;&gt;Node2</title>
<path fill="none" stroke="midnightblue" d="M310.343,-15.5C301.884,-15.5 293.364,-15.5 285.221,-15.5"/>
<polygon fill="midnightblue" stroke="midnightblue" points="310.599,-19.0001 320.599,-15.5 310.599,-12.0001 310.599,-19.0001"/>
</g>
<!-- Node3 -->
<g id="node3" class="node"><title>Node3</title>
<g id="a_node3"><a xlink:href="$classgpusat_1_1_solver.html#ae0fed660431502c4ff23b011de6207ca" xlink:title="Solves the sat formula with a given decomposition.">
<polygon fill="white" stroke="black" points="0,-6 0,-25 142,-25 142,-6 0,-6"/>
<text text-anchor="middle" x="71" y="-13" font-family="Helvetica,sans-Serif" font-size="10.00">gpusat::Solver::solveProblem</text>
</a>
</g>
</g>
<!-- Node2&#45;&gt;Node3 -->
<g id="edge2" class="edge"><title>Node2&#45;&gt;Node3</title>
<path fill="none" stroke="midnightblue" d="M167.623,-15.5C159.216,-15.5 150.553,-15.5 142.034,-15.5"/>
<polygon fill="midnightblue" stroke="midnightblue" points="167.722,-19.0001 177.722,-15.5 167.722,-12.0001 167.722,-19.0001"/>
</g>
</g>
</svg>
