<?xml version="1.0" encoding="UTF-8" standalone="no"?>
<!DOCTYPE svg PUBLIC "-//W3C//DTD SVG 1.1//EN"
 "http://www.w3.org/Graphics/SVG/1.1/DTD/svg11.dtd">
<!-- Generated by graphviz version 2.38.0 (20140413.2041)
 -->
<!-- Title: include/decomposer.h Pages: 1 -->
<svg width="204pt" height="84pt"
 viewBox="0.00 0.00 204.00 84.00" xmlns="http://www.w3.org/2000/svg" xmlns:xlink="http://www.w3.org/1999/xlink">
<g id="graph0" class="graph" transform="scale(1 1) rotate(0) translate(4 80)">
<title>include/decomposer.h</title>
<polygon fill="white" stroke="none" points="-4,4 -4,-80 200,-80 200,4 -4,4"/>
<!-- Node1 -->
<g id="node1" class="node"><title>Node1</title>
<g id="a_node1"><a xlink:title=" ">
<polygon fill="#bfbfbf" stroke="black" points="49.5,-56.5 49.5,-75.5 161.5,-75.5 161.5,-56.5 49.5,-56.5"/>
<text text-anchor="middle" x="105.5" y="-63.5" font-family="Helvetica,sans-Serif" font-size="10.00">include/decomposer.h</text>
</a>
</g>
</g>
<!-- Node2 -->
<g id="node2" class="node"><title>Node2</title>
<g id="a_node2"><a xlink:href="$decomposer_8cpp.html" xlink:title=" ">
<polygon fill="white" stroke="black" points="0,-0.5 0,-19.5 105,-19.5 105,-0.5 0,-0.5"/>
<text text-anchor="middle" x="52.5" y="-7.5" font-family="Helvetica,sans-Serif" font-size="10.00">src/decomposer.cpp</text>
</a>
</g>
</g>
<!-- Node1&#45;&gt;Node2 -->
<g id="edge1" class="edge"><title>Node1&#45;&gt;Node2</title>
<path fill="none" stroke="midnightblue" d="M89.5191,-48.7175C80.1775,-39.1997 68.7541,-27.5608 61.089,-19.7511"/>
<polygon fill="midnightblue" stroke="midnightblue" points="87.2455,-51.3978 96.7481,-56.083 92.2413,-46.4945 87.2455,-51.3978"/>
</g>
<!-- Node3 -->
<g id="node3" class="node"><title>Node3</title>
<g id="a_node3"><a xlink:href="$main_8cpp.html" xlink:title=" ">
<polygon fill="white" stroke="black" points="123,-0.5 123,-19.5 196,-19.5 196,-0.5 123,-0.5"/>
<text text-anchor="middle" x="159.5" y="-7.5" font-family="Helvetica,sans-Serif" font-size="10.00">src/main.cpp</text>
</a>
</g>
</g>
<!-- Node1&#45;&gt;Node3 -->
<g id="edge2" class="edge"><title>Node1&#45;&gt;Node3</title>
<path fill="none" stroke="midnightblue" d="M121.498,-49.0024C131.067,-39.4329 142.861,-27.6389 150.749,-19.7511"/>
<polygon fill="midnightblue" stroke="midnightblue" points="119.013,-46.537 114.417,-56.083 123.963,-51.4868 119.013,-46.537"/>
</g>
</g>
</svg>
