<?xml version="1.0" encoding="UTF-8" standalone="no"?>
<!DOCTYPE svg PUBLIC "-//W3C//DTD SVG 1.1//EN"
 "http://www.w3.org/Graphics/SVG/1.1/DTD/svg11.dtd">
<!-- Generated by graphviz version 2.38.0 (20140413.2041)
 -->
<!-- Title: include/decomposer.h Pages: 1 -->
<svg width="440pt" height="95pt"
 viewBox="0.00 0.00 440.00 95.00" xmlns="http://www.w3.org/2000/svg" xmlns:xlink="http://www.w3.org/1999/xlink">
<g id="graph0" class="graph" transform="scale(1 1) rotate(0) translate(4 91)">
<title>include/decomposer.h</title>
<polygon fill="white" stroke="none" points="-4,4 -4,-91 436,-91 436,4 -4,4"/>
<!-- Node1 -->
<g id="node1" class="node"><title>Node1</title>
<g id="a_node1"><a xlink:title=" ">
<polygon fill="#bfbfbf" stroke="black" points="169.5,-67.5 169.5,-86.5 281.5,-86.5 281.5,-67.5 169.5,-67.5"/>
<text text-anchor="middle" x="225.5" y="-74.5" font-family="Helvetica,sans-Serif" font-size="10.00">include/decomposer.h</text>
</a>
</g>
</g>
<!-- Node2 -->
<g id="node2" class="node"><title>Node2</title>
<g id="a_node2"><a xlink:title=" ">
<polygon fill="white" stroke="#bfbfbf" points="0,-6 0,-25 85,-25 85,-6 0,-6"/>
<text text-anchor="middle" x="42.5" y="-13" font-family="Helvetica,sans-Serif" font-size="10.00">htd/Helpers.hpp</text>
</a>
</g>
</g>
<!-- Node1&#45;&gt;Node2 -->
<g id="edge1" class="edge"><title>Node1&#45;&gt;Node2</title>
<path fill="none" stroke="midnightblue" d="M199.281,-67.4751C167.482,-57.1362 113.735,-39.6611 78.1825,-28.1017"/>
<polygon fill="midnightblue" stroke="midnightblue" points="79.263,-24.7727 68.6708,-25.0091 77.0985,-31.4297 79.263,-24.7727"/>
</g>
<!-- Node3 -->
<g id="node3" class="node"><title>Node3</title>
<g id="a_node3"><a xlink:title=" ">
<polygon fill="white" stroke="#bfbfbf" points="103,-6 103,-25 204,-25 204,-6 103,-6"/>
<text text-anchor="middle" x="153.5" y="-13" font-family="Helvetica,sans-Serif" font-size="10.00">htd/Hypergraph.hpp</text>
</a>
</g>
</g>
<!-- Node1&#45;&gt;Node3 -->
<g id="edge2" class="edge"><title>Node1&#45;&gt;Node3</title>
<path fill="none" stroke="midnightblue" d="M215.184,-67.4751C203.849,-58.1082 185.427,-42.8839 171.661,-31.5081"/>
<polygon fill="midnightblue" stroke="midnightblue" points="173.735,-28.6813 163.797,-25.0091 169.276,-34.0773 173.735,-28.6813"/>
</g>
<!-- Node4 -->
<g id="node4" class="node"><title>Node4</title>
<g id="a_node4"><a xlink:title=" ">
<polygon fill="white" stroke="#bfbfbf" points="222,-0.5 222,-30.5 373,-30.5 373,-0.5 222,-0.5"/>
<text text-anchor="start" x="230" y="-18.5" font-family="Helvetica,sans-Serif" font-size="10.00">htd/ITreeDecompositionFitness</text>
<text text-anchor="middle" x="297.5" y="-7.5" font-family="Helvetica,sans-Serif" font-size="10.00">Function.hpp</text>
</a>
</g>
</g>
<!-- Node1&#45;&gt;Node4 -->
<g id="edge3" class="edge"><title>Node1&#45;&gt;Node4</title>
<path fill="none" stroke="midnightblue" d="M235.816,-67.4751C245.385,-59.5673 260.006,-47.4847 272.612,-37.0675"/>
<polygon fill="midnightblue" stroke="midnightblue" points="275.052,-39.5912 280.531,-30.523 270.593,-34.1952 275.052,-39.5912"/>
</g>
<!-- Node5 -->
<g id="node5" class="node"><title>Node5</title>
<g id="a_node5"><a xlink:title=" ">
<polygon fill="white" stroke="#bfbfbf" points="391,-6 391,-25 432,-25 432,-6 391,-6"/>
<text text-anchor="middle" x="411.5" y="-13" font-family="Helvetica,sans-Serif" font-size="10.00">string</text>
</a>
</g>
</g>
<!-- Node1&#45;&gt;Node5 -->
<g id="edge4" class="edge"><title>Node1&#45;&gt;Node5</title>
<path fill="none" stroke="midnightblue" d="M262.296,-67.4982C294.521,-59.5727 342.34,-46.6412 382.5,-31 383.877,-30.4638 385.276,-29.885 386.679,-29.2782"/>
<polygon fill="midnightblue" stroke="midnightblue" points="388.211,-32.4257 395.785,-25.0172 385.244,-26.0856 388.211,-32.4257"/>
</g>
</g>
</svg>
