<?xml version="1.0" encoding="UTF-8" standalone="no"?>
<!DOCTYPE svg PUBLIC "-//W3C//DTD SVG 1.1//EN"
 "http://www.w3.org/Graphics/SVG/1.1/DTD/svg11.dtd">
<!-- Generated by graphviz version 2.38.0 (20140413.2041)
 -->
<!-- Title: src/gpusatparser.cpp Pages: 1 -->
<svg width="506pt" height="196pt"
 viewBox="0.00 0.00 506.00 196.00" xmlns="http://www.w3.org/2000/svg" xmlns:xlink="http://www.w3.org/1999/xlink">
<g id="graph0" class="graph" transform="scale(1 1) rotate(0) translate(4 192)">
<title>src/gpusatparser.cpp</title>
<polygon fill="white" stroke="none" points="-4,4 -4,-192 502,-192 502,4 -4,4"/>
<!-- Node1 -->
<g id="node1" class="node"><title>Node1</title>
<g id="a_node1"><a xlink:title=" ">
<polygon fill="#bfbfbf" stroke="black" points="185,-168.5 185,-187.5 293,-187.5 293,-168.5 185,-168.5"/>
<text text-anchor="middle" x="239" y="-175.5" font-family="Helvetica,sans-Serif" font-size="10.00">src/gpusatparser.cpp</text>
</a>
</g>
</g>
<!-- Node2 -->
<g id="node2" class="node"><title>Node2</title>
<g id="a_node2"><a xlink:title=" ">
<polygon fill="white" stroke="#bfbfbf" points="0,-112.5 0,-131.5 56,-131.5 56,-112.5 0,-112.5"/>
<text text-anchor="middle" x="28" y="-119.5" font-family="Helvetica,sans-Serif" font-size="10.00">algorithm</text>
</a>
</g>
</g>
<!-- Node1&#45;&gt;Node2 -->
<g id="edge1" class="edge"><title>Node1&#45;&gt;Node2</title>
<path fill="none" stroke="midnightblue" d="M205.566,-168.444C167.618,-158.731 105.839,-142.921 66.0681,-132.743"/>
<polygon fill="midnightblue" stroke="midnightblue" points="66.7683,-129.309 56.2127,-130.22 65.0327,-136.09 66.7683,-129.309"/>
</g>
<!-- Node3 -->
<g id="node3" class="node"><title>Node3</title>
<g id="a_node3"><a xlink:title=" ">
<polygon fill="white" stroke="#bfbfbf" points="44,-0.5 44,-19.5 88,-19.5 88,-0.5 44,-0.5"/>
<text text-anchor="middle" x="66" y="-7.5" font-family="Helvetica,sans-Serif" font-size="10.00">cmath</text>
</a>
</g>
</g>
<!-- Node1&#45;&gt;Node3 -->
<g id="edge2" class="edge"><title>Node1&#45;&gt;Node3</title>
<path fill="none" stroke="midnightblue" d="M184.793,-170.733C157.296,-164.909 125.299,-153.674 104,-132 76.4407,-103.955 68.8395,-56.1595 66.7625,-29.8136"/>
<polygon fill="midnightblue" stroke="midnightblue" points="70.2462,-29.4339 66.1566,-19.6601 63.2586,-29.8509 70.2462,-29.4339"/>
</g>
<!-- Node4 -->
<g id="node4" class="node"><title>Node4</title>
<g id="a_node4"><a xlink:href="$gpusatparser_8h.html" xlink:title=" ">
<polygon fill="white" stroke="black" points="112.5,-112.5 112.5,-131.5 193.5,-131.5 193.5,-112.5 112.5,-112.5"/>
<text text-anchor="middle" x="153" y="-119.5" font-family="Helvetica,sans-Serif" font-size="10.00">gpusatparser.h</text>
</a>
</g>
</g>
<!-- Node1&#45;&gt;Node4 -->
<g id="edge3" class="edge"><title>Node1&#45;&gt;Node4</title>
<path fill="none" stroke="midnightblue" d="M225.183,-168.324C211.767,-159.9 191.176,-146.971 175.414,-137.074"/>
<polygon fill="midnightblue" stroke="midnightblue" points="177.113,-134.008 166.783,-131.655 173.391,-139.936 177.113,-134.008"/>
</g>
<!-- Node12 -->
<g id="node12" class="node"><title>Node12</title>
<g id="a_node12"><a xlink:title=" ">
<polygon fill="white" stroke="#bfbfbf" points="212,-112.5 212,-131.5 266,-131.5 266,-112.5 212,-112.5"/>
<text text-anchor="middle" x="239" y="-119.5" font-family="Helvetica,sans-Serif" font-size="10.00">iostream</text>
</a>
</g>
</g>
<!-- Node1&#45;&gt;Node12 -->
<g id="edge12" class="edge"><title>Node1&#45;&gt;Node12</title>
<path fill="none" stroke="midnightblue" d="M239,-168.083C239,-161.006 239,-150.861 239,-141.986"/>
<polygon fill="midnightblue" stroke="midnightblue" points="242.5,-141.751 239,-131.751 235.5,-141.751 242.5,-141.751"/>
</g>
<!-- Node13 -->
<g id="node13" class="node"><title>Node13</title>
<g id="a_node13"><a xlink:title=" ">
<polygon fill="white" stroke="#bfbfbf" points="284.5,-112.5 284.5,-131.5 331.5,-131.5 331.5,-112.5 284.5,-112.5"/>
<text text-anchor="middle" x="308" y="-119.5" font-family="Helvetica,sans-Serif" font-size="10.00">iterator</text>
</a>
</g>
</g>
<!-- Node1&#45;&gt;Node13 -->
<g id="edge13" class="edge"><title>Node1&#45;&gt;Node13</title>
<path fill="none" stroke="midnightblue" d="M250.086,-168.324C260.486,-160.185 276.261,-147.839 288.722,-138.087"/>
<polygon fill="midnightblue" stroke="midnightblue" points="290.994,-140.753 296.712,-131.834 286.68,-135.241 290.994,-140.753"/>
</g>
<!-- Node14 -->
<g id="node14" class="node"><title>Node14</title>
<g id="a_node14"><a xlink:title=" ">
<polygon fill="white" stroke="#bfbfbf" points="350,-112.5 350,-131.5 402,-131.5 402,-112.5 350,-112.5"/>
<text text-anchor="middle" x="376" y="-119.5" font-family="Helvetica,sans-Serif" font-size="10.00">sstream</text>
</a>
</g>
</g>
<!-- Node1&#45;&gt;Node14 -->
<g id="edge14" class="edge"><title>Node1&#45;&gt;Node14</title>
<path fill="none" stroke="midnightblue" d="M260.708,-168.444C283.355,-159.517 319.072,-145.439 344.752,-135.317"/>
<polygon fill="midnightblue" stroke="midnightblue" points="346.374,-138.44 354.394,-131.516 343.807,-131.927 346.374,-138.44"/>
</g>
<!-- Node15 -->
<g id="node15" class="node"><title>Node15</title>
<g id="a_node15"><a xlink:title=" ">
<polygon fill="white" stroke="#bfbfbf" points="420,-112.5 420,-131.5 498,-131.5 498,-112.5 420,-112.5"/>
<text text-anchor="middle" x="459" y="-119.5" font-family="Helvetica,sans-Serif" font-size="10.00">unordered_set</text>
</a>
</g>
</g>
<!-- Node1&#45;&gt;Node15 -->
<g id="edge15" class="edge"><title>Node1&#45;&gt;Node15</title>
<path fill="none" stroke="midnightblue" d="M273.86,-168.444C311.916,-159.102 372.958,-144.119 414.46,-133.933"/>
<polygon fill="midnightblue" stroke="midnightblue" points="415.426,-137.299 424.303,-131.516 413.757,-130.501 415.426,-137.299"/>
</g>
<!-- Node5 -->
<g id="node5" class="node"><title>Node5</title>
<g id="a_node5"><a xlink:title=" ">
<polygon fill="white" stroke="#bfbfbf" points="121.5,-56.5 121.5,-75.5 164.5,-75.5 164.5,-56.5 121.5,-56.5"/>
<text text-anchor="middle" x="143" y="-63.5" font-family="Helvetica,sans-Serif" font-size="10.00">queue</text>
</a>
</g>
</g>
<!-- Node4&#45;&gt;Node5 -->
<g id="edge4" class="edge"><title>Node4&#45;&gt;Node5</title>
<path fill="none" stroke="midnightblue" d="M151.349,-112.083C150.024,-104.927 148.118,-94.6353 146.461,-85.6911"/>
<polygon fill="midnightblue" stroke="midnightblue" points="149.883,-84.9466 144.621,-75.7511 143,-86.2212 149.883,-84.9466"/>
</g>
<!-- Node6 -->
<g id="node6" class="node"><title>Node6</title>
<g id="a_node6"><a xlink:href="$types_8h.html" xlink:title=" ">
<polygon fill="white" stroke="black" points="182.5,-56.5 182.5,-75.5 231.5,-75.5 231.5,-56.5 182.5,-56.5"/>
<text text-anchor="middle" x="207" y="-63.5" font-family="Helvetica,sans-Serif" font-size="10.00">types.h</text>
</a>
</g>
</g>
<!-- Node4&#45;&gt;Node6 -->
<g id="edge5" class="edge"><title>Node4&#45;&gt;Node6</title>
<path fill="none" stroke="midnightblue" d="M161.917,-112.083C169.78,-104.22 181.431,-92.5688 190.919,-83.0813"/>
<polygon fill="midnightblue" stroke="midnightblue" points="193.653,-85.2971 198.249,-75.7511 188.703,-80.3473 193.653,-85.2971"/>
</g>
<!-- Node11 -->
<g id="node11" class="node"><title>Node11</title>
<g id="a_node11"><a xlink:title=" ">
<polygon fill="white" stroke="#bfbfbf" points="249.5,-56.5 249.5,-75.5 332.5,-75.5 332.5,-56.5 249.5,-56.5"/>
<text text-anchor="middle" x="291" y="-63.5" font-family="Helvetica,sans-Serif" font-size="10.00">unordered_map</text>
</a>
</g>
</g>
<!-- Node4&#45;&gt;Node11 -->
<g id="edge11" class="edge"><title>Node4&#45;&gt;Node11</title>
<path fill="none" stroke="midnightblue" d="M174.867,-112.444C197.779,-103.478 233.975,-89.314 259.866,-79.1827"/>
<polygon fill="midnightblue" stroke="midnightblue" points="261.199,-82.4198 269.236,-75.5164 258.648,-75.9011 261.199,-82.4198"/>
</g>
<!-- Node6&#45;&gt;Node3 -->
<g id="edge7" class="edge"><title>Node6&#45;&gt;Node3</title>
<path fill="none" stroke="midnightblue" d="M184.658,-56.4435C161.247,-47.4776 124.264,-33.314 97.8104,-23.1827"/>
<polygon fill="midnightblue" stroke="midnightblue" points="98.8277,-19.8245 88.2373,-19.5164 96.3241,-26.3615 98.8277,-19.8245"/>
</g>
<!-- Node7 -->
<g id="node7" class="node"><title>Node7</title>
<g id="a_node7"><a xlink:title=" ">
<polygon fill="white" stroke="#bfbfbf" points="106.5,-0.5 106.5,-19.5 193.5,-19.5 193.5,-0.5 106.5,-0.5"/>
<text text-anchor="middle" x="150" y="-7.5" font-family="Helvetica,sans-Serif" font-size="10.00">CL/cl_platform.h</text>
</a>
</g>
</g>
<!-- Node6&#45;&gt;Node7 -->
<g id="edge6" class="edge"><title>Node6&#45;&gt;Node7</title>
<path fill="none" stroke="midnightblue" d="M197.842,-56.324C189.499,-48.4196 176.968,-36.5482 166.823,-26.9377"/>
<polygon fill="midnightblue" stroke="midnightblue" points="168.991,-24.1705 159.325,-19.8339 164.177,-29.2522 168.991,-24.1705"/>
</g>
<!-- Node8 -->
<g id="node8" class="node"><title>Node8</title>
<g id="a_node8"><a xlink:title=" ">
<polygon fill="white" stroke="#bfbfbf" points="211.5,-0.5 211.5,-19.5 240.5,-19.5 240.5,-0.5 211.5,-0.5"/>
<text text-anchor="middle" x="226" y="-7.5" font-family="Helvetica,sans-Serif" font-size="10.00">list</text>
</a>
</g>
</g>
<!-- Node6&#45;&gt;Node8 -->
<g id="edge8" class="edge"><title>Node6&#45;&gt;Node8</title>
<path fill="none" stroke="midnightblue" d="M210.137,-56.083C212.683,-48.8486 216.356,-38.4087 219.527,-29.3968"/>
<polygon fill="midnightblue" stroke="midnightblue" points="222.903,-30.3459 222.921,-19.7511 216.3,-28.0225 222.903,-30.3459"/>
</g>
<!-- Node9 -->
<g id="node9" class="node"><title>Node9</title>
<g id="a_node9"><a xlink:title=" ">
<polygon fill="white" stroke="#bfbfbf" points="259,-0.5 259,-19.5 289,-19.5 289,-0.5 259,-0.5"/>
<text text-anchor="middle" x="274" y="-7.5" font-family="Helvetica,sans-Serif" font-size="10.00">set</text>
</a>
</g>
</g>
<!-- Node6&#45;&gt;Node9 -->
<g id="edge9" class="edge"><title>Node6&#45;&gt;Node9</title>
<path fill="none" stroke="midnightblue" d="M217.765,-56.324C227.766,-48.2631 242.887,-36.0765 254.93,-26.3695"/>
<polygon fill="midnightblue" stroke="midnightblue" points="257.45,-28.8343 263.039,-19.8339 253.057,-23.3841 257.45,-28.8343"/>
</g>
<!-- Node10 -->
<g id="node10" class="node"><title>Node10</title>
<g id="a_node10"><a xlink:title=" ">
<polygon fill="white" stroke="#bfbfbf" points="307,-0.5 307,-19.5 349,-19.5 349,-0.5 307,-0.5"/>
<text text-anchor="middle" x="328" y="-7.5" font-family="Helvetica,sans-Serif" font-size="10.00">vector</text>
</a>
</g>
</g>
<!-- Node6&#45;&gt;Node10 -->
<g id="edge10" class="edge"><title>Node6&#45;&gt;Node10</title>
<path fill="none" stroke="midnightblue" d="M226.173,-56.4435C245.909,-47.6356 276.885,-33.8116 299.493,-23.722"/>
<polygon fill="midnightblue" stroke="midnightblue" points="301.211,-26.788 308.917,-19.5164 298.359,-20.3957 301.211,-26.788"/>
</g>
</g>
</svg>
