<?xml version="1.0" encoding="UTF-8" standalone="no"?>
<!DOCTYPE svg PUBLIC "-//W3C//DTD SVG 1.1//EN"
 "http://www.w3.org/Graphics/SVG/1.1/DTD/svg11.dtd">
<!-- Generated by graphviz version 2.38.0 (20140413.2041)
 -->
<!-- Title: src/graphoutput.cpp Pages: 1 -->
<svg width="463pt" height="196pt"
 viewBox="0.00 0.00 463.00 196.00" xmlns="http://www.w3.org/2000/svg" xmlns:xlink="http://www.w3.org/1999/xlink">
<g id="graph0" class="graph" transform="scale(1 1) rotate(0) translate(4 192)">
<title>src/graphoutput.cpp</title>
<polygon fill="white" stroke="none" points="-4,4 -4,-192 459,-192 459,4 -4,4"/>
<!-- Node1 -->
<g id="node1" class="node"><title>Node1</title>
<g id="a_node1"><a xlink:title=" ">
<polygon fill="#bfbfbf" stroke="black" points="175.5,-168.5 175.5,-187.5 278.5,-187.5 278.5,-168.5 175.5,-168.5"/>
<text text-anchor="middle" x="227" y="-175.5" font-family="Helvetica,sans-Serif" font-size="10.00">src/graphoutput.cpp</text>
</a>
</g>
</g>
<!-- Node2 -->
<g id="node2" class="node"><title>Node2</title>
<g id="a_node2"><a xlink:title=" ">
<polygon fill="white" stroke="#bfbfbf" points="23.5,-112.5 23.5,-131.5 72.5,-131.5 72.5,-112.5 23.5,-112.5"/>
<text text-anchor="middle" x="48" y="-119.5" font-family="Helvetica,sans-Serif" font-size="10.00">fstream</text>
</a>
</g>
</g>
<!-- Node1&#45;&gt;Node2 -->
<g id="edge1" class="edge"><title>Node1&#45;&gt;Node2</title>
<path fill="none" stroke="midnightblue" d="M198.637,-168.444C167.19,-158.957 116.453,-143.651 82.6713,-133.46"/>
<polygon fill="midnightblue" stroke="midnightblue" points="83.3564,-130.01 72.7717,-130.473 81.3346,-136.712 83.3564,-130.01"/>
</g>
<!-- Node3 -->
<g id="node3" class="node"><title>Node3</title>
<g id="a_node3"><a xlink:href="$gpusatutils_8h.html" xlink:title=" ">
<polygon fill="white" stroke="black" points="223,-112.5 223,-131.5 295,-131.5 295,-112.5 223,-112.5"/>
<text text-anchor="middle" x="259" y="-119.5" font-family="Helvetica,sans-Serif" font-size="10.00">gpusatutils.h</text>
</a>
</g>
</g>
<!-- Node1&#45;&gt;Node3 -->
<g id="edge2" class="edge"><title>Node1&#45;&gt;Node3</title>
<path fill="none" stroke="midnightblue" d="M232.284,-168.083C236.711,-160.613 243.163,-149.724 248.618,-140.52"/>
<polygon fill="midnightblue" stroke="midnightblue" points="251.727,-142.138 253.814,-131.751 245.705,-138.57 251.727,-142.138"/>
</g>
<!-- Node6 -->
<g id="node6" class="node"><title>Node6</title>
<g id="a_node6"><a xlink:title=" ">
<polygon fill="white" stroke="#bfbfbf" points="331,-56.5 331,-75.5 385,-75.5 385,-56.5 331,-56.5"/>
<text text-anchor="middle" x="358" y="-63.5" font-family="Helvetica,sans-Serif" font-size="10.00">iostream</text>
</a>
</g>
</g>
<!-- Node1&#45;&gt;Node6 -->
<g id="edge18" class="edge"><title>Node1&#45;&gt;Node6</title>
<path fill="none" stroke="midnightblue" d="M245.589,-168.448C261.956,-160.401 285.93,-147.32 304,-132 320.707,-117.836 336.293,-98.085 346.384,-84.0814"/>
<polygon fill="midnightblue" stroke="midnightblue" points="349.298,-86.0214 352.178,-75.8253 343.568,-82.0003 349.298,-86.0214"/>
</g>
<!-- Node7 -->
<g id="node7" class="node"><title>Node7</title>
<g id="a_node7"><a xlink:title=" ">
<polygon fill="white" stroke="#bfbfbf" points="403,-56.5 403,-75.5 455,-75.5 455,-56.5 403,-56.5"/>
<text text-anchor="middle" x="429" y="-63.5" font-family="Helvetica,sans-Serif" font-size="10.00">sstream</text>
</a>
</g>
</g>
<!-- Node1&#45;&gt;Node7 -->
<g id="edge19" class="edge"><title>Node1&#45;&gt;Node7</title>
<path fill="none" stroke="midnightblue" d="M248.499,-168.387C269.047,-159.909 300.7,-146.201 327,-132 356.162,-116.254 388.135,-95.2171 408.37,-81.3984"/>
<polygon fill="midnightblue" stroke="midnightblue" points="410.537,-84.1559 416.788,-75.602 406.567,-78.3903 410.537,-84.1559"/>
</g>
<!-- Node8 -->
<g id="node8" class="node"><title>Node8</title>
<g id="a_node8"><a xlink:href="$types_8h.html" xlink:title=" ">
<polygon fill="white" stroke="black" points="123.5,-56.5 123.5,-75.5 172.5,-75.5 172.5,-56.5 123.5,-56.5"/>
<text text-anchor="middle" x="148" y="-63.5" font-family="Helvetica,sans-Serif" font-size="10.00">types.h</text>
</a>
</g>
</g>
<!-- Node1&#45;&gt;Node8 -->
<g id="edge20" class="edge"><title>Node1&#45;&gt;Node8</title>
<path fill="none" stroke="midnightblue" d="M220.801,-168.368C207.764,-150.215 177.303,-107.802 160.202,-83.9902"/>
<polygon fill="midnightblue" stroke="midnightblue" points="162.846,-81.6721 154.17,-75.5914 157.161,-85.7555 162.846,-81.6721"/>
</g>
<!-- Node13 -->
<g id="node13" class="node"><title>Node13</title>
<g id="a_node13"><a xlink:href="$graphoutput_8h.html" xlink:title=" ">
<polygon fill="white" stroke="black" points="91,-112.5 91,-131.5 167,-131.5 167,-112.5 91,-112.5"/>
<text text-anchor="middle" x="129" y="-119.5" font-family="Helvetica,sans-Serif" font-size="10.00">graphoutput.h</text>
</a>
</g>
</g>
<!-- Node1&#45;&gt;Node13 -->
<g id="edge14" class="edge"><title>Node1&#45;&gt;Node13</title>
<path fill="none" stroke="midnightblue" d="M211.255,-168.324C195.681,-159.743 171.623,-146.486 153.541,-136.522"/>
<polygon fill="midnightblue" stroke="midnightblue" points="155.154,-133.415 144.706,-131.655 151.776,-139.546 155.154,-133.415"/>
</g>
<!-- Node4 -->
<g id="node4" class="node"><title>Node4</title>
<g id="a_node4"><a xlink:title=" ">
<polygon fill="white" stroke="#bfbfbf" points="157.5,-0.5 157.5,-19.5 244.5,-19.5 244.5,-0.5 157.5,-0.5"/>
<text text-anchor="middle" x="201" y="-7.5" font-family="Helvetica,sans-Serif" font-size="10.00">CL/cl_platform.h</text>
</a>
</g>
</g>
<!-- Node3&#45;&gt;Node4 -->
<g id="edge3" class="edge"><title>Node3&#45;&gt;Node4</title>
<path fill="none" stroke="midnightblue" d="M254.449,-112.368C244.962,-94.376 222.908,-52.5503 210.294,-28.6267"/>
<polygon fill="midnightblue" stroke="midnightblue" points="213.29,-26.8047 205.53,-19.5914 207.098,-30.0696 213.29,-26.8047"/>
</g>
<!-- Node5 -->
<g id="node5" class="node"><title>Node5</title>
<g id="a_node5"><a xlink:title=" ">
<polygon fill="white" stroke="#bfbfbf" points="267,-56.5 267,-75.5 313,-75.5 313,-56.5 267,-56.5"/>
<text text-anchor="middle" x="290" y="-63.5" font-family="Helvetica,sans-Serif" font-size="10.00">chrono</text>
</a>
</g>
</g>
<!-- Node3&#45;&gt;Node5 -->
<g id="edge4" class="edge"><title>Node3&#45;&gt;Node5</title>
<path fill="none" stroke="midnightblue" d="M264.119,-112.083C268.408,-104.613 274.658,-93.7244 279.942,-84.5199"/>
<polygon fill="midnightblue" stroke="midnightblue" points="283.033,-86.1662 284.976,-75.7511 276.962,-82.6811 283.033,-86.1662"/>
</g>
<!-- Node3&#45;&gt;Node6 -->
<g id="edge5" class="edge"><title>Node3&#45;&gt;Node6</title>
<path fill="none" stroke="midnightblue" d="M274.906,-112.324C290.638,-103.743 314.942,-90.486 333.209,-80.5224"/>
<polygon fill="midnightblue" stroke="midnightblue" points="335.03,-83.5157 342.133,-75.6545 331.678,-77.3704 335.03,-83.5157"/>
</g>
<!-- Node3&#45;&gt;Node7 -->
<g id="edge6" class="edge"><title>Node3&#45;&gt;Node7</title>
<path fill="none" stroke="midnightblue" d="M285.937,-112.444C314.829,-103.266 360.866,-88.6424 392.884,-78.472"/>
<polygon fill="midnightblue" stroke="midnightblue" points="394.277,-81.7022 402.748,-75.339 392.157,-75.0307 394.277,-81.7022"/>
</g>
<!-- Node3&#45;&gt;Node8 -->
<g id="edge7" class="edge"><title>Node3&#45;&gt;Node8</title>
<path fill="none" stroke="midnightblue" d="M241.166,-112.324C223.284,-103.625 195.525,-90.1202 174.954,-80.113"/>
<polygon fill="midnightblue" stroke="midnightblue" points="176.313,-76.8819 165.79,-75.6545 173.251,-83.1765 176.313,-76.8819"/>
</g>
<!-- Node12 -->
<g id="node12" class="node"><title>Node12</title>
<g id="a_node12"><a xlink:title=" ">
<polygon fill="white" stroke="#bfbfbf" points="263,-0.5 263,-19.5 305,-19.5 305,-0.5 263,-0.5"/>
<text text-anchor="middle" x="284" y="-7.5" font-family="Helvetica,sans-Serif" font-size="10.00">vector</text>
</a>
</g>
</g>
<!-- Node3&#45;&gt;Node12 -->
<g id="edge13" class="edge"><title>Node3&#45;&gt;Node12</title>
<path fill="none" stroke="midnightblue" d="M257.397,-112.403C255.371,-99.7855 252.739,-75.6218 258,-56 260.654,-46.1031 266.069,-36.1315 271.274,-28.099"/>
<polygon fill="midnightblue" stroke="midnightblue" points="274.289,-29.8935 277.11,-19.6811 268.536,-25.9055 274.289,-29.8935"/>
</g>
<!-- Node8&#45;&gt;Node4 -->
<g id="edge8" class="edge"><title>Node8&#45;&gt;Node4</title>
<path fill="none" stroke="midnightblue" d="M156.752,-56.083C164.47,-48.2195 175.905,-36.5688 185.217,-27.0813"/>
<polygon fill="midnightblue" stroke="midnightblue" points="187.904,-29.3396 192.411,-19.7511 182.908,-24.4363 187.904,-29.3396"/>
</g>
<!-- Node9 -->
<g id="node9" class="node"><title>Node9</title>
<g id="a_node9"><a xlink:title=" ">
<polygon fill="white" stroke="#bfbfbf" points="48,-0.5 48,-19.5 92,-19.5 92,-0.5 48,-0.5"/>
<text text-anchor="middle" x="70" y="-7.5" font-family="Helvetica,sans-Serif" font-size="10.00">cmath</text>
</a>
</g>
</g>
<!-- Node8&#45;&gt;Node9 -->
<g id="edge9" class="edge"><title>Node8&#45;&gt;Node9</title>
<path fill="none" stroke="midnightblue" d="M135.468,-56.324C123.414,-47.979 104.973,-35.2122 90.7313,-25.3524"/>
<polygon fill="midnightblue" stroke="midnightblue" points="92.7151,-22.469 82.5009,-19.6545 88.7306,-28.2243 92.7151,-22.469"/>
</g>
<!-- Node10 -->
<g id="node10" class="node"><title>Node10</title>
<g id="a_node10"><a xlink:title=" ">
<polygon fill="white" stroke="#bfbfbf" points="110.5,-0.5 110.5,-19.5 139.5,-19.5 139.5,-0.5 110.5,-0.5"/>
<text text-anchor="middle" x="125" y="-7.5" font-family="Helvetica,sans-Serif" font-size="10.00">list</text>
</a>
</g>
</g>
<!-- Node8&#45;&gt;Node10 -->
<g id="edge10" class="edge"><title>Node8&#45;&gt;Node10</title>
<path fill="none" stroke="midnightblue" d="M144.202,-56.083C141.087,-48.77 136.577,-38.1814 132.711,-29.1034"/>
<polygon fill="midnightblue" stroke="midnightblue" points="135.866,-27.5798 128.727,-19.7511 129.426,-30.3229 135.866,-27.5798"/>
</g>
<!-- Node11 -->
<g id="node11" class="node"><title>Node11</title>
<g id="a_node11"><a xlink:title=" ">
<polygon fill="white" stroke="#bfbfbf" points="0,-0.5 0,-19.5 30,-19.5 30,-0.5 0,-0.5"/>
<text text-anchor="middle" x="15" y="-7.5" font-family="Helvetica,sans-Serif" font-size="10.00">set</text>
</a>
</g>
</g>
<!-- Node8&#45;&gt;Node11 -->
<g id="edge11" class="edge"><title>Node8&#45;&gt;Node11</title>
<path fill="none" stroke="midnightblue" d="M126.926,-56.4435C103.235,-46.8247 64.8104,-31.2238 39.7213,-21.0372"/>
<polygon fill="midnightblue" stroke="midnightblue" points="40.766,-17.684 30.1839,-17.1649 38.1326,-24.1698 40.766,-17.684"/>
</g>
<!-- Node8&#45;&gt;Node12 -->
<g id="edge12" class="edge"><title>Node8&#45;&gt;Node12</title>
<path fill="none" stroke="midnightblue" d="M169.55,-56.4435C192.163,-47.4646 227.905,-33.2729 253.429,-23.1386"/>
<polygon fill="midnightblue" stroke="midnightblue" points="254.996,-26.2823 262.998,-19.339 252.412,-19.7764 254.996,-26.2823"/>
</g>
<!-- Node13&#45;&gt;Node8 -->
<g id="edge17" class="edge"><title>Node13&#45;&gt;Node8</title>
<path fill="none" stroke="midnightblue" d="M132.137,-112.083C134.683,-104.849 138.356,-94.4087 141.527,-85.3968"/>
<polygon fill="midnightblue" stroke="midnightblue" points="144.903,-86.3459 144.921,-75.7511 138.3,-84.0225 144.903,-86.3459"/>
</g>
<!-- Node14 -->
<g id="node14" class="node"><title>Node14</title>
<g id="a_node14"><a xlink:title=" ">
<polygon fill="white" stroke="#bfbfbf" points="11.5,-56.5 11.5,-75.5 46.5,-75.5 46.5,-56.5 11.5,-56.5"/>
<text text-anchor="middle" x="29" y="-63.5" font-family="Helvetica,sans-Serif" font-size="10.00">map</text>
</a>
</g>
</g>
<!-- Node13&#45;&gt;Node14 -->
<g id="edge15" class="edge"><title>Node13&#45;&gt;Node14</title>
<path fill="none" stroke="midnightblue" d="M112.933,-112.324C97.0422,-103.743 72.4926,-90.486 54.0415,-80.5224"/>
<polygon fill="midnightblue" stroke="midnightblue" points="55.489,-77.3264 45.0269,-75.6545 52.1629,-83.4857 55.489,-77.3264"/>
</g>
<!-- Node15 -->
<g id="node15" class="node"><title>Node15</title>
<g id="a_node15"><a xlink:title=" ">
<polygon fill="white" stroke="#bfbfbf" points="64.5,-56.5 64.5,-75.5 105.5,-75.5 105.5,-56.5 64.5,-56.5"/>
<text text-anchor="middle" x="85" y="-63.5" font-family="Helvetica,sans-Serif" font-size="10.00">string</text>
</a>
</g>
</g>
<!-- Node13&#45;&gt;Node15 -->
<g id="edge16" class="edge"><title>Node13&#45;&gt;Node15</title>
<path fill="none" stroke="midnightblue" d="M121.734,-112.083C115.455,-104.377 106.212,-93.0333 98.5692,-83.6531"/>
<polygon fill="midnightblue" stroke="midnightblue" points="101.161,-81.2926 92.1305,-75.7511 95.7339,-85.7143 101.161,-81.2926"/>
</g>
</g>
</svg>
