<?xml version="1.0" encoding="UTF-8" standalone="no"?>
<!DOCTYPE svg PUBLIC "-//W3C//DTD SVG 1.1//EN"
 "http://www.w3.org/Graphics/SVG/1.1/DTD/svg11.dtd">
<!-- Generated by graphviz version 2.38.0 (20140413.2041)
 -->
<!-- Title: gpusat::getCount Pages: 1 -->
<svg width="421pt" height="142pt"
 viewBox="0.00 0.00 421.00 142.00" xmlns="http://www.w3.org/2000/svg" xmlns:xlink="http://www.w3.org/1999/xlink">
<g id="graph0" class="graph" transform="scale(1 1) rotate(0) translate(4 138)">
<title>gpusat::getCount</title>
<polygon fill="white" stroke="none" points="-4,4 -4,-138 417,-138 417,4 -4,4"/>
<!-- Node1 -->
<g id="node1" class="node"><title>Node1</title>
<g id="a_node1"><a xlink:title=" ">
<polygon fill="#bfbfbf" stroke="black" points="322,-57.5 322,-76.5 413,-76.5 413,-57.5 322,-57.5"/>
<text text-anchor="middle" x="367.5" y="-64.5" font-family="Helvetica,sans-Serif" font-size="10.00">gpusat::getCount</text>
</a>
</g>
</g>
<!-- Node2 -->
<g id="node2" class="node"><title>Node2</title>
<g id="a_node2"><a xlink:href="$main_8cpp.html#a0ddf1224851353fc92bfbff6f499fa97" xlink:title=" ">
<polygon fill="white" stroke="black" points="213,-114.5 213,-133.5 251,-133.5 251,-114.5 213,-114.5"/>
<text text-anchor="middle" x="232" y="-121.5" font-family="Helvetica,sans-Serif" font-size="10.00">main</text>
</a>
</g>
</g>
<!-- Node1&#45;&gt;Node2 -->
<g id="edge1" class="edge"><title>Node1&#45;&gt;Node2</title>
<path fill="none" stroke="midnightblue" d="M338.567,-81.0024C323.214,-88.4907 303.737,-97.6547 286,-105 274.621,-109.712 261.604,-114.389 251.318,-117.923"/>
<polygon fill="midnightblue" stroke="midnightblue" points="340.113,-84.1426 347.541,-76.5877 337.023,-77.8615 340.113,-84.1426"/>
</g>
<!-- Node3 -->
<g id="node3" class="node"><title>Node3</title>
<g id="a_node3"><a xlink:href="$namespacegpusat.html#adb6dc0944ae7b3c703b74287e26d6038" xlink:title=" ">
<polygon fill="white" stroke="black" points="178,-76.5 178,-95.5 286,-95.5 286,-76.5 178,-76.5"/>
<text text-anchor="middle" x="232" y="-83.5" font-family="Helvetica,sans-Serif" font-size="10.00">gpusat::printtreeType</text>
</a>
</g>
</g>
<!-- Node1&#45;&gt;Node3 -->
<g id="edge2" class="edge"><title>Node1&#45;&gt;Node3</title>
<path fill="none" stroke="midnightblue" d="M311.62,-74.8107C303.241,-76.0031 294.605,-77.2323 286.262,-78.4197"/>
<polygon fill="midnightblue" stroke="midnightblue" points="312.268,-78.2538 321.675,-73.3796 311.282,-71.3236 312.268,-78.2538"/>
</g>
<!-- Node4 -->
<g id="node4" class="node"><title>Node4</title>
<g id="a_node4"><a xlink:href="$namespacegpusat.html#ae780028fdecbf7e4891b55159b33f3c1" xlink:title=" ">
<polygon fill="white" stroke="black" points="189.5,-38.5 189.5,-57.5 274.5,-57.5 274.5,-38.5 189.5,-38.5"/>
<text text-anchor="middle" x="232" y="-45.5" font-family="Helvetica,sans-Serif" font-size="10.00">gpusat::solJson</text>
</a>
</g>
</g>
<!-- Node1&#45;&gt;Node4 -->
<g id="edge3" class="edge"><title>Node1&#45;&gt;Node4</title>
<path fill="none" stroke="midnightblue" d="M311.528,-59.1762C299.249,-57.4287 286.42,-55.6029 274.777,-53.9458"/>
<polygon fill="midnightblue" stroke="midnightblue" points="311.282,-62.6764 321.675,-60.6204 312.268,-55.7462 311.282,-62.6764"/>
</g>
<!-- Node6 -->
<g id="node6" class="node"><title>Node6</title>
<g id="a_node6"><a xlink:href="$namespacegpusat.html#a62a1b8c2535766854537a608378b737f" xlink:title="Generate a formatted stringoutput for a solved node with solutions.">
<polygon fill="white" stroke="black" points="178.5,-0.5 178.5,-19.5 285.5,-19.5 285.5,-0.5 178.5,-0.5"/>
<text text-anchor="middle" x="232" y="-7.5" font-family="Helvetica,sans-Serif" font-size="10.00">gpusat::solutiontable</text>
</a>
</g>
</g>
<!-- Node1&#45;&gt;Node6 -->
<g id="edge5" class="edge"><title>Node1&#45;&gt;Node6</title>
<path fill="none" stroke="midnightblue" d="M338.567,-52.9976C323.214,-45.5093 303.737,-36.3453 286,-29 278.053,-25.7088 269.307,-22.4352 261.25,-19.5559"/>
<polygon fill="midnightblue" stroke="midnightblue" points="337.023,-56.1385 347.541,-57.4123 340.113,-49.8574 337.023,-56.1385"/>
</g>
<!-- Node5 -->
<g id="node5" class="node"><title>Node5</title>
<g id="a_node5"><a xlink:href="$classgpusat_1_1_solver.html#ae0fed660431502c4ff23b011de6207ca" xlink:title="Solves the sat formula with a given decomposition.">
<polygon fill="white" stroke="black" points="0,-19.5 0,-38.5 142,-38.5 142,-19.5 0,-19.5"/>
<text text-anchor="middle" x="71" y="-26.5" font-family="Helvetica,sans-Serif" font-size="10.00">gpusat::Solver::solveProblem</text>
</a>
</g>
</g>
<!-- Node4&#45;&gt;Node5 -->
<g id="edge4" class="edge"><title>Node4&#45;&gt;Node5</title>
<path fill="none" stroke="midnightblue" d="M179.104,-41.7986C167.28,-40.3857 154.526,-38.8615 142.083,-37.3747"/>
<polygon fill="midnightblue" stroke="midnightblue" points="178.88,-45.2966 189.225,-43.008 179.711,-38.3461 178.88,-45.2966"/>
</g>
<!-- Node6&#45;&gt;Node5 -->
<g id="edge6" class="edge"><title>Node6&#45;&gt;Node5</title>
<path fill="none" stroke="midnightblue" d="M168.469,-17.4723C159.793,-18.509 150.835,-19.5795 142.033,-20.6312"/>
<polygon fill="midnightblue" stroke="midnightblue" points="168.983,-20.9359 178.497,-16.274 168.152,-13.9853 168.983,-20.9359"/>
</g>
</g>
</svg>
