<?xml version="1.0" encoding="UTF-8" standalone="no"?>
<!DOCTYPE svg PUBLIC "-//W3C//DTD SVG 1.1//EN"
 "http://www.w3.org/Graphics/SVG/1.1/DTD/svg11.dtd">
<!-- Generated by graphviz version 2.38.0 (20140413.2041)
 -->
<!-- Title: gpusat::compVars Pages: 1 -->
<svg width="464pt" height="88pt"
 viewBox="0.00 0.00 464.00 88.00" xmlns="http://www.w3.org/2000/svg" xmlns:xlink="http://www.w3.org/1999/xlink">
<g id="graph0" class="graph" transform="scale(1 1) rotate(0) translate(4 84)">
<title>gpusat::compVars</title>
<polygon fill="white" stroke="none" points="-4,4 -4,-84 460,-84 460,4 -4,4"/>
<!-- Node1 -->
<g id="node1" class="node"><title>Node1</title>
<g id="a_node1"><a xlink:title=" ">
<polygon fill="#bfbfbf" stroke="black" points="360,-30 360,-49 456,-49 456,-30 360,-30"/>
<text text-anchor="middle" x="408" y="-37" font-family="Helvetica,sans-Serif" font-size="10.00">gpusat::compVars</text>
</a>
</g>
</g>
<!-- Node2 -->
<g id="node2" class="node"><title>Node2</title>
<g id="a_node2"><a xlink:href="$classgpusat_1_1_preprocessor.html#a0eb30c75fad0b216ca501b86605c2c58" xlink:title=" ">
<polygon fill="white" stroke="black" points="196,-49.5 196,-79.5 306,-79.5 306,-49.5 196,-49.5"/>
<text text-anchor="start" x="204" y="-67.5" font-family="Helvetica,sans-Serif" font-size="10.00">gpusat::Preprocessor</text>
<text text-anchor="middle" x="251" y="-56.5" font-family="Helvetica,sans-Serif" font-size="10.00">::preprocessFacts</text>
</a>
</g>
</g>
<!-- Node1&#45;&gt;Node2 -->
<g id="edge1" class="edge"><title>Node1&#45;&gt;Node2</title>
<path fill="none" stroke="midnightblue" d="M349.511,-48.7724C335.309,-51.063 320.145,-53.5089 306.109,-55.7727"/>
<polygon fill="midnightblue" stroke="midnightblue" points="350.338,-52.1844 359.653,-47.1367 349.223,-45.2737 350.338,-52.1844"/>
</g>
<!-- Node4 -->
<g id="node4" class="node"><title>Node4</title>
<g id="a_node4"><a xlink:href="$classgpusat_1_1_solver.html#a40781bade0390fd7802658d5b3c545b9" xlink:title=" ">
<polygon fill="white" stroke="black" points="178,-0.5 178,-30.5 324,-30.5 324,-0.5 178,-0.5"/>
<text text-anchor="start" x="186" y="-18.5" font-family="Helvetica,sans-Serif" font-size="10.00">gpusat::Solver::solveIntroduce</text>
<text text-anchor="middle" x="251" y="-7.5" font-family="Helvetica,sans-Serif" font-size="10.00">Forget</text>
</a>
</g>
</g>
<!-- Node1&#45;&gt;Node4 -->
<g id="edge3" class="edge"><title>Node1&#45;&gt;Node4</title>
<path fill="none" stroke="midnightblue" d="M349.703,-30.6282C341.387,-29.3406 332.738,-28.0013 324.175,-26.6755"/>
<polygon fill="midnightblue" stroke="midnightblue" points="349.235,-34.0973 359.653,-32.1688 350.306,-27.1798 349.235,-34.0973"/>
</g>
<!-- Node3 -->
<g id="node3" class="node"><title>Node3</title>
<g id="a_node3"><a xlink:href="$main_8cpp.html#a0ddf1224851353fc92bfbff6f499fa97" xlink:title=" ">
<polygon fill="white" stroke="black" points="52,-55 52,-74 90,-74 90,-55 52,-55"/>
<text text-anchor="middle" x="71" y="-62" font-family="Helvetica,sans-Serif" font-size="10.00">main</text>
</a>
</g>
</g>
<!-- Node2&#45;&gt;Node3 -->
<g id="edge2" class="edge"><title>Node2&#45;&gt;Node3</title>
<path fill="none" stroke="midnightblue" d="M185.293,-64.5C151.392,-64.5 112.398,-64.5 90.1298,-64.5"/>
<polygon fill="midnightblue" stroke="midnightblue" points="185.627,-68.0001 195.627,-64.5 185.627,-61.0001 185.627,-68.0001"/>
</g>
<!-- Node5 -->
<g id="node5" class="node"><title>Node5</title>
<g id="a_node5"><a xlink:href="$classgpusat_1_1_solver.html#ae0fed660431502c4ff23b011de6207ca" xlink:title="Solves the sat formula with a given decomposition.">
<polygon fill="white" stroke="black" points="0,-6 0,-25 142,-25 142,-6 0,-6"/>
<text text-anchor="middle" x="71" y="-13" font-family="Helvetica,sans-Serif" font-size="10.00">gpusat::Solver::solveProblem</text>
</a>
</g>
</g>
<!-- Node4&#45;&gt;Node5 -->
<g id="edge4" class="edge"><title>Node4&#45;&gt;Node5</title>
<path fill="none" stroke="midnightblue" d="M167.58,-15.5C159.106,-15.5 150.551,-15.5 142.226,-15.5"/>
<polygon fill="midnightblue" stroke="midnightblue" points="167.857,-19.0001 177.857,-15.5 167.857,-12.0001 167.857,-19.0001"/>
</g>
</g>
</svg>
