<?xml version="1.0" encoding="UTF-8" standalone="no"?>
<!DOCTYPE svg PUBLIC "-//W3C//DTD SVG 1.1//EN"
 "http://www.w3.org/Graphics/SVG/1.1/DTD/svg11.dtd">
<!-- Generated by graphviz version 2.38.0 (20140413.2041)
 -->
<!-- Title: gpusat::printbagType Pages: 1 -->
<svg width="475pt" height="56pt"
 viewBox="0.00 0.00 475.00 55.50" xmlns="http://www.w3.org/2000/svg" xmlns:xlink="http://www.w3.org/1999/xlink">
<g id="graph0" class="graph" transform="scale(1 1) rotate(0) translate(4 51.5)">
<title>gpusat::printbagType</title>
<polygon fill="white" stroke="none" points="-4,4 -4,-51.5 471,-51.5 471,4 -4,4"/>
<!-- Node1 -->
<g id="node1" class="node"><title>Node1</title>
<g id="a_node1"><a xlink:title="print information for a bag in the tree decomposition">
<polygon fill="#bfbfbf" stroke="black" points="360,-0.5 360,-19.5 467,-19.5 467,-0.5 360,-0.5"/>
<text text-anchor="middle" x="413.5" y="-7.5" font-family="Helvetica,sans-Serif" font-size="10.00">gpusat::printbagType</text>
</a>
</g>
</g>
<!-- Node2 -->
<g id="node2" class="node"><title>Node2</title>
<g id="a_node2"><a xlink:href="$classgpusat_1_1_solver.html#a40781bade0390fd7802658d5b3c545b9" xlink:title=" ">
<polygon fill="white" stroke="black" points="178,-17 178,-47 324,-47 324,-17 178,-17"/>
<text text-anchor="start" x="186" y="-35" font-family="Helvetica,sans-Serif" font-size="10.00">gpusat::Solver::solveIntroduce</text>
<text text-anchor="middle" x="251" y="-24" font-family="Helvetica,sans-Serif" font-size="10.00">Forget</text>
</a>
</g>
</g>
<!-- Node1&#45;&gt;Node2 -->
<g id="edge1" class="edge"><title>Node1&#45;&gt;Node2</title>
<path fill="none" stroke="midnightblue" d="M349.849,-18.5877C341.438,-19.7405 332.757,-20.9305 324.199,-22.1036"/>
<polygon fill="midnightblue" stroke="midnightblue" points="350.514,-22.0293 359.946,-17.2036 349.564,-15.0941 350.514,-22.0293"/>
</g>
<!-- Node3 -->
<g id="node3" class="node"><title>Node3</title>
<g id="a_node3"><a xlink:href="$classgpusat_1_1_solver.html#ae0fed660431502c4ff23b011de6207ca" xlink:title="Solves the sat formula with a given decomposition.">
<polygon fill="white" stroke="black" points="0,-0.5 0,-19.5 142,-19.5 142,-0.5 0,-0.5"/>
<text text-anchor="middle" x="71" y="-7.5" font-family="Helvetica,sans-Serif" font-size="10.00">gpusat::Solver::solveProblem</text>
</a>
</g>
</g>
<!-- Node1&#45;&gt;Node3 -->
<g id="edge3" class="edge"><title>Node1&#45;&gt;Node3</title>
<path fill="none" stroke="midnightblue" d="M349.608,-8.40368C341.003,-8.23645 332.284,-8.09359 324,-8 259.115,-7.26693 242.886,-7.38792 178,-8 166.405,-8.10938 154.097,-8.28605 142.129,-8.49026"/>
<polygon fill="midnightblue" stroke="midnightblue" points="349.552,-11.9032 359.622,-8.60968 349.696,-4.90466 349.552,-11.9032"/>
</g>
<!-- Node2&#45;&gt;Node3 -->
<g id="edge2" class="edge"><title>Node2&#45;&gt;Node3</title>
<path fill="none" stroke="midnightblue" d="M167.86,-21.8478C159.294,-20.7891 150.642,-19.7198 142.226,-18.6796"/>
<polygon fill="midnightblue" stroke="midnightblue" points="167.503,-25.3303 177.857,-23.0835 168.362,-18.3832 167.503,-25.3303"/>
</g>
</g>
</svg>
