<?xml version="1.0" encoding="UTF-8" standalone="no"?>
<!DOCTYPE svg PUBLIC "-//W3C//DTD SVG 1.1//EN"
 "http://www.w3.org/Graphics/SVG/1.1/DTD/svg11.dtd">
<!-- Generated by graphviz version 2.38.0 (20140413.2041)
 -->
<!-- Title: include/solver.h Pages: 1 -->
<svg width="672pt" height="196pt"
 viewBox="0.00 0.00 671.50 196.00" xmlns="http://www.w3.org/2000/svg" xmlns:xlink="http://www.w3.org/1999/xlink">
<g id="graph0" class="graph" transform="scale(1 1) rotate(0) translate(4 192)">
<title>include/solver.h</title>
<polygon fill="white" stroke="none" points="-4,4 -4,-192 667.5,-192 667.5,4 -4,4"/>
<!-- Node1 -->
<g id="node1" class="node"><title>Node1</title>
<g id="a_node1"><a xlink:title=" ">
<polygon fill="#bfbfbf" stroke="black" points="122.5,-168.5 122.5,-187.5 205.5,-187.5 205.5,-168.5 122.5,-168.5"/>
<text text-anchor="middle" x="164" y="-175.5" font-family="Helvetica,sans-Serif" font-size="10.00">include/solver.h</text>
</a>
</g>
</g>
<!-- Node2 -->
<g id="node2" class="node"><title>Node2</title>
<g id="a_node2"><a xlink:title=" ">
<polygon fill="white" stroke="#bfbfbf" points="45,-112.5 45,-131.5 103,-131.5 103,-112.5 45,-112.5"/>
<text text-anchor="middle" x="74" y="-119.5" font-family="Helvetica,sans-Serif" font-size="10.00">CL/cl.hpp</text>
</a>
</g>
</g>
<!-- Node1&#45;&gt;Node2 -->
<g id="edge1" class="edge"><title>Node1&#45;&gt;Node2</title>
<path fill="none" stroke="midnightblue" d="M149.54,-168.324C135.5,-159.9 113.952,-146.971 97.4569,-137.074"/>
<polygon fill="midnightblue" stroke="midnightblue" points="98.7999,-133.798 88.4242,-131.655 95.1984,-139.801 98.7999,-133.798"/>
</g>
<!-- Node3 -->
<g id="node3" class="node"><title>Node3</title>
<g id="a_node3"><a xlink:href="$graphoutput_8h.html" xlink:title=" ">
<polygon fill="white" stroke="black" points="159,-112.5 159,-131.5 235,-131.5 235,-112.5 159,-112.5"/>
<text text-anchor="middle" x="197" y="-119.5" font-family="Helvetica,sans-Serif" font-size="10.00">graphoutput.h</text>
</a>
</g>
</g>
<!-- Node1&#45;&gt;Node3 -->
<g id="edge2" class="edge"><title>Node1&#45;&gt;Node3</title>
<path fill="none" stroke="midnightblue" d="M169.449,-168.083C174.014,-160.613 180.668,-149.724 186.293,-140.52"/>
<polygon fill="midnightblue" stroke="midnightblue" points="189.424,-142.109 191.652,-131.751 183.451,-138.459 189.424,-142.109"/>
</g>
<!-- Node6 -->
<g id="node6" class="node"><title>Node6</title>
<g id="a_node6"><a xlink:href="$types_8h.html" xlink:title=" ">
<polygon fill="white" stroke="black" points="109.5,-56.5 109.5,-75.5 158.5,-75.5 158.5,-56.5 109.5,-56.5"/>
<text text-anchor="middle" x="134" y="-63.5" font-family="Helvetica,sans-Serif" font-size="10.00">types.h</text>
</a>
</g>
</g>
<!-- Node1&#45;&gt;Node6 -->
<g id="edge11" class="edge"><title>Node1&#45;&gt;Node6</title>
<path fill="none" stroke="midnightblue" d="M161.161,-168.419C158.217,-159.398 153.554,-144.769 150,-132 145.709,-116.586 141.406,-98.9525 138.345,-85.9442"/>
<polygon fill="midnightblue" stroke="midnightblue" points="141.678,-84.824 136.006,-75.8754 134.86,-86.408 141.678,-84.824"/>
</g>
<!-- Node12 -->
<g id="node12" class="node"><title>Node12</title>
<g id="a_node12"><a xlink:href="$visualization_8h.html" xlink:title=" ">
<polygon fill="white" stroke="black" points="318.5,-112.5 318.5,-131.5 395.5,-131.5 395.5,-112.5 318.5,-112.5"/>
<text text-anchor="middle" x="357" y="-119.5" font-family="Helvetica,sans-Serif" font-size="10.00">visualization.h</text>
</a>
</g>
</g>
<!-- Node1&#45;&gt;Node12 -->
<g id="edge12" class="edge"><title>Node1&#45;&gt;Node12</title>
<path fill="none" stroke="midnightblue" d="M194.581,-168.444C227.615,-159.201 280.388,-144.436 316.766,-134.257"/>
<polygon fill="midnightblue" stroke="midnightblue" points="317.875,-137.582 326.562,-131.516 315.988,-130.84 317.875,-137.582"/>
</g>
<!-- Node4 -->
<g id="node4" class="node"><title>Node4</title>
<g id="a_node4"><a xlink:title=" ">
<polygon fill="white" stroke="#bfbfbf" points="56.5,-56.5 56.5,-75.5 91.5,-75.5 91.5,-56.5 56.5,-56.5"/>
<text text-anchor="middle" x="74" y="-63.5" font-family="Helvetica,sans-Serif" font-size="10.00">map</text>
</a>
</g>
</g>
<!-- Node3&#45;&gt;Node4 -->
<g id="edge3" class="edge"><title>Node3&#45;&gt;Node4</title>
<path fill="none" stroke="midnightblue" d="M177.51,-112.444C156.884,-103.388 124.18,-89.0302 101.06,-78.8799"/>
<polygon fill="midnightblue" stroke="midnightblue" points="102.364,-75.6303 91.8011,-74.8151 99.5505,-82.0398 102.364,-75.6303"/>
</g>
<!-- Node5 -->
<g id="node5" class="node"><title>Node5</title>
<g id="a_node5"><a xlink:title=" ">
<polygon fill="white" stroke="#bfbfbf" points="176.5,-56.5 176.5,-75.5 217.5,-75.5 217.5,-56.5 176.5,-56.5"/>
<text text-anchor="middle" x="197" y="-63.5" font-family="Helvetica,sans-Serif" font-size="10.00">string</text>
</a>
</g>
</g>
<!-- Node3&#45;&gt;Node5 -->
<g id="edge4" class="edge"><title>Node3&#45;&gt;Node5</title>
<path fill="none" stroke="midnightblue" d="M197,-112.083C197,-105.006 197,-94.8611 197,-85.9865"/>
<polygon fill="midnightblue" stroke="midnightblue" points="200.5,-85.751 197,-75.7511 193.5,-85.7511 200.5,-85.751"/>
</g>
<!-- Node3&#45;&gt;Node6 -->
<g id="edge5" class="edge"><title>Node3&#45;&gt;Node6</title>
<path fill="none" stroke="midnightblue" d="M186.878,-112.324C177.474,-104.263 163.256,-92.0765 151.931,-82.3695"/>
<polygon fill="midnightblue" stroke="midnightblue" points="154.177,-79.6844 144.306,-75.8339 149.621,-84.9993 154.177,-79.6844"/>
</g>
<!-- Node7 -->
<g id="node7" class="node"><title>Node7</title>
<g id="a_node7"><a xlink:title=" ">
<polygon fill="white" stroke="#bfbfbf" points="48.5,-0.5 48.5,-19.5 135.5,-19.5 135.5,-0.5 48.5,-0.5"/>
<text text-anchor="middle" x="92" y="-7.5" font-family="Helvetica,sans-Serif" font-size="10.00">CL/cl_platform.h</text>
</a>
</g>
</g>
<!-- Node6&#45;&gt;Node7 -->
<g id="edge6" class="edge"><title>Node6&#45;&gt;Node7</title>
<path fill="none" stroke="midnightblue" d="M127.065,-56.083C121.071,-48.3768 112.248,-37.0333 104.952,-27.6531"/>
<polygon fill="midnightblue" stroke="midnightblue" points="107.709,-25.4958 98.8064,-19.7511 102.183,-29.7934 107.709,-25.4958"/>
</g>
<!-- Node8 -->
<g id="node8" class="node"><title>Node8</title>
<g id="a_node8"><a xlink:title=" ">
<polygon fill="white" stroke="#bfbfbf" points="154,-0.5 154,-19.5 198,-19.5 198,-0.5 154,-0.5"/>
<text text-anchor="middle" x="176" y="-7.5" font-family="Helvetica,sans-Serif" font-size="10.00">cmath</text>
</a>
</g>
</g>
<!-- Node6&#45;&gt;Node8 -->
<g id="edge7" class="edge"><title>Node6&#45;&gt;Node8</title>
<path fill="none" stroke="midnightblue" d="M140.935,-56.083C146.929,-48.3768 155.752,-37.0333 163.048,-27.6531"/>
<polygon fill="midnightblue" stroke="midnightblue" points="165.817,-29.7934 169.194,-19.7511 160.291,-25.4958 165.817,-29.7934"/>
</g>
<!-- Node9 -->
<g id="node9" class="node"><title>Node9</title>
<g id="a_node9"><a xlink:title=" ">
<polygon fill="white" stroke="#bfbfbf" points="216.5,-0.5 216.5,-19.5 245.5,-19.5 245.5,-0.5 216.5,-0.5"/>
<text text-anchor="middle" x="231" y="-7.5" font-family="Helvetica,sans-Serif" font-size="10.00">list</text>
</a>
</g>
</g>
<!-- Node6&#45;&gt;Node9 -->
<g id="edge8" class="edge"><title>Node6&#45;&gt;Node9</title>
<path fill="none" stroke="midnightblue" d="M149.585,-56.324C165.273,-47.5905 189.66,-34.0139 207.657,-23.995"/>
<polygon fill="midnightblue" stroke="midnightblue" points="209.371,-27.0467 216.406,-19.1245 205.966,-20.9306 209.371,-27.0467"/>
</g>
<!-- Node10 -->
<g id="node10" class="node"><title>Node10</title>
<g id="a_node10"><a xlink:title=" ">
<polygon fill="white" stroke="#bfbfbf" points="0,-0.5 0,-19.5 30,-19.5 30,-0.5 0,-0.5"/>
<text text-anchor="middle" x="15" y="-7.5" font-family="Helvetica,sans-Serif" font-size="10.00">set</text>
</a>
</g>
</g>
<!-- Node6&#45;&gt;Node10 -->
<g id="edge9" class="edge"><title>Node6&#45;&gt;Node10</title>
<path fill="none" stroke="midnightblue" d="M115.144,-56.4435C94.7064,-47.1693 62.0134,-32.3338 39.5762,-22.1522"/>
<polygon fill="midnightblue" stroke="midnightblue" points="40.9146,-18.9161 30.362,-17.971 38.0219,-25.2905 40.9146,-18.9161"/>
</g>
<!-- Node11 -->
<g id="node11" class="node"><title>Node11</title>
<g id="a_node11"><a xlink:title=" ">
<polygon fill="white" stroke="#bfbfbf" points="366,-0.5 366,-19.5 408,-19.5 408,-0.5 366,-0.5"/>
<text text-anchor="middle" x="387" y="-7.5" font-family="Helvetica,sans-Serif" font-size="10.00">vector</text>
</a>
</g>
</g>
<!-- Node6&#45;&gt;Node11 -->
<g id="edge10" class="edge"><title>Node6&#45;&gt;Node11</title>
<path fill="none" stroke="midnightblue" d="M158.822,-58.046C161.575,-57.3298 164.343,-56.6334 167,-56 233.948,-40.0412 313.183,-24.693 355.921,-16.7025"/>
<polygon fill="midnightblue" stroke="midnightblue" points="356.779,-20.103 365.971,-14.8336 355.499,-13.221 356.779,-20.103"/>
</g>
<!-- Node12&#45;&gt;Node5 -->
<g id="edge18" class="edge"><title>Node12&#45;&gt;Node5</title>
<path fill="none" stroke="midnightblue" d="M331.648,-112.444C303.306,-102.878 257.435,-87.3969 227.244,-77.2075"/>
<polygon fill="midnightblue" stroke="midnightblue" points="228.249,-73.8526 217.655,-73.971 226.01,-80.4851 228.249,-73.8526"/>
</g>
<!-- Node12&#45;&gt;Node6 -->
<g id="edge19" class="edge"><title>Node12&#45;&gt;Node6</title>
<path fill="none" stroke="midnightblue" d="M319.416,-112.492C283.12,-104.188 226.36,-90.9745 168.831,-76.4118"/>
<polygon fill="midnightblue" stroke="midnightblue" points="169.397,-72.9444 158.843,-73.8715 167.671,-79.7284 169.397,-72.9444"/>
</g>
<!-- Node12&#45;&gt;Node11 -->
<g id="edge20" class="edge"><title>Node12&#45;&gt;Node11</title>
<path fill="none" stroke="midnightblue" d="M395.686,-116.826C421.72,-111.778 454.243,-100.629 471,-76 488.128,-50.825 448.21,-31.0829 417.713,-20.2395"/>
<polygon fill="midnightblue" stroke="midnightblue" points="418.82,-16.9195 408.226,-17.036 416.581,-23.5516 418.82,-16.9195"/>
</g>
<!-- Node13 -->
<g id="node13" class="node"><title>Node13</title>
<g id="a_node13"><a xlink:title=" ">
<polygon fill="white" stroke="#bfbfbf" points="518,-56.5 518,-75.5 572,-75.5 572,-56.5 518,-56.5"/>
<text text-anchor="middle" x="545" y="-63.5" font-family="Helvetica,sans-Serif" font-size="10.00">iostream</text>
</a>
</g>
</g>
<!-- Node12&#45;&gt;Node13 -->
<g id="edge13" class="edge"><title>Node12&#45;&gt;Node13</title>
<path fill="none" stroke="midnightblue" d="M386.789,-112.444C419.583,-103.024 472.349,-87.8679 507.827,-77.6774"/>
<polygon fill="midnightblue" stroke="midnightblue" points="509.147,-80.9399 517.792,-74.8151 507.214,-74.2119 509.147,-80.9399"/>
</g>
<!-- Node14 -->
<g id="node14" class="node"><title>Node14</title>
<g id="a_node14"><a xlink:title=" ">
<polygon fill="white" stroke="#bfbfbf" points="590.5,-56.5 590.5,-75.5 663.5,-75.5 663.5,-56.5 590.5,-56.5"/>
<text text-anchor="middle" x="627" y="-63.5" font-family="Helvetica,sans-Serif" font-size="10.00">json/reader.h</text>
</a>
</g>
</g>
<!-- Node12&#45;&gt;Node14 -->
<g id="edge14" class="edge"><title>Node12&#45;&gt;Node14</title>
<path fill="none" stroke="midnightblue" d="M395.684,-113.263C444.35,-103.53 527.859,-86.8281 580.108,-76.3785"/>
<polygon fill="midnightblue" stroke="midnightblue" points="581.001,-79.7691 590.121,-74.3758 579.629,-72.9051 581.001,-79.7691"/>
</g>
<!-- Node15 -->
<g id="node15" class="node"><title>Node15</title>
<g id="a_node15"><a xlink:title=" ">
<polygon fill="white" stroke="#bfbfbf" points="236,-56.5 236,-75.5 304,-75.5 304,-56.5 236,-56.5"/>
<text text-anchor="middle" x="270" y="-63.5" font-family="Helvetica,sans-Serif" font-size="10.00">json/value.h</text>
</a>
</g>
</g>
<!-- Node12&#45;&gt;Node15 -->
<g id="edge15" class="edge"><title>Node12&#45;&gt;Node15</title>
<path fill="none" stroke="midnightblue" d="M343.022,-112.324C329.45,-103.9 308.62,-90.9709 292.675,-81.0741"/>
<polygon fill="midnightblue" stroke="midnightblue" points="294.286,-77.9544 283.943,-75.6545 290.594,-83.9019 294.286,-77.9544"/>
</g>
<!-- Node16 -->
<g id="node16" class="node"><title>Node16</title>
<g id="a_node16"><a xlink:title=" ">
<polygon fill="white" stroke="#bfbfbf" points="322.5,-56.5 322.5,-75.5 391.5,-75.5 391.5,-56.5 322.5,-56.5"/>
<text text-anchor="middle" x="357" y="-63.5" font-family="Helvetica,sans-Serif" font-size="10.00">json/writer.h</text>
</a>
</g>
</g>
<!-- Node12&#45;&gt;Node16 -->
<g id="edge16" class="edge"><title>Node12&#45;&gt;Node16</title>
<path fill="none" stroke="midnightblue" d="M357,-112.083C357,-105.006 357,-94.8611 357,-85.9865"/>
<polygon fill="midnightblue" stroke="midnightblue" points="360.5,-85.751 357,-75.7511 353.5,-85.7511 360.5,-85.751"/>
</g>
<!-- Node17 -->
<g id="node17" class="node"><title>Node17</title>
<g id="a_node17"><a xlink:title=" ">
<polygon fill="white" stroke="#bfbfbf" points="410,-56.5 410,-75.5 462,-75.5 462,-56.5 410,-56.5"/>
<text text-anchor="middle" x="436" y="-63.5" font-family="Helvetica,sans-Serif" font-size="10.00">memory</text>
</a>
</g>
</g>
<!-- Node12&#45;&gt;Node17 -->
<g id="edge17" class="edge"><title>Node12&#45;&gt;Node17</title>
<path fill="none" stroke="midnightblue" d="M369.693,-112.324C381.901,-103.979 400.578,-91.2122 415.003,-81.3524"/>
<polygon fill="midnightblue" stroke="midnightblue" points="417.058,-84.1871 423.339,-75.6545 413.108,-78.4082 417.058,-84.1871"/>
</g>
</g>
</svg>
