<?xml version="1.0" encoding="UTF-8" standalone="no"?>
<!DOCTYPE svg PUBLIC "-//W3C//DTD SVG 1.1//EN"
 "http://www.w3.org/Graphics/SVG/1.1/DTD/svg11.dtd">
<!-- Generated by graphviz version 2.38.0 (20140413.2041)
 -->
<!-- Title: gpusat::TableLines Pages: 1 -->
<svg width="302pt" height="95pt"
 viewBox="0.00 0.00 302.00 95.00" xmlns="http://www.w3.org/2000/svg" xmlns:xlink="http://www.w3.org/1999/xlink">
<g id="graph0" class="graph" transform="scale(1 1) rotate(0) translate(4 91)">
<title>gpusat::TableLines</title>
<polygon fill="white" stroke="none" points="-4,4 -4,-91 298,-91 298,4 -4,4"/>
<!-- Node1 -->
<g id="node1" class="node"><title>Node1</title>
<g id="a_node1"><a xlink:title=" ">
<polygon fill="#bfbfbf" stroke="black" points="117,-0.5 117,-19.5 215,-19.5 215,-0.5 117,-0.5"/>
<text text-anchor="middle" x="166" y="-7.5" font-family="Helvetica,sans-Serif" font-size="10.00">gpusat::TableLines</text>
</a>
</g>
</g>
<!-- Node2 -->
<g id="node2" class="node"><title>Node2</title>
<g id="a_node2"><a xlink:href="$classgpusat_1_1_bag_matrix.html" xlink:title=" ">
<polygon fill="white" stroke="black" points="0,-67.5 0,-86.5 96,-86.5 96,-67.5 0,-67.5"/>
<text text-anchor="middle" x="48" y="-74.5" font-family="Helvetica,sans-Serif" font-size="10.00">gpusat::BagMatrix</text>
</a>
</g>
</g>
<!-- Node2&#45;&gt;Node1 -->
<g id="edge1" class="edge"><title>Node2&#45;&gt;Node1</title>
<path fill="none" stroke="#9a32cd" stroke-dasharray="5,2" d="M72.894,-62.2872C96.2808,-49.4047 130.556,-30.5243 150.338,-19.6273"/>
<polygon fill="#9a32cd" stroke="#9a32cd" points="70.9843,-59.3432 63.914,-67.2338 74.3618,-65.4745 70.9843,-59.3432"/>
<text text-anchor="middle" x="136.5" y="-41" font-family="Helvetica,sans-Serif" font-size="10.00"> solutions</text>
</g>
<!-- Node3 -->
<g id="node3" class="node"><title>Node3</title>
<g id="a_node3"><a xlink:title=" ">
<polygon fill="white" stroke="#bfbfbf" points="114,-67.5 114,-86.5 218,-86.5 218,-67.5 114,-67.5"/>
<text text-anchor="middle" x="166" y="-74.5" font-family="Helvetica,sans-Serif" font-size="10.00">vector&lt; std::string &gt;</text>
</a>
</g>
</g>
<!-- Node3&#45;&gt;Node1 -->
<g id="edge2" class="edge"><title>Node3&#45;&gt;Node1</title>
<path fill="none" stroke="#9a32cd" stroke-dasharray="5,2" d="M166,-57.037C166,-44.6703 166,-29.1198 166,-19.6273"/>
<polygon fill="#9a32cd" stroke="#9a32cd" points="162.5,-57.2338 166,-67.2338 169.5,-57.2338 162.5,-57.2338"/>
<text text-anchor="middle" x="186" y="-41" font-family="Helvetica,sans-Serif" font-size="10.00"> headline</text>
</g>
<!-- Node4 -->
<g id="node4" class="node"><title>Node4</title>
<g id="a_node4"><a xlink:title=" ">
<polygon fill="white" stroke="#bfbfbf" points="236,-67.5 236,-86.5 294,-86.5 294,-67.5 236,-67.5"/>
<text text-anchor="middle" x="265" y="-74.5" font-family="Helvetica,sans-Serif" font-size="10.00">cl_double</text>
</a>
</g>
</g>
<!-- Node4&#45;&gt;Node1 -->
<g id="edge3" class="edge"><title>Node4&#45;&gt;Node1</title>
<path fill="none" stroke="#9a32cd" stroke-dasharray="5,2" d="M244.575,-61.4973C234.293,-54.2971 221.582,-45.5468 210,-38 200.238,-31.6393 189.044,-24.7761 180.39,-19.561"/>
<polygon fill="#9a32cd" stroke="#9a32cd" points="242.704,-64.4608 252.896,-67.3565 246.734,-58.7373 242.704,-64.4608"/>
<text text-anchor="middle" x="243.5" y="-41" font-family="Helvetica,sans-Serif" font-size="10.00"> totalSol</text>
</g>
</g>
</svg>
