<?xml version="1.0" encoding="UTF-8" standalone="no"?>
<!DOCTYPE svg PUBLIC "-//W3C//DTD SVG 1.1//EN"
 "http://www.w3.org/Graphics/SVG/1.1/DTD/svg11.dtd">
<!-- Generated by graphviz version 2.38.0 (20140413.2041)
 -->
<!-- Title: gpusat::satformulaType Pages: 1 -->
<svg width="442pt" height="117pt"
 viewBox="0.00 0.00 441.50 117.00" xmlns="http://www.w3.org/2000/svg" xmlns:xlink="http://www.w3.org/1999/xlink">
<g id="graph0" class="graph" transform="scale(1 1) rotate(0) translate(4 113)">
<title>gpusat::satformulaType</title>
<polygon fill="white" stroke="none" points="-4,4 -4,-113 437.5,-113 437.5,4 -4,4"/>
<!-- Node1 -->
<g id="node1" class="node"><title>Node1</title>
<g id="a_node1"><a xlink:title="type for saving the sat formula">
<polygon fill="#bfbfbf" stroke="black" points="178.5,-0.5 178.5,-19.5 296.5,-19.5 296.5,-0.5 178.5,-0.5"/>
<text text-anchor="middle" x="237.5" y="-7.5" font-family="Helvetica,sans-Serif" font-size="10.00">gpusat::satformulaType</text>
</a>
</g>
</g>
<!-- Node2 -->
<g id="node2" class="node"><title>Node2</title>
<g id="a_node2"><a xlink:title=" ">
<polygon fill="white" stroke="#bfbfbf" points="0,-84 0,-103 91,-103 91,-84 0,-84"/>
<text text-anchor="middle" x="45.5" y="-91" font-family="Helvetica,sans-Serif" font-size="10.00">vector&lt; cl_long &gt;</text>
</a>
</g>
</g>
<!-- Node2&#45;&gt;Node1 -->
<g id="edge1" class="edge"><title>Node2&#45;&gt;Node1</title>
<path fill="none" stroke="#9a32cd" stroke-dasharray="5,2" d="M68.853,-78.8444C89.7617,-66.993 121.505,-49.9132 150.5,-38 168.2,-30.7275 188.604,-24.2979 205.202,-19.539"/>
<polygon fill="#9a32cd" stroke="#9a32cd" points="66.9938,-75.8757 60.0575,-83.8843 70.4741,-81.9493 66.9938,-75.8757"/>
<text text-anchor="middle" x="163" y="-46.5" font-family="Helvetica,sans-Serif" font-size="10.00"> facts</text>
</g>
<!-- Node3 -->
<g id="node3" class="node"><title>Node3</title>
<g id="a_node3"><a xlink:title=" ">
<polygon fill="white" stroke="#bfbfbf" points="109.5,-78.5 109.5,-108.5 205.5,-108.5 205.5,-78.5 109.5,-78.5"/>
<text text-anchor="start" x="117.5" y="-96.5" font-family="Helvetica,sans-Serif" font-size="10.00">vector&lt; std::vector</text>
<text text-anchor="middle" x="157.5" y="-85.5" font-family="Helvetica,sans-Serif" font-size="10.00">&lt; cl_long &gt; &gt;</text>
</a>
</g>
</g>
<!-- Node3&#45;&gt;Node1 -->
<g id="edge2" class="edge"><title>Node3&#45;&gt;Node1</title>
<path fill="none" stroke="#9a32cd" stroke-dasharray="5,2" d="M171.005,-69.8284C177.852,-59.4272 186.772,-47.3579 196.5,-38 203.994,-30.7914 213.656,-24.3215 221.719,-19.5234"/>
<polygon fill="#9a32cd" stroke="#9a32cd" points="167.95,-68.1093 165.553,-78.4293 173.863,-71.8567 167.95,-68.1093"/>
<text text-anchor="middle" x="215" y="-46.5" font-family="Helvetica,sans-Serif" font-size="10.00"> clauses</text>
</g>
<!-- Node4 -->
<g id="node4" class="node"><title>Node4</title>
<g id="a_node4"><a xlink:title=" ">
<polygon fill="white" stroke="#bfbfbf" points="224,-84 224,-103 271,-103 271,-84 224,-84"/>
<text text-anchor="middle" x="247.5" y="-91" font-family="Helvetica,sans-Serif" font-size="10.00">cl_long</text>
</a>
</g>
</g>
<!-- Node4&#45;&gt;Node1 -->
<g id="edge3" class="edge"><title>Node4&#45;&gt;Node1</title>
<path fill="none" stroke="#9a32cd" stroke-dasharray="5,2" d="M241.543,-74.0879C240.308,-69.5308 239.177,-64.6272 238.5,-60 236.455,-46.0243 236.642,-29.5703 237.026,-19.7283"/>
<polygon fill="#9a32cd" stroke="#9a32cd" points="238.23,-75.2237 244.451,-83.7992 244.935,-73.2154 238.23,-75.2237"/>
<text text-anchor="middle" x="266" y="-52" font-family="Helvetica,sans-Serif" font-size="10.00"> numVars</text>
<text text-anchor="middle" x="266" y="-41" font-family="Helvetica,sans-Serif" font-size="10.00">numWeights</text>
</g>
<!-- Node5 -->
<g id="node5" class="node"><title>Node5</title>
<g id="a_node5"><a xlink:title=" ">
<polygon fill="white" stroke="#bfbfbf" points="298,-84 298,-103 333,-103 333,-84 298,-84"/>
<text text-anchor="middle" x="315.5" y="-91" font-family="Helvetica,sans-Serif" font-size="10.00">bool</text>
</a>
</g>
</g>
<!-- Node5&#45;&gt;Node1 -->
<g id="edge4" class="edge"><title>Node5&#45;&gt;Node1</title>
<path fill="none" stroke="#9a32cd" stroke-dasharray="5,2" d="M311.596,-73.803C308.383,-62.3096 302.802,-47.9335 293.5,-38 285.827,-29.8067 275.146,-23.8144 265.168,-19.587"/>
<polygon fill="#9a32cd" stroke="#9a32cd" points="308.237,-74.8054 313.994,-83.6999 315.04,-73.1569 308.237,-74.8054"/>
<text text-anchor="middle" x="321.5" y="-46.5" font-family="Helvetica,sans-Serif" font-size="10.00"> unsat</text>
</g>
<!-- Node6 -->
<g id="node6" class="node"><title>Node6</title>
<g id="a_node6"><a xlink:title=" ">
<polygon fill="white" stroke="#bfbfbf" points="351.5,-84 351.5,-103 409.5,-103 409.5,-84 351.5,-84"/>
<text text-anchor="middle" x="380.5" y="-91" font-family="Helvetica,sans-Serif" font-size="10.00">cl_double</text>
</a>
</g>
</g>
<!-- Node6&#45;&gt;Node1 -->
<g id="edge5" class="edge"><title>Node6&#45;&gt;Node1</title>
<path fill="none" stroke="#9a32cd" stroke-dasharray="5,2" d="M371.415,-74.8883C364.296,-62.7859 353.297,-47.2841 339.5,-38 326.734,-29.4097 311.363,-23.5498 296.472,-19.5534"/>
<polygon fill="#9a32cd" stroke="#9a32cd" points="368.372,-76.6196 376.271,-83.6815 374.5,-73.2357 368.372,-76.6196"/>
<text text-anchor="middle" x="397.5" y="-46.5" font-family="Helvetica,sans-Serif" font-size="10.00"> variableWeights</text>
</g>
</g>
</svg>
