<?xml version="1.0" encoding="UTF-8" standalone="no"?>
<!DOCTYPE svg PUBLIC "-//W3C//DTD SVG 1.1//EN"
 "http://www.w3.org/Graphics/SVG/1.1/DTD/svg11.dtd">
<!-- Generated by graphviz version 2.38.0 (20140413.2041)
 -->
<!-- Title: include/visualization.h Pages: 1 -->
<svg width="599pt" height="140pt"
 viewBox="0.00 0.00 599.00 140.00" xmlns="http://www.w3.org/2000/svg" xmlns:xlink="http://www.w3.org/1999/xlink">
<g id="graph0" class="graph" transform="scale(1 1) rotate(0) translate(4 136)">
<title>include/visualization.h</title>
<polygon fill="white" stroke="none" points="-4,4 -4,-136 595,-136 595,4 -4,4"/>
<!-- Node1 -->
<g id="node1" class="node"><title>Node1</title>
<g id="a_node1"><a xlink:title=" ">
<polygon fill="#bfbfbf" stroke="black" points="268.5,-112.5 268.5,-131.5 379.5,-131.5 379.5,-112.5 268.5,-112.5"/>
<text text-anchor="middle" x="324" y="-119.5" font-family="Helvetica,sans-Serif" font-size="10.00">include/visualization.h</text>
</a>
</g>
</g>
<!-- Node2 -->
<g id="node2" class="node"><title>Node2</title>
<g id="a_node2"><a xlink:title=" ">
<polygon fill="white" stroke="#bfbfbf" points="0,-56.5 0,-75.5 54,-75.5 54,-56.5 0,-56.5"/>
<text text-anchor="middle" x="27" y="-63.5" font-family="Helvetica,sans-Serif" font-size="10.00">iostream</text>
</a>
</g>
</g>
<!-- Node1&#45;&gt;Node2 -->
<g id="edge1" class="edge"><title>Node1&#45;&gt;Node2</title>
<path fill="none" stroke="midnightblue" d="M268.275,-112.62C217.553,-104.716 140.393,-92.0014 64.3152,-76.1518"/>
<polygon fill="midnightblue" stroke="midnightblue" points="64.5833,-72.6316 54.0769,-73.9981 63.1423,-79.4817 64.5833,-72.6316"/>
</g>
<!-- Node3 -->
<g id="node3" class="node"><title>Node3</title>
<g id="a_node3"><a xlink:title=" ">
<polygon fill="white" stroke="#bfbfbf" points="72.5,-56.5 72.5,-75.5 145.5,-75.5 145.5,-56.5 72.5,-56.5"/>
<text text-anchor="middle" x="109" y="-63.5" font-family="Helvetica,sans-Serif" font-size="10.00">json/reader.h</text>
</a>
</g>
</g>
<!-- Node1&#45;&gt;Node3 -->
<g id="edge2" class="edge"><title>Node1&#45;&gt;Node3</title>
<path fill="none" stroke="midnightblue" d="M289.933,-112.444C252.82,-103.122 193.339,-88.1828 152.785,-77.9972"/>
<polygon fill="midnightblue" stroke="midnightblue" points="153.459,-74.5579 142.908,-75.5164 151.754,-81.347 153.459,-74.5579"/>
</g>
<!-- Node4 -->
<g id="node4" class="node"><title>Node4</title>
<g id="a_node4"><a xlink:title=" ">
<polygon fill="white" stroke="#bfbfbf" points="164,-56.5 164,-75.5 232,-75.5 232,-56.5 164,-56.5"/>
<text text-anchor="middle" x="198" y="-63.5" font-family="Helvetica,sans-Serif" font-size="10.00">json/value.h</text>
</a>
</g>
</g>
<!-- Node1&#45;&gt;Node4 -->
<g id="edge3" class="edge"><title>Node1&#45;&gt;Node4</title>
<path fill="none" stroke="midnightblue" d="M304.035,-112.444C283.391,-103.596 250.937,-89.6875 227.368,-79.5865"/>
<polygon fill="midnightblue" stroke="midnightblue" points="228.442,-76.2387 217.872,-75.5164 225.684,-82.6727 228.442,-76.2387"/>
</g>
<!-- Node5 -->
<g id="node5" class="node"><title>Node5</title>
<g id="a_node5"><a xlink:title=" ">
<polygon fill="white" stroke="#bfbfbf" points="250.5,-56.5 250.5,-75.5 319.5,-75.5 319.5,-56.5 250.5,-56.5"/>
<text text-anchor="middle" x="285" y="-63.5" font-family="Helvetica,sans-Serif" font-size="10.00">json/writer.h</text>
</a>
</g>
</g>
<!-- Node1&#45;&gt;Node5 -->
<g id="edge4" class="edge"><title>Node1&#45;&gt;Node5</title>
<path fill="none" stroke="midnightblue" d="M317.56,-112.083C312.051,-104.455 303.969,-93.2645 297.235,-83.9408"/>
<polygon fill="midnightblue" stroke="midnightblue" points="300.013,-81.8087 291.32,-75.7511 294.338,-85.9071 300.013,-81.8087"/>
</g>
<!-- Node6 -->
<g id="node6" class="node"><title>Node6</title>
<g id="a_node6"><a xlink:title=" ">
<polygon fill="white" stroke="#bfbfbf" points="338,-56.5 338,-75.5 390,-75.5 390,-56.5 338,-56.5"/>
<text text-anchor="middle" x="364" y="-63.5" font-family="Helvetica,sans-Serif" font-size="10.00">memory</text>
</a>
</g>
</g>
<!-- Node1&#45;&gt;Node6 -->
<g id="edge5" class="edge"><title>Node1&#45;&gt;Node6</title>
<path fill="none" stroke="midnightblue" d="M330.605,-112.083C336.255,-104.455 344.545,-93.2645 351.451,-83.9408"/>
<polygon fill="midnightblue" stroke="midnightblue" points="354.378,-85.87 357.518,-75.7511 348.753,-81.7034 354.378,-85.87"/>
</g>
<!-- Node7 -->
<g id="node7" class="node"><title>Node7</title>
<g id="a_node7"><a xlink:title=" ">
<polygon fill="white" stroke="#bfbfbf" points="408.5,-56.5 408.5,-75.5 449.5,-75.5 449.5,-56.5 408.5,-56.5"/>
<text text-anchor="middle" x="429" y="-63.5" font-family="Helvetica,sans-Serif" font-size="10.00">string</text>
</a>
</g>
</g>
<!-- Node1&#45;&gt;Node7 -->
<g id="edge6" class="edge"><title>Node1&#45;&gt;Node7</title>
<path fill="none" stroke="midnightblue" d="M340.87,-112.324C357.709,-103.664 383.807,-90.2424 403.238,-80.249"/>
<polygon fill="midnightblue" stroke="midnightblue" points="404.88,-83.3405 412.172,-75.6545 401.678,-77.1155 404.88,-83.3405"/>
</g>
<!-- Node8 -->
<g id="node8" class="node"><title>Node8</title>
<g id="a_node8"><a xlink:href="$types_8h.html" xlink:title=" ">
<polygon fill="white" stroke="black" points="467.5,-56.5 467.5,-75.5 516.5,-75.5 516.5,-56.5 467.5,-56.5"/>
<text text-anchor="middle" x="492" y="-63.5" font-family="Helvetica,sans-Serif" font-size="10.00">types.h</text>
</a>
</g>
</g>
<!-- Node1&#45;&gt;Node8 -->
<g id="edge7" class="edge"><title>Node1&#45;&gt;Node8</title>
<path fill="none" stroke="midnightblue" d="M350.62,-112.444C379.59,-103.132 426.002,-88.2137 457.688,-78.0289"/>
<polygon fill="midnightblue" stroke="midnightblue" points="458.968,-81.2938 467.417,-74.9015 456.826,-74.6296 458.968,-81.2938"/>
</g>
<!-- Node13 -->
<g id="node13" class="node"><title>Node13</title>
<g id="a_node13"><a xlink:title=" ">
<polygon fill="white" stroke="#bfbfbf" points="549,-0.5 549,-19.5 591,-19.5 591,-0.5 549,-0.5"/>
<text text-anchor="middle" x="570" y="-7.5" font-family="Helvetica,sans-Serif" font-size="10.00">vector</text>
</a>
</g>
</g>
<!-- Node1&#45;&gt;Node13 -->
<g id="edge13" class="edge"><title>Node1&#45;&gt;Node13</title>
<path fill="none" stroke="midnightblue" d="M379.814,-119.56C423.028,-115.996 482.631,-105.509 526,-76 543.026,-64.415 555.284,-43.856 562.47,-28.9556"/>
<polygon fill="midnightblue" stroke="midnightblue" points="565.712,-30.2788 566.63,-19.7238 559.33,-27.4026 565.712,-30.2788"/>
</g>
<!-- Node9 -->
<g id="node9" class="node"><title>Node9</title>
<g id="a_node9"><a xlink:title=" ">
<polygon fill="white" stroke="#bfbfbf" points="285.5,-0.5 285.5,-19.5 372.5,-19.5 372.5,-0.5 285.5,-0.5"/>
<text text-anchor="middle" x="329" y="-7.5" font-family="Helvetica,sans-Serif" font-size="10.00">CL/cl_platform.h</text>
</a>
</g>
</g>
<!-- Node8&#45;&gt;Node9 -->
<g id="edge8" class="edge"><title>Node8&#45;&gt;Node9</title>
<path fill="none" stroke="midnightblue" d="M467.244,-56.7986C439.84,-47.72 395.445,-33.0123 364.378,-22.7203"/>
<polygon fill="midnightblue" stroke="midnightblue" points="365.392,-19.3691 354.798,-19.5467 363.19,-26.014 365.392,-19.3691"/>
</g>
<!-- Node10 -->
<g id="node10" class="node"><title>Node10</title>
<g id="a_node10"><a xlink:title=" ">
<polygon fill="white" stroke="#bfbfbf" points="391,-0.5 391,-19.5 435,-19.5 435,-0.5 391,-0.5"/>
<text text-anchor="middle" x="413" y="-7.5" font-family="Helvetica,sans-Serif" font-size="10.00">cmath</text>
</a>
</g>
</g>
<!-- Node8&#45;&gt;Node10 -->
<g id="edge9" class="edge"><title>Node8&#45;&gt;Node10</title>
<path fill="none" stroke="midnightblue" d="M479.307,-56.324C467.099,-47.979 448.422,-35.2122 433.997,-25.3524"/>
<polygon fill="midnightblue" stroke="midnightblue" points="435.892,-22.4082 425.661,-19.6545 431.942,-28.1871 435.892,-22.4082"/>
</g>
<!-- Node11 -->
<g id="node11" class="node"><title>Node11</title>
<g id="a_node11"><a xlink:title=" ">
<polygon fill="white" stroke="#bfbfbf" points="453.5,-0.5 453.5,-19.5 482.5,-19.5 482.5,-0.5 453.5,-0.5"/>
<text text-anchor="middle" x="468" y="-7.5" font-family="Helvetica,sans-Serif" font-size="10.00">list</text>
</a>
</g>
</g>
<!-- Node8&#45;&gt;Node11 -->
<g id="edge10" class="edge"><title>Node8&#45;&gt;Node11</title>
<path fill="none" stroke="midnightblue" d="M488.037,-56.083C484.787,-48.77 480.081,-38.1814 476.046,-29.1034"/>
<polygon fill="midnightblue" stroke="midnightblue" points="479.149,-27.4677 471.889,-19.7511 472.752,-30.3107 479.149,-27.4677"/>
</g>
<!-- Node12 -->
<g id="node12" class="node"><title>Node12</title>
<g id="a_node12"><a xlink:title=" ">
<polygon fill="white" stroke="#bfbfbf" points="501,-0.5 501,-19.5 531,-19.5 531,-0.5 501,-0.5"/>
<text text-anchor="middle" x="516" y="-7.5" font-family="Helvetica,sans-Serif" font-size="10.00">set</text>
</a>
</g>
</g>
<!-- Node8&#45;&gt;Node12 -->
<g id="edge11" class="edge"><title>Node8&#45;&gt;Node12</title>
<path fill="none" stroke="midnightblue" d="M495.963,-56.083C499.213,-48.77 503.919,-38.1814 507.954,-29.1034"/>
<polygon fill="midnightblue" stroke="midnightblue" points="511.248,-30.3107 512.111,-19.7511 504.851,-27.4677 511.248,-30.3107"/>
</g>
<!-- Node8&#45;&gt;Node13 -->
<g id="edge12" class="edge"><title>Node8&#45;&gt;Node13</title>
<path fill="none" stroke="midnightblue" d="M504.532,-56.324C516.586,-47.979 535.027,-35.2122 549.269,-25.3524"/>
<polygon fill="midnightblue" stroke="midnightblue" points="551.269,-28.2243 557.499,-19.6545 547.285,-22.469 551.269,-28.2243"/>
</g>
</g>
</svg>
