<?xml version="1.0" encoding="UTF-8" standalone="no"?>
<!DOCTYPE svg PUBLIC "-//W3C//DTD SVG 1.1//EN"
 "http://www.w3.org/Graphics/SVG/1.1/DTD/svg11.dtd">
<!-- Generated by graphviz version 2.38.0 (20140413.2041)
 -->
<!-- Title: src/visualization.cpp Pages: 1 -->
<svg width="865pt" height="196pt"
 viewBox="0.00 0.00 865.00 196.00" xmlns="http://www.w3.org/2000/svg" xmlns:xlink="http://www.w3.org/1999/xlink">
<g id="graph0" class="graph" transform="scale(1 1) rotate(0) translate(4 192)">
<title>src/visualization.cpp</title>
<polygon fill="white" stroke="none" points="-4,4 -4,-192 861,-192 861,4 -4,4"/>
<!-- Node1 -->
<g id="node1" class="node"><title>Node1</title>
<g id="a_node1"><a xlink:title=" ">
<polygon fill="#bfbfbf" stroke="black" points="207.5,-168.5 207.5,-187.5 311.5,-187.5 311.5,-168.5 207.5,-168.5"/>
<text text-anchor="middle" x="259.5" y="-175.5" font-family="Helvetica,sans-Serif" font-size="10.00">src/visualization.cpp</text>
</a>
</g>
</g>
<!-- Node2 -->
<g id="node2" class="node"><title>Node2</title>
<g id="a_node2"><a xlink:title=" ">
<polygon fill="white" stroke="#bfbfbf" points="47.5,-112.5 47.5,-131.5 99.5,-131.5 99.5,-112.5 47.5,-112.5"/>
<text text-anchor="middle" x="73.5" y="-119.5" font-family="Helvetica,sans-Serif" font-size="10.00">assert.h</text>
</a>
</g>
</g>
<!-- Node1&#45;&gt;Node2 -->
<g id="edge1" class="edge"><title>Node1&#45;&gt;Node2</title>
<path fill="none" stroke="midnightblue" d="M230.028,-168.444C197.303,-158.943 144.477,-143.606 109.374,-133.415"/>
<polygon fill="midnightblue" stroke="midnightblue" points="110.112,-129.985 99.5331,-130.558 108.161,-136.707 110.112,-129.985"/>
</g>
<!-- Node3 -->
<g id="node3" class="node"><title>Node3</title>
<g id="a_node3"><a xlink:title=" ">
<polygon fill="white" stroke="#bfbfbf" points="118,-112.5 118,-131.5 167,-131.5 167,-112.5 118,-112.5"/>
<text text-anchor="middle" x="142.5" y="-119.5" font-family="Helvetica,sans-Serif" font-size="10.00">fstream</text>
</a>
</g>
</g>
<!-- Node1&#45;&gt;Node3 -->
<g id="edge2" class="edge"><title>Node1&#45;&gt;Node3</title>
<path fill="none" stroke="midnightblue" d="M240.961,-168.444C221.877,-159.636 191.925,-145.812 170.064,-135.722"/>
<polygon fill="midnightblue" stroke="midnightblue" points="171.499,-132.529 160.952,-131.516 168.565,-138.885 171.499,-132.529"/>
</g>
<!-- Node4 -->
<g id="node4" class="node"><title>Node4</title>
<g id="a_node4"><a xlink:href="$gpusatutils_8h.html" xlink:title=" ">
<polygon fill="white" stroke="black" points="223.5,-112.5 223.5,-131.5 295.5,-131.5 295.5,-112.5 223.5,-112.5"/>
<text text-anchor="middle" x="259.5" y="-119.5" font-family="Helvetica,sans-Serif" font-size="10.00">gpusatutils.h</text>
</a>
</g>
</g>
<!-- Node1&#45;&gt;Node4 -->
<g id="edge3" class="edge"><title>Node1&#45;&gt;Node4</title>
<path fill="none" stroke="midnightblue" d="M259.5,-168.083C259.5,-161.006 259.5,-150.861 259.5,-141.986"/>
<polygon fill="midnightblue" stroke="midnightblue" points="263,-141.751 259.5,-131.751 256,-141.751 263,-141.751"/>
</g>
<!-- Node7 -->
<g id="node7" class="node"><title>Node7</title>
<g id="a_node7"><a xlink:title=" ">
<polygon fill="white" stroke="#bfbfbf" points="369.5,-56.5 369.5,-75.5 423.5,-75.5 423.5,-56.5 369.5,-56.5"/>
<text text-anchor="middle" x="396.5" y="-63.5" font-family="Helvetica,sans-Serif" font-size="10.00">iostream</text>
</a>
</g>
</g>
<!-- Node1&#45;&gt;Node7 -->
<g id="edge15" class="edge"><title>Node1&#45;&gt;Node7</title>
<path fill="none" stroke="midnightblue" d="M272.565,-168.456C285.726,-159.702 306.468,-145.498 323.5,-132 343.512,-116.141 365.218,-96.4689 379.714,-82.9453"/>
<polygon fill="midnightblue" stroke="midnightblue" points="382.459,-85.1681 387.348,-75.7686 377.665,-80.0679 382.459,-85.1681"/>
</g>
<!-- Node8 -->
<g id="node8" class="node"><title>Node8</title>
<g id="a_node8"><a xlink:title=" ">
<polygon fill="white" stroke="#bfbfbf" points="299.5,-56.5 299.5,-75.5 351.5,-75.5 351.5,-56.5 299.5,-56.5"/>
<text text-anchor="middle" x="325.5" y="-63.5" font-family="Helvetica,sans-Serif" font-size="10.00">sstream</text>
</a>
</g>
</g>
<!-- Node1&#45;&gt;Node8 -->
<g id="edge16" class="edge"><title>Node1&#45;&gt;Node8</title>
<path fill="none" stroke="midnightblue" d="M270.618,-168.496C280.764,-160.197 295.507,-146.703 304.5,-132 313.298,-117.615 318.802,-99.1578 321.956,-85.5893"/>
<polygon fill="midnightblue" stroke="midnightblue" points="325.436,-86.0451 324.073,-75.5383 318.587,-84.6018 325.436,-86.0451"/>
</g>
<!-- Node9 -->
<g id="node9" class="node"><title>Node9</title>
<g id="a_node9"><a xlink:href="$types_8h.html" xlink:title=" ">
<polygon fill="white" stroke="black" points="130,-56.5 130,-75.5 179,-75.5 179,-56.5 130,-56.5"/>
<text text-anchor="middle" x="154.5" y="-63.5" font-family="Helvetica,sans-Serif" font-size="10.00">types.h</text>
</a>
</g>
</g>
<!-- Node1&#45;&gt;Node9 -->
<g id="edge17" class="edge"><title>Node1&#45;&gt;Node9</title>
<path fill="none" stroke="midnightblue" d="M250.77,-168.475C241.627,-159.499 226.901,-144.907 214.5,-132 198.789,-115.648 181.241,-96.5352 169.202,-83.2861"/>
<polygon fill="midnightblue" stroke="midnightblue" points="171.469,-80.5751 162.161,-75.5143 166.281,-85.275 171.469,-80.5751"/>
</g>
<!-- Node14 -->
<g id="node14" class="node"><title>Node14</title>
<g id="a_node14"><a xlink:href="$visualization_8h.html" xlink:title=" ">
<polygon fill="white" stroke="black" points="478,-112.5 478,-131.5 555,-131.5 555,-112.5 478,-112.5"/>
<text text-anchor="middle" x="516.5" y="-119.5" font-family="Helvetica,sans-Serif" font-size="10.00">visualization.h</text>
</a>
</g>
</g>
<!-- Node1&#45;&gt;Node14 -->
<g id="edge18" class="edge"><title>Node1&#45;&gt;Node14</title>
<path fill="none" stroke="midnightblue" d="M300.222,-168.444C345.678,-158.893 419.204,-143.444 467.701,-133.254"/>
<polygon fill="midnightblue" stroke="midnightblue" points="468.584,-136.644 477.65,-131.163 467.144,-129.794 468.584,-136.644"/>
</g>
<!-- Node5 -->
<g id="node5" class="node"><title>Node5</title>
<g id="a_node5"><a xlink:title=" ">
<polygon fill="white" stroke="#bfbfbf" points="0,-0.5 0,-19.5 87,-19.5 87,-0.5 0,-0.5"/>
<text text-anchor="middle" x="43.5" y="-7.5" font-family="Helvetica,sans-Serif" font-size="10.00">CL/cl_platform.h</text>
</a>
</g>
</g>
<!-- Node4&#45;&gt;Node5 -->
<g id="edge4" class="edge"><title>Node4&#45;&gt;Node5</title>
<path fill="none" stroke="midnightblue" d="M223.384,-113.393C194.367,-106.34 153.205,-94.1694 120.5,-76 96.7579,-62.8102 73.4936,-41.7127 58.8594,-27.1496"/>
<polygon fill="midnightblue" stroke="midnightblue" points="61.1714,-24.5085 51.6689,-19.823 56.1754,-29.4117 61.1714,-24.5085"/>
</g>
<!-- Node6 -->
<g id="node6" class="node"><title>Node6</title>
<g id="a_node6"><a xlink:title=" ">
<polygon fill="white" stroke="#bfbfbf" points="235.5,-56.5 235.5,-75.5 281.5,-75.5 281.5,-56.5 235.5,-56.5"/>
<text text-anchor="middle" x="258.5" y="-63.5" font-family="Helvetica,sans-Serif" font-size="10.00">chrono</text>
</a>
</g>
</g>
<!-- Node4&#45;&gt;Node6 -->
<g id="edge5" class="edge"><title>Node4&#45;&gt;Node6</title>
<path fill="none" stroke="midnightblue" d="M259.335,-112.083C259.204,-105.006 259.016,-94.8611 258.852,-85.9865"/>
<polygon fill="midnightblue" stroke="midnightblue" points="262.347,-85.6845 258.662,-75.7511 255.348,-85.8142 262.347,-85.6845"/>
</g>
<!-- Node4&#45;&gt;Node7 -->
<g id="edge6" class="edge"><title>Node4&#45;&gt;Node7</title>
<path fill="none" stroke="midnightblue" d="M281.208,-112.444C303.855,-103.517 339.572,-89.4387 365.252,-79.3168"/>
<polygon fill="midnightblue" stroke="midnightblue" points="366.874,-82.4397 374.894,-75.5164 364.307,-75.9273 366.874,-82.4397"/>
</g>
<!-- Node4&#45;&gt;Node8 -->
<g id="edge7" class="edge"><title>Node4&#45;&gt;Node8</title>
<path fill="none" stroke="midnightblue" d="M270.104,-112.324C279.956,-104.263 294.851,-92.0765 306.715,-82.3695"/>
<polygon fill="midnightblue" stroke="midnightblue" points="309.18,-84.8752 314.703,-75.8339 304.747,-79.4575 309.18,-84.8752"/>
</g>
<!-- Node4&#45;&gt;Node9 -->
<g id="edge8" class="edge"><title>Node4&#45;&gt;Node9</title>
<path fill="none" stroke="midnightblue" d="M242.63,-112.324C225.791,-103.664 199.693,-90.2424 180.262,-80.249"/>
<polygon fill="midnightblue" stroke="midnightblue" points="181.822,-77.1155 171.328,-75.6545 178.62,-83.3405 181.822,-77.1155"/>
</g>
<!-- Node13 -->
<g id="node13" class="node"><title>Node13</title>
<g id="a_node13"><a xlink:title=" ">
<polygon fill="white" stroke="#bfbfbf" points="263.5,-0.5 263.5,-19.5 305.5,-19.5 305.5,-0.5 263.5,-0.5"/>
<text text-anchor="middle" x="284.5" y="-7.5" font-family="Helvetica,sans-Serif" font-size="10.00">vector</text>
</a>
</g>
</g>
<!-- Node4&#45;&gt;Node13 -->
<g id="edge14" class="edge"><title>Node4&#45;&gt;Node13</title>
<path fill="none" stroke="midnightblue" d="M249.416,-112.209C236.416,-99.7529 216.591,-76.2307 226.5,-56 233.023,-42.6839 245.596,-32.177 257.373,-24.6761"/>
<polygon fill="midnightblue" stroke="midnightblue" points="259.271,-27.6205 266.111,-19.5294 255.718,-21.5891 259.271,-27.6205"/>
</g>
<!-- Node9&#45;&gt;Node5 -->
<g id="edge9" class="edge"><title>Node9&#45;&gt;Node5</title>
<path fill="none" stroke="midnightblue" d="M136.666,-56.324C118.784,-47.6247 91.0249,-34.1202 70.4544,-24.113"/>
<polygon fill="midnightblue" stroke="midnightblue" points="71.8133,-20.8819 61.2898,-19.6545 68.751,-27.1765 71.8133,-20.8819"/>
</g>
<!-- Node10 -->
<g id="node10" class="node"><title>Node10</title>
<g id="a_node10"><a xlink:title=" ">
<polygon fill="white" stroke="#bfbfbf" points="105.5,-0.5 105.5,-19.5 149.5,-19.5 149.5,-0.5 105.5,-0.5"/>
<text text-anchor="middle" x="127.5" y="-7.5" font-family="Helvetica,sans-Serif" font-size="10.00">cmath</text>
</a>
</g>
</g>
<!-- Node9&#45;&gt;Node10 -->
<g id="edge10" class="edge"><title>Node9&#45;&gt;Node10</title>
<path fill="none" stroke="midnightblue" d="M150.041,-56.083C146.346,-48.6913 140.977,-37.9533 136.406,-28.8111"/>
<polygon fill="midnightblue" stroke="midnightblue" points="139.478,-27.1301 131.876,-19.7511 133.217,-30.2606 139.478,-27.1301"/>
</g>
<!-- Node11 -->
<g id="node11" class="node"><title>Node11</title>
<g id="a_node11"><a xlink:title=" ">
<polygon fill="white" stroke="#bfbfbf" points="168,-0.5 168,-19.5 197,-19.5 197,-0.5 168,-0.5"/>
<text text-anchor="middle" x="182.5" y="-7.5" font-family="Helvetica,sans-Serif" font-size="10.00">list</text>
</a>
</g>
</g>
<!-- Node9&#45;&gt;Node11 -->
<g id="edge11" class="edge"><title>Node9&#45;&gt;Node11</title>
<path fill="none" stroke="midnightblue" d="M159.124,-56.083C162.956,-48.6913 168.524,-37.9533 173.265,-28.8111"/>
<polygon fill="midnightblue" stroke="midnightblue" points="176.466,-30.2398 177.962,-19.7511 170.252,-27.0175 176.466,-30.2398"/>
</g>
<!-- Node12 -->
<g id="node12" class="node"><title>Node12</title>
<g id="a_node12"><a xlink:title=" ">
<polygon fill="white" stroke="#bfbfbf" points="215.5,-0.5 215.5,-19.5 245.5,-19.5 245.5,-0.5 215.5,-0.5"/>
<text text-anchor="middle" x="230.5" y="-7.5" font-family="Helvetica,sans-Serif" font-size="10.00">set</text>
</a>
</g>
</g>
<!-- Node9&#45;&gt;Node12 -->
<g id="edge12" class="edge"><title>Node9&#45;&gt;Node12</title>
<path fill="none" stroke="midnightblue" d="M166.711,-56.324C178.276,-48.1066 195.875,-35.6017 209.661,-25.8069"/>
<polygon fill="midnightblue" stroke="midnightblue" points="211.943,-28.4791 218.067,-19.8339 207.888,-22.7729 211.943,-28.4791"/>
</g>
<!-- Node9&#45;&gt;Node13 -->
<g id="edge13" class="edge"><title>Node9&#45;&gt;Node13</title>
<path fill="none" stroke="midnightblue" d="M175.099,-56.4435C196.493,-47.5566 230.181,-33.5632 254.524,-23.4514"/>
<polygon fill="midnightblue" stroke="midnightblue" points="256.105,-26.5848 263.997,-19.5164 253.42,-20.1203 256.105,-26.5848"/>
</g>
<!-- Node14&#45;&gt;Node7 -->
<g id="edge19" class="edge"><title>Node14&#45;&gt;Node7</title>
<path fill="none" stroke="midnightblue" d="M497.486,-112.444C477.912,-103.636 447.192,-89.8116 424.771,-79.722"/>
<polygon fill="midnightblue" stroke="midnightblue" points="425.981,-76.4284 415.425,-75.5164 423.108,-82.8119 425.981,-76.4284"/>
</g>
<!-- Node14&#45;&gt;Node9 -->
<g id="edge25" class="edge"><title>Node14&#45;&gt;Node9</title>
<path fill="none" stroke="midnightblue" d="M477.76,-115.221C406.948,-104.658 257.662,-82.3888 189.624,-72.2395"/>
<polygon fill="midnightblue" stroke="midnightblue" points="189.833,-68.7321 179.426,-70.7183 188.8,-75.6555 189.833,-68.7321"/>
</g>
<!-- Node14&#45;&gt;Node13 -->
<g id="edge26" class="edge"><title>Node14&#45;&gt;Node13</title>
<path fill="none" stroke="midnightblue" d="M507.457,-112.163C492.85,-98.3391 462.644,-71.5733 432.5,-56 394.509,-36.3724 346.522,-23.7521 315.671,-17.0154"/>
<polygon fill="midnightblue" stroke="midnightblue" points="316.025,-13.5131 305.518,-14.8761 314.581,-20.3627 316.025,-13.5131"/>
</g>
<!-- Node15 -->
<g id="node15" class="node"><title>Node15</title>
<g id="a_node15"><a xlink:title=" ">
<polygon fill="white" stroke="#bfbfbf" points="480,-56.5 480,-75.5 553,-75.5 553,-56.5 480,-56.5"/>
<text text-anchor="middle" x="516.5" y="-63.5" font-family="Helvetica,sans-Serif" font-size="10.00">json/reader.h</text>
</a>
</g>
</g>
<!-- Node14&#45;&gt;Node15 -->
<g id="edge20" class="edge"><title>Node14&#45;&gt;Node15</title>
<path fill="none" stroke="midnightblue" d="M516.5,-112.083C516.5,-105.006 516.5,-94.8611 516.5,-85.9865"/>
<polygon fill="midnightblue" stroke="midnightblue" points="520,-85.751 516.5,-75.7511 513,-85.7511 520,-85.751"/>
</g>
<!-- Node16 -->
<g id="node16" class="node"><title>Node16</title>
<g id="a_node16"><a xlink:title=" ">
<polygon fill="white" stroke="#bfbfbf" points="571.5,-56.5 571.5,-75.5 639.5,-75.5 639.5,-56.5 571.5,-56.5"/>
<text text-anchor="middle" x="605.5" y="-63.5" font-family="Helvetica,sans-Serif" font-size="10.00">json/value.h</text>
</a>
</g>
</g>
<!-- Node14&#45;&gt;Node16 -->
<g id="edge21" class="edge"><title>Node14&#45;&gt;Node16</title>
<path fill="none" stroke="midnightblue" d="M530.799,-112.324C544.683,-103.9 565.992,-90.9709 582.304,-81.0741"/>
<polygon fill="midnightblue" stroke="midnightblue" points="584.502,-83.8341 591.236,-75.6545 580.871,-77.8495 584.502,-83.8341"/>
</g>
<!-- Node17 -->
<g id="node17" class="node"><title>Node17</title>
<g id="a_node17"><a xlink:title=" ">
<polygon fill="white" stroke="#bfbfbf" points="658,-56.5 658,-75.5 727,-75.5 727,-56.5 658,-56.5"/>
<text text-anchor="middle" x="692.5" y="-63.5" font-family="Helvetica,sans-Serif" font-size="10.00">json/writer.h</text>
</a>
</g>
</g>
<!-- Node14&#45;&gt;Node17 -->
<g id="edge22" class="edge"><title>Node14&#45;&gt;Node17</title>
<path fill="none" stroke="midnightblue" d="M544.388,-112.444C574.254,-103.28 621.815,-88.6876 654.956,-78.5192"/>
<polygon fill="midnightblue" stroke="midnightblue" points="656.209,-81.7958 664.743,-75.5164 654.156,-75.1037 656.209,-81.7958"/>
</g>
<!-- Node18 -->
<g id="node18" class="node"><title>Node18</title>
<g id="a_node18"><a xlink:title=" ">
<polygon fill="white" stroke="#bfbfbf" points="745.5,-56.5 745.5,-75.5 797.5,-75.5 797.5,-56.5 745.5,-56.5"/>
<text text-anchor="middle" x="771.5" y="-63.5" font-family="Helvetica,sans-Serif" font-size="10.00">memory</text>
</a>
</g>
</g>
<!-- Node14&#45;&gt;Node18 -->
<g id="edge23" class="edge"><title>Node14&#45;&gt;Node18</title>
<path fill="none" stroke="midnightblue" d="M555.175,-113.696C597.149,-105.634 666.376,-91.9507 735.038,-76.2532"/>
<polygon fill="midnightblue" stroke="midnightblue" points="736.201,-79.5771 745.161,-73.923 734.631,-72.7555 736.201,-79.5771"/>
</g>
<!-- Node19 -->
<g id="node19" class="node"><title>Node19</title>
<g id="a_node19"><a xlink:title=" ">
<polygon fill="white" stroke="#bfbfbf" points="816,-56.5 816,-75.5 857,-75.5 857,-56.5 816,-56.5"/>
<text text-anchor="middle" x="836.5" y="-63.5" font-family="Helvetica,sans-Serif" font-size="10.00">string</text>
</a>
</g>
</g>
<!-- Node14&#45;&gt;Node19 -->
<g id="edge24" class="edge"><title>Node14&#45;&gt;Node19</title>
<path fill="none" stroke="midnightblue" d="M555.285,-116.703C609.352,-110.337 710.546,-97.0627 806.117,-75.7931"/>
<polygon fill="midnightblue" stroke="midnightblue" points="806.959,-79.1912 815.942,-73.5733 805.417,-72.3633 806.959,-79.1912"/>
</g>
</g>
</svg>
