<?xml version="1.0" encoding="UTF-8" standalone="no"?>
<!DOCTYPE svg PUBLIC "-//W3C//DTD SVG 1.1//EN"
 "http://www.w3.org/Graphics/SVG/1.1/DTD/svg11.dtd">
<!-- Generated by graphviz version 2.38.0 (20140413.2041)
 -->
<!-- Title: src/FitnessFunctions/CutSetWidthFitnessFunction.cpp Pages: 1 -->
<svg width="485pt" height="173pt"
 viewBox="0.00 0.00 484.50 173.00" xmlns="http://www.w3.org/2000/svg" xmlns:xlink="http://www.w3.org/1999/xlink">
<g id="graph0" class="graph" transform="scale(1 1) rotate(0) translate(4 169)">
<title>src/FitnessFunctions/CutSetWidthFitnessFunction.cpp</title>
<polygon fill="white" stroke="none" points="-4,4 -4,-169 480.5,-169 480.5,4 -4,4"/>
<!-- Node1 -->
<g id="node1" class="node"><title>Node1</title>
<g id="a_node1"><a xlink:title=" ">
<polygon fill="#bfbfbf" stroke="black" points="218.5,-134.5 218.5,-164.5 382.5,-164.5 382.5,-134.5 218.5,-134.5"/>
<text text-anchor="start" x="226.5" y="-152.5" font-family="Helvetica,sans-Serif" font-size="10.00">src/FitnessFunctions</text>
<text text-anchor="middle" x="300.5" y="-141.5" font-family="Helvetica,sans-Serif" font-size="10.00">/CutSetWidthFitnessFunction.cpp</text>
</a>
</g>
</g>
<!-- Node2 -->
<g id="node2" class="node"><title>Node2</title>
<g id="a_node2"><a xlink:href="_cut_set_width_fitness_function_8h.html" target="_top" xlink:title=" ">
<polygon fill="white" stroke="black" points="0.5,-67.5 0.5,-97.5 150.5,-97.5 150.5,-67.5 0.5,-67.5"/>
<text text-anchor="start" x="8.5" y="-85.5" font-family="Helvetica,sans-Serif" font-size="10.00">FitnessFunctions/CutSetWidth</text>
<text text-anchor="middle" x="75.5" y="-74.5" font-family="Helvetica,sans-Serif" font-size="10.00">FitnessFunction.h</text>
</a>
</g>
</g>
<!-- Node1&#45;&gt;Node2 -->
<g id="edge1" class="edge"><title>Node1&#45;&gt;Node2</title>
<path fill="none" stroke="midnightblue" d="M251.955,-134.476C217.474,-124.515 170.991,-111.086 134.389,-100.512"/>
<polygon fill="midnightblue" stroke="midnightblue" points="134.924,-97.0239 124.345,-97.6109 132.981,-103.749 134.924,-97.0239"/>
</g>
<!-- Node4 -->
<g id="node4" class="node"><title>Node4</title>
<g id="a_node4"><a xlink:title=" ">
<polygon fill="white" stroke="#bfbfbf" points="169,-73 169,-92 306,-92 306,-73 169,-73"/>
<text text-anchor="middle" x="237.5" y="-80" font-family="Helvetica,sans-Serif" font-size="10.00">htd/ITreeDecomposition.hpp</text>
</a>
</g>
</g>
<!-- Node1&#45;&gt;Node4 -->
<g id="edge3" class="edge"><title>Node1&#45;&gt;Node4</title>
<path fill="none" stroke="midnightblue" d="M286.83,-134.396C276.91,-124.161 263.471,-110.296 253.126,-99.622"/>
<polygon fill="midnightblue" stroke="midnightblue" points="255.4,-96.9393 245.927,-92.1945 250.374,-101.811 255.4,-96.9393"/>
</g>
<!-- Node5 -->
<g id="node5" class="node"><title>Node5</title>
<g id="a_node5"><a xlink:title=" ">
<polygon fill="white" stroke="#bfbfbf" points="324.5,-73 324.5,-92 402.5,-92 402.5,-73 324.5,-73"/>
<text text-anchor="middle" x="363.5" y="-80" font-family="Helvetica,sans-Serif" font-size="10.00">unordered_set</text>
</a>
</g>
</g>
<!-- Node1&#45;&gt;Node5 -->
<g id="edge4" class="edge"><title>Node1&#45;&gt;Node5</title>
<path fill="none" stroke="midnightblue" d="M314.17,-134.396C324.09,-124.161 337.529,-110.296 347.874,-99.622"/>
<polygon fill="midnightblue" stroke="midnightblue" points="350.626,-101.811 355.073,-92.1945 345.6,-96.9393 350.626,-101.811"/>
</g>
<!-- Node6 -->
<g id="node6" class="node"><title>Node6</title>
<g id="a_node6"><a xlink:title=" ">
<polygon fill="white" stroke="#bfbfbf" points="420.5,-73 420.5,-92 476.5,-92 476.5,-73 420.5,-73"/>
<text text-anchor="middle" x="448.5" y="-80" font-family="Helvetica,sans-Serif" font-size="10.00">algorithm</text>
</a>
</g>
</g>
<!-- Node1&#45;&gt;Node6 -->
<g id="edge5" class="edge"><title>Node1&#45;&gt;Node6</title>
<path fill="none" stroke="midnightblue" d="M332.614,-134.396C358.582,-122.991 394.812,-107.079 419.816,-96.0976"/>
<polygon fill="midnightblue" stroke="midnightblue" points="421.382,-99.2328 429.13,-92.007 418.567,-92.8237 421.382,-99.2328"/>
</g>
<!-- Node3 -->
<g id="node3" class="node"><title>Node3</title>
<g id="a_node3"><a xlink:title=" ">
<polygon fill="white" stroke="#bfbfbf" points="0,-0.5 0,-30.5 151,-30.5 151,-0.5 0,-0.5"/>
<text text-anchor="start" x="8" y="-18.5" font-family="Helvetica,sans-Serif" font-size="10.00">htd/ITreeDecompositionFitness</text>
<text text-anchor="middle" x="75.5" y="-7.5" font-family="Helvetica,sans-Serif" font-size="10.00">Function.hpp</text>
</a>
</g>
</g>
<!-- Node2&#45;&gt;Node3 -->
<g id="edge2" class="edge"><title>Node2&#45;&gt;Node3</title>
<path fill="none" stroke="midnightblue" d="M75.5,-67.396C75.5,-59.6448 75.5,-49.8122 75.5,-40.8601"/>
<polygon fill="midnightblue" stroke="midnightblue" points="79.0001,-40.5765 75.5,-30.5765 72.0001,-40.5765 79.0001,-40.5765"/>
</g>
</g>
</svg>
