<?xml version="1.0" encoding="UTF-8" standalone="no"?>
<!DOCTYPE svg PUBLIC "-//W3C//DTD SVG 1.1//EN"
 "http://www.w3.org/Graphics/SVG/1.1/DTD/svg11.dtd">
<!-- Generated by graphviz version 2.38.0 (20140413.2041)
 -->
<!-- Title: include/FitnessFunctions/JoinSizeFitnessFunction.h Pages: 1 -->
<svg width="244pt" height="106pt"
 viewBox="0.00 0.00 244.00 106.00" xmlns="http://www.w3.org/2000/svg" xmlns:xlink="http://www.w3.org/1999/xlink">
<g id="graph0" class="graph" transform="scale(1 1) rotate(0) translate(4 102)">
<title>include/FitnessFunctions/JoinSizeFitnessFunction.h</title>
<polygon fill="white" stroke="none" points="-4,4 -4,-102 240,-102 240,4 -4,4"/>
<!-- Node1 -->
<g id="node1" class="node"><title>Node1</title>
<g id="a_node1"><a xlink:title=" ">
<polygon fill="#bfbfbf" stroke="black" points="68.5,-67.5 68.5,-97.5 202.5,-97.5 202.5,-67.5 68.5,-67.5"/>
<text text-anchor="start" x="76.5" y="-85.5" font-family="Helvetica,sans-Serif" font-size="10.00">include/FitnessFunctions</text>
<text text-anchor="middle" x="135.5" y="-74.5" font-family="Helvetica,sans-Serif" font-size="10.00">/JoinSizeFitnessFunction.h</text>
</a>
</g>
</g>
<!-- Node2 -->
<g id="node2" class="node"><title>Node2</title>
<g id="a_node2"><a xlink:href="_join_size_fitness_function_8cpp.html" target="_top" xlink:title=" ">
<polygon fill="white" stroke="black" points="0,-0.5 0,-30.5 145,-30.5 145,-0.5 0,-0.5"/>
<text text-anchor="start" x="8" y="-18.5" font-family="Helvetica,sans-Serif" font-size="10.00">src/FitnessFunctions</text>
<text text-anchor="middle" x="72.5" y="-7.5" font-family="Helvetica,sans-Serif" font-size="10.00">/JoinSizeFitnessFunction.cpp</text>
</a>
</g>
</g>
<!-- Node1&#45;&gt;Node2 -->
<g id="edge1" class="edge"><title>Node1&#45;&gt;Node2</title>
<path fill="none" stroke="midnightblue" d="M114.685,-60.0243C105.299,-50.3398 94.4763,-39.1739 86.1434,-30.5765"/>
<polygon fill="midnightblue" stroke="midnightblue" points="112.357,-62.6512 121.83,-67.396 117.383,-57.7793 112.357,-62.6512"/>
</g>
<!-- Node3 -->
<g id="node3" class="node"><title>Node3</title>
<g id="a_node3"><a xlink:href="main_8cpp.html" target="_top" xlink:title=" ">
<polygon fill="white" stroke="black" points="163,-6 163,-25 236,-25 236,-6 163,-6"/>
<text text-anchor="middle" x="199.5" y="-13" font-family="Helvetica,sans-Serif" font-size="10.00">src/main.cpp</text>
</a>
</g>
</g>
<!-- Node1&#45;&gt;Node3 -->
<g id="edge2" class="edge"><title>Node1&#45;&gt;Node3</title>
<path fill="none" stroke="midnightblue" d="M156.673,-59.9967C168.354,-48.1323 182.218,-34.0516 190.939,-25.1945"/>
<polygon fill="midnightblue" stroke="midnightblue" points="153.909,-57.8146 149.387,-67.396 158.897,-62.7259 153.909,-57.8146"/>
</g>
</g>
</svg>
