<?xml version="1.0" encoding="UTF-8" standalone="no"?>
<!DOCTYPE svg PUBLIC "-//W3C//DTD SVG 1.1//EN"
 "http://www.w3.org/Graphics/SVG/1.1/DTD/svg11.dtd">
<!-- Generated by graphviz version 2.38.0 (20140413.2041)
 -->
<!-- Title: src/FitnessFunctions/JoinSizeFitnessFunction.cpp Pages: 1 -->
<svg width="475pt" height="173pt"
 viewBox="0.00 0.00 474.50 173.00" xmlns="http://www.w3.org/2000/svg" xmlns:xlink="http://www.w3.org/1999/xlink">
<g id="graph0" class="graph" transform="scale(1 1) rotate(0) translate(4 169)">
<title>src/FitnessFunctions/JoinSizeFitnessFunction.cpp</title>
<polygon fill="white" stroke="none" points="-4,4 -4,-169 470.5,-169 470.5,4 -4,4"/>
<!-- Node1 -->
<g id="node1" class="node"><title>Node1</title>
<g id="a_node1"><a xlink:title=" ">
<polygon fill="#bfbfbf" stroke="black" points="218,-134.5 218,-164.5 363,-164.5 363,-134.5 218,-134.5"/>
<text text-anchor="start" x="226" y="-152.5" font-family="Helvetica,sans-Serif" font-size="10.00">src/FitnessFunctions</text>
<text text-anchor="middle" x="290.5" y="-141.5" font-family="Helvetica,sans-Serif" font-size="10.00">/JoinSizeFitnessFunction.cpp</text>
</a>
</g>
</g>
<!-- Node2 -->
<g id="node2" class="node"><title>Node2</title>
<g id="a_node2"><a xlink:href="_join_size_fitness_function_8h.html" target="_top" xlink:title=" ">
<polygon fill="white" stroke="black" points="10,-67.5 10,-97.5 141,-97.5 141,-67.5 10,-67.5"/>
<text text-anchor="start" x="18" y="-85.5" font-family="Helvetica,sans-Serif" font-size="10.00">FitnessFunctions/JoinSize</text>
<text text-anchor="middle" x="75.5" y="-74.5" font-family="Helvetica,sans-Serif" font-size="10.00">FitnessFunction.h</text>
</a>
</g>
</g>
<!-- Node1&#45;&gt;Node2 -->
<g id="edge1" class="edge"><title>Node1&#45;&gt;Node2</title>
<path fill="none" stroke="midnightblue" d="M244.113,-134.476C211.165,-124.515 166.747,-111.086 131.772,-100.512"/>
<polygon fill="midnightblue" stroke="midnightblue" points="132.76,-97.1546 122.175,-97.6109 130.734,-103.855 132.76,-97.1546"/>
</g>
<!-- Node4 -->
<g id="node4" class="node"><title>Node4</title>
<g id="a_node4"><a xlink:title=" ">
<polygon fill="white" stroke="#bfbfbf" points="159,-73 159,-92 296,-92 296,-73 159,-73"/>
<text text-anchor="middle" x="227.5" y="-80" font-family="Helvetica,sans-Serif" font-size="10.00">htd/ITreeDecomposition.hpp</text>
</a>
</g>
</g>
<!-- Node1&#45;&gt;Node4 -->
<g id="edge3" class="edge"><title>Node1&#45;&gt;Node4</title>
<path fill="none" stroke="midnightblue" d="M276.83,-134.396C266.91,-124.161 253.471,-110.296 243.126,-99.622"/>
<polygon fill="midnightblue" stroke="midnightblue" points="245.4,-96.9393 235.927,-92.1945 240.374,-101.811 245.4,-96.9393"/>
</g>
<!-- Node5 -->
<g id="node5" class="node"><title>Node5</title>
<g id="a_node5"><a xlink:title=" ">
<polygon fill="white" stroke="#bfbfbf" points="314.5,-73 314.5,-92 392.5,-92 392.5,-73 314.5,-73"/>
<text text-anchor="middle" x="353.5" y="-80" font-family="Helvetica,sans-Serif" font-size="10.00">unordered_set</text>
</a>
</g>
</g>
<!-- Node1&#45;&gt;Node5 -->
<g id="edge4" class="edge"><title>Node1&#45;&gt;Node5</title>
<path fill="none" stroke="midnightblue" d="M304.17,-134.396C314.09,-124.161 327.529,-110.296 337.874,-99.622"/>
<polygon fill="midnightblue" stroke="midnightblue" points="340.626,-101.811 345.073,-92.1945 335.6,-96.9393 340.626,-101.811"/>
</g>
<!-- Node6 -->
<g id="node6" class="node"><title>Node6</title>
<g id="a_node6"><a xlink:title=" ">
<polygon fill="white" stroke="#bfbfbf" points="410.5,-73 410.5,-92 466.5,-92 466.5,-73 410.5,-73"/>
<text text-anchor="middle" x="438.5" y="-80" font-family="Helvetica,sans-Serif" font-size="10.00">algorithm</text>
</a>
</g>
</g>
<!-- Node1&#45;&gt;Node6 -->
<g id="edge5" class="edge"><title>Node1&#45;&gt;Node6</title>
<path fill="none" stroke="midnightblue" d="M322.614,-134.396C348.582,-122.991 384.812,-107.079 409.816,-96.0976"/>
<polygon fill="midnightblue" stroke="midnightblue" points="411.382,-99.2328 419.13,-92.007 408.567,-92.8237 411.382,-99.2328"/>
</g>
<!-- Node3 -->
<g id="node3" class="node"><title>Node3</title>
<g id="a_node3"><a xlink:title=" ">
<polygon fill="white" stroke="#bfbfbf" points="0,-0.5 0,-30.5 151,-30.5 151,-0.5 0,-0.5"/>
<text text-anchor="start" x="8" y="-18.5" font-family="Helvetica,sans-Serif" font-size="10.00">htd/ITreeDecompositionFitness</text>
<text text-anchor="middle" x="75.5" y="-7.5" font-family="Helvetica,sans-Serif" font-size="10.00">Function.hpp</text>
</a>
</g>
</g>
<!-- Node2&#45;&gt;Node3 -->
<g id="edge2" class="edge"><title>Node2&#45;&gt;Node3</title>
<path fill="none" stroke="midnightblue" d="M75.5,-67.396C75.5,-59.6448 75.5,-49.8122 75.5,-40.8601"/>
<polygon fill="midnightblue" stroke="midnightblue" points="79.0001,-40.5765 75.5,-30.5765 72.0001,-40.5765 79.0001,-40.5765"/>
</g>
</g>
</svg>
