<?xml version="1.0" encoding="UTF-8" standalone="no"?>
<!DOCTYPE svg PUBLIC "-//W3C//DTD SVG 1.1//EN"
 "http://www.w3.org/Graphics/SVG/1.1/DTD/svg11.dtd">
<!-- Generated by graphviz version 2.38.0 (20140413.2041)
 -->
<!-- Title: include/FitnessFunctions/NumJoinFitnessFunction.h Pages: 1 -->
<svg width="246pt" height="106pt"
 viewBox="0.00 0.00 245.50 106.00" xmlns="http://www.w3.org/2000/svg" xmlns:xlink="http://www.w3.org/1999/xlink">
<g id="graph0" class="graph" transform="scale(1 1) rotate(0) translate(4 102)">
<title>include/FitnessFunctions/NumJoinFitnessFunction.h</title>
<polygon fill="white" stroke="none" points="-4,4 -4,-102 241.5,-102 241.5,4 -4,4"/>
<!-- Node1 -->
<g id="node1" class="node"><title>Node1</title>
<g id="a_node1"><a xlink:title=" ">
<polygon fill="#bfbfbf" stroke="black" points="69.5,-67.5 69.5,-97.5 204.5,-97.5 204.5,-67.5 69.5,-67.5"/>
<text text-anchor="start" x="77.5" y="-85.5" font-family="Helvetica,sans-Serif" font-size="10.00">include/FitnessFunctions</text>
<text text-anchor="middle" x="137" y="-74.5" font-family="Helvetica,sans-Serif" font-size="10.00">/NumJoinFitnessFunction.h</text>
</a>
</g>
</g>
<!-- Node2 -->
<g id="node2" class="node"><title>Node2</title>
<g id="a_node2"><a xlink:href="_num_join_fitness_function_8cpp.html" target="_top" xlink:title=" ">
<polygon fill="white" stroke="black" points="0,-0.5 0,-30.5 146,-30.5 146,-0.5 0,-0.5"/>
<text text-anchor="start" x="8" y="-18.5" font-family="Helvetica,sans-Serif" font-size="10.00">src/FitnessFunctions</text>
<text text-anchor="middle" x="73" y="-7.5" font-family="Helvetica,sans-Serif" font-size="10.00">/NumJoinFitnessFunction.cpp</text>
</a>
</g>
</g>
<!-- Node1&#45;&gt;Node2 -->
<g id="edge1" class="edge"><title>Node1&#45;&gt;Node2</title>
<path fill="none" stroke="midnightblue" d="M115.855,-60.0243C106.319,-50.3398 95.3251,-39.1739 86.8599,-30.5765"/>
<polygon fill="midnightblue" stroke="midnightblue" points="113.603,-62.7259 123.113,-67.396 118.591,-57.8146 113.603,-62.7259"/>
</g>
<!-- Node3 -->
<g id="node3" class="node"><title>Node3</title>
<g id="a_node3"><a xlink:href="main_8cpp.html" target="_top" xlink:title=" ">
<polygon fill="white" stroke="black" points="164.5,-6 164.5,-25 237.5,-25 237.5,-6 164.5,-6"/>
<text text-anchor="middle" x="201" y="-13" font-family="Helvetica,sans-Serif" font-size="10.00">src/main.cpp</text>
</a>
</g>
</g>
<!-- Node1&#45;&gt;Node3 -->
<g id="edge2" class="edge"><title>Node1&#45;&gt;Node3</title>
<path fill="none" stroke="midnightblue" d="M158.173,-59.9967C169.854,-48.1323 183.718,-34.0516 192.439,-25.1945"/>
<polygon fill="midnightblue" stroke="midnightblue" points="155.409,-57.8146 150.887,-67.396 160.397,-62.7259 155.409,-57.8146"/>
</g>
</g>
</svg>
