<?xml version="1.0" encoding="UTF-8" standalone="no"?>
<!DOCTYPE svg PUBLIC "-//W3C//DTD SVG 1.1//EN"
 "http://www.w3.org/Graphics/SVG/1.1/DTD/svg11.dtd">
<!-- Generated by graphviz version 2.38.0 (20140413.2041)
 -->
<!-- Title: src/FitnessFunctions/WidthCutSetFitnessFunction.cpp Pages: 1 -->
<svg width="477pt" height="173pt"
 viewBox="0.00 0.00 476.50 173.00" xmlns="http://www.w3.org/2000/svg" xmlns:xlink="http://www.w3.org/1999/xlink">
<g id="graph0" class="graph" transform="scale(1 1) rotate(0) translate(4 169)">
<title>src/FitnessFunctions/WidthCutSetFitnessFunction.cpp</title>
<polygon fill="white" stroke="none" points="-4,4 -4,-169 472.5,-169 472.5,4 -4,4"/>
<!-- Node1 -->
<g id="node1" class="node"><title>Node1</title>
<g id="a_node1"><a xlink:title=" ">
<polygon fill="#bfbfbf" stroke="black" points="210.5,-134.5 210.5,-164.5 374.5,-164.5 374.5,-134.5 210.5,-134.5"/>
<text text-anchor="start" x="218.5" y="-152.5" font-family="Helvetica,sans-Serif" font-size="10.00">src/FitnessFunctions</text>
<text text-anchor="middle" x="292.5" y="-141.5" font-family="Helvetica,sans-Serif" font-size="10.00">/WidthCutSetFitnessFunction.cpp</text>
</a>
</g>
</g>
<!-- Node2 -->
<g id="node2" class="node"><title>Node2</title>
<g id="a_node2"><a xlink:href="_width_cut_set_fitness_function_8h.html" target="_top" xlink:title=" ">
<polygon fill="white" stroke="black" points="8,-67.5 8,-97.5 143,-97.5 143,-67.5 8,-67.5"/>
<text text-anchor="start" x="16" y="-85.5" font-family="Helvetica,sans-Serif" font-size="10.00">FitnessFunctions/WidthCut</text>
<text text-anchor="middle" x="75.5" y="-74.5" font-family="Helvetica,sans-Serif" font-size="10.00">SetFitnessFunction.h</text>
</a>
</g>
</g>
<!-- Node1&#45;&gt;Node2 -->
<g id="edge1" class="edge"><title>Node1&#45;&gt;Node2</title>
<path fill="none" stroke="midnightblue" d="M245.681,-134.476C212.427,-124.515 167.596,-111.086 132.295,-100.512"/>
<polygon fill="midnightblue" stroke="midnightblue" points="133.193,-97.1276 122.609,-97.6109 131.184,-103.833 133.193,-97.1276"/>
</g>
<!-- Node4 -->
<g id="node4" class="node"><title>Node4</title>
<g id="a_node4"><a xlink:title=" ">
<polygon fill="white" stroke="#bfbfbf" points="161,-73 161,-92 298,-92 298,-73 161,-73"/>
<text text-anchor="middle" x="229.5" y="-80" font-family="Helvetica,sans-Serif" font-size="10.00">htd/ITreeDecomposition.hpp</text>
</a>
</g>
</g>
<!-- Node1&#45;&gt;Node4 -->
<g id="edge3" class="edge"><title>Node1&#45;&gt;Node4</title>
<path fill="none" stroke="midnightblue" d="M278.83,-134.396C268.91,-124.161 255.471,-110.296 245.126,-99.622"/>
<polygon fill="midnightblue" stroke="midnightblue" points="247.4,-96.9393 237.927,-92.1945 242.374,-101.811 247.4,-96.9393"/>
</g>
<!-- Node5 -->
<g id="node5" class="node"><title>Node5</title>
<g id="a_node5"><a xlink:title=" ">
<polygon fill="white" stroke="#bfbfbf" points="316.5,-73 316.5,-92 394.5,-92 394.5,-73 316.5,-73"/>
<text text-anchor="middle" x="355.5" y="-80" font-family="Helvetica,sans-Serif" font-size="10.00">unordered_set</text>
</a>
</g>
</g>
<!-- Node1&#45;&gt;Node5 -->
<g id="edge4" class="edge"><title>Node1&#45;&gt;Node5</title>
<path fill="none" stroke="midnightblue" d="M306.17,-134.396C316.09,-124.161 329.529,-110.296 339.874,-99.622"/>
<polygon fill="midnightblue" stroke="midnightblue" points="342.626,-101.811 347.073,-92.1945 337.6,-96.9393 342.626,-101.811"/>
</g>
<!-- Node6 -->
<g id="node6" class="node"><title>Node6</title>
<g id="a_node6"><a xlink:title=" ">
<polygon fill="white" stroke="#bfbfbf" points="412.5,-73 412.5,-92 468.5,-92 468.5,-73 412.5,-73"/>
<text text-anchor="middle" x="440.5" y="-80" font-family="Helvetica,sans-Serif" font-size="10.00">algorithm</text>
</a>
</g>
</g>
<!-- Node1&#45;&gt;Node6 -->
<g id="edge5" class="edge"><title>Node1&#45;&gt;Node6</title>
<path fill="none" stroke="midnightblue" d="M324.614,-134.396C350.582,-122.991 386.812,-107.079 411.816,-96.0976"/>
<polygon fill="midnightblue" stroke="midnightblue" points="413.382,-99.2328 421.13,-92.007 410.567,-92.8237 413.382,-99.2328"/>
</g>
<!-- Node3 -->
<g id="node3" class="node"><title>Node3</title>
<g id="a_node3"><a xlink:title=" ">
<polygon fill="white" stroke="#bfbfbf" points="0,-0.5 0,-30.5 151,-30.5 151,-0.5 0,-0.5"/>
<text text-anchor="start" x="8" y="-18.5" font-family="Helvetica,sans-Serif" font-size="10.00">htd/ITreeDecompositionFitness</text>
<text text-anchor="middle" x="75.5" y="-7.5" font-family="Helvetica,sans-Serif" font-size="10.00">Function.hpp</text>
</a>
</g>
</g>
<!-- Node2&#45;&gt;Node3 -->
<g id="edge2" class="edge"><title>Node2&#45;&gt;Node3</title>
<path fill="none" stroke="midnightblue" d="M75.5,-67.396C75.5,-59.6448 75.5,-49.8122 75.5,-40.8601"/>
<polygon fill="midnightblue" stroke="midnightblue" points="79.0001,-40.5765 75.5,-30.5765 72.0001,-40.5765 79.0001,-40.5765"/>
</g>
</g>
</svg>
