<?xml version="1.0" encoding="UTF-8" standalone="no"?>
<!DOCTYPE svg PUBLIC "-//W3C//DTD SVG 1.1//EN"
 "http://www.w3.org/Graphics/SVG/1.1/DTD/svg11.dtd">
<!-- Generated by graphviz version 2.38.0 (20140413.2041)
 -->
<!-- Title: gpusat::Solver Pages: 1 -->
<svg width="508pt" height="352pt"
 viewBox="0.00 0.00 508.00 352.00" xmlns="http://www.w3.org/2000/svg" xmlns:xlink="http://www.w3.org/1999/xlink">
<g id="graph0" class="graph" transform="scale(1 1) rotate(0) translate(4 348)">
<title>gpusat::Solver</title>
<polygon fill="white" stroke="none" points="-4,4 -4,-348 504,-348 504,4 -4,4"/>
<!-- Node1 -->
<g id="node1" class="node"><title>Node1</title>
<g id="a_node1"><a xlink:title=" ">
<polygon fill="#bfbfbf" stroke="black" points="422,-132.5 422,-151.5 500,-151.5 500,-132.5 422,-132.5"/>
<text text-anchor="middle" x="461" y="-139.5" font-family="Helvetica,sans-Serif" font-size="10.00">gpusat::Solver</text>
</a>
</g>
</g>
<!-- Node2 -->
<g id="node2" class="node"><title>Node2</title>
<g id="a_node2"><a xlink:title=" ">
<polygon fill="white" stroke="#bfbfbf" points="215.5,-320.5 215.5,-339.5 275.5,-339.5 275.5,-320.5 215.5,-320.5"/>
<text text-anchor="middle" x="245.5" y="-327.5" font-family="Helvetica,sans-Serif" font-size="10.00">Context &amp;</text>
</a>
</g>
</g>
<!-- Node2&#45;&gt;Node1 -->
<g id="edge1" class="edge"><title>Node2&#45;&gt;Node1</title>
<path fill="none" stroke="#9a32cd" stroke-dasharray="5,2" d="M286.007,-334.012C320.968,-335.342 371.366,-331.532 404,-304 451.992,-263.512 458.915,-179.713 459.866,-151.504"/>
<polygon fill="#9a32cd" stroke="#9a32cd" points="285.864,-330.499 275.69,-333.454 285.486,-337.489 285.864,-330.499"/>
<text text-anchor="middle" x="360.5" y="-336" font-family="Helvetica,sans-Serif" font-size="10.00"> context</text>
</g>
<!-- Node3 -->
<g id="node3" class="node"><title>Node3</title>
<g id="a_node3"><a xlink:href="classgpusat_1_1_graphoutput.html" target="_top" xlink:title=" ">
<polygon fill="white" stroke="black" points="193,-282.5 193,-301.5 298,-301.5 298,-282.5 193,-282.5"/>
<text text-anchor="middle" x="245.5" y="-289.5" font-family="Helvetica,sans-Serif" font-size="10.00">gpusat::Graphoutput</text>
</a>
</g>
</g>
<!-- Node3&#45;&gt;Node1 -->
<g id="edge2" class="edge"><title>Node3&#45;&gt;Node1</title>
<path fill="none" stroke="#9a32cd" stroke-dasharray="5,2" d="M308.6,-290.331C345.969,-288.159 389.104,-283.211 404,-272 444.251,-241.706 455.948,-176.567 459.01,-151.816"/>
<polygon fill="#9a32cd" stroke="#9a32cd" points="308.045,-286.856 298.242,-290.874 308.411,-293.846 308.045,-286.856"/>
<text text-anchor="middle" x="360.5" y="-292" font-family="Helvetica,sans-Serif" font-size="10.00"> graphoutput</text>
</g>
<!-- Node4 -->
<g id="node4" class="node"><title>Node4</title>
<g id="a_node4"><a xlink:title=" ">
<polygon fill="white" stroke="#bfbfbf" points="0,-282.5 0,-301.5 110,-301.5 110,-282.5 0,-282.5"/>
<text text-anchor="middle" x="55" y="-289.5" font-family="Helvetica,sans-Serif" font-size="10.00">static const unsigned</text>
</a>
</g>
</g>
<!-- Node4&#45;&gt;Node3 -->
<g id="edge3" class="edge"><title>Node4&#45;&gt;Node3</title>
<path fill="none" stroke="#9a32cd" stroke-dasharray="5,2" d="M120.3,-292C143.929,-292 170.361,-292 192.747,-292"/>
<polygon fill="#9a32cd" stroke="#9a32cd" points="120.017,-288.5 110.017,-292 120.017,-295.5 120.017,-288.5"/>
<text text-anchor="middle" x="151" y="-306" font-family="Helvetica,sans-Serif" font-size="10.00"> baseIdSol</text>
<text text-anchor="middle" x="151" y="-295" font-family="Helvetica,sans-Serif" font-size="10.00">baseIdJoin</text>
</g>
<!-- Node5 -->
<g id="node5" class="node"><title>Node5</title>
<g id="a_node5"><a xlink:title=" ">
<polygon fill="white" stroke="#bfbfbf" points="222,-190.5 222,-209.5 269,-209.5 269,-190.5 222,-190.5"/>
<text text-anchor="middle" x="245.5" y="-197.5" font-family="Helvetica,sans-Serif" font-size="10.00">cl_long</text>
</a>
</g>
</g>
<!-- Node5&#45;&gt;Node1 -->
<g id="edge4" class="edge"><title>Node5&#45;&gt;Node1</title>
<path fill="none" stroke="#9a32cd" stroke-dasharray="5,2" d="M279.402,-196.413C311.741,-192.268 362.184,-184.133 404,-170 418.005,-165.267 432.934,-157.66 443.853,-151.569"/>
<polygon fill="#9a32cd" stroke="#9a32cd" points="278.667,-192.977 269.168,-197.669 279.52,-199.925 278.667,-192.977"/>
<text text-anchor="middle" x="360.5" y="-260" font-family="Helvetica,sans-Serif" font-size="10.00"> maxMemoryBuffer</text>
<text text-anchor="middle" x="360.5" y="-249" font-family="Helvetica,sans-Serif" font-size="10.00">maxTableSize</text>
<text text-anchor="middle" x="360.5" y="-238" font-family="Helvetica,sans-Serif" font-size="10.00">numJoin</text>
<text text-anchor="middle" x="360.5" y="-227" font-family="Helvetica,sans-Serif" font-size="10.00">isSat</text>
<text text-anchor="middle" x="360.5" y="-216" font-family="Helvetica,sans-Serif" font-size="10.00">maxBag</text>
<text text-anchor="middle" x="360.5" y="-205" font-family="Helvetica,sans-Serif" font-size="10.00">numIntroduceForget</text>
<text text-anchor="middle" x="360.5" y="-194" font-family="Helvetica,sans-Serif" font-size="10.00">memorySize</text>
</g>
<!-- Node6 -->
<g id="node6" class="node"><title>Node6</title>
<g id="a_node6"><a xlink:title=" ">
<polygon fill="white" stroke="#bfbfbf" points="214,-152.5 214,-171.5 277,-171.5 277,-152.5 214,-152.5"/>
<text text-anchor="middle" x="245.5" y="-159.5" font-family="Helvetica,sans-Serif" font-size="10.00">Program &amp;</text>
</a>
</g>
</g>
<!-- Node6&#45;&gt;Node1 -->
<g id="edge5" class="edge"><title>Node6&#45;&gt;Node1</title>
<path fill="none" stroke="#9a32cd" stroke-dasharray="5,2" d="M287.497,-158.16C326.295,-154.525 384.075,-149.112 421.894,-145.57"/>
<polygon fill="#9a32cd" stroke="#9a32cd" points="286.719,-154.717 277.089,-159.134 287.372,-161.686 286.719,-154.717"/>
<text text-anchor="middle" x="360.5" y="-158" font-family="Helvetica,sans-Serif" font-size="10.00"> program</text>
</g>
<!-- Node7 -->
<g id="node7" class="node"><title>Node7</title>
<g id="a_node7"><a xlink:title=" ">
<polygon fill="white" stroke="#bfbfbf" points="208,-114.5 208,-133.5 283,-133.5 283,-114.5 208,-114.5"/>
<text text-anchor="middle" x="245.5" y="-121.5" font-family="Helvetica,sans-Serif" font-size="10.00">dataStructure</text>
</a>
</g>
</g>
<!-- Node7&#45;&gt;Node1 -->
<g id="edge6" class="edge"><title>Node7&#45;&gt;Node1</title>
<path fill="none" stroke="#9a32cd" stroke-dasharray="5,2" d="M293.522,-121.931C324.953,-121.274 367.141,-121.791 404,-127 412.471,-128.197 421.491,-130.253 429.76,-132.465"/>
<polygon fill="#9a32cd" stroke="#9a32cd" points="293.205,-118.438 283.298,-122.194 293.385,-125.435 293.205,-118.438"/>
<text text-anchor="middle" x="360.5" y="-130" font-family="Helvetica,sans-Serif" font-size="10.00"> solutionType</text>
</g>
<!-- Node8 -->
<g id="node8" class="node"><title>Node8</title>
<g id="a_node8"><a xlink:title=" ">
<polygon fill="white" stroke="#bfbfbf" points="228,-76.5 228,-95.5 263,-95.5 263,-76.5 228,-76.5"/>
<text text-anchor="middle" x="245.5" y="-83.5" font-family="Helvetica,sans-Serif" font-size="10.00">bool</text>
</a>
</g>
</g>
<!-- Node8&#45;&gt;Node1 -->
<g id="edge7" class="edge"><title>Node8&#45;&gt;Node1</title>
<path fill="none" stroke="#9a32cd" stroke-dasharray="5,2" d="M273.471,-86.1549C305.504,-87.1113 360.119,-91.2019 404,-107 420.396,-112.903 437.064,-124.135 447.901,-132.287"/>
<polygon fill="#9a32cd" stroke="#9a32cd" points="273.21,-82.6486 263.137,-85.9332 273.06,-89.647 273.21,-82.6486"/>
<text text-anchor="middle" x="360.5" y="-110" font-family="Helvetica,sans-Serif" font-size="10.00"> verbose</text>
</g>
<!-- Node9 -->
<g id="node9" class="node"><title>Node9</title>
<g id="a_node9"><a xlink:title=" ">
<polygon fill="white" stroke="#bfbfbf" points="196,-38.5 196,-57.5 295,-57.5 295,-38.5 196,-38.5"/>
<text text-anchor="middle" x="245.5" y="-45.5" font-family="Helvetica,sans-Serif" font-size="10.00">CommandQueue &amp;</text>
</a>
</g>
</g>
<!-- Node9&#45;&gt;Node1 -->
<g id="edge8" class="edge"><title>Node9&#45;&gt;Node1</title>
<path fill="none" stroke="#9a32cd" stroke-dasharray="5,2" d="M305.509,-48.4756C336.583,-51.0225 374.295,-57.906 404,-75 428.177,-88.913 446.529,-117.438 454.94,-132.383"/>
<polygon fill="#9a32cd" stroke="#9a32cd" points="305.463,-44.9642 295.246,-47.7696 304.983,-51.9477 305.463,-44.9642"/>
<text text-anchor="middle" x="360.5" y="-78" font-family="Helvetica,sans-Serif" font-size="10.00"> queue</text>
</g>
<!-- Node10 -->
<g id="node10" class="node"><title>Node10</title>
<g id="a_node10"><a xlink:href="classgpusat_1_1_visualization.html" target="_top" xlink:title=" ">
<polygon fill="white" stroke="black" points="192,-0.5 192,-19.5 299,-19.5 299,-0.5 192,-0.5"/>
<text text-anchor="middle" x="245.5" y="-7.5" font-family="Helvetica,sans-Serif" font-size="10.00">gpusat::Visualization</text>
</a>
</g>
</g>
<!-- Node10&#45;&gt;Node1 -->
<g id="edge9" class="edge"><title>Node10&#45;&gt;Node1</title>
<path fill="none" stroke="#9a32cd" stroke-dasharray="5,2" d="M309.477,-7.24098C340.489,-8.86613 376.931,-15.5513 404,-35 438.055,-59.4679 453.079,-111.012 458.022,-132.392"/>
<polygon fill="#9a32cd" stroke="#9a32cd" points="309.308,-3.73279 299.189,-6.8727 309.057,-10.7283 309.308,-3.73279"/>
<text text-anchor="middle" x="360.5" y="-38" font-family="Helvetica,sans-Serif" font-size="10.00"> visualization</text>
</g>
</g>
</svg>
