<?xml version="1.0" encoding="UTF-8" standalone="no"?>
<!DOCTYPE svg PUBLIC "-//W3C//DTD SVG 1.1//EN"
 "http://www.w3.org/Graphics/SVG/1.1/DTD/svg11.dtd">
<!-- Generated by graphviz version 2.38.0 (20140413.2041)
 -->
<!-- Title: gpusat::Visualization::writeJsonToStdout Pages: 1 -->
<svg width="332pt" height="137pt"
 viewBox="0.00 0.00 332.00 137.00" xmlns="http://www.w3.org/2000/svg" xmlns:xlink="http://www.w3.org/1999/xlink">
<g id="graph0" class="graph" transform="scale(1 1) rotate(0) translate(4 133)">
<title>gpusat::Visualization::writeJsonToStdout</title>
<polygon fill="white" stroke="none" points="-4,4 -4,-133 328,-133 328,4 -4,4"/>
<!-- Node1 -->
<g id="node1" class="node"><title>Node1</title>
<g id="a_node1"><a xlink:title=" ">
<polygon fill="#bfbfbf" stroke="black" points="217,-49.5 217,-79.5 324,-79.5 324,-49.5 217,-49.5"/>
<text text-anchor="start" x="225" y="-67.5" font-family="Helvetica,sans-Serif" font-size="10.00">gpusat::Visualization</text>
<text text-anchor="middle" x="270.5" y="-56.5" font-family="Helvetica,sans-Serif" font-size="10.00">::writeJsonToStdout</text>
</a>
</g>
</g>
<!-- Node2 -->
<g id="node2" class="node"><title>Node2</title>
<g id="a_node2"><a xlink:href="classgpusat_1_1_visualization.html#a52f199ac61c2f13e748aa312765528ea" target="_top" xlink:title=" ">
<polygon fill="white" stroke="black" points="74,-98.5 74,-128.5 181,-128.5 181,-98.5 74,-98.5"/>
<text text-anchor="start" x="82" y="-116.5" font-family="Helvetica,sans-Serif" font-size="10.00">gpusat::Visualization</text>
<text text-anchor="middle" x="127.5" y="-105.5" font-family="Helvetica,sans-Serif" font-size="10.00">::testJson</text>
</a>
</g>
</g>
<!-- Node1&#45;&gt;Node2 -->
<g id="edge1" class="edge"><title>Node1&#45;&gt;Node2</title>
<path fill="none" stroke="midnightblue" d="M216.583,-82.8896C201.902,-87.9916 186.134,-93.4711 172.054,-98.3641"/>
<polygon fill="midnightblue" stroke="midnightblue" points="217.748,-86.1902 226.045,-79.6014 215.45,-79.5781 217.748,-86.1902"/>
</g>
<!-- Node3 -->
<g id="node3" class="node"><title>Node3</title>
<g id="a_node3"><a xlink:href="classgpusat_1_1_visualization.html#a81123313bcffe5cd041d3d3897f7d5d1" target="_top" xlink:title=" ">
<polygon fill="white" stroke="black" points="74,-49.5 74,-79.5 181,-79.5 181,-49.5 74,-49.5"/>
<text text-anchor="start" x="82" y="-67.5" font-family="Helvetica,sans-Serif" font-size="10.00">gpusat::Visualization</text>
<text text-anchor="middle" x="127.5" y="-56.5" font-family="Helvetica,sans-Serif" font-size="10.00">::writeJsonFile</text>
</a>
</g>
</g>
<!-- Node1&#45;&gt;Node3 -->
<g id="edge2" class="edge"><title>Node1&#45;&gt;Node3</title>
<path fill="none" stroke="midnightblue" d="M206.95,-64.5C198.3,-64.5 189.49,-64.5 181.047,-64.5"/>
<polygon fill="midnightblue" stroke="midnightblue" points="206.997,-68.0001 216.997,-64.5 206.997,-61.0001 206.997,-68.0001"/>
</g>
<!-- Node5 -->
<g id="node5" class="node"><title>Node5</title>
<g id="a_node5"><a xlink:href="classgpusat_1_1_visualization.html#a67d917c287d6e6020ee8ca4f10a12221" target="_top" xlink:title=" ">
<polygon fill="white" stroke="black" points="74,-0.5 74,-30.5 181,-30.5 181,-0.5 74,-0.5"/>
<text text-anchor="start" x="82" y="-18.5" font-family="Helvetica,sans-Serif" font-size="10.00">gpusat::Visualization</text>
<text text-anchor="middle" x="127.5" y="-7.5" font-family="Helvetica,sans-Serif" font-size="10.00">::writeJsonToStdout</text>
</a>
</g>
</g>
<!-- Node1&#45;&gt;Node5 -->
<g id="edge4" class="edge"><title>Node1&#45;&gt;Node5</title>
<path fill="none" stroke="midnightblue" d="M216.583,-46.1104C201.902,-41.0084 186.134,-35.5289 172.054,-30.6359"/>
<polygon fill="midnightblue" stroke="midnightblue" points="215.45,-49.4219 226.045,-49.3986 217.748,-42.8098 215.45,-49.4219"/>
</g>
<!-- Node4 -->
<g id="node4" class="node"><title>Node4</title>
<g id="a_node4"><a xlink:href="main_8cpp.html#a0ddf1224851353fc92bfbff6f499fa97" target="_top" xlink:title=" ">
<polygon fill="white" stroke="black" points="0,-55 0,-74 38,-74 38,-55 0,-55"/>
<text text-anchor="middle" x="19" y="-62" font-family="Helvetica,sans-Serif" font-size="10.00">main</text>
</a>
</g>
</g>
<!-- Node3&#45;&gt;Node4 -->
<g id="edge3" class="edge"><title>Node3&#45;&gt;Node4</title>
<path fill="none" stroke="midnightblue" d="M63.7296,-64.5C54.4734,-64.5 45.6139,-64.5 38.3194,-64.5"/>
<polygon fill="midnightblue" stroke="midnightblue" points="63.874,-68.0001 73.874,-64.5 63.874,-61.0001 63.874,-68.0001"/>
</g>
</g>
</svg>
