<?xml version="1.0" encoding="UTF-8" standalone="no"?>
<!DOCTYPE svg PUBLIC "-//W3C//DTD SVG 1.1//EN"
 "http://www.w3.org/Graphics/SVG/1.1/DTD/svg11.dtd">
<!-- Generated by graphviz version 2.38.0 (20140413.2041)
 -->
<!-- Title: gpusat::Solver::solveProblem Pages: 1 -->
<!--zoomable 454 -->
<svg id="main" version="1.1" xmlns="http://www.w3.org/2000/svg" xmlns:xlink="http://www.w3.org/1999/xlink" xml:space="preserve" onload="init(evt)">
<style type="text/css"><![CDATA[
.edge:hover path { stroke: red; }
.edge:hover polygon { stroke: red; fill: red; }
]]></style>
<script type="text/javascript"><![CDATA[
var edges = document.getElementsByTagName('g');
if (edges && edges.length) {
  for (var i=0;i<edges.length;i++) {
    if (edges[i].id.substr(0,4)=='edge') {
      edges[i].setAttribute('class','edge');
    }
  }
}
]]></script>
        <defs>
                <circle id="rim" cx="0" cy="0" r="7"/>
                <circle id="rim2" cx="0" cy="0" r="3.5"/>
                <g id="zoomPlus">
                        <use xlink:href="#rim" fill="#404040">
                                <set attributeName="fill" to="#808080" begin="zoomplus.mouseover" end="zoomplus.mouseout"/>
                        </use>
                        <path d="M-4,0h8M0,-4v8" fill="none" stroke="white" stroke-width="1.5" pointer-events="none"/>
                </g>
                <g id="zoomMin">
                        <use xlink:href="#rim" fill="#404040">
                                <set attributeName="fill" to="#808080" begin="zoomminus.mouseover" end="zoomminus.mouseout"/>
                        </use>
                        <path d="M-4,0h8" fill="none" stroke="white" stroke-width="1.5" pointer-events="none"/>
                </g>
                <g id="dirArrow">
                        <path fill="none" stroke="white" stroke-width="1.5" d="M0,-3.0v7 M-2.5,-0.5L0,-3.0L2.5,-0.5"/>
                </g>
               <g id="resetDef">
                       <use xlink:href="#rim2" fill="#404040">
                               <set attributeName="fill" to="#808080" begin="reset.mouseover" end="reset.mouseout"/>
                       </use>
               </g>
        </defs>

<script type="text/javascript">
var viewWidth = 508;
var viewHeight = 454;
var sectionId = 'dynsection-7';
</script>
<script xlink:href="svgpan.js"/>
<svg id="graph" class="graph">
<g id="viewport">
<title>gpusat::Solver::solveProblem</title>
<polygon fill="white" stroke="none" points="-4,4 -4,-449.5 504,-449.5 504,4 -4,4"/>
<!-- Node1 -->
<g id="node1" class="node"><title>Node1</title>
<g id="a_node1"><a xlink:title="Solves the sat formula with a given decomposition.">
<polygon fill="#bfbfbf" stroke="black" points="0,-218.5 0,-237.5 142,-237.5 142,-218.5 0,-218.5"/>
<text text-anchor="middle" x="71" y="-225.5" font-family="Helvetica,sans-Serif" font-size="10.00">gpusat::Solver::solveProblem</text>
</a>
</g>
</g>
<!-- Node2 -->
<g id="node2" class="node"><title>Node2</title>
<g id="a_node2"><a xlink:href="classgpusat_1_1_graphoutput.html#a6a8698facb754dbd450edb04bba74b1c" target="_top" xlink:title="Addes the edges from the tree&#45;decomposition into the graph.">
<polygon fill="white" stroke="black" points="198.5,-317 198.5,-347 303.5,-347 303.5,-317 198.5,-317"/>
<text text-anchor="start" x="206.5" y="-335" font-family="Helvetica,sans-Serif" font-size="10.00">gpusat::Graphoutput</text>
<text text-anchor="middle" x="251" y="-324" font-family="Helvetica,sans-Serif" font-size="10.00">::graphEdgeSet</text>
</a>
</g>
</g>
<!-- Node1&#45;&gt;Node2 -->
<g id="edge1" class="edge"><title>Node1&#45;&gt;Node2</title>
<path fill="none" stroke="midnightblue" d="M83.8478,-237.551C102.879,-252.592 141.801,-282.125 178,-302 185.089,-305.892 192.788,-309.601 200.428,-313"/>
<polygon fill="midnightblue" stroke="midnightblue" points="199.103,-316.24 209.672,-316.984 201.874,-309.812 199.103,-316.24"/>
</g>
<!-- Node3 -->
<g id="node3" class="node"><title>Node3</title>
<g id="a_node3"><a xlink:href="classgpusat_1_1_graphoutput.html#a9337a44c758b7a403e4f7d854b8cd934" target="_top" xlink:title=" ">
<polygon fill="white" stroke="black" points="377.5,-341 377.5,-371 482.5,-371 482.5,-341 377.5,-341"/>
<text text-anchor="start" x="385.5" y="-359" font-family="Helvetica,sans-Serif" font-size="10.00">gpusat::Graphoutput</text>
<text text-anchor="middle" x="430" y="-348" font-family="Helvetica,sans-Serif" font-size="10.00">::isEnabled</text>
</a>
</g>
</g>
<!-- Node1&#45;&gt;Node3 -->
<g id="edge3" class="edge"><title>Node1&#45;&gt;Node3</title>
<path fill="none" stroke="midnightblue" d="M106.696,-237.567C155.714,-251.408 247.768,-278.6 324,-308 346.018,-316.491 369.992,-327.325 389.466,-336.55"/>
<polygon fill="midnightblue" stroke="midnightblue" points="388.104,-339.778 398.636,-340.932 391.123,-333.463 388.104,-339.778"/>
</g>
<!-- Node4 -->
<g id="node4" class="node"><title>Node4</title>
<g id="a_node4"><a xlink:href="classgpusat_1_1_graphoutput.html#a7fbd40cc7da0b8ef4c1e08063b3c0749" target="_top" xlink:title="Create one node with the corresponding solution in a connected extra bag.">
<polygon fill="white" stroke="black" points="198.5,-415 198.5,-445 303.5,-445 303.5,-415 198.5,-415"/>
<text text-anchor="start" x="206.5" y="-433" font-family="Helvetica,sans-Serif" font-size="10.00">gpusat::Graphoutput</text>
<text text-anchor="middle" x="251" y="-422" font-family="Helvetica,sans-Serif" font-size="10.00">::nodeBag</text>
</a>
</g>
</g>
<!-- Node1&#45;&gt;Node4 -->
<g id="edge4" class="edge"><title>Node1&#45;&gt;Node4</title>
<path fill="none" stroke="midnightblue" d="M75.0535,-237.73C84.8875,-267.494 118.6,-358.19 178,-406 181.501,-408.818 185.347,-411.311 189.385,-413.516"/>
<polygon fill="midnightblue" stroke="midnightblue" points="187.941,-416.705 198.469,-417.896 190.982,-410.4 187.941,-416.705"/>
</g>
<!-- Node5 -->
<g id="node5" class="node"><title>Node5</title>
<g id="a_node5"><a xlink:href="classgpusat_1_1_graphoutput.html#abfe6c27af045e2dcff833c53069ccbfc" target="_top" xlink:title="Creates a node with the solution that joins two bags. Two edges are added to connect the solution.">
<polygon fill="white" stroke="black" points="198.5,-366 198.5,-396 303.5,-396 303.5,-366 198.5,-366"/>
<text text-anchor="start" x="206.5" y="-384" font-family="Helvetica,sans-Serif" font-size="10.00">gpusat::Graphoutput</text>
<text text-anchor="middle" x="251" y="-373" font-family="Helvetica,sans-Serif" font-size="10.00">::nodeJoin</text>
</a>
</g>
</g>
<!-- Node1&#45;&gt;Node5 -->
<g id="edge6" class="edge"><title>Node1&#45;&gt;Node5</title>
<path fill="none" stroke="midnightblue" d="M77.3126,-237.658C90.8941,-261.473 129.274,-323.496 178,-357 181.481,-359.394 185.22,-361.564 189.096,-363.53"/>
<polygon fill="midnightblue" stroke="midnightblue" points="187.787,-366.78 198.337,-367.754 190.697,-360.413 187.787,-366.78"/>
</g>
<!-- Node6 -->
<g id="node6" class="node"><title>Node6</title>
<g id="a_node6"><a xlink:href="namespacegpusat.html#aa117816b931264c9a291041b047d0c56" target="_top" xlink:title="print information for a bag in the tree decomposition">
<polygon fill="white" stroke="black" points="376.5,-240.5 376.5,-259.5 483.5,-259.5 483.5,-240.5 376.5,-240.5"/>
<text text-anchor="middle" x="430" y="-247.5" font-family="Helvetica,sans-Serif" font-size="10.00">gpusat::printbagType</text>
</a>
</g>
</g>
<!-- Node1&#45;&gt;Node6 -->
<g id="edge8" class="edge"><title>Node1&#45;&gt;Node6</title>
<path fill="none" stroke="midnightblue" d="M142.106,-232.32C207.314,-236.339 303.582,-242.271 366.298,-246.136"/>
<polygon fill="midnightblue" stroke="midnightblue" points="366.252,-249.64 376.449,-246.762 366.683,-242.653 366.252,-249.64"/>
</g>
<!-- Node7 -->
<g id="node7" class="node"><title>Node7</title>
<g id="a_node7"><a xlink:href="namespacegpusat.html#ae780028fdecbf7e4891b55159b33f3c1" target="_top" xlink:title=" ">
<polygon fill="white" stroke="black" points="208.5,-76.5 208.5,-95.5 293.5,-95.5 293.5,-76.5 208.5,-76.5"/>
<text text-anchor="middle" x="251" y="-83.5" font-family="Helvetica,sans-Serif" font-size="10.00">gpusat::solJson</text>
</a>
</g>
</g>
<!-- Node1&#45;&gt;Node7 -->
<g id="edge9" class="edge"><title>Node1&#45;&gt;Node7</title>
<path fill="none" stroke="midnightblue" d="M77.5096,-218.268C91.256,-194.904 129.478,-135.337 178,-105 184.255,-101.089 191.299,-97.9779 198.469,-95.5039"/>
<polygon fill="midnightblue" stroke="midnightblue" points="199.723,-98.7806 208.263,-92.5101 197.676,-92.0864 199.723,-98.7806"/>
</g>
<!-- Node10 -->
<g id="node10" class="node"><title>Node10</title>
<g id="a_node10"><a xlink:href="namespacegpusat.html#a62a1b8c2535766854537a608378b737f" target="_top" xlink:title="Generate a formatted stringoutput for a solved node with solutions.">
<polygon fill="white" stroke="black" points="197.5,-114.5 197.5,-133.5 304.5,-133.5 304.5,-114.5 197.5,-114.5"/>
<text text-anchor="middle" x="251" y="-121.5" font-family="Helvetica,sans-Serif" font-size="10.00">gpusat::solutiontable</text>
</a>
</g>
</g>
<!-- Node1&#45;&gt;Node10 -->
<g id="edge12" class="edge"><title>Node1&#45;&gt;Node10</title>
<path fill="none" stroke="midnightblue" d="M81.2498,-218.266C98.5645,-200.615 137.769,-163.282 178,-143 182.643,-140.659 187.604,-138.585 192.669,-136.752"/>
<polygon fill="midnightblue" stroke="midnightblue" points="194.08,-139.972 202.48,-133.515 191.887,-133.324 194.08,-139.972"/>
</g>
<!-- Node11 -->
<g id="node11" class="node"><title>Node11</title>
<g id="a_node11"><a xlink:href="classgpusat_1_1_solver.html#a40781bade0390fd7802658d5b3c545b9" target="_top" xlink:title=" ">
<polygon fill="white" stroke="black" points="178,-191 178,-221 324,-221 324,-191 178,-191"/>
<text text-anchor="start" x="186" y="-209" font-family="Helvetica,sans-Serif" font-size="10.00">gpusat::Solver::solveIntroduce</text>
<text text-anchor="middle" x="251" y="-198" font-family="Helvetica,sans-Serif" font-size="10.00">Forget</text>
</a>
</g>
</g>
<!-- Node1&#45;&gt;Node11 -->
<g id="edge14" class="edge"><title>Node1&#45;&gt;Node11</title>
<path fill="none" stroke="midnightblue" d="M142.095,-219.337C150.556,-218.291 159.256,-217.216 167.869,-216.151"/>
<polygon fill="midnightblue" stroke="midnightblue" points="168.427,-219.609 177.922,-214.909 167.568,-212.662 168.427,-219.609"/>
</g>
<!-- Node14 -->
<g id="node14" class="node"><title>Node14</title>
<g id="a_node14"><a xlink:href="classgpusat_1_1_solver.html#a023194e12a492df6c89aa6d85e133875" target="_top" xlink:title=" ">
<polygon fill="white" stroke="black" points="189.5,-152.5 189.5,-171.5 312.5,-171.5 312.5,-152.5 189.5,-152.5"/>
<text text-anchor="middle" x="251" y="-159.5" font-family="Helvetica,sans-Serif" font-size="10.00">gpusat::Solver::solveJoin</text>
</a>
</g>
</g>
<!-- Node1&#45;&gt;Node14 -->
<g id="edge18" class="edge"><title>Node1&#45;&gt;Node14</title>
<path fill="none" stroke="midnightblue" d="M91.1611,-218.39C112.109,-208.15 146.85,-191.938 178,-181 184.877,-178.585 192.216,-176.313 199.481,-174.237"/>
<polygon fill="midnightblue" stroke="midnightblue" points="200.581,-177.565 209.292,-171.533 198.721,-170.816 200.581,-177.565"/>
</g>
<!-- Node16 -->
<g id="node16" class="node"><title>Node16</title>
<g id="a_node16"><a xlink:href="classgpusat_1_1_visualization.html#aee01b172cd6c03b26143b1ae82193b9b" target="_top" xlink:title=" ">
<polygon fill="white" stroke="black" points="197.5,-27 197.5,-57 304.5,-57 304.5,-27 197.5,-27"/>
<text text-anchor="start" x="205.5" y="-45" font-family="Helvetica,sans-Serif" font-size="10.00">gpusat::Visualization</text>
<text text-anchor="middle" x="251" y="-34" font-family="Helvetica,sans-Serif" font-size="10.00">::tdTimelineAppend</text>
</a>
</g>
</g>
<!-- Node1&#45;&gt;Node16 -->
<g id="edge21" class="edge"><title>Node1&#45;&gt;Node16</title>
<path fill="none" stroke="midnightblue" d="M75.6655,-218.454C86.7405,-190.851 122.54,-110.165 178,-67 181.141,-64.5555 184.537,-62.3403 188.087,-60.3343"/>
<polygon fill="midnightblue" stroke="midnightblue" points="189.804,-63.3885 197.164,-55.7672 186.657,-57.1353 189.804,-63.3885"/>
</g>
<!-- Node2&#45;&gt;Node3 -->
<g id="edge2" class="edge"><title>Node2&#45;&gt;Node3</title>
<path fill="none" stroke="midnightblue" d="M303.672,-339.006C323.577,-341.705 346.508,-344.815 367.269,-347.63"/>
<polygon fill="midnightblue" stroke="midnightblue" points="366.885,-351.11 377.264,-348.985 367.825,-344.173 366.885,-351.11"/>
</g>
<!-- Node4&#45;&gt;Node3 -->
<g id="edge5" class="edge"><title>Node4&#45;&gt;Node3</title>
<path fill="none" stroke="midnightblue" d="M299.937,-414.936C308.03,-412.132 316.301,-409.103 324,-406 346.472,-396.944 370.947,-385.392 390.61,-375.674"/>
<polygon fill="midnightblue" stroke="midnightblue" points="392.174,-378.805 399.562,-371.212 389.051,-372.54 392.174,-378.805"/>
</g>
<!-- Node5&#45;&gt;Node3 -->
<g id="edge7" class="edge"><title>Node5&#45;&gt;Node3</title>
<path fill="none" stroke="midnightblue" d="M303.672,-373.702C323.577,-370.89 346.508,-367.651 367.269,-364.719"/>
<polygon fill="midnightblue" stroke="midnightblue" points="367.852,-368.172 377.264,-363.307 366.873,-361.24 367.852,-368.172"/>
</g>
<!-- Node8 -->
<g id="node8" class="node"><title>Node8</title>
<g id="a_node8"><a xlink:href="classgpusat_1_1_bag_matrix.html#ac3ca0894fea2e196b1f80da4906920c3" target="_top" xlink:title=" ">
<polygon fill="white" stroke="black" points="379,-39 379,-69 481,-69 481,-39 379,-39"/>
<text text-anchor="start" x="387" y="-57" font-family="Helvetica,sans-Serif" font-size="10.00">gpusat::BagMatrix::</text>
<text text-anchor="middle" x="430" y="-46" font-family="Helvetica,sans-Serif" font-size="10.00">columns</text>
</a>
</g>
</g>
<!-- Node7&#45;&gt;Node8 -->
<g id="edge10" class="edge"><title>Node7&#45;&gt;Node8</title>
<path fill="none" stroke="midnightblue" d="M293.947,-78.4164C316.319,-74.3717 344.241,-69.3237 368.88,-64.8692"/>
<polygon fill="midnightblue" stroke="midnightblue" points="369.636,-68.2893 378.854,-63.066 368.391,-61.4009 369.636,-68.2893"/>
</g>
<!-- Node9 -->
<g id="node9" class="node"><title>Node9</title>
<g id="a_node9"><a xlink:href="namespacegpusat.html#a607a57fced4760564963f4c707f28449" target="_top" xlink:title=" ">
<polygon fill="white" stroke="black" points="384.5,-88.5 384.5,-107.5 475.5,-107.5 475.5,-88.5 384.5,-88.5"/>
<text text-anchor="middle" x="430" y="-95.5" font-family="Helvetica,sans-Serif" font-size="10.00">gpusat::getCount</text>
</a>
</g>
</g>
<!-- Node7&#45;&gt;Node9 -->
<g id="edge11" class="edge"><title>Node7&#45;&gt;Node9</title>
<path fill="none" stroke="midnightblue" d="M293.947,-88.8438C317.953,-90.4714 348.348,-92.5321 374.221,-94.2862"/>
<polygon fill="midnightblue" stroke="midnightblue" points="374.047,-97.7823 384.26,-94.9668 374.52,-90.7983 374.047,-97.7823"/>
</g>
<!-- Node10&#45;&gt;Node9 -->
<g id="edge13" class="edge"><title>Node10&#45;&gt;Node9</title>
<path fill="none" stroke="midnightblue" d="M304.627,-116.27C326.631,-113.037 352.196,-109.282 374.406,-106.02"/>
<polygon fill="midnightblue" stroke="midnightblue" points="374.964,-109.475 384.349,-104.559 373.946,-102.55 374.964,-109.475"/>
</g>
<!-- Node11&#45;&gt;Node6 -->
<g id="edge17" class="edge"><title>Node11&#45;&gt;Node6</title>
<path fill="none" stroke="midnightblue" d="M312.418,-221.019C334.81,-226.586 359.878,-232.817 381.014,-238.071"/>
<polygon fill="midnightblue" stroke="midnightblue" points="380.185,-241.472 390.734,-240.488 381.874,-234.678 380.185,-241.472"/>
</g>
<!-- Node12 -->
<g id="node12" class="node"><title>Node12</title>
<g id="a_node12"><a xlink:href="classgpusat_1_1_solver.html#aeb736ac16e820137d6d0898960336783" target="_top" xlink:title=" ">
<polygon fill="white" stroke="black" points="360,-164.5 360,-183.5 500,-183.5 500,-164.5 360,-164.5"/>
<text text-anchor="middle" x="430" y="-171.5" font-family="Helvetica,sans-Serif" font-size="10.00">gpusat::Solver::combineTree</text>
</a>
</g>
</g>
<!-- Node11&#45;&gt;Node12 -->
<g id="edge15" class="edge"><title>Node11&#45;&gt;Node12</title>
<path fill="none" stroke="midnightblue" d="M324.248,-192.938C338.112,-190.432 352.526,-187.826 366.067,-185.378"/>
<polygon fill="midnightblue" stroke="midnightblue" points="367.011,-188.764 376.228,-183.541 365.765,-181.876 367.011,-188.764"/>
</g>
<!-- Node13 -->
<g id="node13" class="node"><title>Node13</title>
<g id="a_node13"><a xlink:href="namespacegpusat.html#a1f445c345dcaf73f1835ce81473ef646" target="_top" xlink:title=" ">
<polygon fill="white" stroke="black" points="382,-202.5 382,-221.5 478,-221.5 478,-202.5 382,-202.5"/>
<text text-anchor="middle" x="430" y="-209.5" font-family="Helvetica,sans-Serif" font-size="10.00">gpusat::compVars</text>
</a>
</g>
</g>
<!-- Node11&#45;&gt;Node13 -->
<g id="edge16" class="edge"><title>Node11&#45;&gt;Node13</title>
<path fill="none" stroke="midnightblue" d="M324.248,-208.449C340.014,-208.984 356.494,-209.542 371.59,-210.054"/>
<polygon fill="midnightblue" stroke="midnightblue" points="371.682,-213.559 381.795,-210.4 371.919,-206.563 371.682,-213.559"/>
</g>
<!-- Node14&#45;&gt;Node12 -->
<g id="edge20" class="edge"><title>Node14&#45;&gt;Node12</title>
<path fill="none" stroke="midnightblue" d="M312.913,-166.13C324.71,-166.93 337.234,-167.779 349.523,-168.612"/>
<polygon fill="midnightblue" stroke="midnightblue" points="349.555,-172.122 359.769,-169.306 350.029,-165.138 349.555,-172.122"/>
</g>
<!-- Node15 -->
<g id="node15" class="node"><title>Node15</title>
<g id="a_node15"><a xlink:href="classgpusat_1_1_solver.html#acec22223ccb8d99855775e71031c9719" target="_top" xlink:title=" ">
<polygon fill="white" stroke="black" points="367,-126.5 367,-145.5 493,-145.5 493,-126.5 367,-126.5"/>
<text text-anchor="middle" x="430" y="-133.5" font-family="Helvetica,sans-Serif" font-size="10.00">gpusat::Solver::cleanTree</text>
</a>
</g>
</g>
<!-- Node14&#45;&gt;Node15 -->
<g id="edge19" class="edge"><title>Node14&#45;&gt;Node15</title>
<path fill="none" stroke="midnightblue" d="M312.913,-153.052C327.051,-150.976 342.232,-148.746 356.802,-146.605"/>
<polygon fill="midnightblue" stroke="midnightblue" points="357.386,-150.057 366.771,-145.141 356.369,-143.131 357.386,-150.057"/>
</g>
<!-- Node16&#45;&gt;Node8 -->
<g id="edge22" class="edge"><title>Node16&#45;&gt;Node8</title>
<path fill="none" stroke="midnightblue" d="M304.627,-45.5679C324.769,-46.9335 347.895,-48.5013 368.699,-49.9118"/>
<polygon fill="midnightblue" stroke="midnightblue" points="368.489,-53.4055 378.702,-50.59 368.962,-46.4215 368.489,-53.4055"/>
</g>
<!-- Node17 -->
<g id="node17" class="node"><title>Node17</title>
<g id="a_node17"><a xlink:href="classgpusat_1_1_bag_matrix.html#ae908b7136aee4cbca717608e45b79a87" target="_top" xlink:title=" ">
<polygon fill="white" stroke="black" points="369,-0.5 369,-19.5 491,-19.5 491,-0.5 369,-0.5"/>
<text text-anchor="middle" x="430" y="-7.5" font-family="Helvetica,sans-Serif" font-size="10.00">gpusat::BagMatrix::rows</text>
</a>
</g>
</g>
<!-- Node16&#45;&gt;Node17 -->
<g id="edge23" class="edge"><title>Node16&#45;&gt;Node17</title>
<path fill="none" stroke="midnightblue" d="M304.627,-32.4856C323.98,-28.9867 346.088,-24.9898 366.244,-21.3457"/>
<polygon fill="midnightblue" stroke="midnightblue" points="367.053,-24.7563 376.271,-19.533 365.807,-17.868 367.053,-24.7563"/>
</g>
</g>
</svg>
        <g id="navigator" transform="translate(0 0)" fill="#404254">
                <rect fill="#f2f5e9" fill-opacity="0.5" stroke="#606060" stroke-width=".5" x="0" y="0" width="60" height="60"/>
                <use id="zoomplus" xlink:href="#zoomPlus" x="17" y="9" onmousedown="handleZoom(evt,'in')"/>
                <use id="zoomminus" xlink:href="#zoomMin" x="42" y="9" onmousedown="handleZoom(evt,'out')"/>
                <use id="reset" xlink:href="#resetDef" x="30" y="36" onmousedown="handleReset()"/>
                <g id="arrowUp" xlink:href="#dirArrow" transform="translate(30 24)" onmousedown="handlePan(0,-1)">
                  <use xlink:href="#rim" fill="#404040">
                        <set attributeName="fill" to="#808080" begin="arrowUp.mouseover" end="arrowUp.mouseout"/>
                  </use>
                  <path fill="none" stroke="white" stroke-width="1.5" d="M0,-3.0v7 M-2.5,-0.5L0,-3.0L2.5,-0.5"/>
                </g>
                <g id="arrowRight" xlink:href="#dirArrow" transform="rotate(90) translate(36 -43)" onmousedown="handlePan(1,0)">
                  <use xlink:href="#rim" fill="#404040">
                        <set attributeName="fill" to="#808080" begin="arrowRight.mouseover" end="arrowRight.mouseout"/>
                  </use>
                  <path fill="none" stroke="white" stroke-width="1.5" d="M0,-3.0v7 M-2.5,-0.5L0,-3.0L2.5,-0.5"/>
                </g>
                <g id="arrowDown" xlink:href="#dirArrow" transform="rotate(180) translate(-30 -48)" onmousedown="handlePan(0,1)">
                  <use xlink:href="#rim" fill="#404040">
                        <set attributeName="fill" to="#808080" begin="arrowDown.mouseover" end="arrowDown.mouseout"/>
                  </use>
                  <path fill="none" stroke="white" stroke-width="1.5" d="M0,-3.0v7 M-2.5,-0.5L0,-3.0L2.5,-0.5"/>
                </g>
                <g id="arrowLeft" xlink:href="#dirArrow" transform="rotate(270) translate(-36 17)" onmousedown="handlePan(-1,0)">
                  <use xlink:href="#rim" fill="#404040">
                        <set attributeName="fill" to="#808080" begin="arrowLeft.mouseover" end="arrowLeft.mouseout"/>
                  </use>
                  <path fill="none" stroke="white" stroke-width="1.5" d="M0,-3.0v7 M-2.5,-0.5L0,-3.0L2.5,-0.5"/>
                </g>
        </g>
        <svg viewBox="0 0 15 15" width="100%" height="30px" preserveAspectRatio="xMaxYMin meet">
         <g id="arrow_out" transform="scale(0.3 0.3)">
          <a xlink:href="classgpusat_1_1_solver_ae0fed660431502c4ff23b011de6207ca_cgraph_org.svg" target="_base">
           <rect id="button" ry="5" rx="5" y="6" x="6" height="38" width="38"
                fill="#f2f5e9" fill-opacity="0.5" stroke="#606060" stroke-width="1.0"/>
           <path id="arrow"
             d="M 11.500037,31.436501 C 11.940474,20.09759 22.043105,11.32322 32.158766,21.979434 L 37.068811,17.246167 C 37.068811,17.246167 37.088388,32 37.088388,32 L 22.160133,31.978069 C 22.160133,31.978069 26.997745,27.140456 26.997745,27.140456 C 18.528582,18.264221 13.291696,25.230495 11.500037,31.436501 z"
             style="fill:#404040;"/>
          </a>
         </g>
        </svg>
</svg>
