<?xml version="1.0" encoding="UTF-8" standalone="no"?>
<!DOCTYPE svg PUBLIC "-//W3C//DTD SVG 1.1//EN"
 "http://www.w3.org/Graphics/SVG/1.1/DTD/svg11.dtd">
<!-- Generated by graphviz version 2.38.0 (20140413.2041)
 -->
<!-- Title: gpusat::Graphoutput::isEnabled Pages: 1 -->
<svg width="432pt" height="372pt"
 viewBox="0.00 0.00 432.00 372.00" xmlns="http://www.w3.org/2000/svg" xmlns:xlink="http://www.w3.org/1999/xlink">
<g id="graph0" class="graph" transform="scale(1 1) rotate(0) translate(4 368)">
<title>gpusat::Graphoutput::isEnabled</title>
<polygon fill="white" stroke="none" points="-4,4 -4,-368 428,-368 428,4 -4,4"/>
<!-- Node1 -->
<g id="node1" class="node"><title>Node1</title>
<g id="a_node1"><a xlink:title=" ">
<polygon fill="#bfbfbf" stroke="black" points="319,-171.5 319,-201.5 424,-201.5 424,-171.5 319,-171.5"/>
<text text-anchor="start" x="327" y="-189.5" font-family="Helvetica,sans-Serif" font-size="10.00">gpusat::Graphoutput</text>
<text text-anchor="middle" x="371.5" y="-178.5" font-family="Helvetica,sans-Serif" font-size="10.00">::isEnabled</text>
</a>
</g>
</g>
<!-- Node2 -->
<g id="node2" class="node"><title>Node2</title>
<g id="a_node2"><a xlink:href="classgpusat_1_1_graphoutput.html#a6a8698facb754dbd450edb04bba74b1c" target="_top" xlink:title="Addes the edges from the tree&#45;decomposition into the graph.">
<polygon fill="white" stroke="black" points="178,-333.5 178,-363.5 283,-363.5 283,-333.5 178,-333.5"/>
<text text-anchor="start" x="186" y="-351.5" font-family="Helvetica,sans-Serif" font-size="10.00">gpusat::Graphoutput</text>
<text text-anchor="middle" x="230.5" y="-340.5" font-family="Helvetica,sans-Serif" font-size="10.00">::graphEdgeSet</text>
</a>
</g>
</g>
<!-- Node1&#45;&gt;Node2 -->
<g id="edge1" class="edge"><title>Node1&#45;&gt;Node2</title>
<path fill="none" stroke="midnightblue" d="M358.778,-210.79C344.123,-239.26 316.807,-286.596 283,-318.5 277.055,-324.11 269.875,-329.115 262.788,-333.354"/>
<polygon fill="midnightblue" stroke="midnightblue" points="362.052,-212.069 363.423,-201.563 355.8,-208.921 362.052,-212.069"/>
</g>
<!-- Node3 -->
<g id="node3" class="node"><title>Node3</title>
<g id="a_node3"><a xlink:href="classgpusat_1_1_solver.html#ae0fed660431502c4ff23b011de6207ca" target="_top" xlink:title="Solves the sat formula with a given decomposition.">
<polygon fill="white" stroke="black" points="0,-273 0,-292 142,-292 142,-273 0,-273"/>
<text text-anchor="middle" x="71" y="-280" font-family="Helvetica,sans-Serif" font-size="10.00">gpusat::Solver::solveProblem</text>
</a>
</g>
</g>
<!-- Node1&#45;&gt;Node3 -->
<g id="edge15" class="edge"><title>Node1&#45;&gt;Node3</title>
<path fill="none" stroke="midnightblue" d="M357.354,-210.763C342.775,-234.836 316.785,-270.271 283,-285.5 226.388,-311.019 152.243,-301.43 108.6,-292.036"/>
<polygon fill="midnightblue" stroke="midnightblue" points="360.537,-212.253 362.548,-201.851 354.489,-208.728 360.537,-212.253"/>
</g>
<!-- Node4 -->
<g id="node4" class="node"><title>Node4</title>
<g id="a_node4"><a xlink:href="classgpusat_1_1_graphoutput.html#a75b647b135cd9dbdc2eaed399eaf0ba3" target="_top" xlink:title=" ">
<polygon fill="white" stroke="black" points="178,-147.5 178,-177.5 283,-177.5 283,-147.5 178,-147.5"/>
<text text-anchor="start" x="186" y="-165.5" font-family="Helvetica,sans-Serif" font-size="10.00">gpusat::Graphoutput</text>
<text text-anchor="middle" x="230.5" y="-154.5" font-family="Helvetica,sans-Serif" font-size="10.00">::graphEnd</text>
</a>
</g>
</g>
<!-- Node1&#45;&gt;Node4 -->
<g id="edge3" class="edge"><title>Node1&#45;&gt;Node4</title>
<path fill="none" stroke="midnightblue" d="M308.837,-175.853C300.31,-174.381 291.625,-172.881 283.302,-171.444"/>
<polygon fill="midnightblue" stroke="midnightblue" points="308.292,-179.311 318.742,-177.563 309.483,-172.413 308.292,-179.311"/>
</g>
<!-- Node6 -->
<g id="node6" class="node"><title>Node6</title>
<g id="a_node6"><a xlink:href="classgpusat_1_1_graphoutput.html#a2cd530c2bd234cd6fca065b8d504fc36" target="_top" xlink:title=" ">
<polygon fill="white" stroke="black" points="178,-98.5 178,-128.5 283,-128.5 283,-98.5 178,-98.5"/>
<text text-anchor="start" x="186" y="-116.5" font-family="Helvetica,sans-Serif" font-size="10.00">gpusat::Graphoutput</text>
<text text-anchor="middle" x="230.5" y="-105.5" font-family="Helvetica,sans-Serif" font-size="10.00">::graphStart</text>
</a>
</g>
</g>
<!-- Node1&#45;&gt;Node6 -->
<g id="edge5" class="edge"><title>Node1&#45;&gt;Node6</title>
<path fill="none" stroke="midnightblue" d="M334.962,-166.482C319.15,-157.71 300.243,-147.408 283,-138.5 276.642,-135.216 269.787,-131.801 263.217,-128.59"/>
<polygon fill="midnightblue" stroke="midnightblue" points="333.439,-169.639 343.878,-171.447 336.844,-163.524 333.439,-169.639"/>
</g>
<!-- Node7 -->
<g id="node7" class="node"><title>Node7</title>
<g id="a_node7"><a xlink:href="classgpusat_1_1_graphoutput.html#aed89def93056ef06a7c0969bfa2fcf1b" target="_top" xlink:title="Output Cypherquery to create the nodes from the SAT formula">
<polygon fill="white" stroke="black" points="178,-49.5 178,-79.5 283,-79.5 283,-49.5 178,-49.5"/>
<text text-anchor="start" x="186" y="-67.5" font-family="Helvetica,sans-Serif" font-size="10.00">gpusat::Graphoutput</text>
<text text-anchor="middle" x="230.5" y="-56.5" font-family="Helvetica,sans-Serif" font-size="10.00">::neo4jSat</text>
</a>
</g>
</g>
<!-- Node1&#45;&gt;Node7 -->
<g id="edge7" class="edge"><title>Node1&#45;&gt;Node7</title>
<path fill="none" stroke="midnightblue" d="M353.689,-163.212C337.444,-141.949 311.207,-110.694 283,-89.5 278.153,-85.8581 272.692,-82.5324 267.185,-79.5789"/>
<polygon fill="midnightblue" stroke="midnightblue" points="351.014,-165.478 359.814,-171.378 356.614,-161.278 351.014,-165.478"/>
</g>
<!-- Node8 -->
<g id="node8" class="node"><title>Node8</title>
<g id="a_node8"><a xlink:href="classgpusat_1_1_graphoutput.html#ae371f11ef89ad4507bc5f656fe932da7" target="_top" xlink:title=" ">
<polygon fill="white" stroke="black" points="178,-0.5 178,-30.5 283,-30.5 283,-0.5 178,-0.5"/>
<text text-anchor="start" x="186" y="-18.5" font-family="Helvetica,sans-Serif" font-size="10.00">gpusat::Graphoutput</text>
<text text-anchor="middle" x="230.5" y="-7.5" font-family="Helvetica,sans-Serif" font-size="10.00">::neo4jTD</text>
</a>
</g>
</g>
<!-- Node1&#45;&gt;Node8 -->
<g id="edge9" class="edge"><title>Node1&#45;&gt;Node8</title>
<path fill="none" stroke="midnightblue" d="M361.153,-161.666C348.029,-129.708 321.37,-74.1844 283,-39.5 279.268,-36.1265 274.979,-33.1446 270.503,-30.5322"/>
<polygon fill="midnightblue" stroke="midnightblue" points="357.982,-163.164 364.936,-171.158 364.485,-160.572 357.982,-163.164"/>
</g>
<!-- Node9 -->
<g id="node9" class="node"><title>Node9</title>
<g id="a_node9"><a xlink:href="classgpusat_1_1_graphoutput.html#a7fbd40cc7da0b8ef4c1e08063b3c0749" target="_top" xlink:title="Create one node with the corresponding solution in a connected extra bag.">
<polygon fill="white" stroke="black" points="178,-245.5 178,-275.5 283,-275.5 283,-245.5 178,-245.5"/>
<text text-anchor="start" x="186" y="-263.5" font-family="Helvetica,sans-Serif" font-size="10.00">gpusat::Graphoutput</text>
<text text-anchor="middle" x="230.5" y="-252.5" font-family="Helvetica,sans-Serif" font-size="10.00">::nodeBag</text>
</a>
</g>
</g>
<!-- Node1&#45;&gt;Node9 -->
<g id="edge11" class="edge"><title>Node1&#45;&gt;Node9</title>
<path fill="none" stroke="midnightblue" d="M336.52,-206.791C320.463,-216.153 300.925,-227.222 283,-236.5 277.218,-239.493 270.995,-242.537 264.941,-245.408"/>
<polygon fill="midnightblue" stroke="midnightblue" points="338.68,-209.582 345.534,-201.502 335.138,-203.544 338.68,-209.582"/>
</g>
<!-- Node10 -->
<g id="node10" class="node"><title>Node10</title>
<g id="a_node10"><a xlink:href="classgpusat_1_1_graphoutput.html#abfe6c27af045e2dcff833c53069ccbfc" target="_top" xlink:title="Creates a node with the solution that joins two bags. Two edges are added to connect the solution.">
<polygon fill="white" stroke="black" points="178,-196.5 178,-226.5 283,-226.5 283,-196.5 178,-196.5"/>
<text text-anchor="start" x="186" y="-214.5" font-family="Helvetica,sans-Serif" font-size="10.00">gpusat::Graphoutput</text>
<text text-anchor="middle" x="230.5" y="-203.5" font-family="Helvetica,sans-Serif" font-size="10.00">::nodeJoin</text>
</a>
</g>
</g>
<!-- Node1&#45;&gt;Node10 -->
<g id="edge13" class="edge"><title>Node1&#45;&gt;Node10</title>
<path fill="none" stroke="midnightblue" d="M308.837,-197.591C300.31,-199.124 291.625,-200.686 283.302,-202.183"/>
<polygon fill="midnightblue" stroke="midnightblue" points="309.519,-201.024 318.742,-195.809 308.28,-194.135 309.519,-201.024"/>
</g>
<!-- Node2&#45;&gt;Node3 -->
<g id="edge2" class="edge"><title>Node2&#45;&gt;Node3</title>
<path fill="none" stroke="midnightblue" d="M183.781,-329.341C154.59,-317.109 118.005,-301.778 94.8085,-292.058"/>
<polygon fill="midnightblue" stroke="midnightblue" points="182.791,-332.721 193.366,-333.358 185.496,-326.265 182.791,-332.721"/>
</g>
<!-- Node5 -->
<g id="node5" class="node"><title>Node5</title>
<g id="a_node5"><a xlink:href="main_8cpp.html#a0ddf1224851353fc92bfbff6f499fa97" target="_top" xlink:title=" ">
<polygon fill="white" stroke="black" points="52,-79 52,-98 90,-98 90,-79 52,-79"/>
<text text-anchor="middle" x="71" y="-86" font-family="Helvetica,sans-Serif" font-size="10.00">main</text>
</a>
</g>
</g>
<!-- Node4&#45;&gt;Node5 -->
<g id="edge4" class="edge"><title>Node4&#45;&gt;Node5</title>
<path fill="none" stroke="midnightblue" d="M187.775,-143.075C184.467,-141.529 181.178,-139.99 178,-138.5 147.234,-124.075 111.499,-107.193 90.3712,-97.1974"/>
<polygon fill="midnightblue" stroke="midnightblue" points="186.53,-146.357 197.072,-147.416 189.491,-140.014 186.53,-146.357"/>
</g>
<!-- Node6&#45;&gt;Node5 -->
<g id="edge6" class="edge"><title>Node6&#45;&gt;Node5</title>
<path fill="none" stroke="midnightblue" d="M167.848,-103.714C140.044,-99.3006 109.253,-94.4131 90.2597,-91.3984"/>
<polygon fill="midnightblue" stroke="midnightblue" points="167.504,-107.203 177.929,-105.314 168.601,-100.29 167.504,-107.203"/>
</g>
<!-- Node7&#45;&gt;Node5 -->
<g id="edge8" class="edge"><title>Node7&#45;&gt;Node5</title>
<path fill="none" stroke="midnightblue" d="M167.848,-73.8946C140.044,-78.1314 109.253,-82.8234 90.2597,-85.7176"/>
<polygon fill="midnightblue" stroke="midnightblue" points="168.57,-77.3251 177.929,-72.3585 167.515,-70.4049 168.57,-77.3251"/>
</g>
<!-- Node8&#45;&gt;Node5 -->
<g id="edge10" class="edge"><title>Node8&#45;&gt;Node5</title>
<path fill="none" stroke="midnightblue" d="M187.405,-35.0108C155.767,-49.6747 113.969,-69.0476 90.3393,-79.9999"/>
<polygon fill="midnightblue" stroke="midnightblue" points="189.265,-38.0064 196.866,-30.6256 186.321,-31.6554 189.265,-38.0064"/>
</g>
<!-- Node9&#45;&gt;Node3 -->
<g id="edge12" class="edge"><title>Node9&#45;&gt;Node3</title>
<path fill="none" stroke="midnightblue" d="M167.802,-269.118C158.688,-270.391 149.253,-271.709 140.019,-272.999"/>
<polygon fill="midnightblue" stroke="midnightblue" points="168.509,-272.553 177.929,-267.704 167.541,-265.621 168.509,-272.553"/>
</g>
<!-- Node10&#45;&gt;Node3 -->
<g id="edge14" class="edge"><title>Node10&#45;&gt;Node3</title>
<path fill="none" stroke="midnightblue" d="M186.62,-230.83C156.36,-244.471 117.114,-262.163 93.2821,-272.906"/>
<polygon fill="midnightblue" stroke="midnightblue" points="188.42,-233.858 196.098,-226.557 185.543,-227.476 188.42,-233.858"/>
</g>
</g>
</svg>
