<?xml version="1.0" encoding="UTF-8" standalone="no"?>
<!DOCTYPE svg PUBLIC "-//W3C//DTD SVG 1.1//EN"
 "http://www.w3.org/Graphics/SVG/1.1/DTD/svg11.dtd">
<!-- Generated by graphviz version 2.38.0 (20140413.2041)
 -->
<!-- Title: gpusat::Visualization::isEnabled Pages: 1 -->
<svg width="332pt" height="88pt"
 viewBox="0.00 0.00 332.00 88.00" xmlns="http://www.w3.org/2000/svg" xmlns:xlink="http://www.w3.org/1999/xlink">
<g id="graph0" class="graph" transform="scale(1 1) rotate(0) translate(4 84)">
<title>gpusat::Visualization::isEnabled</title>
<polygon fill="white" stroke="none" points="-4,4 -4,-84 328,-84 328,4 -4,4"/>
<!-- Node1 -->
<g id="node1" class="node"><title>Node1</title>
<g id="a_node1"><a xlink:title=" ">
<polygon fill="#bfbfbf" stroke="black" points="217,-24.5 217,-54.5 324,-54.5 324,-24.5 217,-24.5"/>
<text text-anchor="start" x="225" y="-42.5" font-family="Helvetica,sans-Serif" font-size="10.00">gpusat::Visualization</text>
<text text-anchor="middle" x="270.5" y="-31.5" font-family="Helvetica,sans-Serif" font-size="10.00">::isEnabled</text>
</a>
</g>
</g>
<!-- Node2 -->
<g id="node2" class="node"><title>Node2</title>
<g id="a_node2"><a xlink:href="classgpusat_1_1_visualization.html#a6b548a71d2aaf1d49fa2caac8a7484a9" target="_top" xlink:title=" ">
<polygon fill="white" stroke="black" points="74,-49.5 74,-79.5 181,-79.5 181,-49.5 74,-49.5"/>
<text text-anchor="start" x="82" y="-67.5" font-family="Helvetica,sans-Serif" font-size="10.00">gpusat::Visualization</text>
<text text-anchor="middle" x="127.5" y="-56.5" font-family="Helvetica,sans-Serif" font-size="10.00">::Visualization</text>
</a>
</g>
</g>
<!-- Node1&#45;&gt;Node2 -->
<g id="edge1" class="edge"><title>Node1&#45;&gt;Node2</title>
<path fill="none" stroke="midnightblue" d="M206.95,-50.5905C198.3,-52.124 189.49,-53.6862 181.047,-55.1831"/>
<polygon fill="midnightblue" stroke="midnightblue" points="207.761,-54.0012 216.997,-48.8091 206.539,-47.1087 207.761,-54.0012"/>
</g>
<!-- Node3 -->
<g id="node3" class="node"><title>Node3</title>
<g id="a_node3"><a xlink:href="classgpusat_1_1_visualization.html#a81123313bcffe5cd041d3d3897f7d5d1" target="_top" xlink:title=" ">
<polygon fill="white" stroke="black" points="74,-0.5 74,-30.5 181,-30.5 181,-0.5 74,-0.5"/>
<text text-anchor="start" x="82" y="-18.5" font-family="Helvetica,sans-Serif" font-size="10.00">gpusat::Visualization</text>
<text text-anchor="middle" x="127.5" y="-7.5" font-family="Helvetica,sans-Serif" font-size="10.00">::writeJsonFile</text>
</a>
</g>
</g>
<!-- Node1&#45;&gt;Node3 -->
<g id="edge2" class="edge"><title>Node1&#45;&gt;Node3</title>
<path fill="none" stroke="midnightblue" d="M206.95,-28.8531C198.3,-27.3809 189.49,-25.8812 181.047,-24.4442"/>
<polygon fill="midnightblue" stroke="midnightblue" points="206.551,-32.3356 216.997,-30.5633 207.726,-25.4348 206.551,-32.3356"/>
</g>
<!-- Node4 -->
<g id="node4" class="node"><title>Node4</title>
<g id="a_node4"><a xlink:href="main_8cpp.html#a0ddf1224851353fc92bfbff6f499fa97" target="_top" xlink:title=" ">
<polygon fill="white" stroke="black" points="0,-6 0,-25 38,-25 38,-6 0,-6"/>
<text text-anchor="middle" x="19" y="-13" font-family="Helvetica,sans-Serif" font-size="10.00">main</text>
</a>
</g>
</g>
<!-- Node3&#45;&gt;Node4 -->
<g id="edge3" class="edge"><title>Node3&#45;&gt;Node4</title>
<path fill="none" stroke="midnightblue" d="M63.7296,-15.5C54.4734,-15.5 45.6139,-15.5 38.3194,-15.5"/>
<polygon fill="midnightblue" stroke="midnightblue" points="63.874,-19.0001 73.874,-15.5 63.874,-12.0001 63.874,-19.0001"/>
</g>
</g>
</svg>
