<?xml version="1.0" encoding="UTF-8" standalone="no"?>
<!DOCTYPE svg PUBLIC "-//W3C//DTD SVG 1.1//EN"
 "http://www.w3.org/Graphics/SVG/1.1/DTD/svg11.dtd">
<!-- Generated by graphviz version 2.38.0 (20140413.2041)
 -->
<!-- Title: src/decomposer.cpp Pages: 1 -->
<!--zoomable 162 -->
<svg id="main" version="1.1" xmlns="http://www.w3.org/2000/svg" xmlns:xlink="http://www.w3.org/1999/xlink" xml:space="preserve" onload="init(evt)">
<style type="text/css"><![CDATA[
.edge:hover path { stroke: red; }
.edge:hover polygon { stroke: red; fill: red; }
]]></style>
<script type="text/javascript"><![CDATA[
var edges = document.getElementsByTagName('g');
if (edges && edges.length) {
  for (var i=0;i<edges.length;i++) {
    if (edges[i].id.substr(0,4)=='edge') {
      edges[i].setAttribute('class','edge');
    }
  }
}
]]></script>
        <defs>
                <circle id="rim" cx="0" cy="0" r="7"/>
                <circle id="rim2" cx="0" cy="0" r="3.5"/>
                <g id="zoomPlus">
                        <use xlink:href="#rim" fill="#404040">
                                <set attributeName="fill" to="#808080" begin="zoomplus.mouseover" end="zoomplus.mouseout"/>
                        </use>
                        <path d="M-4,0h8M0,-4v8" fill="none" stroke="white" stroke-width="1.5" pointer-events="none"/>
                </g>
                <g id="zoomMin">
                        <use xlink:href="#rim" fill="#404040">
                                <set attributeName="fill" to="#808080" begin="zoomminus.mouseover" end="zoomminus.mouseout"/>
                        </use>
                        <path d="M-4,0h8" fill="none" stroke="white" stroke-width="1.5" pointer-events="none"/>
                </g>
                <g id="dirArrow">
                        <path fill="none" stroke="white" stroke-width="1.5" d="M0,-3.0v7 M-2.5,-0.5L0,-3.0L2.5,-0.5"/>
                </g>
               <g id="resetDef">
                       <use xlink:href="#rim2" fill="#404040">
                               <set attributeName="fill" to="#808080" begin="reset.mouseover" end="reset.mouseout"/>
                       </use>
               </g>
        </defs>

<script type="text/javascript">
var viewWidth = 1384;
var viewHeight = 162;
var sectionId = 'dynsection-0';
</script>
<script xlink:href="svgpan.js"/>
<svg id="graph" class="graph">
<g id="viewport">
<title>src/decomposer.cpp</title>
<polygon fill="white" stroke="none" points="-4,4 -4,-158 1379.5,-158 1379.5,4 -4,4"/>
<!-- Node1 -->
<g id="node1" class="node"><title>Node1</title>
<g id="a_node1"><a xlink:title=" ">
<polygon fill="#bfbfbf" stroke="black" points="728,-134.5 728,-153.5 833,-153.5 833,-134.5 728,-134.5"/>
<text text-anchor="middle" x="780.5" y="-141.5" font-family="Helvetica,sans-Serif" font-size="10.00">src/decomposer.cpp</text>
</a>
</g>
</g>
<!-- Node2 -->
<g id="node2" class="node"><title>Node2</title>
<g id="a_node2"><a xlink:href="decomposer_8h.html" target="_top" xlink:title=" ">
<polygon fill="white" stroke="black" points="186.5,-73 186.5,-92 264.5,-92 264.5,-73 186.5,-73"/>
<text text-anchor="middle" x="225.5" y="-80" font-family="Helvetica,sans-Serif" font-size="10.00">decomposer.h</text>
</a>
</g>
</g>
<!-- Node1&#45;&gt;Node2 -->
<g id="edge1" class="edge"><title>Node1&#45;&gt;Node2</title>
<path fill="none" stroke="midnightblue" d="M727.945,-141.763C635.486,-138.826 438.027,-129.145 274.5,-98 270.016,-97.146 265.355,-96.0495 260.769,-94.8425"/>
<polygon fill="midnightblue" stroke="midnightblue" points="261.523,-91.4187 250.949,-92.075 259.624,-98.1563 261.523,-91.4187"/>
</g>
<!-- Node7 -->
<g id="node7" class="node"><title>Node7</title>
<g id="a_node7"><a xlink:title=" ">
<polygon fill="white" stroke="#bfbfbf" points="283,-67.5 283,-97.5 424,-97.5 424,-67.5 283,-67.5"/>
<text text-anchor="start" x="291" y="-85.5" font-family="Helvetica,sans-Serif" font-size="10.00">htd/BucketEliminationTree</text>
<text text-anchor="middle" x="353.5" y="-74.5" font-family="Helvetica,sans-Serif" font-size="10.00">DecompositionAlgorithm.hpp</text>
</a>
</g>
</g>
<!-- Node1&#45;&gt;Node7 -->
<g id="edge6" class="edge"><title>Node1&#45;&gt;Node7</title>
<path fill="none" stroke="midnightblue" d="M727.768,-136.999C661.654,-129.288 544.609,-115.025 434.122,-98.0467"/>
<polygon fill="midnightblue" stroke="midnightblue" points="434.555,-94.5722 424.138,-96.5022 433.485,-101.49 434.555,-94.5722"/>
</g>
<!-- Node8 -->
<g id="node8" class="node"><title>Node8</title>
<g id="a_node8"><a xlink:title=" ">
<polygon fill="white" stroke="#bfbfbf" points="442.5,-73 442.5,-92 578.5,-92 578.5,-73 442.5,-73"/>
<text text-anchor="middle" x="510.5" y="-80" font-family="Helvetica,sans-Serif" font-size="10.00">htd/GraphPreprocessor.hpp</text>
</a>
</g>
</g>
<!-- Node1&#45;&gt;Node8 -->
<g id="edge7" class="edge"><title>Node1&#45;&gt;Node8</title>
<path fill="none" stroke="midnightblue" d="M741.816,-134.475C693.697,-123.871 611.513,-105.76 559.165,-94.2244"/>
<polygon fill="midnightblue" stroke="midnightblue" points="559.632,-90.7432 549.113,-92.0091 558.125,-97.5792 559.632,-90.7432"/>
</g>
<!-- Node9 -->
<g id="node9" class="node"><title>Node9</title>
<g id="a_node9"><a xlink:title=" ">
<polygon fill="white" stroke="#bfbfbf" points="597,-73 597,-92 776,-92 776,-73 597,-73"/>
<text text-anchor="middle" x="686.5" y="-80" font-family="Helvetica,sans-Serif" font-size="10.00">htd/ITreeDecompositionAlgorithm.hpp</text>
</a>
</g>
</g>
<!-- Node1&#45;&gt;Node9 -->
<g id="edge8" class="edge"><title>Node1&#45;&gt;Node9</title>
<path fill="none" stroke="midnightblue" d="M767.032,-134.475C751.815,-124.843 726.813,-109.017 708.699,-97.5517"/>
<polygon fill="midnightblue" stroke="midnightblue" points="710.264,-94.4002 699.943,-92.0091 706.521,-100.315 710.264,-94.4002"/>
</g>
<!-- Node10 -->
<g id="node10" class="node"><title>Node10</title>
<g id="a_node10"><a xlink:title=" ">
<polygon fill="white" stroke="#bfbfbf" points="794.5,-67.5 794.5,-97.5 954.5,-97.5 954.5,-67.5 794.5,-67.5"/>
<text text-anchor="start" x="802.5" y="-85.5" font-family="Helvetica,sans-Serif" font-size="10.00">htd/IterativeImprovement</text>
<text text-anchor="middle" x="874.5" y="-74.5" font-family="Helvetica,sans-Serif" font-size="10.00">TreeDecompositionAlgorithm.hpp</text>
</a>
</g>
</g>
<!-- Node1&#45;&gt;Node10 -->
<g id="edge9" class="edge"><title>Node1&#45;&gt;Node10</title>
<path fill="none" stroke="midnightblue" d="M793.968,-134.475C806.937,-126.266 827.013,-113.558 843.876,-102.885"/>
<polygon fill="midnightblue" stroke="midnightblue" points="845.768,-105.829 852.346,-97.523 842.025,-99.9141 845.768,-105.829"/>
</g>
<!-- Node11 -->
<g id="node11" class="node"><title>Node11</title>
<g id="a_node11"><a xlink:title=" ">
<polygon fill="white" stroke="#bfbfbf" points="973,-67.5 973,-97.5 1144,-97.5 1144,-67.5 973,-67.5"/>
<text text-anchor="start" x="981" y="-85.5" font-family="Helvetica,sans-Serif" font-size="10.00">htd/TreeDecompositionOptimization</text>
<text text-anchor="middle" x="1058.5" y="-74.5" font-family="Helvetica,sans-Serif" font-size="10.00">Operation.hpp</text>
</a>
</g>
</g>
<!-- Node1&#45;&gt;Node11 -->
<g id="edge10" class="edge"><title>Node1&#45;&gt;Node11</title>
<path fill="none" stroke="midnightblue" d="M820.331,-134.475C862.644,-125.419 930.541,-110.887 983.034,-99.6518"/>
<polygon fill="midnightblue" stroke="midnightblue" points="983.935,-103.038 992.981,-97.523 982.47,-96.1934 983.935,-103.038"/>
</g>
<!-- Node12 -->
<g id="node12" class="node"><title>Node12</title>
<g id="a_node12"><a xlink:title=" ">
<polygon fill="white" stroke="#bfbfbf" points="1162,-73 1162,-92 1305,-92 1305,-73 1162,-73"/>
<text text-anchor="middle" x="1233.5" y="-80" font-family="Helvetica,sans-Serif" font-size="10.00">htd_io/TdFormatExporter.hpp</text>
</a>
</g>
</g>
<!-- Node1&#45;&gt;Node12 -->
<g id="edge11" class="edge"><title>Node1&#45;&gt;Node12</title>
<path fill="none" stroke="midnightblue" d="M833.138,-137.643C905.492,-130.053 1039.66,-115.168 1153.5,-98 1161.83,-96.7443 1170.62,-95.2864 1179.2,-93.7888"/>
<polygon fill="midnightblue" stroke="midnightblue" points="1179.91,-97.2173 1189.15,-92.0221 1178.69,-90.3253 1179.91,-97.2173"/>
</g>
<!-- Node13 -->
<g id="node13" class="node"><title>Node13</title>
<g id="a_node13"><a xlink:title=" ">
<polygon fill="white" stroke="#bfbfbf" points="1323.5,-73 1323.5,-92 1375.5,-92 1375.5,-73 1323.5,-73"/>
<text text-anchor="middle" x="1349.5" y="-80" font-family="Helvetica,sans-Serif" font-size="10.00">sstream</text>
</a>
</g>
</g>
<!-- Node1&#45;&gt;Node13 -->
<g id="edge12" class="edge"><title>Node1&#45;&gt;Node13</title>
<path fill="none" stroke="midnightblue" d="M833.28,-143.888C930.115,-144.349 1142.05,-139.911 1314.5,-98 1317.02,-97.3884 1319.59,-96.6219 1322.14,-95.7626"/>
<polygon fill="midnightblue" stroke="midnightblue" points="1323.59,-98.9523 1331.69,-92.1203 1321.1,-92.4113 1323.59,-98.9523"/>
</g>
<!-- Node3 -->
<g id="node3" class="node"><title>Node3</title>
<g id="a_node3"><a xlink:title=" ">
<polygon fill="white" stroke="#bfbfbf" points="0,-6 0,-25 85,-25 85,-6 0,-6"/>
<text text-anchor="middle" x="42.5" y="-13" font-family="Helvetica,sans-Serif" font-size="10.00">htd/Helpers.hpp</text>
</a>
</g>
</g>
<!-- Node2&#45;&gt;Node3 -->
<g id="edge2" class="edge"><title>Node2&#45;&gt;Node3</title>
<path fill="none" stroke="midnightblue" d="M201.199,-72.8685C169.117,-61.4732 112.47,-41.3528 76.2476,-28.4869"/>
<polygon fill="midnightblue" stroke="midnightblue" points="77.2048,-25.1127 66.61,-25.0637 74.8618,-31.7089 77.2048,-25.1127"/>
</g>
<!-- Node4 -->
<g id="node4" class="node"><title>Node4</title>
<g id="a_node4"><a xlink:title=" ">
<polygon fill="white" stroke="#bfbfbf" points="103,-6 103,-25 204,-25 204,-6 103,-6"/>
<text text-anchor="middle" x="153.5" y="-13" font-family="Helvetica,sans-Serif" font-size="10.00">htd/Hypergraph.hpp</text>
</a>
</g>
</g>
<!-- Node2&#45;&gt;Node4 -->
<g id="edge3" class="edge"><title>Node2&#45;&gt;Node4</title>
<path fill="none" stroke="midnightblue" d="M215.79,-72.7338C204.238,-62.3055 184.747,-44.7088 170.64,-31.9732"/>
<polygon fill="midnightblue" stroke="midnightblue" points="172.824,-29.2304 163.056,-25.1273 168.134,-34.4263 172.824,-29.2304"/>
</g>
<!-- Node5 -->
<g id="node5" class="node"><title>Node5</title>
<g id="a_node5"><a xlink:title=" ">
<polygon fill="white" stroke="#bfbfbf" points="222,-0.5 222,-30.5 373,-30.5 373,-0.5 222,-0.5"/>
<text text-anchor="start" x="230" y="-18.5" font-family="Helvetica,sans-Serif" font-size="10.00">htd/ITreeDecompositionFitness</text>
<text text-anchor="middle" x="297.5" y="-7.5" font-family="Helvetica,sans-Serif" font-size="10.00">Function.hpp</text>
</a>
</g>
</g>
<!-- Node2&#45;&gt;Node5 -->
<g id="edge4" class="edge"><title>Node2&#45;&gt;Node5</title>
<path fill="none" stroke="midnightblue" d="M235.21,-72.7338C245.221,-63.6959 261.197,-49.2739 274.462,-37.2982"/>
<polygon fill="midnightblue" stroke="midnightblue" points="276.816,-39.888 281.894,-30.589 272.126,-34.6921 276.816,-39.888"/>
</g>
<!-- Node6 -->
<g id="node6" class="node"><title>Node6</title>
<g id="a_node6"><a xlink:title=" ">
<polygon fill="white" stroke="#bfbfbf" points="391,-6 391,-25 432,-25 432,-6 391,-6"/>
<text text-anchor="middle" x="411.5" y="-13" font-family="Helvetica,sans-Serif" font-size="10.00">string</text>
</a>
</g>
</g>
<!-- Node2&#45;&gt;Node6 -->
<g id="edge5" class="edge"><title>Node2&#45;&gt;Node6</title>
<path fill="none" stroke="midnightblue" d="M253.772,-72.9737C292.219,-61.2815 358.906,-40.6275 382.5,-31 383.702,-30.5095 384.923,-29.9898 386.149,-29.4499"/>
<polygon fill="midnightblue" stroke="midnightblue" points="387.887,-32.5001 395.443,-25.0731 384.905,-26.1673 387.887,-32.5001"/>
</g>
</g>
</svg>
        <g id="navigator" transform="translate(0 0)" fill="#404254">
                <rect fill="#f2f5e9" fill-opacity="0.5" stroke="#606060" stroke-width=".5" x="0" y="0" width="60" height="60"/>
                <use id="zoomplus" xlink:href="#zoomPlus" x="17" y="9" onmousedown="handleZoom(evt,'in')"/>
                <use id="zoomminus" xlink:href="#zoomMin" x="42" y="9" onmousedown="handleZoom(evt,'out')"/>
                <use id="reset" xlink:href="#resetDef" x="30" y="36" onmousedown="handleReset()"/>
                <g id="arrowUp" xlink:href="#dirArrow" transform="translate(30 24)" onmousedown="handlePan(0,-1)">
                  <use xlink:href="#rim" fill="#404040">
                        <set attributeName="fill" to="#808080" begin="arrowUp.mouseover" end="arrowUp.mouseout"/>
                  </use>
                  <path fill="none" stroke="white" stroke-width="1.5" d="M0,-3.0v7 M-2.5,-0.5L0,-3.0L2.5,-0.5"/>
                </g>
                <g id="arrowRight" xlink:href="#dirArrow" transform="rotate(90) translate(36 -43)" onmousedown="handlePan(1,0)">
                  <use xlink:href="#rim" fill="#404040">
                        <set attributeName="fill" to="#808080" begin="arrowRight.mouseover" end="arrowRight.mouseout"/>
                  </use>
                  <path fill="none" stroke="white" stroke-width="1.5" d="M0,-3.0v7 M-2.5,-0.5L0,-3.0L2.5,-0.5"/>
                </g>
                <g id="arrowDown" xlink:href="#dirArrow" transform="rotate(180) translate(-30 -48)" onmousedown="handlePan(0,1)">
                  <use xlink:href="#rim" fill="#404040">
                        <set attributeName="fill" to="#808080" begin="arrowDown.mouseover" end="arrowDown.mouseout"/>
                  </use>
                  <path fill="none" stroke="white" stroke-width="1.5" d="M0,-3.0v7 M-2.5,-0.5L0,-3.0L2.5,-0.5"/>
                </g>
                <g id="arrowLeft" xlink:href="#dirArrow" transform="rotate(270) translate(-36 17)" onmousedown="handlePan(-1,0)">
                  <use xlink:href="#rim" fill="#404040">
                        <set attributeName="fill" to="#808080" begin="arrowLeft.mouseover" end="arrowLeft.mouseout"/>
                  </use>
                  <path fill="none" stroke="white" stroke-width="1.5" d="M0,-3.0v7 M-2.5,-0.5L0,-3.0L2.5,-0.5"/>
                </g>
        </g>
        <svg viewBox="0 0 15 15" width="100%" height="30px" preserveAspectRatio="xMaxYMin meet">
         <g id="arrow_out" transform="scale(0.3 0.3)">
          <a xlink:href="decomposer_8cpp__incl_org.svg" target="_base">
           <rect id="button" ry="5" rx="5" y="6" x="6" height="38" width="38"
                fill="#f2f5e9" fill-opacity="0.5" stroke="#606060" stroke-width="1.0"/>
           <path id="arrow"
             d="M 11.500037,31.436501 C 11.940474,20.09759 22.043105,11.32322 32.158766,21.979434 L 37.068811,17.246167 C 37.068811,17.246167 37.088388,32 37.088388,32 L 22.160133,31.978069 C 22.160133,31.978069 26.997745,27.140456 26.997745,27.140456 C 18.528582,18.264221 13.291696,25.230495 11.500037,31.436501 z"
             style="fill:#404040;"/>
          </a>
         </g>
        </svg>
</svg>
