<?xml version="1.0" encoding="UTF-8" standalone="no"?>
<!DOCTYPE svg PUBLIC "-//W3C//DTD SVG 1.1//EN"
 "http://www.w3.org/Graphics/SVG/1.1/DTD/svg11.dtd">
<!-- Generated by graphviz version 2.38.0 (20140413.2041)
 -->
<!-- Title: src/gpusatpreprocessor.cpp Pages: 1 -->
<!--zoomable 196 -->
<svg id="main" version="1.1" xmlns="http://www.w3.org/2000/svg" xmlns:xlink="http://www.w3.org/1999/xlink" xml:space="preserve" onload="init(evt)">
<style type="text/css"><![CDATA[
.edge:hover path { stroke: red; }
.edge:hover polygon { stroke: red; fill: red; }
]]></style>
<script type="text/javascript"><![CDATA[
var edges = document.getElementsByTagName('g');
if (edges && edges.length) {
  for (var i=0;i<edges.length;i++) {
    if (edges[i].id.substr(0,4)=='edge') {
      edges[i].setAttribute('class','edge');
    }
  }
}
]]></script>
        <defs>
                <circle id="rim" cx="0" cy="0" r="7"/>
                <circle id="rim2" cx="0" cy="0" r="3.5"/>
                <g id="zoomPlus">
                        <use xlink:href="#rim" fill="#404040">
                                <set attributeName="fill" to="#808080" begin="zoomplus.mouseover" end="zoomplus.mouseout"/>
                        </use>
                        <path d="M-4,0h8M0,-4v8" fill="none" stroke="white" stroke-width="1.5" pointer-events="none"/>
                </g>
                <g id="zoomMin">
                        <use xlink:href="#rim" fill="#404040">
                                <set attributeName="fill" to="#808080" begin="zoomminus.mouseover" end="zoomminus.mouseout"/>
                        </use>
                        <path d="M-4,0h8" fill="none" stroke="white" stroke-width="1.5" pointer-events="none"/>
                </g>
                <g id="dirArrow">
                        <path fill="none" stroke="white" stroke-width="1.5" d="M0,-3.0v7 M-2.5,-0.5L0,-3.0L2.5,-0.5"/>
                </g>
               <g id="resetDef">
                       <use xlink:href="#rim2" fill="#404040">
                               <set attributeName="fill" to="#808080" begin="reset.mouseover" end="reset.mouseout"/>
                       </use>
               </g>
        </defs>

<script type="text/javascript">
var viewWidth = 539;
var viewHeight = 196;
var sectionId = 'dynsection-0';
</script>
<script xlink:href="svgpan.js"/>
<svg id="graph" class="graph">
<g id="viewport">
<title>src/gpusatpreprocessor.cpp</title>
<polygon fill="white" stroke="none" points="-4,4 -4,-192 535,-192 535,4 -4,4"/>
<!-- Node1 -->
<g id="node1" class="node"><title>Node1</title>
<g id="a_node1"><a xlink:title=" ">
<polygon fill="#bfbfbf" stroke="black" points="212.5,-168.5 212.5,-187.5 349.5,-187.5 349.5,-168.5 212.5,-168.5"/>
<text text-anchor="middle" x="281" y="-175.5" font-family="Helvetica,sans-Serif" font-size="10.00">src/gpusatpreprocessor.cpp</text>
</a>
</g>
</g>
<!-- Node2 -->
<g id="node2" class="node"><title>Node2</title>
<g id="a_node2"><a xlink:title=" ">
<polygon fill="white" stroke="#bfbfbf" points="0,-112.5 0,-131.5 56,-131.5 56,-112.5 0,-112.5"/>
<text text-anchor="middle" x="28" y="-119.5" font-family="Helvetica,sans-Serif" font-size="10.00">algorithm</text>
</a>
</g>
</g>
<!-- Node1&#45;&gt;Node2 -->
<g id="edge1" class="edge"><title>Node1&#45;&gt;Node2</title>
<path fill="none" stroke="midnightblue" d="M240.94,-168.468C198.496,-159.426 129.521,-144.724 70,-132 68.7284,-131.728 67.4351,-131.452 66.1291,-131.172"/>
<polygon fill="midnightblue" stroke="midnightblue" points="66.5244,-127.678 56.0133,-129.007 65.0591,-134.523 66.5244,-127.678"/>
</g>
<!-- Node3 -->
<g id="node3" class="node"><title>Node3</title>
<g id="a_node3"><a xlink:title=" ">
<polygon fill="white" stroke="#bfbfbf" points="32,-0.5 32,-19.5 76,-19.5 76,-0.5 32,-0.5"/>
<text text-anchor="middle" x="54" y="-7.5" font-family="Helvetica,sans-Serif" font-size="10.00">cmath</text>
</a>
</g>
</g>
<!-- Node1&#45;&gt;Node3 -->
<g id="edge2" class="edge"><title>Node1&#45;&gt;Node3</title>
<path fill="none" stroke="midnightblue" d="M212.469,-174.273C176.181,-169.519 133.038,-158.177 103,-132 72.2018,-105.161 60.4815,-56.1297 56.2421,-29.4633"/>
<polygon fill="midnightblue" stroke="midnightblue" points="59.7045,-28.9509 54.8494,-19.534 52.7724,-29.9232 59.7045,-28.9509"/>
</g>
<!-- Node4 -->
<g id="node4" class="node"><title>Node4</title>
<g id="a_node4"><a xlink:title=" ">
<polygon fill="white" stroke="#bfbfbf" points="339.5,-112.5 339.5,-131.5 388.5,-131.5 388.5,-112.5 339.5,-112.5"/>
<text text-anchor="middle" x="364" y="-119.5" font-family="Helvetica,sans-Serif" font-size="10.00">fstream</text>
</a>
</g>
</g>
<!-- Node1&#45;&gt;Node4 -->
<g id="edge3" class="edge"><title>Node1&#45;&gt;Node4</title>
<path fill="none" stroke="midnightblue" d="M294.335,-168.324C307.162,-159.979 326.785,-147.212 341.94,-137.352"/>
<polygon fill="midnightblue" stroke="midnightblue" points="344.224,-140.042 350.698,-131.655 340.407,-134.174 344.224,-140.042"/>
</g>
<!-- Node5 -->
<g id="node5" class="node"><title>Node5</title>
<g id="a_node5"><a xlink:href="gpusatparser_8h.html" target="_top" xlink:title=" ">
<polygon fill="white" stroke="black" points="240.5,-112.5 240.5,-131.5 321.5,-131.5 321.5,-112.5 240.5,-112.5"/>
<text text-anchor="middle" x="281" y="-119.5" font-family="Helvetica,sans-Serif" font-size="10.00">gpusatparser.h</text>
</a>
</g>
</g>
<!-- Node1&#45;&gt;Node5 -->
<g id="edge4" class="edge"><title>Node1&#45;&gt;Node5</title>
<path fill="none" stroke="midnightblue" d="M281,-168.083C281,-161.006 281,-150.861 281,-141.986"/>
<polygon fill="midnightblue" stroke="midnightblue" points="284.5,-141.751 281,-131.751 277.5,-141.751 284.5,-141.751"/>
</g>
<!-- Node13 -->
<g id="node13" class="node"><title>Node13</title>
<g id="a_node13"><a xlink:href="gpusatpreprocessor_8h.html" target="_top" xlink:title=" ">
<polygon fill="white" stroke="black" points="112,-112.5 112,-131.5 222,-131.5 222,-112.5 112,-112.5"/>
<text text-anchor="middle" x="167" y="-119.5" font-family="Helvetica,sans-Serif" font-size="10.00">gpusatpreprocessor.h</text>
</a>
</g>
</g>
<!-- Node1&#45;&gt;Node13 -->
<g id="edge13" class="edge"><title>Node1&#45;&gt;Node13</title>
<path fill="none" stroke="midnightblue" d="M262.936,-168.444C244.425,-159.675 215.419,-145.935 194.145,-135.858"/>
<polygon fill="midnightblue" stroke="midnightblue" points="195.515,-132.634 184.979,-131.516 192.518,-138.96 195.515,-132.634"/>
</g>
<!-- Node14 -->
<g id="node14" class="node"><title>Node14</title>
<g id="a_node14"><a xlink:title=" ">
<polygon fill="white" stroke="#bfbfbf" points="407,-112.5 407,-131.5 461,-131.5 461,-112.5 407,-112.5"/>
<text text-anchor="middle" x="434" y="-119.5" font-family="Helvetica,sans-Serif" font-size="10.00">iostream</text>
</a>
</g>
</g>
<!-- Node1&#45;&gt;Node14 -->
<g id="edge17" class="edge"><title>Node1&#45;&gt;Node14</title>
<path fill="none" stroke="midnightblue" d="M305.243,-168.444C330.871,-159.399 371.485,-145.064 400.238,-134.916"/>
<polygon fill="midnightblue" stroke="midnightblue" points="401.605,-138.145 409.87,-131.516 399.275,-131.544 401.605,-138.145"/>
</g>
<!-- Node15 -->
<g id="node15" class="node"><title>Node15</title>
<g id="a_node15"><a xlink:title=" ">
<polygon fill="white" stroke="#bfbfbf" points="479,-112.5 479,-131.5 531,-131.5 531,-112.5 479,-112.5"/>
<text text-anchor="middle" x="505" y="-119.5" font-family="Helvetica,sans-Serif" font-size="10.00">sstream</text>
</a>
</g>
</g>
<!-- Node1&#45;&gt;Node15 -->
<g id="edge18" class="edge"><title>Node1&#45;&gt;Node15</title>
<path fill="none" stroke="midnightblue" d="M317.633,-168.483C353.733,-160.045 410.714,-146.604 468.912,-132.239"/>
<polygon fill="midnightblue" stroke="midnightblue" points="469.773,-135.632 478.64,-129.832 468.092,-128.837 469.773,-135.632"/>
</g>
<!-- Node6 -->
<g id="node6" class="node"><title>Node6</title>
<g id="a_node6"><a xlink:title=" ">
<polygon fill="white" stroke="#bfbfbf" points="209.5,-56.5 209.5,-75.5 252.5,-75.5 252.5,-56.5 209.5,-56.5"/>
<text text-anchor="middle" x="231" y="-63.5" font-family="Helvetica,sans-Serif" font-size="10.00">queue</text>
</a>
</g>
</g>
<!-- Node5&#45;&gt;Node6 -->
<g id="edge5" class="edge"><title>Node5&#45;&gt;Node6</title>
<path fill="none" stroke="midnightblue" d="M272.744,-112.083C265.535,-104.298 254.89,-92.8015 246.154,-83.3665"/>
<polygon fill="midnightblue" stroke="midnightblue" points="248.465,-80.7108 239.103,-75.7511 243.329,-85.4666 248.465,-80.7108"/>
</g>
<!-- Node7 -->
<g id="node7" class="node"><title>Node7</title>
<g id="a_node7"><a xlink:href="types_8h.html" target="_top" xlink:title=" ">
<polygon fill="white" stroke="black" points="142.5,-56.5 142.5,-75.5 191.5,-75.5 191.5,-56.5 142.5,-56.5"/>
<text text-anchor="middle" x="167" y="-63.5" font-family="Helvetica,sans-Serif" font-size="10.00">types.h</text>
</a>
</g>
</g>
<!-- Node5&#45;&gt;Node7 -->
<g id="edge6" class="edge"><title>Node5&#45;&gt;Node7</title>
<path fill="none" stroke="midnightblue" d="M262.936,-112.444C244.425,-103.675 215.419,-89.9355 194.145,-79.8579"/>
<polygon fill="midnightblue" stroke="midnightblue" points="195.515,-76.6343 184.979,-75.5164 192.518,-82.9604 195.515,-76.6343"/>
</g>
<!-- Node12 -->
<g id="node12" class="node"><title>Node12</title>
<g id="a_node12"><a xlink:title=" ">
<polygon fill="white" stroke="#bfbfbf" points="270.5,-56.5 270.5,-75.5 353.5,-75.5 353.5,-56.5 270.5,-56.5"/>
<text text-anchor="middle" x="312" y="-63.5" font-family="Helvetica,sans-Serif" font-size="10.00">unordered_map</text>
</a>
</g>
</g>
<!-- Node5&#45;&gt;Node12 -->
<g id="edge12" class="edge"><title>Node5&#45;&gt;Node12</title>
<path fill="none" stroke="midnightblue" d="M286.119,-112.083C290.408,-104.613 296.658,-93.7244 301.942,-84.5199"/>
<polygon fill="midnightblue" stroke="midnightblue" points="305.033,-86.1662 306.976,-75.7511 298.962,-82.6811 305.033,-86.1662"/>
</g>
<!-- Node7&#45;&gt;Node3 -->
<g id="edge8" class="edge"><title>Node7&#45;&gt;Node3</title>
<path fill="none" stroke="midnightblue" d="M149.095,-56.4435C130.746,-47.6751 101.995,-33.9355 80.9064,-23.8579"/>
<polygon fill="midnightblue" stroke="midnightblue" points="82.3532,-20.6703 71.8214,-19.5164 79.335,-26.9862 82.3532,-20.6703"/>
</g>
<!-- Node8 -->
<g id="node8" class="node"><title>Node8</title>
<g id="a_node8"><a xlink:title=" ">
<polygon fill="white" stroke="#bfbfbf" points="154.5,-0.5 154.5,-19.5 241.5,-19.5 241.5,-0.5 154.5,-0.5"/>
<text text-anchor="middle" x="198" y="-7.5" font-family="Helvetica,sans-Serif" font-size="10.00">CL/cl_platform.h</text>
</a>
</g>
</g>
<!-- Node7&#45;&gt;Node8 -->
<g id="edge7" class="edge"><title>Node7&#45;&gt;Node8</title>
<path fill="none" stroke="midnightblue" d="M172.119,-56.083C176.408,-48.6127 182.658,-37.7244 187.942,-28.5199"/>
<polygon fill="midnightblue" stroke="midnightblue" points="191.033,-30.1662 192.976,-19.7511 184.962,-26.6811 191.033,-30.1662"/>
</g>
<!-- Node9 -->
<g id="node9" class="node"><title>Node9</title>
<g id="a_node9"><a xlink:title=" ">
<polygon fill="white" stroke="#bfbfbf" points="259.5,-0.5 259.5,-19.5 288.5,-19.5 288.5,-0.5 259.5,-0.5"/>
<text text-anchor="middle" x="274" y="-7.5" font-family="Helvetica,sans-Serif" font-size="10.00">list</text>
</a>
</g>
</g>
<!-- Node7&#45;&gt;Node9 -->
<g id="edge9" class="edge"><title>Node7&#45;&gt;Node9</title>
<path fill="none" stroke="midnightblue" d="M184.191,-56.324C202.062,-47.3054 230.165,-33.1223 250.172,-23.0255"/>
<polygon fill="midnightblue" stroke="midnightblue" points="251.912,-26.0678 259.262,-18.4376 248.758,-19.8185 251.912,-26.0678"/>
</g>
<!-- Node10 -->
<g id="node10" class="node"><title>Node10</title>
<g id="a_node10"><a xlink:title=" ">
<polygon fill="white" stroke="#bfbfbf" points="307,-0.5 307,-19.5 337,-19.5 337,-0.5 307,-0.5"/>
<text text-anchor="middle" x="322" y="-7.5" font-family="Helvetica,sans-Serif" font-size="10.00">set</text>
</a>
</g>
</g>
<!-- Node7&#45;&gt;Node10 -->
<g id="edge10" class="edge"><title>Node7&#45;&gt;Node10</title>
<path fill="none" stroke="midnightblue" d="M191.699,-56.7445C216.233,-48.4944 255.142,-35.2776 297.197,-20.2232"/>
<polygon fill="midnightblue" stroke="midnightblue" points="298.561,-23.4525 306.788,-16.7774 296.194,-16.8648 298.561,-23.4525"/>
</g>
<!-- Node11 -->
<g id="node11" class="node"><title>Node11</title>
<g id="a_node11"><a xlink:title=" ">
<polygon fill="white" stroke="#bfbfbf" points="94,-0.5 94,-19.5 136,-19.5 136,-0.5 94,-0.5"/>
<text text-anchor="middle" x="115" y="-7.5" font-family="Helvetica,sans-Serif" font-size="10.00">vector</text>
</a>
</g>
</g>
<!-- Node7&#45;&gt;Node11 -->
<g id="edge11" class="edge"><title>Node7&#45;&gt;Node11</title>
<path fill="none" stroke="midnightblue" d="M158.413,-56.083C150.841,-48.2195 139.622,-36.5688 130.486,-27.0813"/>
<polygon fill="midnightblue" stroke="midnightblue" points="132.885,-24.5266 123.427,-19.7511 127.842,-29.3821 132.885,-24.5266"/>
</g>
<!-- Node13&#45;&gt;Node6 -->
<g id="edge14" class="edge"><title>Node13&#45;&gt;Node6</title>
<path fill="none" stroke="midnightblue" d="M177.283,-112.324C186.836,-104.263 201.28,-92.0765 212.784,-82.3695"/>
<polygon fill="midnightblue" stroke="midnightblue" points="215.144,-84.9577 220.53,-75.8339 210.63,-79.6076 215.144,-84.9577"/>
</g>
<!-- Node13&#45;&gt;Node7 -->
<g id="edge15" class="edge"><title>Node13&#45;&gt;Node7</title>
<path fill="none" stroke="midnightblue" d="M167,-112.083C167,-105.006 167,-94.8611 167,-85.9865"/>
<polygon fill="midnightblue" stroke="midnightblue" points="170.5,-85.751 167,-75.7511 163.5,-85.7511 170.5,-85.751"/>
</g>
<!-- Node13&#45;&gt;Node12 -->
<g id="edge16" class="edge"><title>Node13&#45;&gt;Node12</title>
<path fill="none" stroke="midnightblue" d="M189.976,-112.444C214.157,-103.438 252.418,-89.1891 279.646,-79.049"/>
<polygon fill="midnightblue" stroke="midnightblue" points="280.982,-82.2864 289.132,-75.5164 278.539,-75.7265 280.982,-82.2864"/>
</g>
</g>
</svg>
        <g id="navigator" transform="translate(0 0)" fill="#404254">
                <rect fill="#f2f5e9" fill-opacity="0.5" stroke="#606060" stroke-width=".5" x="0" y="0" width="60" height="60"/>
                <use id="zoomplus" xlink:href="#zoomPlus" x="17" y="9" onmousedown="handleZoom(evt,'in')"/>
                <use id="zoomminus" xlink:href="#zoomMin" x="42" y="9" onmousedown="handleZoom(evt,'out')"/>
                <use id="reset" xlink:href="#resetDef" x="30" y="36" onmousedown="handleReset()"/>
                <g id="arrowUp" xlink:href="#dirArrow" transform="translate(30 24)" onmousedown="handlePan(0,-1)">
                  <use xlink:href="#rim" fill="#404040">
                        <set attributeName="fill" to="#808080" begin="arrowUp.mouseover" end="arrowUp.mouseout"/>
                  </use>
                  <path fill="none" stroke="white" stroke-width="1.5" d="M0,-3.0v7 M-2.5,-0.5L0,-3.0L2.5,-0.5"/>
                </g>
                <g id="arrowRight" xlink:href="#dirArrow" transform="rotate(90) translate(36 -43)" onmousedown="handlePan(1,0)">
                  <use xlink:href="#rim" fill="#404040">
                        <set attributeName="fill" to="#808080" begin="arrowRight.mouseover" end="arrowRight.mouseout"/>
                  </use>
                  <path fill="none" stroke="white" stroke-width="1.5" d="M0,-3.0v7 M-2.5,-0.5L0,-3.0L2.5,-0.5"/>
                </g>
                <g id="arrowDown" xlink:href="#dirArrow" transform="rotate(180) translate(-30 -48)" onmousedown="handlePan(0,1)">
                  <use xlink:href="#rim" fill="#404040">
                        <set attributeName="fill" to="#808080" begin="arrowDown.mouseover" end="arrowDown.mouseout"/>
                  </use>
                  <path fill="none" stroke="white" stroke-width="1.5" d="M0,-3.0v7 M-2.5,-0.5L0,-3.0L2.5,-0.5"/>
                </g>
                <g id="arrowLeft" xlink:href="#dirArrow" transform="rotate(270) translate(-36 17)" onmousedown="handlePan(-1,0)">
                  <use xlink:href="#rim" fill="#404040">
                        <set attributeName="fill" to="#808080" begin="arrowLeft.mouseover" end="arrowLeft.mouseout"/>
                  </use>
                  <path fill="none" stroke="white" stroke-width="1.5" d="M0,-3.0v7 M-2.5,-0.5L0,-3.0L2.5,-0.5"/>
                </g>
        </g>
        <svg viewBox="0 0 15 15" width="100%" height="30px" preserveAspectRatio="xMaxYMin meet">
         <g id="arrow_out" transform="scale(0.3 0.3)">
          <a xlink:href="gpusatpreprocessor_8cpp__incl_org.svg" target="_base">
           <rect id="button" ry="5" rx="5" y="6" x="6" height="38" width="38"
                fill="#f2f5e9" fill-opacity="0.5" stroke="#606060" stroke-width="1.0"/>
           <path id="arrow"
             d="M 11.500037,31.436501 C 11.940474,20.09759 22.043105,11.32322 32.158766,21.979434 L 37.068811,17.246167 C 37.068811,17.246167 37.088388,32 37.088388,32 L 22.160133,31.978069 C 22.160133,31.978069 26.997745,27.140456 26.997745,27.140456 C 18.528582,18.264221 13.291696,25.230495 11.500037,31.436501 z"
             style="fill:#404040;"/>
          </a>
         </g>
        </svg>
</svg>
