<?xml version="1.0" encoding="UTF-8" standalone="no"?>
<!DOCTYPE svg PUBLIC "-//W3C//DTD SVG 1.1//EN"
 "http://www.w3.org/Graphics/SVG/1.1/DTD/svg11.dtd">
<!-- Generated by graphviz version 2.38.0 (20140413.2041)
 -->
<!-- Title: include/gpusatutils.h Pages: 1 -->
<svg width="350pt" height="140pt"
 viewBox="0.00 0.00 349.50 140.00" xmlns="http://www.w3.org/2000/svg" xmlns:xlink="http://www.w3.org/1999/xlink">
<g id="graph0" class="graph" transform="scale(1 1) rotate(0) translate(4 136)">
<title>include/gpusatutils.h</title>
<polygon fill="white" stroke="none" points="-4,4 -4,-136 345.5,-136 345.5,4 -4,4"/>
<!-- Node1 -->
<g id="node1" class="node"><title>Node1</title>
<g id="a_node1"><a xlink:title=" ">
<polygon fill="#bfbfbf" stroke="black" points="108.5,-112.5 108.5,-131.5 214.5,-131.5 214.5,-112.5 108.5,-112.5"/>
<text text-anchor="middle" x="161.5" y="-119.5" font-family="Helvetica,sans-Serif" font-size="10.00">include/gpusatutils.h</text>
</a>
</g>
</g>
<!-- Node2 -->
<g id="node2" class="node"><title>Node2</title>
<g id="a_node2"><a xlink:title=" ">
<polygon fill="white" stroke="#bfbfbf" points="0,-0.5 0,-19.5 87,-19.5 87,-0.5 0,-0.5"/>
<text text-anchor="middle" x="43.5" y="-7.5" font-family="Helvetica,sans-Serif" font-size="10.00">CL/cl_platform.h</text>
</a>
</g>
</g>
<!-- Node1&#45;&gt;Node2 -->
<g id="edge1" class="edge"><title>Node1&#45;&gt;Node2</title>
<path fill="none" stroke="midnightblue" d="M108.209,-117.797C79.0041,-112.991 45.0624,-101.754 26.5,-76 16.4146,-62.0072 23.6529,-42.4918 31.5664,-28.5027"/>
<polygon fill="midnightblue" stroke="midnightblue" points="34.6458,-30.1783 36.9483,-19.8367 28.6992,-26.4853 34.6458,-30.1783"/>
</g>
<!-- Node3 -->
<g id="node3" class="node"><title>Node3</title>
<g id="a_node3"><a xlink:title=" ">
<polygon fill="white" stroke="#bfbfbf" points="35.5,-56.5 35.5,-75.5 81.5,-75.5 81.5,-56.5 35.5,-56.5"/>
<text text-anchor="middle" x="58.5" y="-63.5" font-family="Helvetica,sans-Serif" font-size="10.00">chrono</text>
</a>
</g>
</g>
<!-- Node1&#45;&gt;Node3 -->
<g id="edge2" class="edge"><title>Node1&#45;&gt;Node3</title>
<path fill="none" stroke="midnightblue" d="M144.951,-112.324C128.508,-103.703 103.065,-90.3643 84.0316,-80.3855"/>
<polygon fill="midnightblue" stroke="midnightblue" points="85.4895,-77.198 75.0077,-75.6545 82.2391,-83.3977 85.4895,-77.198"/>
</g>
<!-- Node4 -->
<g id="node4" class="node"><title>Node4</title>
<g id="a_node4"><a xlink:title=" ">
<polygon fill="white" stroke="#bfbfbf" points="99.5,-56.5 99.5,-75.5 153.5,-75.5 153.5,-56.5 99.5,-56.5"/>
<text text-anchor="middle" x="126.5" y="-63.5" font-family="Helvetica,sans-Serif" font-size="10.00">iostream</text>
</a>
</g>
</g>
<!-- Node1&#45;&gt;Node4 -->
<g id="edge3" class="edge"><title>Node1&#45;&gt;Node4</title>
<path fill="none" stroke="midnightblue" d="M155.72,-112.083C150.828,-104.534 143.673,-93.4948 137.667,-84.2298"/>
<polygon fill="midnightblue" stroke="midnightblue" points="140.548,-82.239 132.172,-75.7511 134.674,-86.0463 140.548,-82.239"/>
</g>
<!-- Node5 -->
<g id="node5" class="node"><title>Node5</title>
<g id="a_node5"><a xlink:title=" ">
<polygon fill="white" stroke="#bfbfbf" points="171.5,-56.5 171.5,-75.5 223.5,-75.5 223.5,-56.5 171.5,-56.5"/>
<text text-anchor="middle" x="197.5" y="-63.5" font-family="Helvetica,sans-Serif" font-size="10.00">sstream</text>
</a>
</g>
</g>
<!-- Node1&#45;&gt;Node5 -->
<g id="edge4" class="edge"><title>Node1&#45;&gt;Node5</title>
<path fill="none" stroke="midnightblue" d="M167.445,-112.083C172.477,-104.534 179.837,-93.4948 186.013,-84.2298"/>
<polygon fill="midnightblue" stroke="midnightblue" points="189.031,-86.0131 191.666,-75.7511 183.207,-82.1301 189.031,-86.0131"/>
</g>
<!-- Node6 -->
<g id="node6" class="node"><title>Node6</title>
<g id="a_node6"><a xlink:href="types_8h.html" target="_top" xlink:title=" ">
<polygon fill="white" stroke="black" points="242,-56.5 242,-75.5 291,-75.5 291,-56.5 242,-56.5"/>
<text text-anchor="middle" x="266.5" y="-63.5" font-family="Helvetica,sans-Serif" font-size="10.00">types.h</text>
</a>
</g>
</g>
<!-- Node1&#45;&gt;Node6 -->
<g id="edge5" class="edge"><title>Node1&#45;&gt;Node6</title>
<path fill="none" stroke="midnightblue" d="M178.37,-112.324C195.209,-103.664 221.307,-90.2424 240.738,-80.249"/>
<polygon fill="midnightblue" stroke="midnightblue" points="242.38,-83.3405 249.672,-75.6545 239.178,-77.1155 242.38,-83.3405"/>
</g>
<!-- Node10 -->
<g id="node10" class="node"><title>Node10</title>
<g id="a_node10"><a xlink:title=" ">
<polygon fill="white" stroke="#bfbfbf" points="299.5,-0.5 299.5,-19.5 341.5,-19.5 341.5,-0.5 299.5,-0.5"/>
<text text-anchor="middle" x="320.5" y="-7.5" font-family="Helvetica,sans-Serif" font-size="10.00">vector</text>
</a>
</g>
</g>
<!-- Node1&#45;&gt;Node10 -->
<g id="edge11" class="edge"><title>Node1&#45;&gt;Node10</title>
<path fill="none" stroke="midnightblue" d="M214.771,-115.366C243.298,-109.735 277.079,-98.4825 299.5,-76 311.658,-63.8086 316.78,-44.5386 318.936,-30.1404"/>
<polygon fill="midnightblue" stroke="midnightblue" points="322.452,-30.1982 320.107,-19.8662 315.497,-29.4054 322.452,-30.1982"/>
</g>
<!-- Node6&#45;&gt;Node2 -->
<g id="edge6" class="edge"><title>Node6&#45;&gt;Node2</title>
<path fill="none" stroke="midnightblue" d="M241.636,-58.3416C238.562,-57.5411 235.461,-56.7443 232.5,-56 184.154,-43.8477 128.637,-30.7286 90.3427,-21.8093"/>
<polygon fill="midnightblue" stroke="midnightblue" points="91.0394,-18.378 80.5065,-19.5225 89.4541,-25.1962 91.0394,-18.378"/>
</g>
<!-- Node7 -->
<g id="node7" class="node"><title>Node7</title>
<g id="a_node7"><a xlink:title=" ">
<polygon fill="white" stroke="#bfbfbf" points="141.5,-0.5 141.5,-19.5 185.5,-19.5 185.5,-0.5 141.5,-0.5"/>
<text text-anchor="middle" x="163.5" y="-7.5" font-family="Helvetica,sans-Serif" font-size="10.00">cmath</text>
</a>
</g>
</g>
<!-- Node6&#45;&gt;Node7 -->
<g id="edge7" class="edge"><title>Node6&#45;&gt;Node7</title>
<path fill="none" stroke="midnightblue" d="M249.951,-56.324C233.508,-47.7034 208.065,-34.3643 189.032,-24.3855"/>
<polygon fill="midnightblue" stroke="midnightblue" points="190.489,-21.198 180.008,-19.6545 187.239,-27.3977 190.489,-21.198"/>
</g>
<!-- Node8 -->
<g id="node8" class="node"><title>Node8</title>
<g id="a_node8"><a xlink:title=" ">
<polygon fill="white" stroke="#bfbfbf" points="204,-0.5 204,-19.5 233,-19.5 233,-0.5 204,-0.5"/>
<text text-anchor="middle" x="218.5" y="-7.5" font-family="Helvetica,sans-Serif" font-size="10.00">list</text>
</a>
</g>
</g>
<!-- Node6&#45;&gt;Node8 -->
<g id="edge8" class="edge"><title>Node6&#45;&gt;Node8</title>
<path fill="none" stroke="midnightblue" d="M258.574,-56.083C251.654,-48.2982 241.435,-36.8015 233.048,-27.3665"/>
<polygon fill="midnightblue" stroke="midnightblue" points="235.538,-24.8999 226.279,-19.7511 230.306,-29.5505 235.538,-24.8999"/>
</g>
<!-- Node9 -->
<g id="node9" class="node"><title>Node9</title>
<g id="a_node9"><a xlink:title=" ">
<polygon fill="white" stroke="#bfbfbf" points="251.5,-0.5 251.5,-19.5 281.5,-19.5 281.5,-0.5 251.5,-0.5"/>
<text text-anchor="middle" x="266.5" y="-7.5" font-family="Helvetica,sans-Serif" font-size="10.00">set</text>
</a>
</g>
</g>
<!-- Node6&#45;&gt;Node9 -->
<g id="edge9" class="edge"><title>Node6&#45;&gt;Node9</title>
<path fill="none" stroke="midnightblue" d="M266.5,-56.083C266.5,-49.0059 266.5,-38.8611 266.5,-29.9865"/>
<polygon fill="midnightblue" stroke="midnightblue" points="270,-29.751 266.5,-19.7511 263,-29.7511 270,-29.751"/>
</g>
<!-- Node6&#45;&gt;Node10 -->
<g id="edge10" class="edge"><title>Node6&#45;&gt;Node10</title>
<path fill="none" stroke="midnightblue" d="M275.417,-56.083C283.28,-48.2195 294.931,-36.5688 304.419,-27.0813"/>
<polygon fill="midnightblue" stroke="midnightblue" points="307.153,-29.2971 311.749,-19.7511 302.203,-24.3473 307.153,-29.2971"/>
</g>
</g>
</svg>
