<?xml version="1.0" encoding="UTF-8" standalone="no"?>
<!DOCTYPE svg PUBLIC "-//W3C//DTD SVG 1.1//EN"
 "http://www.w3.org/Graphics/SVG/1.1/DTD/svg11.dtd">
<!-- Generated by graphviz version 2.38.0 (20140413.2041)
 -->
<!-- Title: include/graphoutput.h Pages: 1 -->
<svg width="271pt" height="140pt"
 viewBox="0.00 0.00 271.00 140.00" xmlns="http://www.w3.org/2000/svg" xmlns:xlink="http://www.w3.org/1999/xlink">
<g id="graph0" class="graph" transform="scale(1 1) rotate(0) translate(4 136)">
<title>include/graphoutput.h</title>
<polygon fill="white" stroke="none" points="-4,4 -4,-136 267,-136 267,4 -4,4"/>
<!-- Node1 -->
<g id="node1" class="node"><title>Node1</title>
<g id="a_node1"><a xlink:title=" ">
<polygon fill="#bfbfbf" stroke="black" points="76.5,-112.5 76.5,-131.5 186.5,-131.5 186.5,-112.5 76.5,-112.5"/>
<text text-anchor="middle" x="131.5" y="-119.5" font-family="Helvetica,sans-Serif" font-size="10.00">include/graphoutput.h</text>
</a>
</g>
</g>
<!-- Node2 -->
<g id="node2" class="node"><title>Node2</title>
<g id="a_node2"><a xlink:href="graphoutput_8cpp.html" target="_top" xlink:title=" ">
<polygon fill="white" stroke="black" points="0,-56.5 0,-75.5 103,-75.5 103,-56.5 0,-56.5"/>
<text text-anchor="middle" x="51.5" y="-63.5" font-family="Helvetica,sans-Serif" font-size="10.00">src/graphoutput.cpp</text>
</a>
</g>
</g>
<!-- Node1&#45;&gt;Node2 -->
<g id="edge1" class="edge"><title>Node1&#45;&gt;Node2</title>
<path fill="none" stroke="midnightblue" d="M110.199,-106.622C95.585,-96.7574 76.6732,-83.9919 64.3215,-75.6545"/>
<polygon fill="midnightblue" stroke="midnightblue" points="108.4,-109.63 118.647,-112.324 112.316,-103.828 108.4,-109.63"/>
</g>
<!-- Node3 -->
<g id="node3" class="node"><title>Node3</title>
<g id="a_node3"><a xlink:href="main_8cpp.html" target="_top" xlink:title=" ">
<polygon fill="white" stroke="black" points="95,-0.5 95,-19.5 168,-19.5 168,-0.5 95,-0.5"/>
<text text-anchor="middle" x="131.5" y="-7.5" font-family="Helvetica,sans-Serif" font-size="10.00">src/main.cpp</text>
</a>
</g>
</g>
<!-- Node1&#45;&gt;Node3 -->
<g id="edge2" class="edge"><title>Node1&#45;&gt;Node3</title>
<path fill="none" stroke="midnightblue" d="M131.5,-102.348C131.5,-78.2538 131.5,-37.3079 131.5,-19.5914"/>
<polygon fill="midnightblue" stroke="midnightblue" points="128,-102.368 131.5,-112.368 135,-102.369 128,-102.368"/>
</g>
<!-- Node4 -->
<g id="node4" class="node"><title>Node4</title>
<g id="a_node4"><a xlink:href="solver_8h.html" target="_top" xlink:title=" ">
<polygon fill="white" stroke="black" points="160,-56.5 160,-75.5 243,-75.5 243,-56.5 160,-56.5"/>
<text text-anchor="middle" x="201.5" y="-63.5" font-family="Helvetica,sans-Serif" font-size="10.00">include/solver.h</text>
</a>
</g>
</g>
<!-- Node1&#45;&gt;Node4 -->
<g id="edge3" class="edge"><title>Node1&#45;&gt;Node4</title>
<path fill="none" stroke="midnightblue" d="M150.814,-106.101C163.412,-96.3824 179.428,-84.0269 190.049,-75.8339"/>
<polygon fill="midnightblue" stroke="midnightblue" points="148.527,-103.445 142.747,-112.324 152.802,-108.987 148.527,-103.445"/>
</g>
<!-- Node4&#45;&gt;Node3 -->
<g id="edge4" class="edge"><title>Node4&#45;&gt;Node3</title>
<path fill="none" stroke="midnightblue" d="M182.186,-50.1008C169.588,-40.3824 153.572,-28.0269 142.951,-19.8339"/>
<polygon fill="midnightblue" stroke="midnightblue" points="180.198,-52.9871 190.253,-56.324 184.473,-47.4446 180.198,-52.9871"/>
</g>
<!-- Node5 -->
<g id="node5" class="node"><title>Node5</title>
<g id="a_node5"><a xlink:href="solver_8cpp.html" target="_top" xlink:title=" ">
<polygon fill="white" stroke="black" points="186,-0.5 186,-19.5 263,-19.5 263,-0.5 186,-0.5"/>
<text text-anchor="middle" x="224.5" y="-7.5" font-family="Helvetica,sans-Serif" font-size="10.00">src/solver.cpp</text>
</a>
</g>
</g>
<!-- Node4&#45;&gt;Node5 -->
<g id="edge5" class="edge"><title>Node4&#45;&gt;Node5</title>
<path fill="none" stroke="midnightblue" d="M209.299,-46.6897C213.175,-37.589 217.679,-27.0141 220.773,-19.7511"/>
<polygon fill="midnightblue" stroke="midnightblue" points="205.997,-45.5112 205.298,-56.083 212.437,-48.2543 205.997,-45.5112"/>
</g>
</g>
</svg>
