<?xml version="1.0" encoding="UTF-8" standalone="no"?>
<!DOCTYPE svg PUBLIC "-//W3C//DTD SVG 1.1//EN"
 "http://www.w3.org/Graphics/SVG/1.1/DTD/svg11.dtd">
<!-- Generated by graphviz version 2.38.0 (20140413.2041)
 -->
<!-- Title: Graphical Class Hierarchy Pages: 1 -->
<svg width="337pt" height="165pt"
 viewBox="0.00 0.00 337.00 165.00" xmlns="http://www.w3.org/2000/svg" xmlns:xlink="http://www.w3.org/1999/xlink">
<g id="graph0" class="graph" transform="scale(1 1) rotate(0) translate(4 161)">
<title>Graphical Class Hierarchy</title>
<polygon fill="white" stroke="none" points="-4,4 -4,-161 333,-161 333,4 -4,4"/>
<!-- Node9 -->
<g id="node1" class="node"><title>Node9</title>
<g id="a_node1"><a xlink:title=" ">
<polygon fill="white" stroke="#bfbfbf" points="0,-63.5 0,-93.5 134,-93.5 134,-63.5 0,-63.5"/>
<text text-anchor="start" x="8" y="-81.5" font-family="Helvetica,sans-Serif" font-size="10.00">ITreeDecompositionFitness</text>
<text text-anchor="middle" x="67" y="-70.5" font-family="Helvetica,sans-Serif" font-size="10.00">Function</text>
</a>
</g>
</g>
<!-- Node0 -->
<g id="node2" class="node"><title>Node0</title>
<g id="a_node2"><a xlink:href="classgpusat_1_1_cut_set_width_fitness_function.html" target="_top" xlink:title=" ">
<polygon fill="white" stroke="black" points="179.5,-126.5 179.5,-156.5 319.5,-156.5 319.5,-126.5 179.5,-126.5"/>
<text text-anchor="start" x="187.5" y="-144.5" font-family="Helvetica,sans-Serif" font-size="10.00">gpusat::CutSetWidthFitness</text>
<text text-anchor="middle" x="249.5" y="-133.5" font-family="Helvetica,sans-Serif" font-size="10.00">Function</text>
</a>
</g>
</g>
<!-- Node9&#45;&gt;Node0 -->
<g id="edge1" class="edge"><title>Node9&#45;&gt;Node0</title>
<path fill="none" stroke="midnightblue" d="M116.698,-97.188C133.52,-103.498 152.53,-110.468 170,-116.5 179.599,-119.814 189.912,-123.213 199.804,-126.395"/>
<polygon fill="midnightblue" stroke="midnightblue" points="117.666,-93.8125 107.074,-93.5609 115.197,-100.363 117.666,-93.8125"/>
</g>
<!-- Node11 -->
<g id="node3" class="node"><title>Node11</title>
<g id="a_node3"><a xlink:href="classgpusat_1_1_join_size_fitness_function.html" target="_top" xlink:title=" ">
<polygon fill="white" stroke="black" points="170.5,-88 170.5,-107 328.5,-107 328.5,-88 170.5,-88"/>
<text text-anchor="middle" x="249.5" y="-95" font-family="Helvetica,sans-Serif" font-size="10.00">gpusat::JoinSizeFitnessFunction</text>
</a>
</g>
</g>
<!-- Node9&#45;&gt;Node11 -->
<g id="edge2" class="edge"><title>Node9&#45;&gt;Node11</title>
<path fill="none" stroke="midnightblue" d="M144.239,-86.5252C152.888,-87.4356 161.713,-88.3646 170.386,-89.2775"/>
<polygon fill="midnightblue" stroke="midnightblue" points="144.498,-83.0332 134.187,-85.467 143.765,-89.9947 144.498,-83.0332"/>
</g>
<!-- Node12 -->
<g id="node4" class="node"><title>Node12</title>
<g id="a_node4"><a xlink:href="classgpusat_1_1_num_join_fitness_function.html" target="_top" xlink:title=" ">
<polygon fill="white" stroke="black" points="170,-50 170,-69 329,-69 329,-50 170,-50"/>
<text text-anchor="middle" x="249.5" y="-57" font-family="Helvetica,sans-Serif" font-size="10.00">gpusat::NumJoinFitnessFunction</text>
</a>
</g>
</g>
<!-- Node9&#45;&gt;Node12 -->
<g id="edge3" class="edge"><title>Node9&#45;&gt;Node12</title>
<path fill="none" stroke="midnightblue" d="M144.343,-70.4639C152.753,-69.5786 161.328,-68.676 169.767,-67.7877"/>
<polygon fill="midnightblue" stroke="midnightblue" points="143.765,-67.0053 134.187,-71.533 144.498,-73.9668 143.765,-67.0053"/>
</g>
<!-- Node13 -->
<g id="node5" class="node"><title>Node13</title>
<g id="a_node5"><a xlink:href="classgpusat_1_1_width_cut_set_fitness_function.html" target="_top" xlink:title=" ">
<polygon fill="white" stroke="black" points="179.5,-0.5 179.5,-30.5 319.5,-30.5 319.5,-0.5 179.5,-0.5"/>
<text text-anchor="start" x="187.5" y="-18.5" font-family="Helvetica,sans-Serif" font-size="10.00">gpusat::WidthCutSetFitness</text>
<text text-anchor="middle" x="249.5" y="-7.5" font-family="Helvetica,sans-Serif" font-size="10.00">Function</text>
</a>
</g>
</g>
<!-- Node9&#45;&gt;Node13 -->
<g id="edge4" class="edge"><title>Node9&#45;&gt;Node13</title>
<path fill="none" stroke="midnightblue" d="M116.698,-59.812C133.52,-53.5018 152.53,-46.5322 170,-40.5 179.599,-37.1856 189.912,-33.7867 199.804,-30.6051"/>
<polygon fill="midnightblue" stroke="midnightblue" points="115.197,-56.6372 107.074,-63.4391 117.666,-63.1875 115.197,-56.6372"/>
</g>
</g>
</svg>
