<?xml version="1.0" encoding="UTF-8" standalone="no"?>
<!DOCTYPE svg PUBLIC "-//W3C//DTD SVG 1.1//EN"
 "http://www.w3.org/Graphics/SVG/1.1/DTD/svg11.dtd">
<!-- Generated by graphviz version 2.38.0 (20140413.2041)
 -->
<!-- Title: src/main.cpp Pages: 1 -->
<svg width="1892pt" height="274pt"
 viewBox="0.00 0.00 1891.50 274.00" xmlns="http://www.w3.org/2000/svg" xmlns:xlink="http://www.w3.org/1999/xlink">
<g id="graph0" class="graph" transform="scale(1 1) rotate(0) translate(4 270)">
<title>src/main.cpp</title>
<polygon fill="white" stroke="none" points="-4,4 -4,-270 1887.5,-270 1887.5,4 -4,4"/>
<!-- Node1 -->
<g id="node1" class="node"><title>Node1</title>
<g id="a_node1"><a xlink:title=" ">
<polygon fill="#bfbfbf" stroke="black" points="1062,-246.5 1062,-265.5 1135,-265.5 1135,-246.5 1062,-246.5"/>
<text text-anchor="middle" x="1098.5" y="-253.5" font-family="Helvetica,sans-Serif" font-size="10.00">src/main.cpp</text>
</a>
</g>
</g>
<!-- Node2 -->
<g id="node2" class="node"><title>Node2</title>
<g id="a_node2"><a xlink:title=" ">
<polygon fill="white" stroke="#bfbfbf" points="0,-185 0,-204 49,-204 49,-185 0,-185"/>
<text text-anchor="middle" x="24.5" y="-192" font-family="Helvetica,sans-Serif" font-size="10.00">fstream</text>
</a>
</g>
</g>
<!-- Node1&#45;&gt;Node2 -->
<g id="edge1" class="edge"><title>Node1&#45;&gt;Node2</title>
<path fill="none" stroke="midnightblue" d="M1061.95,-254.935C901.689,-254.418 260.386,-249.85 63.5,-210 60.2432,-209.341 56.8975,-208.45 53.6002,-207.433"/>
<polygon fill="midnightblue" stroke="midnightblue" points="54.5848,-204.07 43.99,-204.105 52.2939,-210.685 54.5848,-204.07"/>
</g>
<!-- Node3 -->
<g id="node3" class="node"><title>Node3</title>
<g id="a_node3"><a xlink:title=" ">
<polygon fill="white" stroke="#bfbfbf" points="1342.5,-56.5 1342.5,-75.5 1396.5,-75.5 1396.5,-56.5 1342.5,-56.5"/>
<text text-anchor="middle" x="1369.5" y="-63.5" font-family="Helvetica,sans-Serif" font-size="10.00">iostream</text>
</a>
</g>
</g>
<!-- Node1&#45;&gt;Node3 -->
<g id="edge2" class="edge"><title>Node1&#45;&gt;Node3</title>
<path fill="none" stroke="midnightblue" d="M1135.21,-252.977C1195.12,-248.906 1310.08,-237.631 1338.5,-210 1372.42,-177.025 1373.39,-116.361 1371.41,-85.7362"/>
<polygon fill="midnightblue" stroke="midnightblue" points="1374.88,-85.2653 1370.56,-75.59 1367.9,-85.8459 1374.88,-85.2653"/>
</g>
<!-- Node4 -->
<g id="node4" class="node"><title>Node4</title>
<g id="a_node4"><a xlink:title=" ">
<polygon fill="white" stroke="#bfbfbf" points="293.5,-56.5 293.5,-75.5 345.5,-75.5 345.5,-56.5 293.5,-56.5"/>
<text text-anchor="middle" x="319.5" y="-63.5" font-family="Helvetica,sans-Serif" font-size="10.00">sstream</text>
</a>
</g>
</g>
<!-- Node1&#45;&gt;Node4 -->
<g id="edge3" class="edge"><title>Node1&#45;&gt;Node4</title>
<path fill="none" stroke="midnightblue" d="M1061.97,-254.71C888.687,-253.157 156.505,-244.563 123.5,-210 66.3839,-150.187 212.175,-98.005 283.225,-76.9329"/>
<polygon fill="midnightblue" stroke="midnightblue" points="284.507,-80.2052 293.132,-74.0525 282.553,-73.4835 284.507,-80.2052"/>
</g>
<!-- Node5 -->
<g id="node5" class="node"><title>Node5</title>
<g id="a_node5"><a xlink:title=" ">
<polygon fill="white" stroke="#bfbfbf" points="143.5,-185 143.5,-204 203.5,-204 203.5,-185 143.5,-185"/>
<text text-anchor="middle" x="173.5" y="-192" font-family="Helvetica,sans-Serif" font-size="10.00">CLI11.hpp</text>
</a>
</g>
</g>
<!-- Node1&#45;&gt;Node5 -->
<g id="edge4" class="edge"><title>Node1&#45;&gt;Node5</title>
<path fill="none" stroke="midnightblue" d="M1061.71,-254.622C915.935,-252.896 378.806,-244.293 212.5,-210 209.246,-209.329 205.902,-208.431 202.605,-207.409"/>
<polygon fill="midnightblue" stroke="midnightblue" points="203.591,-204.046 192.996,-204.076 201.296,-210.66 203.591,-204.046"/>
</g>
<!-- Node6 -->
<g id="node6" class="node"><title>Node6</title>
<g id="a_node6"><a xlink:href="_cut_set_width_fitness_function_8h.html" target="_top" xlink:title=" ">
<polygon fill="white" stroke="black" points="375.5,-179.5 375.5,-209.5 525.5,-209.5 525.5,-179.5 375.5,-179.5"/>
<text text-anchor="start" x="383.5" y="-197.5" font-family="Helvetica,sans-Serif" font-size="10.00">FitnessFunctions/CutSetWidth</text>
<text text-anchor="middle" x="450.5" y="-186.5" font-family="Helvetica,sans-Serif" font-size="10.00">FitnessFunction.h</text>
</a>
</g>
</g>
<!-- Node1&#45;&gt;Node6 -->
<g id="edge5" class="edge"><title>Node1&#45;&gt;Node6</title>
<path fill="none" stroke="midnightblue" d="M1061.83,-253.204C971.884,-248.553 733.257,-234.721 535.5,-210 535.398,-209.987 535.296,-209.974 535.193,-209.962"/>
<polygon fill="midnightblue" stroke="midnightblue" points="535.908,-206.526 525.533,-208.673 534.983,-213.465 535.908,-206.526"/>
</g>
<!-- Node8 -->
<g id="node8" class="node"><title>Node8</title>
<g id="a_node8"><a xlink:href="_join_size_fitness_function_8h.html" target="_top" xlink:title=" ">
<polygon fill="white" stroke="black" points="544,-179.5 544,-209.5 675,-209.5 675,-179.5 544,-179.5"/>
<text text-anchor="start" x="552" y="-197.5" font-family="Helvetica,sans-Serif" font-size="10.00">FitnessFunctions/JoinSize</text>
<text text-anchor="middle" x="609.5" y="-186.5" font-family="Helvetica,sans-Serif" font-size="10.00">FitnessFunction.h</text>
</a>
</g>
</g>
<!-- Node1&#45;&gt;Node8 -->
<g id="edge7" class="edge"><title>Node1&#45;&gt;Node8</title>
<path fill="none" stroke="midnightblue" d="M1061.82,-252.039C991.057,-246.106 830.612,-231.58 685.289,-210.036"/>
<polygon fill="midnightblue" stroke="midnightblue" points="685.705,-206.559 675.297,-208.54 684.668,-213.482 685.705,-206.559"/>
</g>
<!-- Node9 -->
<g id="node9" class="node"><title>Node9</title>
<g id="a_node9"><a xlink:href="_num_join_fitness_function_8h.html" target="_top" xlink:title=" ">
<polygon fill="white" stroke="black" points="693.5,-179.5 693.5,-209.5 825.5,-209.5 825.5,-179.5 693.5,-179.5"/>
<text text-anchor="start" x="701.5" y="-197.5" font-family="Helvetica,sans-Serif" font-size="10.00">FitnessFunctions/NumJoin</text>
<text text-anchor="middle" x="759.5" y="-186.5" font-family="Helvetica,sans-Serif" font-size="10.00">FitnessFunction.h</text>
</a>
</g>
</g>
<!-- Node1&#45;&gt;Node9 -->
<g id="edge9" class="edge"><title>Node1&#45;&gt;Node9</title>
<path fill="none" stroke="midnightblue" d="M1061.73,-248.996C1012.57,-240.912 922.472,-225.893 835.748,-210.205"/>
<polygon fill="midnightblue" stroke="midnightblue" points="836.203,-206.731 825.738,-208.389 834.953,-213.618 836.203,-206.731"/>
</g>
<!-- Node10 -->
<g id="node10" class="node"><title>Node10</title>
<g id="a_node10"><a xlink:href="_width_cut_set_fitness_function_8h.html" target="_top" xlink:title=" ">
<polygon fill="white" stroke="black" points="222,-179.5 222,-209.5 357,-209.5 357,-179.5 222,-179.5"/>
<text text-anchor="start" x="230" y="-197.5" font-family="Helvetica,sans-Serif" font-size="10.00">FitnessFunctions/WidthCut</text>
<text text-anchor="middle" x="289.5" y="-186.5" font-family="Helvetica,sans-Serif" font-size="10.00">SetFitnessFunction.h</text>
</a>
</g>
</g>
<!-- Node1&#45;&gt;Node10 -->
<g id="edge11" class="edge"><title>Node1&#45;&gt;Node10</title>
<path fill="none" stroke="midnightblue" d="M1061.79,-254.361C955.737,-252.17 639.677,-243.23 367.116,-209.955"/>
<polygon fill="midnightblue" stroke="midnightblue" points="367.385,-206.462 357.031,-208.71 366.527,-213.409 367.385,-206.462"/>
</g>
<!-- Node11 -->
<g id="node11" class="node"><title>Node11</title>
<g id="a_node11"><a xlink:title=" ">
<polygon fill="white" stroke="#bfbfbf" points="843.5,-179.5 843.5,-209.5 947.5,-209.5 947.5,-179.5 843.5,-179.5"/>
<text text-anchor="start" x="851.5" y="-197.5" font-family="Helvetica,sans-Serif" font-size="10.00">boost/multiprecision</text>
<text text-anchor="middle" x="895.5" y="-186.5" font-family="Helvetica,sans-Serif" font-size="10.00">/cpp_bin_float.hpp</text>
</a>
</g>
</g>
<!-- Node1&#45;&gt;Node11 -->
<g id="edge13" class="edge"><title>Node1&#45;&gt;Node11</title>
<path fill="none" stroke="midnightblue" d="M1069.42,-246.475C1039.22,-237.626 991.196,-223.549 953.253,-212.428"/>
<polygon fill="midnightblue" stroke="midnightblue" points="953.924,-208.977 943.343,-209.523 951.955,-215.694 953.924,-208.977"/>
</g>
<!-- Node12 -->
<g id="node12" class="node"><title>Node12</title>
<g id="a_node12"><a xlink:title=" ">
<polygon fill="white" stroke="#bfbfbf" points="652.5,-56.5 652.5,-75.5 698.5,-75.5 698.5,-56.5 652.5,-56.5"/>
<text text-anchor="middle" x="675.5" y="-63.5" font-family="Helvetica,sans-Serif" font-size="10.00">chrono</text>
</a>
</g>
</g>
<!-- Node1&#45;&gt;Node12 -->
<g id="edge14" class="edge"><title>Node1&#45;&gt;Node12</title>
<path fill="none" stroke="midnightblue" d="M1061.81,-254.688C889.448,-253.047 167.088,-244.145 134.5,-210 60.6971,-132.672 513.552,-82.6196 642.148,-70.0912"/>
<polygon fill="midnightblue" stroke="midnightblue" points="642.586,-73.5652 652.205,-69.1237 641.916,-66.5974 642.586,-73.5652"/>
</g>
<!-- Node13 -->
<g id="node13" class="node"><title>Node13</title>
<g id="a_node13"><a xlink:href="decomposer_8h.html" target="_top" xlink:title=" ">
<polygon fill="white" stroke="black" points="1003.5,-185 1003.5,-204 1081.5,-204 1081.5,-185 1003.5,-185"/>
<text text-anchor="middle" x="1042.5" y="-192" font-family="Helvetica,sans-Serif" font-size="10.00">decomposer.h</text>
</a>
</g>
</g>
<!-- Node1&#45;&gt;Node13 -->
<g id="edge15" class="edge"><title>Node1&#45;&gt;Node13</title>
<path fill="none" stroke="midnightblue" d="M1090.48,-246.475C1081.91,-237.373 1068.14,-222.741 1057.54,-211.483"/>
<polygon fill="midnightblue" stroke="midnightblue" points="1059.91,-208.892 1050.51,-204.009 1054.81,-213.69 1059.91,-208.892"/>
</g>
<!-- Node17 -->
<g id="node17" class="node"><title>Node17</title>
<g id="a_node17"><a xlink:href="gpusatparser_8h.html" target="_top" xlink:title=" ">
<polygon fill="white" stroke="black" points="1228,-185 1228,-204 1309,-204 1309,-185 1228,-185"/>
<text text-anchor="middle" x="1268.5" y="-192" font-family="Helvetica,sans-Serif" font-size="10.00">gpusatparser.h</text>
</a>
</g>
</g>
<!-- Node1&#45;&gt;Node17 -->
<g id="edge20" class="edge"><title>Node1&#45;&gt;Node17</title>
<path fill="none" stroke="midnightblue" d="M1122.86,-246.475C1152.14,-236.225 1201.47,-218.959 1234.5,-207.399"/>
<polygon fill="midnightblue" stroke="midnightblue" points="1235.91,-210.616 1244.19,-204.009 1233.59,-204.009 1235.91,-210.616"/>
</g>
<!-- Node19 -->
<g id="node19" class="node"><title>Node19</title>
<g id="a_node19"><a xlink:href="types_8h.html" target="_top" xlink:title=" ">
<polygon fill="white" stroke="black" points="1275,-56.5 1275,-75.5 1324,-75.5 1324,-56.5 1275,-56.5"/>
<text text-anchor="middle" x="1299.5" y="-63.5" font-family="Helvetica,sans-Serif" font-size="10.00">types.h</text>
</a>
</g>
</g>
<!-- Node1&#45;&gt;Node19 -->
<g id="edge60" class="edge"><title>Node1&#45;&gt;Node19</title>
<path fill="none" stroke="midnightblue" d="M1135.08,-252.95C1191.53,-248.937 1295.76,-237.862 1318.5,-210 1348.11,-173.725 1324.34,-114.166 1309.36,-84.6783"/>
<polygon fill="midnightblue" stroke="midnightblue" points="1312.32,-82.779 1304.53,-75.5897 1306.13,-86.063 1312.32,-82.779"/>
</g>
<!-- Node26 -->
<g id="node26" class="node"><title>Node26</title>
<g id="a_node26"><a xlink:href="gpusatpreprocessor_8h.html" target="_top" xlink:title=" ">
<polygon fill="white" stroke="black" points="1099.5,-185 1099.5,-204 1209.5,-204 1209.5,-185 1099.5,-185"/>
<text text-anchor="middle" x="1154.5" y="-192" font-family="Helvetica,sans-Serif" font-size="10.00">gpusatpreprocessor.h</text>
</a>
</g>
</g>
<!-- Node1&#45;&gt;Node26 -->
<g id="edge29" class="edge"><title>Node1&#45;&gt;Node26</title>
<path fill="none" stroke="midnightblue" d="M1106.52,-246.475C1115.09,-237.373 1128.86,-222.741 1139.46,-211.483"/>
<polygon fill="midnightblue" stroke="midnightblue" points="1142.19,-213.69 1146.49,-204.009 1137.09,-208.892 1142.19,-213.69"/>
</g>
<!-- Node27 -->
<g id="node27" class="node"><title>Node27</title>
<g id="a_node27"><a xlink:href="gpusatutils_8h.html" target="_top" xlink:title=" ">
<polygon fill="white" stroke="black" points="737.5,-118 737.5,-137 809.5,-137 809.5,-118 737.5,-118"/>
<text text-anchor="middle" x="773.5" y="-125" font-family="Helvetica,sans-Serif" font-size="10.00">gpusatutils.h</text>
</a>
</g>
</g>
<!-- Node1&#45;&gt;Node27 -->
<g id="edge33" class="edge"><title>Node1&#45;&gt;Node27</title>
<path fill="none" stroke="midnightblue" d="M1073.6,-246.446C1051.92,-238.488 1020.05,-225.536 994.5,-210 975.877,-198.676 975.926,-188.883 956.5,-179 900.388,-150.453 879.984,-160.469 819.5,-143 816.182,-142.042 812.738,-141.016 809.296,-139.969"/>
<polygon fill="midnightblue" stroke="midnightblue" points="810.293,-136.613 799.705,-137.001 808.224,-143.301 810.293,-136.613"/>
</g>
<!-- Node28 -->
<g id="node28" class="node"><title>Node28</title>
<g id="a_node28"><a xlink:href="graphoutput_8h.html" target="_top" xlink:title=" ">
<polygon fill="white" stroke="black" points="1441.5,-118 1441.5,-137 1517.5,-137 1517.5,-118 1441.5,-118"/>
<text text-anchor="middle" x="1479.5" y="-125" font-family="Helvetica,sans-Serif" font-size="10.00">graphoutput.h</text>
</a>
</g>
</g>
<!-- Node1&#45;&gt;Node28 -->
<g id="edge40" class="edge"><title>Node1&#45;&gt;Node28</title>
<path fill="none" stroke="midnightblue" d="M1135.39,-255.926C1192.63,-255.945 1305.04,-250.241 1389.5,-210 1406.37,-201.96 1443.06,-165.947 1464.01,-144.577"/>
<polygon fill="midnightblue" stroke="midnightblue" points="1466.73,-146.8 1471.2,-137.192 1461.71,-141.919 1466.73,-146.8"/>
</g>
<!-- Node30 -->
<g id="node30" class="node"><title>Node30</title>
<g id="a_node30"><a xlink:title=" ">
<polygon fill="white" stroke="#bfbfbf" points="1442,-185 1442,-204 1489,-204 1489,-185 1442,-185"/>
<text text-anchor="middle" x="1465.5" y="-192" font-family="Helvetica,sans-Serif" font-size="10.00">math.h</text>
</a>
</g>
</g>
<!-- Node1&#45;&gt;Node30 -->
<g id="edge44" class="edge"><title>Node1&#45;&gt;Node30</title>
<path fill="none" stroke="midnightblue" d="M1135.05,-252.738C1196.33,-248.339 1323.33,-236.624 1427.5,-210 1430.32,-209.279 1433.22,-208.413 1436.1,-207.469"/>
<polygon fill="midnightblue" stroke="midnightblue" points="1437.42,-210.713 1445.66,-204.05 1435.07,-204.121 1437.42,-210.713"/>
</g>
<!-- Node31 -->
<g id="node31" class="node"><title>Node31</title>
<g id="a_node31"><a xlink:title=" ">
<polygon fill="white" stroke="#bfbfbf" points="1507,-185 1507,-204 1558,-204 1558,-185 1507,-185"/>
<text text-anchor="middle" x="1532.5" y="-192" font-family="Helvetica,sans-Serif" font-size="10.00">numeric</text>
</a>
</g>
</g>
<!-- Node1&#45;&gt;Node31 -->
<g id="edge45" class="edge"><title>Node1&#45;&gt;Node31</title>
<path fill="none" stroke="midnightblue" d="M1135,-254.422C1206.12,-252.529 1367.74,-244.446 1498.5,-210 1500.86,-209.379 1503.26,-208.624 1505.65,-207.787"/>
<polygon fill="midnightblue" stroke="midnightblue" points="1507.17,-210.948 1515.2,-204.028 1504.61,-204.435 1507.17,-210.948"/>
</g>
<!-- Node32 -->
<g id="node32" class="node"><title>Node32</title>
<g id="a_node32"><a xlink:href="solver_8h.html" target="_top" xlink:title=" ">
<polygon fill="white" stroke="black" points="1576.5,-185 1576.5,-204 1626.5,-204 1626.5,-185 1576.5,-185"/>
<text text-anchor="middle" x="1601.5" y="-192" font-family="Helvetica,sans-Serif" font-size="10.00">solver.h</text>
</a>
</g>
</g>
<!-- Node1&#45;&gt;Node32 -->
<g id="edge46" class="edge"><title>Node1&#45;&gt;Node32</title>
<path fill="none" stroke="midnightblue" d="M1135.04,-255.274C1214.84,-255.057 1410.15,-250.074 1567.5,-210 1569.86,-209.399 1572.27,-208.657 1574.66,-207.829"/>
<polygon fill="midnightblue" stroke="midnightblue" points="1576.18,-210.993 1584.21,-204.086 1573.62,-204.476 1576.18,-210.993"/>
</g>
<!-- Node34 -->
<g id="node34" class="node"><title>Node34</title>
<g id="a_node34"><a xlink:href="visualization_8h.html" target="_top" xlink:title=" ">
<polygon fill="white" stroke="black" points="1612,-118 1612,-137 1689,-137 1689,-118 1612,-118"/>
<text text-anchor="middle" x="1650.5" y="-125" font-family="Helvetica,sans-Serif" font-size="10.00">visualization.h</text>
</a>
</g>
</g>
<!-- Node1&#45;&gt;Node34 -->
<g id="edge61" class="edge"><title>Node1&#45;&gt;Node34</title>
<path fill="none" stroke="midnightblue" d="M1135.33,-254.456C1250.53,-252.411 1598.54,-243.491 1635.5,-210 1652.71,-194.407 1654.18,-166.076 1652.92,-147.27"/>
<polygon fill="midnightblue" stroke="midnightblue" points="1656.39,-146.835 1651.93,-137.228 1649.43,-147.523 1656.39,-146.835"/>
</g>
<!-- Node39 -->
<g id="node39" class="node"><title>Node39</title>
<g id="a_node39"><a xlink:title=" ">
<polygon fill="white" stroke="#bfbfbf" points="1682.5,-185 1682.5,-204 1742.5,-204 1742.5,-185 1682.5,-185"/>
<text text-anchor="middle" x="1712.5" y="-192" font-family="Helvetica,sans-Serif" font-size="10.00">sys/stat.h</text>
</a>
</g>
</g>
<!-- Node1&#45;&gt;Node39 -->
<g id="edge59" class="edge"><title>Node1&#45;&gt;Node39</title>
<path fill="none" stroke="midnightblue" d="M1135.26,-255.127C1226.49,-254.791 1470.22,-249.897 1668.5,-210 1672.38,-209.219 1676.4,-208.203 1680.35,-207.07"/>
<polygon fill="midnightblue" stroke="midnightblue" points="1681.44,-210.398 1689.94,-204.083 1679.35,-203.714 1681.44,-210.398"/>
</g>
<!-- Node40 -->
<g id="node40" class="node"><title>Node40</title>
<g id="a_node40"><a xlink:href="kernel_8h.html" target="_top" xlink:title=" ">
<polygon fill="white" stroke="black" points="1761,-185 1761,-204 1812,-204 1812,-185 1761,-185"/>
<text text-anchor="middle" x="1786.5" y="-192" font-family="Helvetica,sans-Serif" font-size="10.00">kernel.h</text>
</a>
</g>
</g>
<!-- Node1&#45;&gt;Node40 -->
<g id="edge62" class="edge"><title>Node1&#45;&gt;Node40</title>
<path fill="none" stroke="midnightblue" d="M1135.06,-254.034C1254.59,-250.631 1632.86,-237.878 1751.5,-210 1754.17,-209.373 1756.9,-208.565 1759.59,-207.653"/>
<polygon fill="midnightblue" stroke="midnightblue" points="1760.98,-210.871 1769.06,-204.024 1758.47,-204.334 1760.98,-210.871"/>
</g>
<!-- Node7 -->
<g id="node7" class="node"><title>Node7</title>
<g id="a_node7"><a xlink:title=" ">
<polygon fill="white" stroke="#bfbfbf" points="534,-112.5 534,-142.5 685,-142.5 685,-112.5 534,-112.5"/>
<text text-anchor="start" x="542" y="-130.5" font-family="Helvetica,sans-Serif" font-size="10.00">htd/ITreeDecompositionFitness</text>
<text text-anchor="middle" x="609.5" y="-119.5" font-family="Helvetica,sans-Serif" font-size="10.00">Function.hpp</text>
</a>
</g>
</g>
<!-- Node6&#45;&gt;Node7 -->
<g id="edge6" class="edge"><title>Node6&#45;&gt;Node7</title>
<path fill="none" stroke="midnightblue" d="M485.001,-179.396C508.649,-169.728 540.219,-156.823 565.65,-146.426"/>
<polygon fill="midnightblue" stroke="midnightblue" points="567.135,-149.6 575.067,-142.577 564.486,-143.121 567.135,-149.6"/>
</g>
<!-- Node8&#45;&gt;Node7 -->
<g id="edge8" class="edge"><title>Node8&#45;&gt;Node7</title>
<path fill="none" stroke="midnightblue" d="M609.5,-179.396C609.5,-171.645 609.5,-161.812 609.5,-152.86"/>
<polygon fill="midnightblue" stroke="midnightblue" points="613,-152.576 609.5,-142.577 606,-152.577 613,-152.576"/>
</g>
<!-- Node9&#45;&gt;Node7 -->
<g id="edge10" class="edge"><title>Node9&#45;&gt;Node7</title>
<path fill="none" stroke="midnightblue" d="M726.952,-179.396C704.741,-169.771 675.122,-156.936 651.186,-146.564"/>
<polygon fill="midnightblue" stroke="midnightblue" points="652.551,-143.341 641.984,-142.577 649.768,-149.764 652.551,-143.341"/>
</g>
<!-- Node10&#45;&gt;Node7 -->
<g id="edge12" class="edge"><title>Node10&#45;&gt;Node7</title>
<path fill="none" stroke="midnightblue" d="M357.364,-179.715C407.95,-169.44 477.176,-155.378 530.294,-144.589"/>
<polygon fill="midnightblue" stroke="midnightblue" points="531.251,-147.966 540.354,-142.545 529.858,-141.106 531.251,-147.966"/>
</g>
<!-- Node13&#45;&gt;Node7 -->
<g id="edge18" class="edge"><title>Node13&#45;&gt;Node7</title>
<path fill="none" stroke="midnightblue" d="M1003.14,-186.673C988.509,-184.185 971.757,-181.396 956.5,-179 867.508,-165.024 765.46,-150.332 695.181,-140.422"/>
<polygon fill="midnightblue" stroke="midnightblue" points="695.439,-136.924 685.048,-138.995 694.462,-143.855 695.439,-136.924"/>
</g>
<!-- Node14 -->
<g id="node14" class="node"><title>Node14</title>
<g id="a_node14"><a xlink:title=" ">
<polygon fill="white" stroke="#bfbfbf" points="828,-118 828,-137 913,-137 913,-118 828,-118"/>
<text text-anchor="middle" x="870.5" y="-125" font-family="Helvetica,sans-Serif" font-size="10.00">htd/Helpers.hpp</text>
</a>
</g>
</g>
<!-- Node13&#45;&gt;Node14 -->
<g id="edge16" class="edge"><title>Node13&#45;&gt;Node14</title>
<path fill="none" stroke="midnightblue" d="M1019.66,-184.869C989.635,-173.522 936.719,-153.525 902.657,-140.652"/>
<polygon fill="midnightblue" stroke="midnightblue" points="903.752,-137.325 893.161,-137.064 901.278,-143.873 903.752,-137.325"/>
</g>
<!-- Node15 -->
<g id="node15" class="node"><title>Node15</title>
<g id="a_node15"><a xlink:title=" ">
<polygon fill="white" stroke="#bfbfbf" points="931,-118 931,-137 1032,-137 1032,-118 931,-118"/>
<text text-anchor="middle" x="981.5" y="-125" font-family="Helvetica,sans-Serif" font-size="10.00">htd/Hypergraph.hpp</text>
</a>
</g>
</g>
<!-- Node13&#45;&gt;Node15 -->
<g id="edge17" class="edge"><title>Node13&#45;&gt;Node15</title>
<path fill="none" stroke="midnightblue" d="M1034.27,-184.734C1024.67,-174.5 1008.59,-157.364 996.696,-144.692"/>
<polygon fill="midnightblue" stroke="midnightblue" points="998.992,-142.024 989.596,-137.127 993.887,-146.814 998.992,-142.024"/>
</g>
<!-- Node16 -->
<g id="node16" class="node"><title>Node16</title>
<g id="a_node16"><a xlink:title=" ">
<polygon fill="white" stroke="#bfbfbf" points="1415,-56.5 1415,-75.5 1456,-75.5 1456,-56.5 1415,-56.5"/>
<text text-anchor="middle" x="1435.5" y="-63.5" font-family="Helvetica,sans-Serif" font-size="10.00">string</text>
</a>
</g>
</g>
<!-- Node13&#45;&gt;Node16 -->
<g id="edge19" class="edge"><title>Node13&#45;&gt;Node16</title>
<path fill="none" stroke="midnightblue" d="M1047.67,-184.748C1058.4,-167.471 1084.91,-129.171 1118.5,-112 1230.06,-54.9734 1277.3,-100.14 1404.83,-75.7082"/>
<polygon fill="midnightblue" stroke="midnightblue" points="1405.85,-79.0711 1414.96,-73.6539 1404.46,-72.2106 1405.85,-79.0711"/>
</g>
<!-- Node18 -->
<g id="node18" class="node"><title>Node18</title>
<g id="a_node18"><a xlink:title=" ">
<polygon fill="white" stroke="#bfbfbf" points="1127,-118 1127,-137 1170,-137 1170,-118 1127,-118"/>
<text text-anchor="middle" x="1148.5" y="-125" font-family="Helvetica,sans-Serif" font-size="10.00">queue</text>
</a>
</g>
</g>
<!-- Node17&#45;&gt;Node18 -->
<g id="edge21" class="edge"><title>Node17&#45;&gt;Node18</title>
<path fill="none" stroke="midnightblue" d="M1252.32,-184.734C1232.07,-173.769 1197.2,-154.881 1173.51,-142.049"/>
<polygon fill="midnightblue" stroke="midnightblue" points="1174.89,-138.813 1164.43,-137.127 1171.55,-144.968 1174.89,-138.813"/>
</g>
<!-- Node17&#45;&gt;Node19 -->
<g id="edge22" class="edge"><title>Node17&#45;&gt;Node19</title>
<path fill="none" stroke="midnightblue" d="M1270.63,-184.805C1275.61,-164.494 1288.09,-113.553 1294.9,-85.7768"/>
<polygon fill="midnightblue" stroke="midnightblue" points="1298.37,-86.3014 1297.35,-75.7557 1291.57,-84.6352 1298.37,-86.3014"/>
</g>
<!-- Node25 -->
<g id="node25" class="node"><title>Node25</title>
<g id="a_node25"><a xlink:title=" ">
<polygon fill="white" stroke="#bfbfbf" points="1188,-118 1188,-137 1271,-137 1271,-118 1188,-118"/>
<text text-anchor="middle" x="1229.5" y="-125" font-family="Helvetica,sans-Serif" font-size="10.00">unordered_map</text>
</a>
</g>
</g>
<!-- Node17&#45;&gt;Node25 -->
<g id="edge28" class="edge"><title>Node17&#45;&gt;Node25</title>
<path fill="none" stroke="midnightblue" d="M1263.24,-184.734C1257.28,-174.793 1247.4,-158.338 1239.87,-145.789"/>
<polygon fill="midnightblue" stroke="midnightblue" points="1242.82,-143.901 1234.68,-137.127 1236.82,-147.503 1242.82,-143.901"/>
</g>
<!-- Node20 -->
<g id="node20" class="node"><title>Node20</title>
<g id="a_node20"><a xlink:title=" ">
<polygon fill="white" stroke="#bfbfbf" points="994,-0.5 994,-19.5 1081,-19.5 1081,-0.5 994,-0.5"/>
<text text-anchor="middle" x="1037.5" y="-7.5" font-family="Helvetica,sans-Serif" font-size="10.00">CL/cl_platform.h</text>
</a>
</g>
</g>
<!-- Node19&#45;&gt;Node20 -->
<g id="edge23" class="edge"><title>Node19&#45;&gt;Node20</title>
<path fill="none" stroke="midnightblue" d="M1274.85,-59.9198C1232.52,-51.1948 1145.15,-33.1873 1089.04,-21.6225"/>
<polygon fill="midnightblue" stroke="midnightblue" points="1089.44,-18.1326 1078.94,-19.5418 1088.03,-24.9885 1089.44,-18.1326"/>
</g>
<!-- Node21 -->
<g id="node21" class="node"><title>Node21</title>
<g id="a_node21"><a xlink:title=" ">
<polygon fill="white" stroke="#bfbfbf" points="1307.5,-0.5 1307.5,-19.5 1351.5,-19.5 1351.5,-0.5 1307.5,-0.5"/>
<text text-anchor="middle" x="1329.5" y="-7.5" font-family="Helvetica,sans-Serif" font-size="10.00">cmath</text>
</a>
</g>
</g>
<!-- Node19&#45;&gt;Node21 -->
<g id="edge24" class="edge"><title>Node19&#45;&gt;Node21</title>
<path fill="none" stroke="midnightblue" d="M1304.45,-56.083C1308.6,-48.6127 1314.65,-37.7244 1319.77,-28.5199"/>
<polygon fill="midnightblue" stroke="midnightblue" points="1322.84,-30.1924 1324.64,-19.7511 1316.72,-26.7929 1322.84,-30.1924"/>
</g>
<!-- Node22 -->
<g id="node22" class="node"><title>Node22</title>
<g id="a_node22"><a xlink:title=" ">
<polygon fill="white" stroke="#bfbfbf" points="1370,-0.5 1370,-19.5 1399,-19.5 1399,-0.5 1370,-0.5"/>
<text text-anchor="middle" x="1384.5" y="-7.5" font-family="Helvetica,sans-Serif" font-size="10.00">list</text>
</a>
</g>
</g>
<!-- Node19&#45;&gt;Node22 -->
<g id="edge25" class="edge"><title>Node19&#45;&gt;Node22</title>
<path fill="none" stroke="midnightblue" d="M1313.16,-56.324C1326.42,-47.9002 1346.77,-34.9709 1362.35,-25.0741"/>
<polygon fill="midnightblue" stroke="midnightblue" points="1364.31,-27.9711 1370.88,-19.6545 1360.56,-22.0626 1364.31,-27.9711"/>
</g>
<!-- Node23 -->
<g id="node23" class="node"><title>Node23</title>
<g id="a_node23"><a xlink:title=" ">
<polygon fill="white" stroke="#bfbfbf" points="1199.5,-0.5 1199.5,-19.5 1229.5,-19.5 1229.5,-0.5 1199.5,-0.5"/>
<text text-anchor="middle" x="1214.5" y="-7.5" font-family="Helvetica,sans-Serif" font-size="10.00">set</text>
</a>
</g>
</g>
<!-- Node19&#45;&gt;Node23 -->
<g id="edge26" class="edge"><title>Node19&#45;&gt;Node23</title>
<path fill="none" stroke="midnightblue" d="M1285.84,-56.324C1272.58,-47.9002 1252.23,-34.9709 1236.65,-25.0741"/>
<polygon fill="midnightblue" stroke="midnightblue" points="1238.44,-22.0626 1228.12,-19.6545 1234.69,-27.9711 1238.44,-22.0626"/>
</g>
<!-- Node24 -->
<g id="node24" class="node"><title>Node24</title>
<g id="a_node24"><a xlink:title=" ">
<polygon fill="white" stroke="#bfbfbf" points="1247.5,-0.5 1247.5,-19.5 1289.5,-19.5 1289.5,-0.5 1247.5,-0.5"/>
<text text-anchor="middle" x="1268.5" y="-7.5" font-family="Helvetica,sans-Serif" font-size="10.00">vector</text>
</a>
</g>
</g>
<!-- Node19&#45;&gt;Node24 -->
<g id="edge27" class="edge"><title>Node19&#45;&gt;Node24</title>
<path fill="none" stroke="midnightblue" d="M1294.38,-56.083C1290.09,-48.6127 1283.84,-37.7244 1278.56,-28.5199"/>
<polygon fill="midnightblue" stroke="midnightblue" points="1281.54,-26.6811 1273.52,-19.7511 1275.47,-30.1662 1281.54,-26.6811"/>
</g>
<!-- Node26&#45;&gt;Node18 -->
<g id="edge30" class="edge"><title>Node26&#45;&gt;Node18</title>
<path fill="none" stroke="midnightblue" d="M1153.69,-184.734C1152.81,-175.183 1151.37,-159.618 1150.23,-147.283"/>
<polygon fill="midnightblue" stroke="midnightblue" points="1153.7,-146.763 1149.3,-137.127 1146.73,-147.407 1153.7,-146.763"/>
</g>
<!-- Node26&#45;&gt;Node19 -->
<g id="edge31" class="edge"><title>Node26&#45;&gt;Node19</title>
<path fill="none" stroke="midnightblue" d="M1145.2,-184.907C1129.3,-169.187 1100.3,-135.275 1118.5,-112 1136.3,-89.2329 1217.28,-76.3372 1264.67,-70.6158"/>
<polygon fill="midnightblue" stroke="midnightblue" points="1265.28,-74.069 1274.81,-69.4396 1264.47,-67.1157 1265.28,-74.069"/>
</g>
<!-- Node26&#45;&gt;Node25 -->
<g id="edge32" class="edge"><title>Node26&#45;&gt;Node25</title>
<path fill="none" stroke="midnightblue" d="M1164.61,-184.734C1176.65,-174.305 1196.95,-156.709 1211.65,-143.973"/>
<polygon fill="midnightblue" stroke="midnightblue" points="1214.28,-146.322 1219.55,-137.127 1209.7,-141.032 1214.28,-146.322"/>
</g>
<!-- Node27&#45;&gt;Node3 -->
<g id="edge36" class="edge"><title>Node27&#45;&gt;Node3</title>
<path fill="none" stroke="midnightblue" d="M797.102,-117.89C804.213,-115.615 812.096,-113.406 819.5,-112 1041.3,-69.8859 1105.52,-110.718 1332.59,-75.8446"/>
<polygon fill="midnightblue" stroke="midnightblue" points="1333.14,-79.3014 1342.48,-74.2946 1332.06,-72.3858 1333.14,-79.3014"/>
</g>
<!-- Node27&#45;&gt;Node4 -->
<g id="edge37" class="edge"><title>Node27&#45;&gt;Node4</title>
<path fill="none" stroke="midnightblue" d="M737.397,-119.386C723.96,-116.867 708.563,-114.132 694.5,-112 570.808,-93.2456 423.194,-77.4507 356.02,-70.6211"/>
<polygon fill="midnightblue" stroke="midnightblue" points="356.247,-67.1263 345.946,-69.6029 355.543,-74.0908 356.247,-67.1263"/>
</g>
<!-- Node27&#45;&gt;Node12 -->
<g id="edge35" class="edge"><title>Node27&#45;&gt;Node12</title>
<path fill="none" stroke="midnightblue" d="M759.459,-117.975C743.449,-108.255 717.05,-92.2266 698.126,-80.7372"/>
<polygon fill="midnightblue" stroke="midnightblue" points="699.879,-77.7072 689.515,-75.5091 696.246,-83.6907 699.879,-77.7072"/>
</g>
<!-- Node27&#45;&gt;Node19 -->
<g id="edge38" class="edge"><title>Node27&#45;&gt;Node19</title>
<path fill="none" stroke="midnightblue" d="M797.124,-117.999C804.235,-115.728 812.113,-113.493 819.5,-112 905.001,-94.72 1169.48,-75.7471 1264.8,-69.2935"/>
<polygon fill="midnightblue" stroke="midnightblue" points="1265.05,-72.7849 1274.79,-68.6212 1264.58,-65.8007 1265.05,-72.7849"/>
</g>
<!-- Node27&#45;&gt;Node20 -->
<g id="edge34" class="edge"><title>Node27&#45;&gt;Node20</title>
<path fill="none" stroke="midnightblue" d="M793.343,-117.819C839.514,-97.6188 954.322,-47.3905 1008.42,-23.7216"/>
<polygon fill="midnightblue" stroke="midnightblue" points="1010.03,-26.8393 1017.79,-19.6245 1007.22,-20.4261 1010.03,-26.8393"/>
</g>
<!-- Node27&#45;&gt;Node24 -->
<g id="edge39" class="edge"><title>Node27&#45;&gt;Node24</title>
<path fill="none" stroke="midnightblue" d="M799.17,-117.963C805.762,-115.894 812.866,-113.77 819.5,-112 1000.57,-63.6874 1052.19,-67.7151 1237.46,-20.1204"/>
<polygon fill="midnightblue" stroke="midnightblue" points="1238.44,-23.482 1247.25,-17.5905 1236.69,-16.7048 1238.44,-23.482"/>
</g>
<!-- Node28&#45;&gt;Node16 -->
<g id="edge42" class="edge"><title>Node28&#45;&gt;Node16</title>
<path fill="none" stroke="midnightblue" d="M1473.2,-117.975C1466.6,-109.05 1456.06,-94.8071 1447.81,-83.6425"/>
<polygon fill="midnightblue" stroke="midnightblue" points="1450.55,-81.4684 1441.79,-75.5091 1444.92,-85.6305 1450.55,-81.4684"/>
</g>
<!-- Node28&#45;&gt;Node19 -->
<g id="edge43" class="edge"><title>Node28&#45;&gt;Node19</title>
<path fill="none" stroke="midnightblue" d="M1453.71,-117.975C1422.21,-107.563 1368.82,-89.9146 1333.86,-78.3584"/>
<polygon fill="midnightblue" stroke="midnightblue" points="1334.68,-74.9425 1324.09,-75.1271 1332.48,-81.5888 1334.68,-74.9425"/>
</g>
<!-- Node29 -->
<g id="node29" class="node"><title>Node29</title>
<g id="a_node29"><a xlink:title=" ">
<polygon fill="white" stroke="#bfbfbf" points="1474,-56.5 1474,-75.5 1509,-75.5 1509,-56.5 1474,-56.5"/>
<text text-anchor="middle" x="1491.5" y="-63.5" font-family="Helvetica,sans-Serif" font-size="10.00">map</text>
</a>
</g>
</g>
<!-- Node28&#45;&gt;Node29 -->
<g id="edge41" class="edge"><title>Node28&#45;&gt;Node29</title>
<path fill="none" stroke="midnightblue" d="M1481.22,-117.975C1482.93,-109.492 1485.61,-96.2043 1487.8,-85.3222"/>
<polygon fill="midnightblue" stroke="midnightblue" points="1491.24,-86.0037 1489.78,-75.5091 1484.38,-84.6197 1491.24,-86.0037"/>
</g>
<!-- Node32&#45;&gt;Node19 -->
<g id="edge49" class="edge"><title>Node32&#45;&gt;Node19</title>
<path fill="none" stroke="midnightblue" d="M1582.63,-184.886C1577.75,-182.818 1572.47,-180.714 1567.5,-179 1508.79,-158.769 1489.94,-166.601 1432.5,-143 1390.87,-125.896 1346.17,-98.1967 1320.64,-81.3827"/>
<polygon fill="midnightblue" stroke="midnightblue" points="1322.41,-78.3539 1312.14,-75.7204 1318.52,-84.1788 1322.41,-78.3539"/>
</g>
<!-- Node32&#45;&gt;Node28 -->
<g id="edge48" class="edge"><title>Node32&#45;&gt;Node28</title>
<path fill="none" stroke="midnightblue" d="M1585.3,-184.869C1564.7,-173.893 1528.91,-154.824 1504.72,-141.938"/>
<polygon fill="midnightblue" stroke="midnightblue" points="1506.24,-138.78 1495.77,-137.167 1502.95,-144.958 1506.24,-138.78"/>
</g>
<!-- Node33 -->
<g id="node33" class="node"><title>Node33</title>
<g id="a_node33"><a xlink:title=" ">
<polygon fill="white" stroke="#bfbfbf" points="1535.5,-118 1535.5,-137 1593.5,-137 1593.5,-118 1535.5,-118"/>
<text text-anchor="middle" x="1564.5" y="-125" font-family="Helvetica,sans-Serif" font-size="10.00">CL/cl.hpp</text>
</a>
</g>
</g>
<!-- Node32&#45;&gt;Node33 -->
<g id="edge47" class="edge"><title>Node32&#45;&gt;Node33</title>
<path fill="none" stroke="midnightblue" d="M1596.51,-184.734C1590.91,-174.89 1581.67,-158.66 1574.55,-146.159"/>
<polygon fill="midnightblue" stroke="midnightblue" points="1577.4,-144.087 1569.41,-137.127 1571.32,-147.549 1577.4,-144.087"/>
</g>
<!-- Node32&#45;&gt;Node34 -->
<g id="edge50" class="edge"><title>Node32&#45;&gt;Node34</title>
<path fill="none" stroke="midnightblue" d="M1608.11,-184.734C1615.68,-174.695 1628.25,-158.014 1637.74,-145.421"/>
<polygon fill="midnightblue" stroke="midnightblue" points="1640.77,-147.219 1644,-137.127 1635.18,-143.006 1640.77,-147.219"/>
</g>
<!-- Node34&#45;&gt;Node3 -->
<g id="edge51" class="edge"><title>Node34&#45;&gt;Node3</title>
<path fill="none" stroke="midnightblue" d="M1624.24,-117.989C1617.22,-115.873 1609.61,-113.72 1602.5,-112 1516.42,-91.1615 1493.12,-94.4741 1406.5,-76 1406.4,-75.9785 1406.3,-75.9568 1406.2,-75.9351"/>
<polygon fill="midnightblue" stroke="midnightblue" points="1407.06,-72.5423 1396.54,-73.7648 1405.53,-79.372 1407.06,-72.5423"/>
</g>
<!-- Node34&#45;&gt;Node16 -->
<g id="edge56" class="edge"><title>Node34&#45;&gt;Node16</title>
<path fill="none" stroke="midnightblue" d="M1622.88,-117.97C1616.22,-115.965 1609.12,-113.869 1602.5,-112 1544.87,-95.7297 1527.75,-93.2644 1466,-76.0606"/>
<polygon fill="midnightblue" stroke="midnightblue" points="1466.7,-72.6218 1456.13,-73.2908 1464.81,-79.3616 1466.7,-72.6218"/>
</g>
<!-- Node34&#45;&gt;Node19 -->
<g id="edge57" class="edge"><title>Node34&#45;&gt;Node19</title>
<path fill="none" stroke="midnightblue" d="M1625.04,-117.981C1617.82,-115.79 1609.9,-113.603 1602.5,-112 1487.72,-87.1505 1453.6,-98.8206 1334.19,-75.8902"/>
<polygon fill="midnightblue" stroke="midnightblue" points="1334.79,-72.4401 1324.3,-73.9497 1333.44,-79.3092 1334.79,-72.4401"/>
</g>
<!-- Node34&#45;&gt;Node24 -->
<g id="edge58" class="edge"><title>Node34&#45;&gt;Node24</title>
<path fill="none" stroke="midnightblue" d="M1634.69,-117.879C1600.99,-99.5232 1524.62,-58.072 1518.5,-56 1427.68,-25.2583 1397.02,-41.17 1299.67,-19.9778"/>
<polygon fill="midnightblue" stroke="midnightblue" points="1300.24,-16.5192 1289.71,-17.7342 1298.7,-23.3478 1300.24,-16.5192"/>
</g>
<!-- Node35 -->
<g id="node35" class="node"><title>Node35</title>
<g id="a_node35"><a xlink:title=" ">
<polygon fill="white" stroke="#bfbfbf" points="1566,-56.5 1566,-75.5 1639,-75.5 1639,-56.5 1566,-56.5"/>
<text text-anchor="middle" x="1602.5" y="-63.5" font-family="Helvetica,sans-Serif" font-size="10.00">json/reader.h</text>
</a>
</g>
</g>
<!-- Node34&#45;&gt;Node35 -->
<g id="edge52" class="edge"><title>Node34&#45;&gt;Node35</title>
<path fill="none" stroke="midnightblue" d="M1643.62,-117.975C1636.35,-108.962 1624.7,-94.5246 1615.66,-83.3118"/>
<polygon fill="midnightblue" stroke="midnightblue" points="1618.37,-81.0946 1609.36,-75.5091 1612.92,-85.4898 1618.37,-81.0946"/>
</g>
<!-- Node36 -->
<g id="node36" class="node"><title>Node36</title>
<g id="a_node36"><a xlink:title=" ">
<polygon fill="white" stroke="#bfbfbf" points="1657.5,-56.5 1657.5,-75.5 1725.5,-75.5 1725.5,-56.5 1657.5,-56.5"/>
<text text-anchor="middle" x="1691.5" y="-63.5" font-family="Helvetica,sans-Serif" font-size="10.00">json/value.h</text>
</a>
</g>
</g>
<!-- Node34&#45;&gt;Node36 -->
<g id="edge53" class="edge"><title>Node34&#45;&gt;Node36</title>
<path fill="none" stroke="midnightblue" d="M1656.37,-117.975C1662.46,-109.138 1672.14,-95.0886 1679.8,-83.975"/>
<polygon fill="midnightblue" stroke="midnightblue" points="1682.84,-85.7294 1685.64,-75.5091 1677.08,-81.7575 1682.84,-85.7294"/>
</g>
<!-- Node37 -->
<g id="node37" class="node"><title>Node37</title>
<g id="a_node37"><a xlink:title=" ">
<polygon fill="white" stroke="#bfbfbf" points="1744,-56.5 1744,-75.5 1813,-75.5 1813,-56.5 1744,-56.5"/>
<text text-anchor="middle" x="1778.5" y="-63.5" font-family="Helvetica,sans-Serif" font-size="10.00">json/writer.h</text>
</a>
</g>
</g>
<!-- Node34&#45;&gt;Node37 -->
<g id="edge54" class="edge"><title>Node34&#45;&gt;Node37</title>
<path fill="none" stroke="midnightblue" d="M1668.84,-117.975C1690.32,-107.99 1726.12,-91.3476 1750.95,-79.8075"/>
<polygon fill="midnightblue" stroke="midnightblue" points="1752.6,-82.8983 1760.19,-75.5091 1749.65,-76.5506 1752.6,-82.8983"/>
</g>
<!-- Node38 -->
<g id="node38" class="node"><title>Node38</title>
<g id="a_node38"><a xlink:title=" ">
<polygon fill="white" stroke="#bfbfbf" points="1831.5,-56.5 1831.5,-75.5 1883.5,-75.5 1883.5,-56.5 1831.5,-56.5"/>
<text text-anchor="middle" x="1857.5" y="-63.5" font-family="Helvetica,sans-Serif" font-size="10.00">memory</text>
</a>
</g>
</g>
<!-- Node34&#45;&gt;Node38 -->
<g id="edge55" class="edge"><title>Node34&#45;&gt;Node38</title>
<path fill="none" stroke="midnightblue" d="M1680.16,-117.975C1717.57,-107.222 1781.83,-88.7494 1821.87,-77.2417"/>
<polygon fill="midnightblue" stroke="midnightblue" points="1822.85,-80.6014 1831.49,-74.475 1820.92,-73.8738 1822.85,-80.6014"/>
</g>
</g>
</svg>
