<?xml version="1.0" encoding="UTF-8" standalone="no"?>
<!DOCTYPE svg PUBLIC "-//W3C//DTD SVG 1.1//EN"
 "http://www.w3.org/Graphics/SVG/1.1/DTD/svg11.dtd">
<!-- Generated by graphviz version 2.38.0 (20140413.2041)
 -->
<!-- Title: main Pages: 1 -->
<!--zoomable 795 -->
<svg id="main" version="1.1" xmlns="http://www.w3.org/2000/svg" xmlns:xlink="http://www.w3.org/1999/xlink" xml:space="preserve" onload="init(evt)">
<style type="text/css"><![CDATA[
.edge:hover path { stroke: red; }
.edge:hover polygon { stroke: red; fill: red; }
]]></style>
<script type="text/javascript"><![CDATA[
var edges = document.getElementsByTagName('g');
if (edges && edges.length) {
  for (var i=0;i<edges.length;i++) {
    if (edges[i].id.substr(0,4)=='edge') {
      edges[i].setAttribute('class','edge');
    }
  }
}
]]></script>
        <defs>
                <circle id="rim" cx="0" cy="0" r="7"/>
                <circle id="rim2" cx="0" cy="0" r="3.5"/>
                <g id="zoomPlus">
                        <use xlink:href="#rim" fill="#404040">
                                <set attributeName="fill" to="#808080" begin="zoomplus.mouseover" end="zoomplus.mouseout"/>
                        </use>
                        <path d="M-4,0h8M0,-4v8" fill="none" stroke="white" stroke-width="1.5" pointer-events="none"/>
                </g>
                <g id="zoomMin">
                        <use xlink:href="#rim" fill="#404040">
                                <set attributeName="fill" to="#808080" begin="zoomminus.mouseover" end="zoomminus.mouseout"/>
                        </use>
                        <path d="M-4,0h8" fill="none" stroke="white" stroke-width="1.5" pointer-events="none"/>
                </g>
                <g id="dirArrow">
                        <path fill="none" stroke="white" stroke-width="1.5" d="M0,-3.0v7 M-2.5,-0.5L0,-3.0L2.5,-0.5"/>
                </g>
               <g id="resetDef">
                       <use xlink:href="#rim2" fill="#404040">
                               <set attributeName="fill" to="#808080" begin="reset.mouseover" end="reset.mouseout"/>
                       </use>
               </g>
        </defs>

<script type="text/javascript">
var viewWidth = 380;
var viewHeight = 795;
var sectionId = 'dynsection-4';
</script>
<script xlink:href="svgpan.js"/>
<svg id="graph" class="graph">
<g id="viewport">
<title>main</title>
<polygon fill="white" stroke="none" points="-4,4 -4,-790.5 376,-790.5 376,4 -4,4"/>
<!-- Node1 -->
<g id="node1" class="node"><title>Node1</title>
<g id="a_node1"><a xlink:title=" ">
<polygon fill="#bfbfbf" stroke="black" points="0,-412 0,-431 38,-431 38,-412 0,-412"/>
<text text-anchor="middle" x="19" y="-419" font-family="Helvetica,sans-Serif" font-size="10.00">main</text>
</a>
</g>
</g>
<!-- Node2 -->
<g id="node2" class="node"><title>Node2</title>
<g id="a_node2"><a xlink:href="main_8cpp.html#af3536928e7b1436ef9490f76a9757bae" target="_top" xlink:title=" ">
<polygon fill="white" stroke="black" points="112,-767 112,-786 177,-786 177,-767 112,-767"/>
<text text-anchor="middle" x="144.5" y="-774" font-family="Helvetica,sans-Serif" font-size="10.00">buildKernel</text>
</a>
</g>
</g>
<!-- Node1&#45;&gt;Node2 -->
<g id="edge1" class="edge"><title>Node1&#45;&gt;Node2</title>
<path fill="none" stroke="midnightblue" d="M20.1893,-431.207C21.357,-481.014 29.1003,-707.494 74,-757.5 81.2197,-765.541 91.4814,-770.318 101.91,-773.119"/>
<polygon fill="midnightblue" stroke="midnightblue" points="101.355,-776.58 111.865,-775.241 102.815,-769.734 101.355,-776.58"/>
</g>
<!-- Node3 -->
<g id="node3" class="node"><title>Node3</title>
<g id="a_node3"><a xlink:href="classgpusat_1_1_decomposer.html#a5e0c5e1696b2088b8ad66261022abcea" target="_top" xlink:title=" ">
<polygon fill="white" stroke="black" points="82,-717.5 82,-747.5 207,-747.5 207,-717.5 82,-717.5"/>
<text text-anchor="start" x="90" y="-735.5" font-family="Helvetica,sans-Serif" font-size="10.00">gpusat::Decomposer</text>
<text text-anchor="middle" x="144.5" y="-724.5" font-family="Helvetica,sans-Serif" font-size="10.00">::computeDecomposition</text>
</a>
</g>
</g>
<!-- Node1&#45;&gt;Node3 -->
<g id="edge2" class="edge"><title>Node1&#45;&gt;Node3</title>
<path fill="none" stroke="midnightblue" d="M20.5612,-431.163C23.3534,-476.096 37.116,-664.244 74,-707.5 75.144,-708.842 76.3656,-710.111 77.6532,-711.313"/>
<polygon fill="midnightblue" stroke="midnightblue" points="75.607,-714.154 85.6678,-717.476 79.8742,-708.605 75.607,-714.154"/>
</g>
<!-- Node4 -->
<g id="node4" class="node"><title>Node4</title>
<g id="a_node4"><a xlink:href="main_8cpp.html#a98c043df78519ccb9ff49d98f2abc32f" target="_top" xlink:title=" ">
<polygon fill="white" stroke="black" points="108,-679 108,-698 181,-698 181,-679 108,-679"/>
<text text-anchor="middle" x="144.5" y="-686" font-family="Helvetica,sans-Serif" font-size="10.00">device_query</text>
</a>
</g>
</g>
<!-- Node1&#45;&gt;Node4 -->
<g id="edge3" class="edge"><title>Node1&#45;&gt;Node4</title>
<path fill="none" stroke="midnightblue" d="M20.7747,-431.024C24.3058,-472.128 40.1818,-633.859 74,-669.5 80.4494,-676.297 89.0749,-680.743 98.0509,-683.632"/>
<polygon fill="midnightblue" stroke="midnightblue" points="97.2817,-687.048 107.842,-686.193 99.0533,-680.276 97.2817,-687.048"/>
</g>
<!-- Node6 -->
<g id="node6" class="node"><title>Node6</title>
<g id="a_node6"><a xlink:href="namespacegpusat.html#a607a57fced4760564963f4c707f28449" target="_top" xlink:title=" ">
<polygon fill="white" stroke="black" points="99,-641 99,-660 190,-660 190,-641 99,-641"/>
<text text-anchor="middle" x="144.5" y="-648" font-family="Helvetica,sans-Serif" font-size="10.00">gpusat::getCount</text>
</a>
</g>
</g>
<!-- Node1&#45;&gt;Node6 -->
<g id="edge5" class="edge"><title>Node1&#45;&gt;Node6</title>
<path fill="none" stroke="midnightblue" d="M21.1794,-431.04C25.9472,-468.112 44.9425,-601.998 74,-631.5 78.4355,-636.003 83.8278,-639.469 89.6264,-642.131"/>
<polygon fill="midnightblue" stroke="midnightblue" points="88.4025,-645.41 98.9937,-645.688 90.887,-638.866 88.4025,-645.41"/>
</g>
<!-- Node7 -->
<g id="node7" class="node"><title>Node7</title>
<g id="a_node7"><a xlink:href="namespacegpusat.html#a9fab9fd5dc1462ce9508314fc13d3be2" target="_top" xlink:title=" ">
<polygon fill="white" stroke="black" points="101.5,-603 101.5,-622 187.5,-622 187.5,-603 101.5,-603"/>
<text text-anchor="middle" x="144.5" y="-610" font-family="Helvetica,sans-Serif" font-size="10.00">gpusat::getTime</text>
</a>
</g>
</g>
<!-- Node1&#45;&gt;Node7 -->
<g id="edge6" class="edge"><title>Node1&#45;&gt;Node7</title>
<path fill="none" stroke="midnightblue" d="M20.0103,-431.328C20.5953,-460.547 26.4394,-547.683 74,-593.5 79.0237,-598.34 85.1567,-601.972 91.6772,-604.694"/>
<polygon fill="midnightblue" stroke="midnightblue" points="90.829,-608.104 101.424,-608.065 93.1171,-601.489 90.829,-608.104"/>
</g>
<!-- Node8 -->
<g id="node8" class="node"><title>Node8</title>
<g id="a_node8"><a xlink:href="classgpusat_1_1_graphoutput.html#a75b647b135cd9dbdc2eaed399eaf0ba3" target="_top" xlink:title="If enabled: Add the closing bracket(s) to the output.">
<polygon fill="white" stroke="black" points="92,-553.5 92,-583.5 197,-583.5 197,-553.5 92,-553.5"/>
<text text-anchor="start" x="100" y="-571.5" font-family="Helvetica,sans-Serif" font-size="10.00">gpusat::Graphoutput</text>
<text text-anchor="middle" x="144.5" y="-560.5" font-family="Helvetica,sans-Serif" font-size="10.00">::graphEnd</text>
</a>
</g>
</g>
<!-- Node1&#45;&gt;Node8 -->
<g id="edge7" class="edge"><title>Node1&#45;&gt;Node8</title>
<path fill="none" stroke="midnightblue" d="M21.5096,-431.007C25.6325,-453.87 39.1928,-512.41 74,-544.5 76.7422,-547.028 79.7639,-549.292 82.9654,-551.319"/>
<polygon fill="midnightblue" stroke="midnightblue" points="81.3392,-554.418 91.7919,-556.149 84.6996,-548.278 81.3392,-554.418"/>
</g>
<!-- Node10 -->
<g id="node10" class="node"><title>Node10</title>
<g id="a_node10"><a xlink:href="classgpusat_1_1_graphoutput.html#a2cd530c2bd234cd6fca065b8d504fc36" target="_top" xlink:title="If enabled: Create new content with the start of a dot&#45;graph and .">
<polygon fill="white" stroke="black" points="92,-504.5 92,-534.5 197,-534.5 197,-504.5 92,-504.5"/>
<text text-anchor="start" x="100" y="-522.5" font-family="Helvetica,sans-Serif" font-size="10.00">gpusat::Graphoutput</text>
<text text-anchor="middle" x="144.5" y="-511.5" font-family="Helvetica,sans-Serif" font-size="10.00">::graphStart</text>
</a>
</g>
</g>
<!-- Node1&#45;&gt;Node10 -->
<g id="edge9" class="edge"><title>Node1&#45;&gt;Node10</title>
<path fill="none" stroke="midnightblue" d="M24.5682,-431.129C32.4836,-446.821 50.2101,-477.918 74,-495.5 76.8055,-497.573 79.804,-499.478 82.9223,-501.225"/>
<polygon fill="midnightblue" stroke="midnightblue" points="81.4572,-504.406 91.967,-505.745 84.5866,-498.144 81.4572,-504.406"/>
</g>
<!-- Node11 -->
<g id="node11" class="node"><title>Node11</title>
<g id="a_node11"><a xlink:href="classgpusat_1_1_graphoutput.html#aed89def93056ef06a7c0969bfa2fcf1b" target="_top" xlink:title="Output Cypher query to create the nodes from the SAT formula">
<polygon fill="white" stroke="black" points="92,-455.5 92,-485.5 197,-485.5 197,-455.5 92,-455.5"/>
<text text-anchor="start" x="100" y="-473.5" font-family="Helvetica,sans-Serif" font-size="10.00">gpusat::Graphoutput</text>
<text text-anchor="middle" x="144.5" y="-462.5" font-family="Helvetica,sans-Serif" font-size="10.00">::neo4jSat</text>
</a>
</g>
</g>
<!-- Node1&#45;&gt;Node11 -->
<g id="edge11" class="edge"><title>Node1&#45;&gt;Node11</title>
<path fill="none" stroke="midnightblue" d="M38.2923,-430.529C48.6562,-435.503 61.9263,-441.635 74,-446.5 78.4992,-448.313 83.1941,-450.116 87.9274,-451.873"/>
<polygon fill="midnightblue" stroke="midnightblue" points="87.0525,-455.279 97.6467,-455.403 89.4417,-448.7 87.0525,-455.279"/>
</g>
<!-- Node12 -->
<g id="node12" class="node"><title>Node12</title>
<g id="a_node12"><a xlink:href="classgpusat_1_1_graphoutput.html#ae371f11ef89ad4507bc5f656fe932da7" target="_top" xlink:title="Output Cypher query to create the tree decomposition.">
<polygon fill="white" stroke="black" points="92,-406.5 92,-436.5 197,-436.5 197,-406.5 92,-406.5"/>
<text text-anchor="start" x="100" y="-424.5" font-family="Helvetica,sans-Serif" font-size="10.00">gpusat::Graphoutput</text>
<text text-anchor="middle" x="144.5" y="-413.5" font-family="Helvetica,sans-Serif" font-size="10.00">::neo4jTD</text>
</a>
</g>
</g>
<!-- Node1&#45;&gt;Node12 -->
<g id="edge13" class="edge"><title>Node1&#45;&gt;Node12</title>
<path fill="none" stroke="midnightblue" d="M38.2229,-421.5C49.8364,-421.5 65.6292,-421.5 81.4485,-421.5"/>
<polygon fill="midnightblue" stroke="midnightblue" points="81.8042,-425 91.8042,-421.5 81.8041,-418 81.8042,-425"/>
</g>
<!-- Node13 -->
<g id="node13" class="node"><title>Node13</title>
<g id="a_node13"><a xlink:href="classgpusat_1_1_c_n_f_parser.html#a2373aa1870f6723404ed276c6cbf9d13" target="_top" xlink:title=" ">
<polygon fill="white" stroke="black" points="91.5,-357.5 91.5,-387.5 197.5,-387.5 197.5,-357.5 91.5,-357.5"/>
<text text-anchor="start" x="99.5" y="-375.5" font-family="Helvetica,sans-Serif" font-size="10.00">gpusat::CNFParser::</text>
<text text-anchor="middle" x="144.5" y="-364.5" font-family="Helvetica,sans-Serif" font-size="10.00">parseSatFormula</text>
</a>
</g>
</g>
<!-- Node1&#45;&gt;Node13 -->
<g id="edge15" class="edge"><title>Node1&#45;&gt;Node13</title>
<path fill="none" stroke="midnightblue" d="M38.3524,-412.944C48.7351,-408.205 62.004,-402.316 74,-397.5 79.3363,-395.358 84.9356,-393.199 90.5422,-391.095"/>
<polygon fill="midnightblue" stroke="midnightblue" points="91.7746,-394.371 99.9391,-387.619 89.3459,-387.806 91.7746,-394.371"/>
</g>
<!-- Node14 -->
<g id="node14" class="node"><title>Node14</title>
<g id="a_node14"><a xlink:href="classgpusat_1_1_t_d_parser.html#af5ee31072b0c9f1ddfdd032e93a7d8d4" target="_top" xlink:title=" ">
<polygon fill="white" stroke="black" points="74,-308.5 74,-338.5 215,-338.5 215,-308.5 74,-308.5"/>
<text text-anchor="start" x="82" y="-326.5" font-family="Helvetica,sans-Serif" font-size="10.00">gpusat::TDParser::parseTree</text>
<text text-anchor="middle" x="144.5" y="-315.5" font-family="Helvetica,sans-Serif" font-size="10.00">Decomp</text>
</a>
</g>
</g>
<!-- Node1&#45;&gt;Node14 -->
<g id="edge16" class="edge"><title>Node1&#45;&gt;Node14</title>
<path fill="none" stroke="midnightblue" d="M24.889,-411.533C33.0127,-395.951 50.7274,-365.813 74,-348.5 76.4917,-346.646 79.1339,-344.92 81.876,-343.313"/>
<polygon fill="midnightblue" stroke="midnightblue" points="83.6781,-346.32 90.9108,-338.578 80.4287,-340.12 83.6781,-346.32"/>
</g>
<!-- Node16 -->
<g id="node16" class="node"><title>Node16</title>
<g id="a_node16"><a xlink:href="classgpusat_1_1_preprocessor.html#a3f7a765eda39dc7b5b41a24972b77354" target="_top" xlink:title=" ">
<polygon fill="white" stroke="black" points="89.5,-259.5 89.5,-289.5 199.5,-289.5 199.5,-259.5 89.5,-259.5"/>
<text text-anchor="start" x="97.5" y="-277.5" font-family="Helvetica,sans-Serif" font-size="10.00">gpusat::Preprocessor</text>
<text text-anchor="middle" x="144.5" y="-266.5" font-family="Helvetica,sans-Serif" font-size="10.00">::preprocessDecomp</text>
</a>
</g>
</g>
<!-- Node1&#45;&gt;Node16 -->
<g id="edge18" class="edge"><title>Node1&#45;&gt;Node16</title>
<path fill="none" stroke="midnightblue" d="M21.6234,-411.761C25.9317,-388.91 39.7557,-331.382 74,-299.5 75.9708,-297.665 78.086,-295.963 80.3086,-294.384"/>
<polygon fill="midnightblue" stroke="midnightblue" points="82.6153,-297.077 89.3354,-288.887 78.9741,-291.099 82.6153,-297.077"/>
</g>
<!-- Node17 -->
<g id="node17" class="node"><title>Node17</title>
<g id="a_node17"><a xlink:href="classgpusat_1_1_preprocessor.html#a0eb30c75fad0b216ca501b86605c2c58" target="_top" xlink:title=" ">
<polygon fill="white" stroke="black" points="89.5,-210.5 89.5,-240.5 199.5,-240.5 199.5,-210.5 89.5,-210.5"/>
<text text-anchor="start" x="97.5" y="-228.5" font-family="Helvetica,sans-Serif" font-size="10.00">gpusat::Preprocessor</text>
<text text-anchor="middle" x="144.5" y="-217.5" font-family="Helvetica,sans-Serif" font-size="10.00">::preprocessFacts</text>
</a>
</g>
</g>
<!-- Node1&#45;&gt;Node17 -->
<g id="edge20" class="edge"><title>Node1&#45;&gt;Node17</title>
<path fill="none" stroke="midnightblue" d="M20.199,-411.896C21.3109,-383.315 28.4749,-297.856 74,-250.5 76.0412,-248.377 78.2755,-246.433 80.652,-244.654"/>
<polygon fill="midnightblue" stroke="midnightblue" points="82.6429,-247.536 89.2051,-239.218 78.888,-241.628 82.6429,-247.536"/>
</g>
<!-- Node19 -->
<g id="node19" class="node"><title>Node19</title>
<g id="a_node19"><a xlink:href="namespacegpusat.html#ad9dbd68f848e49cd275592926da7a27c" target="_top" xlink:title="print a tree decomposition">
<polygon fill="white" stroke="black" points="82.5,-172 82.5,-191 206.5,-191 206.5,-172 82.5,-172"/>
<text text-anchor="middle" x="144.5" y="-179" font-family="Helvetica,sans-Serif" font-size="10.00">gpusat::printtreedecType</text>
</a>
</g>
</g>
<!-- Node1&#45;&gt;Node19 -->
<g id="edge22" class="edge"><title>Node1&#45;&gt;Node19</title>
<path fill="none" stroke="midnightblue" d="M21.0453,-411.991C25.4333,-373.754 43.5618,-231.778 74,-200.5 75.4067,-199.054 76.912,-197.716 78.4978,-196.476"/>
<polygon fill="midnightblue" stroke="midnightblue" points="80.4499,-199.382 87.0145,-191.066 76.6968,-193.473 80.4499,-199.382"/>
</g>
<!-- Node20 -->
<g id="node20" class="node"><title>Node20</title>
<g id="a_node20"><a xlink:href="classgpusat_1_1_visualization.html#af628a778e4606cbd0c15b20b6e558816" target="_top" xlink:title=" ">
<polygon fill="white" stroke="black" points="91,-122.5 91,-152.5 198,-152.5 198,-122.5 91,-122.5"/>
<text text-anchor="start" x="99" y="-140.5" font-family="Helvetica,sans-Serif" font-size="10.00">gpusat::Visualization</text>
<text text-anchor="middle" x="144.5" y="-129.5" font-family="Helvetica,sans-Serif" font-size="10.00">::visuClauses</text>
</a>
</g>
</g>
<!-- Node1&#45;&gt;Node20 -->
<g id="edge23" class="edge"><title>Node1&#45;&gt;Node20</title>
<path fill="none" stroke="midnightblue" d="M20.7619,-411.91C24.2909,-369.749 40.3274,-201.241 74,-162.5 76.3856,-159.755 79.0955,-157.312 82.0287,-155.137"/>
<polygon fill="midnightblue" stroke="midnightblue" points="84.1525,-157.938 90.8019,-149.69 80.46,-151.991 84.1525,-157.938"/>
</g>
<!-- Node21 -->
<g id="node21" class="node"><title>Node21</title>
<g id="a_node21"><a xlink:href="classgpusat_1_1_visualization.html#ace2a5d3b44bed0ad4a40d827373a5339" target="_top" xlink:title=" ">
<polygon fill="white" stroke="black" points="91,-73.5 91,-103.5 198,-103.5 198,-73.5 91,-73.5"/>
<text text-anchor="start" x="99" y="-91.5" font-family="Helvetica,sans-Serif" font-size="10.00">gpusat::Visualization</text>
<text text-anchor="middle" x="144.5" y="-80.5" font-family="Helvetica,sans-Serif" font-size="10.00">::visuTreeDec</text>
</a>
</g>
</g>
<!-- Node1&#45;&gt;Node21 -->
<g id="edge24" class="edge"><title>Node1&#45;&gt;Node21</title>
<path fill="none" stroke="midnightblue" d="M20.4067,-411.694C22.5609,-364.3 34.0904,-159.342 74,-112.5 76.3478,-109.744 79.0282,-107.305 81.9389,-105.145"/>
<polygon fill="midnightblue" stroke="midnightblue" points="83.9876,-107.994 90.6663,-99.7691 80.3163,-102.034 83.9876,-107.994"/>
</g>
<!-- Node22 -->
<g id="node22" class="node"><title>Node22</title>
<g id="a_node22"><a xlink:href="classgpusat_1_1_visualization.html#a81123313bcffe5cd041d3d3897f7d5d1" target="_top" xlink:title=" ">
<polygon fill="white" stroke="black" points="91,-24.5 91,-54.5 198,-54.5 198,-24.5 91,-24.5"/>
<text text-anchor="start" x="99" y="-42.5" font-family="Helvetica,sans-Serif" font-size="10.00">gpusat::Visualization</text>
<text text-anchor="middle" x="144.5" y="-31.5" font-family="Helvetica,sans-Serif" font-size="10.00">::writeJsonFile</text>
</a>
</g>
</g>
<!-- Node1&#45;&gt;Node22 -->
<g id="edge25" class="edge"><title>Node1&#45;&gt;Node22</title>
<path fill="none" stroke="midnightblue" d="M20.1454,-411.905C21.1101,-360.577 28.0672,-118.702 74,-63.5 76.429,-60.5808 79.2321,-58.0159 82.2895,-55.7625"/>
<polygon fill="midnightblue" stroke="midnightblue" points="84.1924,-58.7014 90.8942,-50.4955 80.5379,-52.7311 84.1924,-58.7014"/>
</g>
<!-- Node5 -->
<g id="node5" class="node"><title>Node5</title>
<g id="a_node5"><a xlink:href="main_8cpp.html#af779df65b45927d9fb2e79db96f9864b" target="_top" xlink:title=" ">
<polygon fill="white" stroke="black" points="271.5,-679 271.5,-698 351.5,-698 351.5,-679 271.5,-679"/>
<text text-anchor="middle" x="311.5" y="-686" font-family="Helvetica,sans-Serif" font-size="10.00">PrintDeviceInfo</text>
</a>
</g>
</g>
<!-- Node4&#45;&gt;Node5 -->
<g id="edge4" class="edge"><title>Node4&#45;&gt;Node5</title>
<path fill="none" stroke="midnightblue" d="M181.303,-688.5C204.628,-688.5 235.378,-688.5 261.027,-688.5"/>
<polygon fill="midnightblue" stroke="midnightblue" points="261.306,-692 271.306,-688.5 261.306,-685 261.306,-692"/>
</g>
<!-- Node9 -->
<g id="node9" class="node"><title>Node9</title>
<g id="a_node9"><a xlink:href="classgpusat_1_1_graphoutput.html#a9337a44c758b7a403e4f7d854b8cd934" target="_top" xlink:title=" ">
<polygon fill="white" stroke="black" points="259,-479.5 259,-509.5 364,-509.5 364,-479.5 259,-479.5"/>
<text text-anchor="start" x="267" y="-497.5" font-family="Helvetica,sans-Serif" font-size="10.00">gpusat::Graphoutput</text>
<text text-anchor="middle" x="311.5" y="-486.5" font-family="Helvetica,sans-Serif" font-size="10.00">::isEnabled</text>
</a>
</g>
</g>
<!-- Node8&#45;&gt;Node9 -->
<g id="edge8" class="edge"><title>Node8&#45;&gt;Node9</title>
<path fill="none" stroke="midnightblue" d="M192.226,-553.444C199.91,-550.661 207.733,-547.636 215,-544.5 235.485,-535.659 257.602,-524.209 275.388,-514.497"/>
<polygon fill="midnightblue" stroke="midnightblue" points="277.199,-517.496 284.263,-509.6 273.817,-511.367 277.199,-517.496"/>
</g>
<!-- Node10&#45;&gt;Node9 -->
<g id="edge10" class="edge"><title>Node10&#45;&gt;Node9</title>
<path fill="none" stroke="midnightblue" d="M197.254,-511.658C213.534,-509.192 231.677,-506.443 248.587,-503.881"/>
<polygon fill="midnightblue" stroke="midnightblue" points="249.567,-507.272 258.929,-502.314 248.518,-500.351 249.567,-507.272"/>
</g>
<!-- Node11&#45;&gt;Node9 -->
<g id="edge12" class="edge"><title>Node11&#45;&gt;Node9</title>
<path fill="none" stroke="midnightblue" d="M197.254,-478.028C213.534,-480.396 231.677,-483.035 248.587,-485.495"/>
<polygon fill="midnightblue" stroke="midnightblue" points="248.53,-489.023 258.929,-486.999 249.537,-482.096 248.53,-489.023"/>
</g>
<!-- Node12&#45;&gt;Node9 -->
<g id="edge14" class="edge"><title>Node12&#45;&gt;Node9</title>
<path fill="none" stroke="midnightblue" d="M189.931,-436.58C198.328,-439.684 206.988,-443.06 215,-446.5 234.566,-454.9 255.78,-465.414 273.232,-474.459"/>
<polygon fill="midnightblue" stroke="midnightblue" points="272.024,-477.776 282.507,-479.31 275.268,-471.574 272.024,-477.776"/>
</g>
<!-- Node15 -->
<g id="node15" class="node"><title>Node15</title>
<g id="a_node15"><a xlink:href="namespacegpusat.html#a25859e1a162fb1712110b033239a3e06" target="_top" xlink:title=" ">
<polygon fill="white" stroke="black" points="251,-289 251,-308 372,-308 372,-289 251,-289"/>
<text text-anchor="middle" x="311.5" y="-296" font-family="Helvetica,sans-Serif" font-size="10.00">gpusat::compTreedType</text>
</a>
</g>
</g>
<!-- Node14&#45;&gt;Node15 -->
<g id="edge17" class="edge"><title>Node14&#45;&gt;Node15</title>
<path fill="none" stroke="midnightblue" d="M215.475,-312.898C223.842,-311.63 232.386,-310.335 240.75,-309.068"/>
<polygon fill="midnightblue" stroke="midnightblue" points="241.477,-312.498 250.84,-307.539 240.429,-305.577 241.477,-312.498"/>
</g>
<!-- Node16&#45;&gt;Node15 -->
<g id="edge19" class="edge"><title>Node16&#45;&gt;Node15</title>
<path fill="none" stroke="midnightblue" d="M199.527,-282.358C212.762,-284.284 227.112,-286.371 240.962,-288.385"/>
<polygon fill="midnightblue" stroke="midnightblue" points="240.535,-291.86 250.935,-289.836 241.543,-284.933 240.535,-291.86"/>
</g>
<!-- Node18 -->
<g id="node18" class="node"><title>Node18</title>
<g id="a_node18"><a xlink:href="namespacegpusat.html#a1f445c345dcaf73f1835ce81473ef646" target="_top" xlink:title=" ">
<polygon fill="white" stroke="black" points="263.5,-216 263.5,-235 359.5,-235 359.5,-216 263.5,-216"/>
<text text-anchor="middle" x="311.5" y="-223" font-family="Helvetica,sans-Serif" font-size="10.00">gpusat::compVars</text>
</a>
</g>
</g>
<!-- Node17&#45;&gt;Node18 -->
<g id="edge21" class="edge"><title>Node17&#45;&gt;Node18</title>
<path fill="none" stroke="midnightblue" d="M199.527,-225.5C216.733,-225.5 235.823,-225.5 253.249,-225.5"/>
<polygon fill="midnightblue" stroke="midnightblue" points="253.29,-229 263.29,-225.5 253.29,-222 253.29,-229"/>
</g>
<!-- Node23 -->
<g id="node23" class="node"><title>Node23</title>
<g id="a_node23"><a xlink:href="classgpusat_1_1_visualization.html#a9c947b84d850f20947ee459854c31251" target="_top" xlink:title=" ">
<polygon fill="white" stroke="black" points="258,-49.5 258,-79.5 365,-79.5 365,-49.5 258,-49.5"/>
<text text-anchor="start" x="266" y="-67.5" font-family="Helvetica,sans-Serif" font-size="10.00">gpusat::Visualization</text>
<text text-anchor="middle" x="311.5" y="-56.5" font-family="Helvetica,sans-Serif" font-size="10.00">::isEnabled</text>
</a>
</g>
</g>
<!-- Node22&#45;&gt;Node23 -->
<g id="edge26" class="edge"><title>Node22&#45;&gt;Node23</title>
<path fill="none" stroke="midnightblue" d="M198.161,-47.4789C213.938,-49.8693 231.397,-52.5147 247.755,-54.9932"/>
<polygon fill="midnightblue" stroke="midnightblue" points="247.362,-58.4735 257.774,-56.5112 248.411,-51.5525 247.362,-58.4735"/>
</g>
<!-- Node24 -->
<g id="node24" class="node"><title>Node24</title>
<g id="a_node24"><a xlink:href="classgpusat_1_1_visualization.html#a2a9d9571adc1b706bcdc2f1de26d2345" target="_top" xlink:title=" ">
<polygon fill="white" stroke="black" points="258,-0.5 258,-30.5 365,-30.5 365,-0.5 258,-0.5"/>
<text text-anchor="start" x="266" y="-18.5" font-family="Helvetica,sans-Serif" font-size="10.00">gpusat::Visualization</text>
<text text-anchor="middle" x="311.5" y="-7.5" font-family="Helvetica,sans-Serif" font-size="10.00">::writeJsonToStdout</text>
</a>
</g>
</g>
<!-- Node22&#45;&gt;Node24 -->
<g id="edge27" class="edge"><title>Node22&#45;&gt;Node24</title>
<path fill="none" stroke="midnightblue" d="M198.161,-31.8403C213.938,-29.5455 231.397,-27.0059 247.755,-24.6265"/>
<polygon fill="midnightblue" stroke="midnightblue" points="248.382,-28.0723 257.774,-23.1693 247.374,-21.1452 248.382,-28.0723"/>
</g>
</g>
</svg>
        <g id="navigator" transform="translate(0 0)" fill="#404254">
                <rect fill="#f2f5e9" fill-opacity="0.5" stroke="#606060" stroke-width=".5" x="0" y="0" width="60" height="60"/>
                <use id="zoomplus" xlink:href="#zoomPlus" x="17" y="9" onmousedown="handleZoom(evt,'in')"/>
                <use id="zoomminus" xlink:href="#zoomMin" x="42" y="9" onmousedown="handleZoom(evt,'out')"/>
                <use id="reset" xlink:href="#resetDef" x="30" y="36" onmousedown="handleReset()"/>
                <g id="arrowUp" xlink:href="#dirArrow" transform="translate(30 24)" onmousedown="handlePan(0,-1)">
                  <use xlink:href="#rim" fill="#404040">
                        <set attributeName="fill" to="#808080" begin="arrowUp.mouseover" end="arrowUp.mouseout"/>
                  </use>
                  <path fill="none" stroke="white" stroke-width="1.5" d="M0,-3.0v7 M-2.5,-0.5L0,-3.0L2.5,-0.5"/>
                </g>
                <g id="arrowRight" xlink:href="#dirArrow" transform="rotate(90) translate(36 -43)" onmousedown="handlePan(1,0)">
                  <use xlink:href="#rim" fill="#404040">
                        <set attributeName="fill" to="#808080" begin="arrowRight.mouseover" end="arrowRight.mouseout"/>
                  </use>
                  <path fill="none" stroke="white" stroke-width="1.5" d="M0,-3.0v7 M-2.5,-0.5L0,-3.0L2.5,-0.5"/>
                </g>
                <g id="arrowDown" xlink:href="#dirArrow" transform="rotate(180) translate(-30 -48)" onmousedown="handlePan(0,1)">
                  <use xlink:href="#rim" fill="#404040">
                        <set attributeName="fill" to="#808080" begin="arrowDown.mouseover" end="arrowDown.mouseout"/>
                  </use>
                  <path fill="none" stroke="white" stroke-width="1.5" d="M0,-3.0v7 M-2.5,-0.5L0,-3.0L2.5,-0.5"/>
                </g>
                <g id="arrowLeft" xlink:href="#dirArrow" transform="rotate(270) translate(-36 17)" onmousedown="handlePan(-1,0)">
                  <use xlink:href="#rim" fill="#404040">
                        <set attributeName="fill" to="#808080" begin="arrowLeft.mouseover" end="arrowLeft.mouseout"/>
                  </use>
                  <path fill="none" stroke="white" stroke-width="1.5" d="M0,-3.0v7 M-2.5,-0.5L0,-3.0L2.5,-0.5"/>
                </g>
        </g>
        <svg viewBox="0 0 15 15" width="100%" height="30px" preserveAspectRatio="xMaxYMin meet">
         <g id="arrow_out" transform="scale(0.3 0.3)">
          <a xlink:href="main_8cpp_a0ddf1224851353fc92bfbff6f499fa97_cgraph_org.svg" target="_base">
           <rect id="button" ry="5" rx="5" y="6" x="6" height="38" width="38"
                fill="#f2f5e9" fill-opacity="0.5" stroke="#606060" stroke-width="1.0"/>
           <path id="arrow"
             d="M 11.500037,31.436501 C 11.940474,20.09759 22.043105,11.32322 32.158766,21.979434 L 37.068811,17.246167 C 37.068811,17.246167 37.088388,32 37.088388,32 L 22.160133,31.978069 C 22.160133,31.978069 26.997745,27.140456 26.997745,27.140456 C 18.528582,18.264221 13.291696,25.230495 11.500037,31.436501 z"
             style="fill:#404040;"/>
          </a>
         </g>
        </svg>
</svg>
