<?xml version="1.0" encoding="UTF-8" standalone="no"?>
<!DOCTYPE svg PUBLIC "-//W3C//DTD SVG 1.1//EN"
 "http://www.w3.org/Graphics/SVG/1.1/DTD/svg11.dtd">
<!-- Generated by graphviz version 2.38.0 (20140413.2041)
 -->
<!-- Title: gpusat::solJson Pages: 1 -->
<svg width="231pt" height="78pt"
 viewBox="0.00 0.00 231.00 77.50" xmlns="http://www.w3.org/2000/svg" xmlns:xlink="http://www.w3.org/1999/xlink">
<g id="graph0" class="graph" transform="scale(1 1) rotate(0) translate(4 73.5)">
<title>gpusat::solJson</title>
<polygon fill="white" stroke="none" points="-4,4 -4,-73.5 227,-73.5 227,4 -4,4"/>
<!-- Node1 -->
<g id="node1" class="node"><title>Node1</title>
<g id="a_node1"><a xlink:title=" ">
<polygon fill="#bfbfbf" stroke="black" points="0,-22.5 0,-41.5 85,-41.5 85,-22.5 0,-22.5"/>
<text text-anchor="middle" x="42.5" y="-29.5" font-family="Helvetica,sans-Serif" font-size="10.00">gpusat::solJson</text>
</a>
</g>
</g>
<!-- Node2 -->
<g id="node2" class="node"><title>Node2</title>
<g id="a_node2"><a xlink:href="classgpusat_1_1_bag_matrix.html#ac3ca0894fea2e196b1f80da4906920c3" target="_top" xlink:title=" ">
<polygon fill="white" stroke="black" points="121,-39 121,-69 223,-69 223,-39 121,-39"/>
<text text-anchor="start" x="129" y="-57" font-family="Helvetica,sans-Serif" font-size="10.00">gpusat::BagMatrix::</text>
<text text-anchor="middle" x="172" y="-46" font-family="Helvetica,sans-Serif" font-size="10.00">columns</text>
</a>
</g>
</g>
<!-- Node1&#45;&gt;Node2 -->
<g id="edge1" class="edge"><title>Node1&#45;&gt;Node2</title>
<path fill="none" stroke="midnightblue" d="M85.2483,-39.2036C93.3914,-40.6087 102.081,-42.108 110.686,-43.5929"/>
<polygon fill="midnightblue" stroke="midnightblue" points="110.262,-47.0714 120.712,-45.3228 111.452,-40.1733 110.262,-47.0714"/>
</g>
<!-- Node3 -->
<g id="node3" class="node"><title>Node3</title>
<g id="a_node3"><a xlink:href="namespacegpusat.html#a607a57fced4760564963f4c707f28449" target="_top" xlink:title=" ">
<polygon fill="white" stroke="black" points="126.5,-0.5 126.5,-19.5 217.5,-19.5 217.5,-0.5 126.5,-0.5"/>
<text text-anchor="middle" x="172" y="-7.5" font-family="Helvetica,sans-Serif" font-size="10.00">gpusat::getCount</text>
</a>
</g>
</g>
<!-- Node1&#45;&gt;Node3 -->
<g id="edge2" class="edge"><title>Node1&#45;&gt;Node3</title>
<path fill="none" stroke="midnightblue" d="M85.2483,-24.7964C95.0527,-23.1046 105.649,-21.2763 115.937,-19.5011"/>
<polygon fill="midnightblue" stroke="midnightblue" points="116.823,-22.9001 126.082,-17.7506 115.632,-16.002 116.823,-22.9001"/>
</g>
</g>
</svg>
