<?xml version="1.0" encoding="UTF-8" standalone="no"?>
<!DOCTYPE svg PUBLIC "-//W3C//DTD SVG 1.1//EN"
 "http://www.w3.org/Graphics/SVG/1.1/DTD/svg11.dtd">
<!-- Generated by graphviz version 2.38.0 (20140413.2041)
 -->
<!-- Title: gpusat::compTreedType Pages: 1 -->
<svg width="380pt" height="88pt"
 viewBox="0.00 0.00 380.00 88.00" xmlns="http://www.w3.org/2000/svg" xmlns:xlink="http://www.w3.org/1999/xlink">
<g id="graph0" class="graph" transform="scale(1 1) rotate(0) translate(4 84)">
<title>gpusat::compTreedType</title>
<polygon fill="white" stroke="none" points="-4,4 -4,-84 376,-84 376,4 -4,4"/>
<!-- Node1 -->
<g id="node1" class="node"><title>Node1</title>
<g id="a_node1"><a xlink:title=" ">
<polygon fill="#bfbfbf" stroke="black" points="251,-30 251,-49 372,-49 372,-30 251,-30"/>
<text text-anchor="middle" x="311.5" y="-37" font-family="Helvetica,sans-Serif" font-size="10.00">gpusat::compTreedType</text>
</a>
</g>
</g>
<!-- Node2 -->
<g id="node2" class="node"><title>Node2</title>
<g id="a_node2"><a xlink:href="classgpusat_1_1_t_d_parser.html#af5ee31072b0c9f1ddfdd032e93a7d8d4" target="_top" xlink:title=" ">
<polygon fill="white" stroke="black" points="74,-49.5 74,-79.5 215,-79.5 215,-49.5 74,-49.5"/>
<text text-anchor="start" x="82" y="-67.5" font-family="Helvetica,sans-Serif" font-size="10.00">gpusat::TDParser::parseTree</text>
<text text-anchor="middle" x="144.5" y="-56.5" font-family="Helvetica,sans-Serif" font-size="10.00">Decomp</text>
</a>
</g>
</g>
<!-- Node1&#45;&gt;Node2 -->
<g id="edge1" class="edge"><title>Node1&#45;&gt;Node2</title>
<path fill="none" stroke="midnightblue" d="M240.984,-50.0328C232.415,-51.331 223.656,-52.6582 215.086,-53.9566"/>
<polygon fill="midnightblue" stroke="midnightblue" points="241.568,-53.4842 250.931,-48.5256 240.52,-46.5632 241.568,-53.4842"/>
</g>
<!-- Node4 -->
<g id="node4" class="node"><title>Node4</title>
<g id="a_node4"><a xlink:href="classgpusat_1_1_preprocessor.html#a3f7a765eda39dc7b5b41a24972b77354" target="_top" xlink:title=" ">
<polygon fill="white" stroke="black" points="89.5,-0.5 89.5,-30.5 199.5,-30.5 199.5,-0.5 89.5,-0.5"/>
<text text-anchor="start" x="97.5" y="-18.5" font-family="Helvetica,sans-Serif" font-size="10.00">gpusat::Preprocessor</text>
<text text-anchor="middle" x="144.5" y="-7.5" font-family="Helvetica,sans-Serif" font-size="10.00">::preprocessDecomp</text>
</a>
</g>
</g>
<!-- Node1&#45;&gt;Node4 -->
<g id="edge3" class="edge"><title>Node1&#45;&gt;Node4</title>
<path fill="none" stroke="midnightblue" d="M241.008,-29.3921C227.229,-27.3878 212.953,-25.3113 199.77,-23.3938"/>
<polygon fill="midnightblue" stroke="midnightblue" points="240.532,-32.8595 250.931,-30.8354 241.539,-25.9324 240.532,-32.8595"/>
</g>
<!-- Node3 -->
<g id="node3" class="node"><title>Node3</title>
<g id="a_node3"><a xlink:href="main_8cpp.html#a0ddf1224851353fc92bfbff6f499fa97" target="_top" xlink:title=" ">
<polygon fill="white" stroke="black" points="0,-30 0,-49 38,-49 38,-30 0,-30"/>
<text text-anchor="middle" x="19" y="-37" font-family="Helvetica,sans-Serif" font-size="10.00">main</text>
</a>
</g>
</g>
<!-- Node2&#45;&gt;Node3 -->
<g id="edge2" class="edge"><title>Node2&#45;&gt;Node3</title>
<path fill="none" stroke="midnightblue" d="M63.7922,-48.3648C54.3526,-46.454 45.5262,-44.6672 38.3059,-43.2057"/>
<polygon fill="midnightblue" stroke="midnightblue" points="63.314,-51.8389 73.8096,-50.3926 64.7029,-44.9781 63.314,-51.8389"/>
</g>
<!-- Node4&#45;&gt;Node3 -->
<g id="edge4" class="edge"><title>Node4&#45;&gt;Node3</title>
<path fill="none" stroke="midnightblue" d="M79.3594,-27.9646C64.1684,-30.9167 49.1707,-33.8312 38.0509,-35.9921"/>
<polygon fill="midnightblue" stroke="midnightblue" points="80.1824,-31.3702 89.3311,-26.0267 78.847,-24.4987 80.1824,-31.3702"/>
</g>
</g>
</svg>
