<?xml version="1.0" encoding="UTF-8" standalone="no"?>
<!DOCTYPE svg PUBLIC "-//W3C//DTD SVG 1.1//EN"
 "http://www.w3.org/Graphics/SVG/1.1/DTD/svg11.dtd">
<!-- Generated by graphviz version 2.38.0 (20140413.2041)
 -->
<!-- Title: src/solver.cpp Pages: 1 -->
<svg width="938pt" height="252pt"
 viewBox="0.00 0.00 937.50 252.00" xmlns="http://www.w3.org/2000/svg" xmlns:xlink="http://www.w3.org/1999/xlink">
<g id="graph0" class="graph" transform="scale(1 1) rotate(0) translate(4 248)">
<title>src/solver.cpp</title>
<polygon fill="white" stroke="none" points="-4,4 -4,-248 933.5,-248 933.5,4 -4,4"/>
<!-- Node1 -->
<g id="node1" class="node"><title>Node1</title>
<g id="a_node1"><a xlink:title=" ">
<polygon fill="#bfbfbf" stroke="black" points="276.5,-224.5 276.5,-243.5 353.5,-243.5 353.5,-224.5 276.5,-224.5"/>
<text text-anchor="middle" x="315" y="-231.5" font-family="Helvetica,sans-Serif" font-size="10.00">src/solver.cpp</text>
</a>
</g>
</g>
<!-- Node2 -->
<g id="node2" class="node"><title>Node2</title>
<g id="a_node2"><a xlink:title=" ">
<polygon fill="white" stroke="#bfbfbf" points="0,-168.5 0,-187.5 56,-187.5 56,-168.5 0,-168.5"/>
<text text-anchor="middle" x="28" y="-175.5" font-family="Helvetica,sans-Serif" font-size="10.00">algorithm</text>
</a>
</g>
</g>
<!-- Node1&#45;&gt;Node2 -->
<g id="edge1" class="edge"><title>Node1&#45;&gt;Node2</title>
<path fill="none" stroke="midnightblue" d="M276.318,-226.258C227.976,-217.749 142.742,-202.471 70,-188 68.7658,-187.754 67.5118,-187.502 66.246,-187.245"/>
<polygon fill="midnightblue" stroke="midnightblue" points="66.9453,-183.816 56.443,-185.213 65.5246,-190.67 66.9453,-183.816"/>
</g>
<!-- Node3 -->
<g id="node3" class="node"><title>Node3</title>
<g id="a_node3"><a xlink:title=" ">
<polygon fill="white" stroke="#bfbfbf" points="122,-0.5 122,-19.5 166,-19.5 166,-0.5 122,-0.5"/>
<text text-anchor="middle" x="144" y="-7.5" font-family="Helvetica,sans-Serif" font-size="10.00">cmath</text>
</a>
</g>
</g>
<!-- Node1&#45;&gt;Node3 -->
<g id="edge2" class="edge"><title>Node1&#45;&gt;Node3</title>
<path fill="none" stroke="midnightblue" d="M291.999,-224.47C245.694,-205.861 142.303,-156.706 103,-76 94.2759,-58.0858 109.684,-38.9518 124.037,-26.1179"/>
<polygon fill="midnightblue" stroke="midnightblue" points="126.31,-28.7798 131.743,-19.6838 121.823,-23.4067 126.31,-28.7798"/>
</g>
<!-- Node4 -->
<g id="node4" class="node"><title>Node4</title>
<g id="a_node4"><a xlink:title=" ">
<polygon fill="white" stroke="#bfbfbf" points="501.5,-168.5 501.5,-187.5 548.5,-187.5 548.5,-168.5 501.5,-168.5"/>
<text text-anchor="middle" x="525" y="-175.5" font-family="Helvetica,sans-Serif" font-size="10.00">errno.h</text>
</a>
</g>
</g>
<!-- Node1&#45;&gt;Node4 -->
<g id="edge3" class="edge"><title>Node1&#45;&gt;Node4</title>
<path fill="none" stroke="midnightblue" d="M348.275,-224.444C387.45,-214.37 452.141,-197.735 491.44,-187.63"/>
<polygon fill="midnightblue" stroke="midnightblue" points="492.517,-190.967 501.33,-185.086 490.774,-184.187 492.517,-190.967"/>
</g>
<!-- Node5 -->
<g id="node5" class="node"><title>Node5</title>
<g id="a_node5"><a xlink:href="gpusatutils_8h.html" target="_top" xlink:title=" ">
<polygon fill="white" stroke="black" points="241,-112.5 241,-131.5 313,-131.5 313,-112.5 241,-112.5"/>
<text text-anchor="middle" x="277" y="-119.5" font-family="Helvetica,sans-Serif" font-size="10.00">gpusatutils.h</text>
</a>
</g>
</g>
<!-- Node1&#45;&gt;Node5 -->
<g id="edge4" class="edge"><title>Node1&#45;&gt;Node5</title>
<path fill="none" stroke="midnightblue" d="M312.018,-224.368C305.858,-206.537 291.611,-165.295 283.312,-141.272"/>
<polygon fill="midnightblue" stroke="midnightblue" points="286.541,-139.9 279.968,-131.591 279.925,-142.186 286.541,-139.9"/>
</g>
<!-- Node8 -->
<g id="node8" class="node"><title>Node8</title>
<g id="a_node8"><a xlink:title=" ">
<polygon fill="white" stroke="#bfbfbf" points="322,-56.5 322,-75.5 376,-75.5 376,-56.5 322,-56.5"/>
<text text-anchor="middle" x="349" y="-63.5" font-family="Helvetica,sans-Serif" font-size="10.00">iostream</text>
</a>
</g>
</g>
<!-- Node1&#45;&gt;Node8 -->
<g id="edge16" class="edge"><title>Node1&#45;&gt;Node8</title>
<path fill="none" stroke="midnightblue" d="M316.828,-224.075C322.18,-197.945 337.897,-121.211 345.195,-85.577"/>
<polygon fill="midnightblue" stroke="midnightblue" points="348.667,-86.067 347.245,-75.5681 341.81,-84.6624 348.667,-86.067"/>
</g>
<!-- Node9 -->
<g id="node9" class="node"><title>Node9</title>
<g id="a_node9"><a xlink:title=" ">
<polygon fill="white" stroke="#bfbfbf" points="112,-56.5 112,-75.5 164,-75.5 164,-56.5 112,-56.5"/>
<text text-anchor="middle" x="138" y="-63.5" font-family="Helvetica,sans-Serif" font-size="10.00">sstream</text>
</a>
</g>
</g>
<!-- Node1&#45;&gt;Node9 -->
<g id="edge33" class="edge"><title>Node1&#45;&gt;Node9</title>
<path fill="none" stroke="midnightblue" d="M305.484,-224.075C276.778,-197.153 190.795,-116.514 154.477,-82.4534"/>
<polygon fill="midnightblue" stroke="midnightblue" points="156.824,-79.856 147.136,-75.5681 152.036,-84.9619 156.824,-79.856"/>
</g>
<!-- Node14 -->
<g id="node14" class="node"><title>Node14</title>
<g id="a_node14"><a xlink:href="solver_8h.html" target="_top" xlink:title=" ">
<polygon fill="white" stroke="black" points="395,-168.5 395,-187.5 445,-187.5 445,-168.5 395,-168.5"/>
<text text-anchor="middle" x="420" y="-175.5" font-family="Helvetica,sans-Serif" font-size="10.00">solver.h</text>
</a>
</g>
</g>
<!-- Node1&#45;&gt;Node14 -->
<g id="edge17" class="edge"><title>Node1&#45;&gt;Node14</title>
<path fill="none" stroke="midnightblue" d="M331.87,-224.324C348.709,-215.664 374.807,-202.242 394.238,-192.249"/>
<polygon fill="midnightblue" stroke="midnightblue" points="395.88,-195.341 403.172,-187.655 392.678,-189.116 395.88,-195.341"/>
</g>
<!-- Node19 -->
<g id="node19" class="node"><title>Node19</title>
<g id="a_node19"><a xlink:href="visualization_8h.html" target="_top" xlink:title=" ">
<polygon fill="white" stroke="black" points="577.5,-112.5 577.5,-131.5 654.5,-131.5 654.5,-112.5 577.5,-112.5"/>
<text text-anchor="middle" x="616" y="-119.5" font-family="Helvetica,sans-Serif" font-size="10.00">visualization.h</text>
</a>
</g>
</g>
<!-- Node1&#45;&gt;Node19 -->
<g id="edge34" class="edge"><title>Node1&#45;&gt;Node19</title>
<path fill="none" stroke="midnightblue" d="M346.156,-224.473C374.671,-216.305 417.806,-203.025 454,-188 471.991,-180.532 475.153,-175.806 493,-168 521.747,-155.427 555.24,-143.334 580.011,-134.856"/>
<polygon fill="midnightblue" stroke="midnightblue" points="581.37,-138.091 589.717,-131.566 579.123,-131.462 581.37,-138.091"/>
</g>
<!-- Node6 -->
<g id="node6" class="node"><title>Node6</title>
<g id="a_node6"><a xlink:title=" ">
<polygon fill="white" stroke="#bfbfbf" points="196.5,-0.5 196.5,-19.5 283.5,-19.5 283.5,-0.5 196.5,-0.5"/>
<text text-anchor="middle" x="240" y="-7.5" font-family="Helvetica,sans-Serif" font-size="10.00">CL/cl_platform.h</text>
</a>
</g>
</g>
<!-- Node5&#45;&gt;Node6 -->
<g id="edge5" class="edge"><title>Node5&#45;&gt;Node6</title>
<path fill="none" stroke="midnightblue" d="M254.541,-112.382C239.231,-105.184 220.137,-93.2883 211,-76 202.474,-59.8686 213.431,-40.7217 224.233,-27.4045"/>
<polygon fill="midnightblue" stroke="midnightblue" points="227.131,-29.408 231.102,-19.5853 221.872,-24.788 227.131,-29.408"/>
</g>
<!-- Node7 -->
<g id="node7" class="node"><title>Node7</title>
<g id="a_node7"><a xlink:title=" ">
<polygon fill="white" stroke="#bfbfbf" points="220,-56.5 220,-75.5 266,-75.5 266,-56.5 220,-56.5"/>
<text text-anchor="middle" x="243" y="-63.5" font-family="Helvetica,sans-Serif" font-size="10.00">chrono</text>
</a>
</g>
</g>
<!-- Node5&#45;&gt;Node7 -->
<g id="edge6" class="edge"><title>Node5&#45;&gt;Node7</title>
<path fill="none" stroke="midnightblue" d="M271.386,-112.083C266.633,-104.534 259.682,-93.4948 253.848,-84.2298"/>
<polygon fill="midnightblue" stroke="midnightblue" points="256.8,-82.3486 248.51,-75.7511 250.876,-86.0783 256.8,-82.3486"/>
</g>
<!-- Node5&#45;&gt;Node8 -->
<g id="edge7" class="edge"><title>Node5&#45;&gt;Node8</title>
<path fill="none" stroke="midnightblue" d="M288.568,-112.324C299.42,-104.185 315.881,-91.8395 328.883,-82.0874"/>
<polygon fill="midnightblue" stroke="midnightblue" points="331.321,-84.6339 337.221,-75.8339 327.121,-79.0339 331.321,-84.6339"/>
</g>
<!-- Node5&#45;&gt;Node9 -->
<g id="edge8" class="edge"><title>Node5&#45;&gt;Node9</title>
<path fill="none" stroke="midnightblue" d="M254.975,-112.444C231.896,-103.478 195.438,-89.314 169.359,-79.1827"/>
<polygon fill="midnightblue" stroke="midnightblue" points="170.511,-75.8753 159.922,-75.5164 167.976,-82.4002 170.511,-75.8753"/>
</g>
<!-- Node10 -->
<g id="node10" class="node"><title>Node10</title>
<g id="a_node10"><a xlink:href="types_8h.html" target="_top" xlink:title=" ">
<polygon fill="white" stroke="black" points="394.5,-56.5 394.5,-75.5 443.5,-75.5 443.5,-56.5 394.5,-56.5"/>
<text text-anchor="middle" x="419" y="-63.5" font-family="Helvetica,sans-Serif" font-size="10.00">types.h</text>
</a>
</g>
</g>
<!-- Node5&#45;&gt;Node10 -->
<g id="edge9" class="edge"><title>Node5&#45;&gt;Node10</title>
<path fill="none" stroke="midnightblue" d="M299.5,-112.444C323.077,-103.478 360.322,-89.314 386.964,-79.1827"/>
<polygon fill="midnightblue" stroke="midnightblue" points="388.502,-82.3424 396.605,-75.5164 386.014,-75.7995 388.502,-82.3424"/>
</g>
<!-- Node13 -->
<g id="node13" class="node"><title>Node13</title>
<g id="a_node13"><a xlink:title=" ">
<polygon fill="white" stroke="#bfbfbf" points="398,-0.5 398,-19.5 440,-19.5 440,-0.5 398,-0.5"/>
<text text-anchor="middle" x="419" y="-7.5" font-family="Helvetica,sans-Serif" font-size="10.00">vector</text>
</a>
</g>
</g>
<!-- Node5&#45;&gt;Node13 -->
<g id="edge15" class="edge"><title>Node5&#45;&gt;Node13</title>
<path fill="none" stroke="midnightblue" d="M279.756,-112.237C284.482,-98.5149 295.364,-71.8859 313,-56 324.576,-45.5726 361.347,-31.1621 388.344,-21.4835"/>
<polygon fill="midnightblue" stroke="midnightblue" points="389.521,-24.7799 397.783,-18.148 387.188,-18.1799 389.521,-24.7799"/>
</g>
<!-- Node10&#45;&gt;Node3 -->
<g id="edge11" class="edge"><title>Node10&#45;&gt;Node3</title>
<path fill="none" stroke="midnightblue" d="M394.173,-58.1861C391.093,-57.4123 387.98,-56.6642 385,-56 297.7,-36.541 274.781,-37.1633 187,-20 183.526,-19.3208 179.899,-18.5921 176.288,-17.8542"/>
<polygon fill="midnightblue" stroke="midnightblue" points="176.797,-14.3854 166.295,-15.7835 175.377,-21.2398 176.797,-14.3854"/>
</g>
<!-- Node10&#45;&gt;Node6 -->
<g id="edge10" class="edge"><title>Node10&#45;&gt;Node6</title>
<path fill="none" stroke="midnightblue" d="M394.486,-57.6048C364.508,-48.561 313.424,-33.1503 278.258,-22.5414"/>
<polygon fill="midnightblue" stroke="midnightblue" points="278.929,-19.0883 268.345,-19.5509 276.907,-25.79 278.929,-19.0883"/>
</g>
<!-- Node11 -->
<g id="node11" class="node"><title>Node11</title>
<g id="a_node11"><a xlink:title=" ">
<polygon fill="white" stroke="#bfbfbf" points="350.5,-0.5 350.5,-19.5 379.5,-19.5 379.5,-0.5 350.5,-0.5"/>
<text text-anchor="middle" x="365" y="-7.5" font-family="Helvetica,sans-Serif" font-size="10.00">list</text>
</a>
</g>
</g>
<!-- Node10&#45;&gt;Node11 -->
<g id="edge12" class="edge"><title>Node10&#45;&gt;Node11</title>
<path fill="none" stroke="midnightblue" d="M410.083,-56.083C402.22,-48.2195 390.569,-36.5688 381.081,-27.0813"/>
<polygon fill="midnightblue" stroke="midnightblue" points="383.297,-24.3473 373.751,-19.7511 378.347,-29.2971 383.297,-24.3473"/>
</g>
<!-- Node12 -->
<g id="node12" class="node"><title>Node12</title>
<g id="a_node12"><a xlink:title=" ">
<polygon fill="white" stroke="#bfbfbf" points="458,-0.5 458,-19.5 488,-19.5 488,-0.5 458,-0.5"/>
<text text-anchor="middle" x="473" y="-7.5" font-family="Helvetica,sans-Serif" font-size="10.00">set</text>
</a>
</g>
</g>
<!-- Node10&#45;&gt;Node12 -->
<g id="edge13" class="edge"><title>Node10&#45;&gt;Node12</title>
<path fill="none" stroke="midnightblue" d="M427.917,-56.083C435.78,-48.2195 447.431,-36.5688 456.919,-27.0813"/>
<polygon fill="midnightblue" stroke="midnightblue" points="459.653,-29.2971 464.249,-19.7511 454.703,-24.3473 459.653,-29.2971"/>
</g>
<!-- Node10&#45;&gt;Node13 -->
<g id="edge14" class="edge"><title>Node10&#45;&gt;Node13</title>
<path fill="none" stroke="midnightblue" d="M419,-56.083C419,-49.0059 419,-38.8611 419,-29.9865"/>
<polygon fill="midnightblue" stroke="midnightblue" points="422.5,-29.751 419,-19.7511 415.5,-29.7511 422.5,-29.751"/>
</g>
<!-- Node14&#45;&gt;Node10 -->
<g id="edge23" class="edge"><title>Node14&#45;&gt;Node10</title>
<path fill="none" stroke="midnightblue" d="M414.362,-168.481C408.946,-159.745 401.136,-145.556 398,-132 394.208,-115.612 401.065,-97.429 407.935,-84.4717"/>
<polygon fill="midnightblue" stroke="midnightblue" points="411.033,-86.1059 413.014,-75.6979 404.975,-82.5987 411.033,-86.1059"/>
</g>
<!-- Node15 -->
<g id="node15" class="node"><title>Node15</title>
<g id="a_node15"><a xlink:title=" ">
<polygon fill="white" stroke="#bfbfbf" points="501,-112.5 501,-131.5 559,-131.5 559,-112.5 501,-112.5"/>
<text text-anchor="middle" x="530" y="-119.5" font-family="Helvetica,sans-Serif" font-size="10.00">CL/cl.hpp</text>
</a>
</g>
</g>
<!-- Node14&#45;&gt;Node15 -->
<g id="edge18" class="edge"><title>Node14&#45;&gt;Node15</title>
<path fill="none" stroke="midnightblue" d="M437.673,-168.324C455.394,-159.625 482.903,-146.12 503.288,-136.113"/>
<polygon fill="midnightblue" stroke="midnightblue" points="504.936,-139.203 512.37,-131.655 501.851,-132.919 504.936,-139.203"/>
</g>
<!-- Node16 -->
<g id="node16" class="node"><title>Node16</title>
<g id="a_node16"><a xlink:href="graphoutput_8h.html" target="_top" xlink:title=" ">
<polygon fill="white" stroke="black" points="407,-112.5 407,-131.5 483,-131.5 483,-112.5 407,-112.5"/>
<text text-anchor="middle" x="445" y="-119.5" font-family="Helvetica,sans-Serif" font-size="10.00">graphoutput.h</text>
</a>
</g>
</g>
<!-- Node14&#45;&gt;Node16 -->
<g id="edge19" class="edge"><title>Node14&#45;&gt;Node16</title>
<path fill="none" stroke="midnightblue" d="M424.128,-168.083C427.514,-160.77 432.416,-150.181 436.619,-141.103"/>
<polygon fill="midnightblue" stroke="midnightblue" points="439.923,-142.296 440.949,-131.751 433.571,-139.355 439.923,-142.296"/>
</g>
<!-- Node14&#45;&gt;Node19 -->
<g id="edge24" class="edge"><title>Node14&#45;&gt;Node19</title>
<path fill="none" stroke="midnightblue" d="M445.222,-170.051C478.131,-160.984 536.124,-145.007 575.294,-134.215"/>
<polygon fill="midnightblue" stroke="midnightblue" points="576.355,-137.553 585.067,-131.522 574.496,-130.804 576.355,-137.553"/>
</g>
<!-- Node16&#45;&gt;Node10 -->
<g id="edge22" class="edge"><title>Node16&#45;&gt;Node10</title>
<path fill="none" stroke="midnightblue" d="M440.707,-112.083C437.148,-104.691 431.978,-93.9533 427.576,-84.8111"/>
<polygon fill="midnightblue" stroke="midnightblue" points="430.705,-83.2427 423.213,-75.7511 424.398,-86.2795 430.705,-83.2427"/>
</g>
<!-- Node17 -->
<g id="node17" class="node"><title>Node17</title>
<g id="a_node17"><a xlink:title=" ">
<polygon fill="white" stroke="#bfbfbf" points="461.5,-56.5 461.5,-75.5 496.5,-75.5 496.5,-56.5 461.5,-56.5"/>
<text text-anchor="middle" x="479" y="-63.5" font-family="Helvetica,sans-Serif" font-size="10.00">map</text>
</a>
</g>
</g>
<!-- Node16&#45;&gt;Node17 -->
<g id="edge20" class="edge"><title>Node16&#45;&gt;Node17</title>
<path fill="none" stroke="midnightblue" d="M450.614,-112.083C455.367,-104.534 462.318,-93.4948 468.152,-84.2298"/>
<polygon fill="midnightblue" stroke="midnightblue" points="471.124,-86.0783 473.49,-75.7511 465.2,-82.3486 471.124,-86.0783"/>
</g>
<!-- Node18 -->
<g id="node18" class="node"><title>Node18</title>
<g id="a_node18"><a xlink:title=" ">
<polygon fill="white" stroke="#bfbfbf" points="514.5,-56.5 514.5,-75.5 555.5,-75.5 555.5,-56.5 514.5,-56.5"/>
<text text-anchor="middle" x="535" y="-63.5" font-family="Helvetica,sans-Serif" font-size="10.00">string</text>
</a>
</g>
</g>
<!-- Node16&#45;&gt;Node18 -->
<g id="edge21" class="edge"><title>Node16&#45;&gt;Node18</title>
<path fill="none" stroke="midnightblue" d="M459.46,-112.324C473.5,-103.9 495.048,-90.9709 511.543,-81.0741"/>
<polygon fill="midnightblue" stroke="midnightblue" points="513.802,-83.8007 520.576,-75.6545 510.2,-77.7983 513.802,-83.8007"/>
</g>
<!-- Node19&#45;&gt;Node8 -->
<g id="edge25" class="edge"><title>Node19&#45;&gt;Node8</title>
<path fill="none" stroke="midnightblue" d="M577.431,-113.742C525.44,-103.916 434.631,-86.6031 386.067,-76.1252"/>
<polygon fill="midnightblue" stroke="midnightblue" points="386.609,-72.6609 376.091,-73.9348 385.107,-79.498 386.609,-72.6609"/>
</g>
<!-- Node19&#45;&gt;Node10 -->
<g id="edge31" class="edge"><title>Node19&#45;&gt;Node10</title>
<path fill="none" stroke="midnightblue" d="M584.785,-112.444C548.984,-102.63 490.469,-86.5905 453.388,-76.4261"/>
<polygon fill="midnightblue" stroke="midnightblue" points="454.104,-72.9933 443.534,-73.7251 452.253,-79.7442 454.104,-72.9933"/>
</g>
<!-- Node19&#45;&gt;Node13 -->
<g id="edge32" class="edge"><title>Node19&#45;&gt;Node13</title>
<path fill="none" stroke="midnightblue" d="M654.734,-114.883C700.386,-106.096 766.746,-87.4032 739,-56 697.85,-9.4259 528.053,-31.2771 450.114,-19.6198"/>
<polygon fill="midnightblue" stroke="midnightblue" points="450.653,-16.1607 440.192,-17.8378 449.415,-23.0504 450.653,-16.1607"/>
</g>
<!-- Node19&#45;&gt;Node18 -->
<g id="edge30" class="edge"><title>Node19&#45;&gt;Node18</title>
<path fill="none" stroke="midnightblue" d="M602.986,-112.324C590.468,-103.979 571.318,-91.2122 556.529,-81.3524"/>
<polygon fill="midnightblue" stroke="midnightblue" points="558.244,-78.2894 547.982,-75.6545 554.361,-84.1137 558.244,-78.2894"/>
</g>
<!-- Node20 -->
<g id="node20" class="node"><title>Node20</title>
<g id="a_node20"><a xlink:title=" ">
<polygon fill="white" stroke="#bfbfbf" points="856.5,-56.5 856.5,-75.5 929.5,-75.5 929.5,-56.5 856.5,-56.5"/>
<text text-anchor="middle" x="893" y="-63.5" font-family="Helvetica,sans-Serif" font-size="10.00">json/reader.h</text>
</a>
</g>
</g>
<!-- Node19&#45;&gt;Node20 -->
<g id="edge26" class="edge"><title>Node19&#45;&gt;Node20</title>
<path fill="none" stroke="midnightblue" d="M654.83,-113.446C698.761,-104.897 772.727,-90.4965 846.421,-76.1119"/>
<polygon fill="midnightblue" stroke="midnightblue" points="847.198,-79.5262 856.342,-74.175 845.857,-72.6559 847.198,-79.5262"/>
</g>
<!-- Node21 -->
<g id="node21" class="node"><title>Node21</title>
<g id="a_node21"><a xlink:title=" ">
<polygon fill="white" stroke="#bfbfbf" points="574,-56.5 574,-75.5 642,-75.5 642,-56.5 574,-56.5"/>
<text text-anchor="middle" x="608" y="-63.5" font-family="Helvetica,sans-Serif" font-size="10.00">json/value.h</text>
</a>
</g>
</g>
<!-- Node19&#45;&gt;Node21 -->
<g id="edge27" class="edge"><title>Node19&#45;&gt;Node21</title>
<path fill="none" stroke="midnightblue" d="M614.679,-112.083C613.619,-104.927 612.094,-94.6353 610.769,-85.6911"/>
<polygon fill="midnightblue" stroke="midnightblue" points="614.224,-85.1302 609.296,-75.7511 607.3,-86.1561 614.224,-85.1302"/>
</g>
<!-- Node22 -->
<g id="node22" class="node"><title>Node22</title>
<g id="a_node22"><a xlink:title=" ">
<polygon fill="white" stroke="#bfbfbf" points="660.5,-56.5 660.5,-75.5 729.5,-75.5 729.5,-56.5 660.5,-56.5"/>
<text text-anchor="middle" x="695" y="-63.5" font-family="Helvetica,sans-Serif" font-size="10.00">json/writer.h</text>
</a>
</g>
</g>
<!-- Node19&#45;&gt;Node22 -->
<g id="edge28" class="edge"><title>Node19&#45;&gt;Node22</title>
<path fill="none" stroke="midnightblue" d="M628.693,-112.324C640.901,-103.979 659.578,-91.2122 674.003,-81.3524"/>
<polygon fill="midnightblue" stroke="midnightblue" points="676.058,-84.1871 682.339,-75.6545 672.108,-78.4082 676.058,-84.1871"/>
</g>
<!-- Node23 -->
<g id="node23" class="node"><title>Node23</title>
<g id="a_node23"><a xlink:title=" ">
<polygon fill="white" stroke="#bfbfbf" points="786,-56.5 786,-75.5 838,-75.5 838,-56.5 786,-56.5"/>
<text text-anchor="middle" x="812" y="-63.5" font-family="Helvetica,sans-Serif" font-size="10.00">memory</text>
</a>
</g>
</g>
<!-- Node19&#45;&gt;Node23 -->
<g id="edge29" class="edge"><title>Node19&#45;&gt;Node23</title>
<path fill="none" stroke="midnightblue" d="M647.057,-112.444C682.083,-102.793 738.965,-87.122 775.93,-76.9377"/>
<polygon fill="midnightblue" stroke="midnightblue" points="777.082,-80.2508 785.793,-74.2203 775.222,-73.5022 777.082,-80.2508"/>
</g>
</g>
</svg>
