<?xml version="1.0" encoding="UTF-8" standalone="no"?>
<!DOCTYPE svg PUBLIC "-//W3C//DTD SVG 1.1//EN"
 "http://www.w3.org/Graphics/SVG/1.1/DTD/svg11.dtd">
<!-- Generated by graphviz version 2.38.0 (20140413.2041)
 -->
<!-- Title: gpusat::treedecType Pages: 1 -->
<svg width="206pt" height="117pt"
 viewBox="0.00 0.00 205.50 117.00" xmlns="http://www.w3.org/2000/svg" xmlns:xlink="http://www.w3.org/1999/xlink">
<g id="graph0" class="graph" transform="scale(1 1) rotate(0) translate(4 113)">
<title>gpusat::treedecType</title>
<polygon fill="white" stroke="none" points="-4,4 -4,-113 201.5,-113 201.5,4 -4,4"/>
<!-- Node1 -->
<g id="node1" class="node"><title>Node1</title>
<g id="a_node1"><a xlink:title="type for saving a tree decomposition">
<polygon fill="#bfbfbf" stroke="black" points="25,-0.5 25,-19.5 130,-19.5 130,-0.5 25,-0.5"/>
<text text-anchor="middle" x="77.5" y="-7.5" font-family="Helvetica,sans-Serif" font-size="10.00">gpusat::treedecType</text>
</a>
</g>
</g>
<!-- Node2 -->
<g id="node2" class="node"><title>Node2</title>
<g id="a_node2"><a xlink:title=" ">
<polygon fill="white" stroke="#bfbfbf" points="0,-89.5 0,-108.5 47,-108.5 47,-89.5 0,-89.5"/>
<text text-anchor="middle" x="23.5" y="-96.5" font-family="Helvetica,sans-Serif" font-size="10.00">cl_long</text>
</a>
</g>
</g>
<!-- Node2&#45;&gt;Node1 -->
<g id="edge1" class="edge"><title>Node2&#45;&gt;Node1</title>
<path fill="none" stroke="#9a32cd" stroke-dasharray="5,2" d="M34.2132,-80.7399C45.6614,-62.2955 63.3469,-33.8022 72.1466,-19.6249"/>
<polygon fill="#9a32cd" stroke="#9a32cd" points="31.1751,-78.9978 28.8751,-89.34 37.1226,-82.6894 31.1751,-78.9978"/>
<text text-anchor="middle" x="80.5" y="-63" font-family="Helvetica,sans-Serif" font-size="10.00"> width</text>
<text text-anchor="middle" x="80.5" y="-52" font-family="Helvetica,sans-Serif" font-size="10.00">numb</text>
<text text-anchor="middle" x="80.5" y="-41" font-family="Helvetica,sans-Serif" font-size="10.00">numVars</text>
</g>
<!-- Node3 -->
<g id="node3" class="node"><title>Node3</title>
<g id="a_node3"><a xlink:title=" ">
<polygon fill="white" stroke="#bfbfbf" points="65.5,-89.5 65.5,-108.5 197.5,-108.5 197.5,-89.5 65.5,-89.5"/>
<text text-anchor="middle" x="131.5" y="-96.5" font-family="Helvetica,sans-Serif" font-size="10.00">vector&lt; gpusat::bagType &gt;</text>
</a>
</g>
</g>
<!-- Node3&#45;&gt;Node1 -->
<g id="edge2" class="edge"><title>Node3&#45;&gt;Node1</title>
<path fill="none" stroke="#9a32cd" stroke-dasharray="5,2" d="M125.253,-79.6891C120.567,-67.317 113.433,-50.9424 104.5,-38 99.8306,-31.2349 93.35,-24.6887 87.9083,-19.7367"/>
<polygon fill="#9a32cd" stroke="#9a32cd" points="122.047,-81.1185 128.724,-89.3444 128.634,-78.75 122.047,-81.1185"/>
<text text-anchor="middle" x="134" y="-52" font-family="Helvetica,sans-Serif" font-size="10.00"> bags</text>
</g>
</g>
</svg>
