<?xml version="1.0" encoding="UTF-8" standalone="no"?>
<!DOCTYPE svg PUBLIC "-//W3C//DTD SVG 1.1//EN"
 "http://www.w3.org/Graphics/SVG/1.1/DTD/svg11.dtd">
<!-- Generated by graphviz version 2.38.0 (20140413.2041)
 -->
<!-- Title: gpusat::bagType Pages: 1 -->
<svg width="443pt" height="241pt"
 viewBox="0.00 0.00 443.00 241.00" xmlns="http://www.w3.org/2000/svg" xmlns:xlink="http://www.w3.org/1999/xlink">
<g id="graph0" class="graph" transform="scale(1 1) rotate(0) translate(4 237)">
<title>gpusat::bagType</title>
<polygon fill="white" stroke="none" points="-4,4 -4,-237 439,-237 439,4 -4,4"/>
<!-- Node1 -->
<g id="node1" class="node"><title>Node1</title>
<g id="a_node1"><a xlink:title="type for a bag in the tree decomposition">
<polygon fill="#bfbfbf" stroke="black" points="117,-0.5 117,-19.5 206,-19.5 206,-0.5 117,-0.5"/>
<text text-anchor="middle" x="161.5" y="-7.5" font-family="Helvetica,sans-Serif" font-size="10.00">gpusat::bagType</text>
</a>
</g>
</g>
<!-- Node2 -->
<g id="node2" class="node"><title>Node2</title>
<g id="a_node2"><a xlink:title=" ">
<polygon fill="white" stroke="#bfbfbf" points="0,-85 0,-104 91,-104 91,-85 0,-85"/>
<text text-anchor="middle" x="45.5" y="-92" font-family="Helvetica,sans-Serif" font-size="10.00">vector&lt; cl_long &gt;</text>
</a>
</g>
</g>
<!-- Node2&#45;&gt;Node1 -->
<g id="edge1" class="edge"><title>Node2&#45;&gt;Node1</title>
<path fill="none" stroke="#9a32cd" stroke-dasharray="5,2" d="M50.2796,-75.0256C54.3166,-62.9016 61.2772,-47.574 72.5,-38 84.907,-27.4158 101.377,-20.9805 116.774,-17.0679"/>
<polygon fill="#9a32cd" stroke="#9a32cd" points="46.9188,-74.0488 47.451,-84.6302 53.6336,-76.0264 46.9188,-74.0488"/>
<text text-anchor="middle" x="93" y="-41" font-family="Helvetica,sans-Serif" font-size="10.00"> variables</text>
</g>
<!-- Node3 -->
<g id="node3" class="node"><title>Node3</title>
<g id="a_node3"><a xlink:href="structgpusat_1_1tree_type.html" target="_top" xlink:title="tree type for storing the models">
<polygon fill="white" stroke="black" points="189,-85 189,-104 278,-104 278,-85 189,-85"/>
<text text-anchor="middle" x="233.5" y="-92" font-family="Helvetica,sans-Serif" font-size="10.00">gpusat::treeType</text>
</a>
</g>
</g>
<!-- Node3&#45;&gt;Node1 -->
<g id="edge2" class="edge"><title>Node3&#45;&gt;Node1</title>
<path fill="none" stroke="#9a32cd" stroke-dasharray="5,2" d="M219.405,-77.3498C204.303,-60.0447 180.902,-33.2312 169.002,-19.5955"/>
<polygon fill="#9a32cd" stroke="#9a32cd" points="216.854,-79.7489 226.066,-84.9818 222.128,-75.1461 216.854,-79.7489"/>
<text text-anchor="middle" x="212" y="-41" font-family="Helvetica,sans-Serif" font-size="10.00"> solution</text>
</g>
<!-- Node4 -->
<g id="node4" class="node"><title>Node4</title>
<g id="a_node4"><a xlink:title=" ">
<polygon fill="white" stroke="#bfbfbf" points="138,-213.5 138,-232.5 185,-232.5 185,-213.5 138,-213.5"/>
<text text-anchor="middle" x="161.5" y="-220.5" font-family="Helvetica,sans-Serif" font-size="10.00">cl_long</text>
</a>
</g>
</g>
<!-- Node4&#45;&gt;Node1 -->
<g id="edge5" class="edge"><title>Node4&#45;&gt;Node1</title>
<path fill="none" stroke="#9a32cd" stroke-dasharray="5,2" d="M154.121,-203.541C143.451,-174.379 126.073,-115.933 136.5,-67 140.272,-49.2974 150.059,-30.4113 156.209,-19.7199"/>
<polygon fill="#9a32cd" stroke="#9a32cd" points="150.974,-205.11 157.811,-213.203 157.513,-202.613 150.974,-205.11"/>
<text text-anchor="middle" x="158" y="-114" font-family="Helvetica,sans-Serif" font-size="10.00"> exponent</text>
<text text-anchor="middle" x="158" y="-103" font-family="Helvetica,sans-Serif" font-size="10.00">correction</text>
<text text-anchor="middle" x="158" y="-92" font-family="Helvetica,sans-Serif" font-size="10.00">bags</text>
<text text-anchor="middle" x="158" y="-81" font-family="Helvetica,sans-Serif" font-size="10.00">id</text>
<text text-anchor="middle" x="158" y="-70" font-family="Helvetica,sans-Serif" font-size="10.00">maxSize</text>
</g>
<!-- Node4&#45;&gt;Node3 -->
<g id="edge3" class="edge"><title>Node4&#45;&gt;Node3</title>
<path fill="none" stroke="#9a32cd" stroke-dasharray="5,2" d="M171.516,-204.403C187.147,-176.94 216.767,-124.899 228.517,-104.256"/>
<polygon fill="#9a32cd" stroke="#9a32cd" points="168.354,-202.883 166.449,-213.305 174.437,-206.346 168.354,-202.883"/>
<text text-anchor="middle" x="238.5" y="-187" font-family="Helvetica,sans-Serif" font-size="10.00"> size</text>
<text text-anchor="middle" x="238.5" y="-176" font-family="Helvetica,sans-Serif" font-size="10.00">numSolutions</text>
<text text-anchor="middle" x="238.5" y="-165" font-family="Helvetica,sans-Serif" font-size="10.00">minId</text>
<text text-anchor="middle" x="238.5" y="-154" font-family="Helvetica,sans-Serif" font-size="10.00">maxId</text>
<text text-anchor="middle" x="238.5" y="-143" font-family="Helvetica,sans-Serif" font-size="10.00">elements</text>
</g>
<!-- Node5 -->
<g id="node5" class="node"><title>Node5</title>
<g id="a_node5"><a xlink:title=" ">
<polygon fill="white" stroke="#bfbfbf" points="296,-85 296,-104 435,-104 435,-85 296,-85"/>
<text text-anchor="middle" x="365.5" y="-92" font-family="Helvetica,sans-Serif" font-size="10.00">vector&lt; gpusat::bagType * &gt;</text>
</a>
</g>
</g>
<!-- Node5&#45;&gt;Node1 -->
<g id="edge4" class="edge"><title>Node5&#45;&gt;Node1</title>
<path fill="none" stroke="#9a32cd" stroke-dasharray="5,2" d="M336.672,-80.831C310.234,-69.3216 269.926,-52.047 234.5,-38 218.296,-31.5748 199.886,-24.7692 185.608,-19.5979"/>
<polygon fill="#9a32cd" stroke="#9a32cd" points="335.521,-84.1475 346.086,-84.941 338.321,-77.7322 335.521,-84.1475"/>
<text text-anchor="middle" x="275.5" y="-41" font-family="Helvetica,sans-Serif" font-size="10.00"> edges</text>
</g>
</g>
</svg>
