<?xml version="1.0" encoding="UTF-8" standalone="no"?>
<!DOCTYPE svg PUBLIC "-//W3C//DTD SVG 1.1//EN"
 "http://www.w3.org/Graphics/SVG/1.1/DTD/svg11.dtd">
<!-- Generated by graphviz version 2.38.0 (20140413.2041)
 -->
<!-- Title: include/types.h Pages: 1 -->
<!--zoomable 196 -->
<svg id="main" version="1.1" xmlns="http://www.w3.org/2000/svg" xmlns:xlink="http://www.w3.org/1999/xlink" xml:space="preserve" onload="init(evt)">
<style type="text/css"><![CDATA[
.edge:hover path { stroke: red; }
.edge:hover polygon { stroke: red; fill: red; }
]]></style>
<script type="text/javascript"><![CDATA[
var edges = document.getElementsByTagName('g');
if (edges && edges.length) {
  for (var i=0;i<edges.length;i++) {
    if (edges[i].id.substr(0,4)=='edge') {
      edges[i].setAttribute('class','edge');
    }
  }
}
]]></script>
        <defs>
                <circle id="rim" cx="0" cy="0" r="7"/>
                <circle id="rim2" cx="0" cy="0" r="3.5"/>
                <g id="zoomPlus">
                        <use xlink:href="#rim" fill="#404040">
                                <set attributeName="fill" to="#808080" begin="zoomplus.mouseover" end="zoomplus.mouseout"/>
                        </use>
                        <path d="M-4,0h8M0,-4v8" fill="none" stroke="white" stroke-width="1.5" pointer-events="none"/>
                </g>
                <g id="zoomMin">
                        <use xlink:href="#rim" fill="#404040">
                                <set attributeName="fill" to="#808080" begin="zoomminus.mouseover" end="zoomminus.mouseout"/>
                        </use>
                        <path d="M-4,0h8" fill="none" stroke="white" stroke-width="1.5" pointer-events="none"/>
                </g>
                <g id="dirArrow">
                        <path fill="none" stroke="white" stroke-width="1.5" d="M0,-3.0v7 M-2.5,-0.5L0,-3.0L2.5,-0.5"/>
                </g>
               <g id="resetDef">
                       <use xlink:href="#rim2" fill="#404040">
                               <set attributeName="fill" to="#808080" begin="reset.mouseover" end="reset.mouseout"/>
                       </use>
               </g>
        </defs>

<script type="text/javascript">
var viewWidth = 893;
var viewHeight = 196;
var sectionId = 'dynsection-1';
</script>
<script xlink:href="svgpan.js"/>
<svg id="graph" class="graph">
<g id="viewport">
<title>include/types.h</title>
<polygon fill="white" stroke="none" points="-4,4 -4,-192 888.511,-192 888.511,4 -4,4"/>
<!-- Node1 -->
<g id="node1" class="node"><title>Node1</title>
<g id="a_node1"><a xlink:title=" ">
<polygon fill="#bfbfbf" stroke="black" points="447.5,-168.5 447.5,-187.5 530.5,-187.5 530.5,-168.5 447.5,-168.5"/>
<text text-anchor="middle" x="489" y="-175.5" font-family="Helvetica,sans-Serif" font-size="10.00">include/types.h</text>
</a>
</g>
</g>
<!-- Node2 -->
<g id="node2" class="node"><title>Node2</title>
<g id="a_node2"><a xlink:href="graphoutput_8cpp.html" target="_top" xlink:title=" ">
<polygon fill="white" stroke="black" points="434.5,-56.5 434.5,-75.5 537.5,-75.5 537.5,-56.5 434.5,-56.5"/>
<text text-anchor="middle" x="486" y="-63.5" font-family="Helvetica,sans-Serif" font-size="10.00">src/graphoutput.cpp</text>
</a>
</g>
</g>
<!-- Node1&#45;&gt;Node2 -->
<g id="edge1" class="edge"><title>Node1&#45;&gt;Node2</title>
<path fill="none" stroke="midnightblue" d="M458.447,-163.559C445.671,-156.217 432.153,-145.774 425,-132 412.661,-108.24 444.856,-86.9089 467.03,-75.5746"/>
<polygon fill="midnightblue" stroke="midnightblue" points="457.042,-166.775 467.517,-168.36 460.317,-160.588 457.042,-166.775"/>
</g>
<!-- Node3 -->
<g id="node3" class="node"><title>Node3</title>
<g id="a_node3"><a xlink:href="main_8cpp.html" target="_top" xlink:title=" ">
<polygon fill="white" stroke="black" points="369.5,-0.5 369.5,-19.5 442.5,-19.5 442.5,-0.5 369.5,-0.5"/>
<text text-anchor="middle" x="406" y="-7.5" font-family="Helvetica,sans-Serif" font-size="10.00">src/main.cpp</text>
</a>
</g>
</g>
<!-- Node1&#45;&gt;Node3 -->
<g id="edge2" class="edge"><title>Node1&#45;&gt;Node3</title>
<path fill="none" stroke="midnightblue" d="M456.99,-163.88C443.111,-156.551 428.004,-146.027 419,-132 395.831,-95.907 401.232,-40.9705 404.462,-19.7704"/>
<polygon fill="midnightblue" stroke="midnightblue" points="455.792,-167.191 466.312,-168.447 458.872,-160.905 455.792,-167.191"/>
</g>
<!-- Node4 -->
<g id="node4" class="node"><title>Node4</title>
<g id="a_node4"><a xlink:href="visualization_8cpp.html" target="_top" xlink:title=" ">
<polygon fill="white" stroke="black" points="734,-56.5 734,-75.5 838,-75.5 838,-56.5 734,-56.5"/>
<text text-anchor="middle" x="786" y="-63.5" font-family="Helvetica,sans-Serif" font-size="10.00">src/visualization.cpp</text>
</a>
</g>
</g>
<!-- Node1&#45;&gt;Node4 -->
<g id="edge3" class="edge"><title>Node1&#45;&gt;Node4</title>
<path fill="none" stroke="midnightblue" d="M540.696,-171.444C583.249,-165.526 644.417,-153.88 694,-132 727.279,-117.314 760.766,-89.6558 776.59,-75.628"/>
<polygon fill="midnightblue" stroke="midnightblue" points="540.017,-168.003 530.566,-172.793 540.941,-174.942 540.017,-168.003"/>
</g>
<!-- Node5 -->
<g id="node5" class="node"><title>Node5</title>
<g id="a_node5"><a xlink:href="gpusatparser_8h.html" target="_top" xlink:title=" ">
<polygon fill="white" stroke="black" points="62.5,-112.5 62.5,-131.5 177.5,-131.5 177.5,-112.5 62.5,-112.5"/>
<text text-anchor="middle" x="120" y="-119.5" font-family="Helvetica,sans-Serif" font-size="10.00">include/gpusatparser.h</text>
</a>
</g>
</g>
<!-- Node1&#45;&gt;Node5 -->
<g id="edge4" class="edge"><title>Node1&#45;&gt;Node5</title>
<path fill="none" stroke="midnightblue" d="M437.289,-169.433C368.973,-159.435 248.997,-141.878 177.773,-131.455"/>
<polygon fill="midnightblue" stroke="midnightblue" points="436.987,-172.926 447.388,-170.91 438.001,-165.999 436.987,-172.926"/>
</g>
<!-- Node8 -->
<g id="node8" class="node"><title>Node8</title>
<g id="a_node8"><a xlink:href="gpusatpreprocessor_8h.html" target="_top" xlink:title=" ">
<polygon fill="white" stroke="black" points="196,-112.5 196,-131.5 340,-131.5 340,-112.5 196,-112.5"/>
<text text-anchor="middle" x="268" y="-119.5" font-family="Helvetica,sans-Serif" font-size="10.00">include/gpusatpreprocessor.h</text>
</a>
</g>
</g>
<!-- Node1&#45;&gt;Node8 -->
<g id="edge8" class="edge"><title>Node1&#45;&gt;Node8</title>
<path fill="none" stroke="midnightblue" d="M444.079,-166.024C402.332,-155.823 341.018,-140.841 302.854,-131.516"/>
<polygon fill="midnightblue" stroke="midnightblue" points="443.437,-169.47 453.982,-168.444 445.098,-162.67 443.437,-169.47"/>
</g>
<!-- Node9 -->
<g id="node9" class="node"><title>Node9</title>
<g id="a_node9"><a xlink:href="gpusatutils_8h.html" target="_top" xlink:title=" ">
<polygon fill="white" stroke="black" points="562,-112.5 562,-131.5 668,-131.5 668,-112.5 562,-112.5"/>
<text text-anchor="middle" x="615" y="-119.5" font-family="Helvetica,sans-Serif" font-size="10.00">include/gpusatutils.h</text>
</a>
</g>
</g>
<!-- Node1&#45;&gt;Node9 -->
<g id="edge11" class="edge"><title>Node1&#45;&gt;Node9</title>
<path fill="none" stroke="midnightblue" d="M518.16,-164.503C541.781,-154.38 574.428,-140.388 595.128,-131.516"/>
<polygon fill="midnightblue" stroke="midnightblue" points="516.778,-161.287 508.965,-168.444 519.535,-167.721 516.778,-161.287"/>
</g>
<!-- Node11 -->
<g id="node11" class="node"><title>Node11</title>
<g id="a_node11"><a xlink:href="graphoutput_8h.html" target="_top" xlink:title=" ">
<polygon fill="white" stroke="black" points="434,-112.5 434,-131.5 544,-131.5 544,-112.5 434,-112.5"/>
<text text-anchor="middle" x="489" y="-119.5" font-family="Helvetica,sans-Serif" font-size="10.00">include/graphoutput.h</text>
</a>
</g>
</g>
<!-- Node1&#45;&gt;Node11 -->
<g id="edge16" class="edge"><title>Node1&#45;&gt;Node11</title>
<path fill="none" stroke="midnightblue" d="M489,-157.805C489,-148.91 489,-138.78 489,-131.751"/>
<polygon fill="midnightblue" stroke="midnightblue" points="485.5,-158.083 489,-168.083 492.5,-158.083 485.5,-158.083"/>
</g>
<!-- Node12 -->
<g id="node12" class="node"><title>Node12</title>
<g id="a_node12"><a xlink:href="solver_8h.html" target="_top" xlink:title=" ">
<polygon fill="white" stroke="black" points="594.5,-56.5 594.5,-75.5 677.5,-75.5 677.5,-56.5 594.5,-56.5"/>
<text text-anchor="middle" x="636" y="-63.5" font-family="Helvetica,sans-Serif" font-size="10.00">include/solver.h</text>
</a>
</g>
</g>
<!-- Node1&#45;&gt;Node12 -->
<g id="edge22" class="edge"><title>Node1&#45;&gt;Node12</title>
<path fill="none" stroke="midnightblue" d="M540.62,-171.761C590.297,-165.528 660.276,-153.2 677,-132 691.957,-113.04 665.268,-88.3977 648.347,-75.5861"/>
<polygon fill="midnightblue" stroke="midnightblue" points="540.174,-168.29 530.666,-172.964 541.014,-175.239 540.174,-168.29"/>
</g>
<!-- Node13 -->
<g id="node13" class="node"><title>Node13</title>
<g id="a_node13"><a xlink:href="visualization_8h.html" target="_top" xlink:title=" ">
<polygon fill="white" stroke="black" points="762.5,-112.5 762.5,-131.5 873.5,-131.5 873.5,-112.5 762.5,-112.5"/>
<text text-anchor="middle" x="818" y="-119.5" font-family="Helvetica,sans-Serif" font-size="10.00">include/visualization.h</text>
</a>
</g>
</g>
<!-- Node1&#45;&gt;Node13 -->
<g id="edge23" class="edge"><title>Node1&#45;&gt;Node13</title>
<path fill="none" stroke="midnightblue" d="M540.554,-168.538C602.101,-158.436 704.433,-141.64 766.123,-131.515"/>
<polygon fill="midnightblue" stroke="midnightblue" points="539.969,-165.087 530.668,-170.161 541.103,-171.995 539.969,-165.087"/>
</g>
<!-- Node5&#45;&gt;Node3 -->
<g id="edge7" class="edge"><title>Node5&#45;&gt;Node3</title>
<path fill="none" stroke="midnightblue" d="M125.059,-102.501C130.133,-87.5695 139.467,-67.257 155,-56 188.696,-31.5795 308.267,-18.7578 369.412,-13.6693"/>
<polygon fill="midnightblue" stroke="midnightblue" points="121.666,-101.629 122.09,-112.216 128.36,-103.676 121.666,-101.629"/>
</g>
<!-- Node6 -->
<g id="node6" class="node"><title>Node6</title>
<g id="a_node6"><a xlink:href="gpusatparser_8cpp.html" target="_top" xlink:title=" ">
<polygon fill="white" stroke="black" points="0,-56.5 0,-75.5 108,-75.5 108,-56.5 0,-56.5"/>
<text text-anchor="middle" x="54" y="-63.5" font-family="Helvetica,sans-Serif" font-size="10.00">src/gpusatparser.cpp</text>
</a>
</g>
</g>
<!-- Node5&#45;&gt;Node6 -->
<g id="edge5" class="edge"><title>Node5&#45;&gt;Node6</title>
<path fill="none" stroke="midnightblue" d="M101.446,-105.82C89.6219,-96.1452 74.7144,-83.9481 64.797,-75.8339"/>
<polygon fill="midnightblue" stroke="midnightblue" points="99.44,-108.7 109.396,-112.324 103.873,-103.283 99.44,-108.7"/>
</g>
<!-- Node7 -->
<g id="node7" class="node"><title>Node7</title>
<g id="a_node7"><a xlink:href="gpusatpreprocessor_8cpp.html" target="_top" xlink:title=" ">
<polygon fill="white" stroke="black" points="164.5,-56.5 164.5,-75.5 301.5,-75.5 301.5,-56.5 164.5,-56.5"/>
<text text-anchor="middle" x="233" y="-63.5" font-family="Helvetica,sans-Serif" font-size="10.00">src/gpusatpreprocessor.cpp</text>
</a>
</g>
</g>
<!-- Node5&#45;&gt;Node7 -->
<g id="edge6" class="edge"><title>Node5&#45;&gt;Node7</title>
<path fill="none" stroke="midnightblue" d="M147.003,-108.096C168.114,-98.0073 196.862,-84.2697 215.179,-75.5164"/>
<polygon fill="midnightblue" stroke="midnightblue" points="145.419,-104.974 137.905,-112.444 148.437,-111.29 145.419,-104.974"/>
</g>
<!-- Node8&#45;&gt;Node3 -->
<g id="edge10" class="edge"><title>Node8&#45;&gt;Node3</title>
<path fill="none" stroke="midnightblue" d="M286.671,-106.118C315.963,-82.7688 371.789,-38.2699 395.222,-19.5914"/>
<polygon fill="midnightblue" stroke="midnightblue" points="284.467,-103.398 278.829,-112.368 288.83,-108.872 284.467,-103.398"/>
</g>
<!-- Node8&#45;&gt;Node7 -->
<g id="edge9" class="edge"><title>Node8&#45;&gt;Node7</title>
<path fill="none" stroke="midnightblue" d="M256.7,-103.566C250.678,-94.2747 243.531,-83.2484 238.672,-75.7511"/>
<polygon fill="midnightblue" stroke="midnightblue" points="253.844,-105.595 262.22,-112.083 259.719,-101.788 253.844,-105.595"/>
</g>
<!-- Node9&#45;&gt;Node2 -->
<g id="edge12" class="edge"><title>Node9&#45;&gt;Node2</title>
<path fill="none" stroke="midnightblue" d="M585.146,-108.503C560.962,-98.3795 527.538,-84.388 506.345,-75.5164"/>
<polygon fill="midnightblue" stroke="midnightblue" points="583.984,-111.811 594.56,-112.444 586.687,-105.354 583.984,-111.811"/>
</g>
<!-- Node9&#45;&gt;Node3 -->
<g id="edge13" class="edge"><title>Node9&#45;&gt;Node3</title>
<path fill="none" stroke="midnightblue" d="M601.214,-104.349C588.311,-89.7381 567.799,-68.8683 546,-56 513.572,-36.8567 472.036,-24.8342 442.652,-18.082"/>
<polygon fill="midnightblue" stroke="midnightblue" points="598.716,-106.811 607.884,-112.12 604.027,-102.252 598.716,-106.811"/>
</g>
<!-- Node9&#45;&gt;Node4 -->
<g id="edge15" class="edge"><title>Node9&#45;&gt;Node4</title>
<path fill="none" stroke="midnightblue" d="M652.036,-109.304C684.257,-99.1294 730.189,-84.6246 759.031,-75.5164"/>
<polygon fill="midnightblue" stroke="midnightblue" points="650.577,-106.095 642.095,-112.444 652.685,-112.77 650.577,-106.095"/>
</g>
<!-- Node10 -->
<g id="node10" class="node"><title>Node10</title>
<g id="a_node10"><a xlink:href="solver_8cpp.html" target="_top" xlink:title=" ">
<polygon fill="white" stroke="black" points="667.5,-0.5 667.5,-19.5 744.5,-19.5 744.5,-0.5 667.5,-0.5"/>
<text text-anchor="middle" x="706" y="-7.5" font-family="Helvetica,sans-Serif" font-size="10.00">src/solver.cpp</text>
</a>
</g>
</g>
<!-- Node9&#45;&gt;Node10 -->
<g id="edge14" class="edge"><title>Node9&#45;&gt;Node10</title>
<path fill="none" stroke="midnightblue" d="M645.202,-107.979C659.392,-100.486 675.465,-89.7957 686,-76 699.042,-58.922 703.649,-33.2737 705.222,-19.8728"/>
<polygon fill="midnightblue" stroke="midnightblue" points="643.622,-104.856 636.226,-112.441 646.738,-111.124 643.622,-104.856"/>
</g>
<!-- Node11&#45;&gt;Node2 -->
<g id="edge17" class="edge"><title>Node11&#45;&gt;Node2</title>
<path fill="none" stroke="midnightblue" d="M487.934,-101.805C487.439,-92.9102 486.877,-82.7798 486.486,-75.7511"/>
<polygon fill="midnightblue" stroke="midnightblue" points="484.455,-102.293 488.505,-112.083 491.444,-101.904 484.455,-102.293"/>
</g>
<!-- Node11&#45;&gt;Node3 -->
<g id="edge18" class="edge"><title>Node11&#45;&gt;Node3</title>
<path fill="none" stroke="midnightblue" d="M461.743,-107.442C448.92,-99.8086 434.415,-89.1544 425,-76 412.547,-58.5996 408.197,-33.0873 406.723,-19.7919"/>
<polygon fill="midnightblue" stroke="midnightblue" points="460.252,-110.619 470.686,-112.459 463.677,-104.514 460.252,-110.619"/>
</g>
<!-- Node11&#45;&gt;Node12 -->
<g id="edge19" class="edge"><title>Node11&#45;&gt;Node12</title>
<path fill="none" stroke="midnightblue" d="M521.923,-108.906C549.56,-98.7536 588.344,-84.5063 612.816,-75.5164"/>
<polygon fill="midnightblue" stroke="midnightblue" points="520.472,-105.71 512.293,-112.444 522.886,-112.281 520.472,-105.71"/>
</g>
<!-- Node12&#45;&gt;Node3 -->
<g id="edge20" class="edge"><title>Node12&#45;&gt;Node3</title>
<path fill="none" stroke="midnightblue" d="M589.799,-54.1529C546.342,-43.95 482.159,-28.8809 442.274,-19.5164"/>
<polygon fill="midnightblue" stroke="midnightblue" points="589.021,-57.5651 599.556,-56.4435 590.621,-50.7504 589.021,-57.5651"/>
</g>
<!-- Node12&#45;&gt;Node10 -->
<g id="edge21" class="edge"><title>Node12&#45;&gt;Node10</title>
<path fill="none" stroke="midnightblue" d="M655.314,-50.1008C667.912,-40.3824 683.928,-28.0269 694.549,-19.8339"/>
<polygon fill="midnightblue" stroke="midnightblue" points="653.027,-47.4446 647.247,-56.324 657.302,-52.9871 653.027,-47.4446"/>
</g>
<!-- Node13&#45;&gt;Node3 -->
<g id="edge24" class="edge"><title>Node13&#45;&gt;Node3</title>
<path fill="none" stroke="midnightblue" d="M834.263,-104.94C846.701,-90.7256 859.739,-70.1053 847,-56 820.08,-26.1934 543.831,-15.0755 442.773,-11.9869"/>
<polygon fill="midnightblue" stroke="midnightblue" points="831.49,-102.781 827.208,-112.472 836.599,-107.566 831.49,-102.781"/>
</g>
<!-- Node13&#45;&gt;Node4 -->
<g id="edge26" class="edge"><title>Node13&#45;&gt;Node4</title>
<path fill="none" stroke="midnightblue" d="M807.496,-103.275C802.027,-94.0454 795.582,-83.1703 791.186,-75.7511"/>
<polygon fill="midnightblue" stroke="midnightblue" points="804.607,-105.264 812.716,-112.083 810.629,-101.696 804.607,-105.264"/>
</g>
<!-- Node13&#45;&gt;Node10 -->
<g id="edge25" class="edge"><title>Node13&#45;&gt;Node10</title>
<path fill="none" stroke="midnightblue" d="M845.999,-107.694C868.759,-95.0544 894.853,-75.1827 880,-56 863.572,-34.7827 790.673,-21.7624 744.601,-15.5022"/>
<polygon fill="midnightblue" stroke="midnightblue" points="844.115,-104.73 836.897,-112.486 847.376,-110.924 844.115,-104.73"/>
</g>
<!-- Node13&#45;&gt;Node12 -->
<g id="edge27" class="edge"><title>Node13&#45;&gt;Node12</title>
<path fill="none" stroke="midnightblue" d="M779.469,-109.568C745.136,-99.381 695.667,-84.7034 664.704,-75.5164"/>
<polygon fill="midnightblue" stroke="midnightblue" points="778.579,-112.954 789.162,-112.444 780.57,-106.244 778.579,-112.954"/>
</g>
</g>
</svg>
        <g id="navigator" transform="translate(0 0)" fill="#404254">
                <rect fill="#f2f5e9" fill-opacity="0.5" stroke="#606060" stroke-width=".5" x="0" y="0" width="60" height="60"/>
                <use id="zoomplus" xlink:href="#zoomPlus" x="17" y="9" onmousedown="handleZoom(evt,'in')"/>
                <use id="zoomminus" xlink:href="#zoomMin" x="42" y="9" onmousedown="handleZoom(evt,'out')"/>
                <use id="reset" xlink:href="#resetDef" x="30" y="36" onmousedown="handleReset()"/>
                <g id="arrowUp" xlink:href="#dirArrow" transform="translate(30 24)" onmousedown="handlePan(0,-1)">
                  <use xlink:href="#rim" fill="#404040">
                        <set attributeName="fill" to="#808080" begin="arrowUp.mouseover" end="arrowUp.mouseout"/>
                  </use>
                  <path fill="none" stroke="white" stroke-width="1.5" d="M0,-3.0v7 M-2.5,-0.5L0,-3.0L2.5,-0.5"/>
                </g>
                <g id="arrowRight" xlink:href="#dirArrow" transform="rotate(90) translate(36 -43)" onmousedown="handlePan(1,0)">
                  <use xlink:href="#rim" fill="#404040">
                        <set attributeName="fill" to="#808080" begin="arrowRight.mouseover" end="arrowRight.mouseout"/>
                  </use>
                  <path fill="none" stroke="white" stroke-width="1.5" d="M0,-3.0v7 M-2.5,-0.5L0,-3.0L2.5,-0.5"/>
                </g>
                <g id="arrowDown" xlink:href="#dirArrow" transform="rotate(180) translate(-30 -48)" onmousedown="handlePan(0,1)">
                  <use xlink:href="#rim" fill="#404040">
                        <set attributeName="fill" to="#808080" begin="arrowDown.mouseover" end="arrowDown.mouseout"/>
                  </use>
                  <path fill="none" stroke="white" stroke-width="1.5" d="M0,-3.0v7 M-2.5,-0.5L0,-3.0L2.5,-0.5"/>
                </g>
                <g id="arrowLeft" xlink:href="#dirArrow" transform="rotate(270) translate(-36 17)" onmousedown="handlePan(-1,0)">
                  <use xlink:href="#rim" fill="#404040">
                        <set attributeName="fill" to="#808080" begin="arrowLeft.mouseover" end="arrowLeft.mouseout"/>
                  </use>
                  <path fill="none" stroke="white" stroke-width="1.5" d="M0,-3.0v7 M-2.5,-0.5L0,-3.0L2.5,-0.5"/>
                </g>
        </g>
        <svg viewBox="0 0 15 15" width="100%" height="30px" preserveAspectRatio="xMaxYMin meet">
         <g id="arrow_out" transform="scale(0.3 0.3)">
          <a xlink:href="types_8h__dep__incl_org.svg" target="_base">
           <rect id="button" ry="5" rx="5" y="6" x="6" height="38" width="38"
                fill="#f2f5e9" fill-opacity="0.5" stroke="#606060" stroke-width="1.0"/>
           <path id="arrow"
             d="M 11.500037,31.436501 C 11.940474,20.09759 22.043105,11.32322 32.158766,21.979434 L 37.068811,17.246167 C 37.068811,17.246167 37.088388,32 37.088388,32 L 22.160133,31.978069 C 22.160133,31.978069 26.997745,27.140456 26.997745,27.140456 C 18.528582,18.264221 13.291696,25.230495 11.500037,31.436501 z"
             style="fill:#404040;"/>
          </a>
         </g>
        </svg>
</svg>
