<?xml version="1.0" encoding="UTF-8" standalone="no"?>
<!DOCTYPE svg PUBLIC "-//W3C//DTD SVG 1.1//EN"
 "http://www.w3.org/Graphics/SVG/1.1/DTD/svg11.dtd">
<!-- Generated by graphviz version 2.38.0 (20140413.2041)
 -->
<!-- Title: include/visualization.h Pages: 1 -->
<svg width="260pt" height="140pt"
 viewBox="0.00 0.00 260.00 140.00" xmlns="http://www.w3.org/2000/svg" xmlns:xlink="http://www.w3.org/1999/xlink">
<g id="graph0" class="graph" transform="scale(1 1) rotate(0) translate(4 136)">
<title>include/visualization.h</title>
<polygon fill="white" stroke="none" points="-4,4 -4,-136 256,-136 256,4 -4,4"/>
<!-- Node1 -->
<g id="node1" class="node"><title>Node1</title>
<g id="a_node1"><a xlink:title=" ">
<polygon fill="#bfbfbf" stroke="black" points="72,-112.5 72,-131.5 183,-131.5 183,-112.5 72,-112.5"/>
<text text-anchor="middle" x="127.5" y="-119.5" font-family="Helvetica,sans-Serif" font-size="10.00">include/visualization.h</text>
</a>
</g>
</g>
<!-- Node2 -->
<g id="node2" class="node"><title>Node2</title>
<g id="a_node2"><a xlink:href="main_8cpp.html" target="_top" xlink:title=" ">
<polygon fill="white" stroke="black" points="0,-0.5 0,-19.5 73,-19.5 73,-0.5 0,-0.5"/>
<text text-anchor="middle" x="36.5" y="-7.5" font-family="Helvetica,sans-Serif" font-size="10.00">src/main.cpp</text>
</a>
</g>
</g>
<!-- Node1&#45;&gt;Node2 -->
<g id="edge1" class="edge"><title>Node1&#45;&gt;Node2</title>
<path fill="none" stroke="midnightblue" d="M67.2555,-109.254C49.1617,-102.608 31.2753,-92.221 20.5,-76 8.79656,-58.3817 21.8209,-32.9613 30.3284,-19.7373"/>
<polygon fill="midnightblue" stroke="midnightblue" points="66.3976,-112.657 76.9911,-112.487 68.6037,-106.014 66.3976,-112.657"/>
</g>
<!-- Node3 -->
<g id="node3" class="node"><title>Node3</title>
<g id="a_node3"><a xlink:href="solver_8cpp.html" target="_top" xlink:title=" ">
<polygon fill="white" stroke="black" points="175,-0.5 175,-19.5 252,-19.5 252,-0.5 175,-0.5"/>
<text text-anchor="middle" x="213.5" y="-7.5" font-family="Helvetica,sans-Serif" font-size="10.00">src/solver.cpp</text>
</a>
</g>
</g>
<!-- Node1&#45;&gt;Node3 -->
<g id="edge2" class="edge"><title>Node1&#45;&gt;Node3</title>
<path fill="none" stroke="midnightblue" d="M192.938,-110.646C212.812,-104.101 232.535,-93.421 244.5,-76 257.241,-57.4494 236.739,-32.8506 223.443,-19.88"/>
<polygon fill="midnightblue" stroke="midnightblue" points="191.792,-107.336 183.203,-113.539 193.786,-114.046 191.792,-107.336"/>
</g>
<!-- Node4 -->
<g id="node4" class="node"><title>Node4</title>
<g id="a_node4"><a xlink:href="visualization_8cpp.html" target="_top" xlink:title=" ">
<polygon fill="white" stroke="black" points="131.5,-56.5 131.5,-75.5 235.5,-75.5 235.5,-56.5 131.5,-56.5"/>
<text text-anchor="middle" x="183.5" y="-63.5" font-family="Helvetica,sans-Serif" font-size="10.00">src/visualization.cpp</text>
</a>
</g>
</g>
<!-- Node1&#45;&gt;Node4 -->
<g id="edge3" class="edge"><title>Node1&#45;&gt;Node4</title>
<path fill="none" stroke="midnightblue" d="M143.83,-105.253C153.765,-95.6731 166.088,-83.7906 174.339,-75.8339"/>
<polygon fill="midnightblue" stroke="midnightblue" points="141.266,-102.863 136.497,-112.324 146.125,-107.902 141.266,-102.863"/>
</g>
<!-- Node5 -->
<g id="node5" class="node"><title>Node5</title>
<g id="a_node5"><a xlink:href="solver_8h.html" target="_top" xlink:title=" ">
<polygon fill="white" stroke="black" points="30,-56.5 30,-75.5 113,-75.5 113,-56.5 30,-56.5"/>
<text text-anchor="middle" x="71.5" y="-63.5" font-family="Helvetica,sans-Serif" font-size="10.00">include/solver.h</text>
</a>
</g>
</g>
<!-- Node1&#45;&gt;Node5 -->
<g id="edge4" class="edge"><title>Node1&#45;&gt;Node5</title>
<path fill="none" stroke="midnightblue" d="M111.17,-105.253C101.235,-95.6731 88.9125,-83.7906 80.6611,-75.8339"/>
<polygon fill="midnightblue" stroke="midnightblue" points="108.875,-107.902 118.503,-112.324 113.734,-102.863 108.875,-107.902"/>
</g>
<!-- Node5&#45;&gt;Node2 -->
<g id="edge5" class="edge"><title>Node5&#45;&gt;Node2</title>
<path fill="none" stroke="midnightblue" d="M60.1999,-47.5656C54.1781,-38.2747 47.0314,-27.2484 42.172,-19.7511"/>
<polygon fill="midnightblue" stroke="midnightblue" points="57.3444,-49.5951 65.7205,-56.083 63.2185,-45.7878 57.3444,-49.5951"/>
</g>
<!-- Node5&#45;&gt;Node3 -->
<g id="edge6" class="edge"><title>Node5&#45;&gt;Node3</title>
<path fill="none" stroke="midnightblue" d="M103.655,-52.772C130.328,-42.6287 167.569,-28.4669 191.105,-19.5164"/>
<polygon fill="midnightblue" stroke="midnightblue" points="102.103,-49.6176 94.0003,-56.4435 104.591,-56.1604 102.103,-49.6176"/>
</g>
</g>
</svg>
